<svg xmlns="http://www.w3.org/2000/svg" width="2.59in" height="2.1in" viewBox="0 0 186.34 150.91">
  <title>nr-logo</title>
  <path d="M100.34,30.1a46.52,46.52,0,1,0,46.53,46.52A46.52,46.52,0,0,0,100.34,30.1Zm-7.17,73.66a28.3,28.3,0,1,1,28.3-28.3A28.3,28.3,0,0,1,93.17,103.76Z" style="fill: #d0d7d7"/>
  <path d="M173.48,58c-7.64-35.15-49.79-55.83-94.15-46.18s-74.11,46-66.47,81.11S62.65,148.74,107,139.1,181.12,93.14,173.48,58Zm-73.14,68.15a49.52,49.52,0,1,1,49.53-49.52A49.58,49.58,0,0,1,100.34,126.14Z" style="fill: #d0d7d7"/>
</svg>
