<svg xmlns="http://www.w3.org/2000/svg" width="175.76" height="53.83" viewBox="0 0 175.76 53.83">
  <title>logo__text</title>
  <g>
    <path d="M6.37,38.64c.29-1.6.57-3.21.88-4.81.86-4.47,1.82-8.92,2.57-13.4a67.39,67.39,0,0,1,1.47-6.65,5.27,5.27,0,0,1,.44-1.23,2.52,2.52,0,0,1,2.48-1.37,2.63,2.63,0,0,1,2.31,1.66,2.1,2.1,0,0,1,.18.57,49.19,49.19,0,0,1,.77,5.69,82.59,82.59,0,0,0,1.75,14,.89.89,0,0,0,.47.59c.19-.88.45-1.74.55-2.63.36-3.22.68-6.44,1-9.66.14-1.43.17-2.87.3-4.3.05-.63.2-1.26.31-1.89.14-.83.25-1.66.42-2.48a8.88,8.88,0,0,1,.53-2,2.67,2.67,0,0,1,2.86-1.54,2.76,2.76,0,0,1,2.29,2.16,7.29,7.29,0,0,1-.16,3.44c-.57,2.87-.62,5.79-.93,8.69a80,80,0,0,1-1.5,10.67,37.6,37.6,0,0,0-.83,6.89,85.26,85.26,0,0,1-1,9.54,6,6,0,0,1-.33,1.27,2.74,2.74,0,0,1-4.83.64,7.9,7.9,0,0,1-1-2.17A78.9,78.9,0,0,1,15,39.51c-.5-2.66-1-5.32-1.76-8a5.33,5.33,0,0,0-.26.78C12.3,36.11,11.62,40,10.6,43.75,10,45.87,9.46,48,8.83,50.09a8.33,8.33,0,0,1-1,2.16,3,3,0,0,1-3,1.47,3,3,0,0,1-2.65-2.14,15.21,15.21,0,0,1-.6-2.92c-.25-2-.43-4-.64-6.07,0-.24-.08-.47-.09-.71C.73,37.93.54,34,.41,30c-.05-1.64,0-3.28.1-4.92a28.43,28.43,0,0,0-.43-5.73A10.34,10.34,0,0,1,0,17.24c.08-1.55.21-3.11.33-4.66a3.94,3.94,0,0,1,.19-.94,1.25,1.25,0,0,1,2.15-.59,2.42,2.42,0,0,1,.69,1.21c.29,1.45.48,2.91.7,4.37.15,1,.31,2,.44,3,.18,1.34.41,2.68.51,4,.24,3.47.42,6.94.63,10.41.1,1.55.24,3.09.36,4.63Z"/>
    <path d="M140.81,17.72c-.1,1.47-.13,3-.3,4.42-.26,2.22-.61,4.43-.92,6.64a10.3,10.3,0,0,0-.11,1.07c-.09,2.8-.16,5.59-.27,8.39-.1,2.48-.26,4.95-.39,7.42,0,.84,0,1.68-.09,2.52a6.79,6.79,0,0,1-.25,1.53,2.16,2.16,0,0,1-4.17,0,4.38,4.38,0,0,1-.22-1.29c0-5.32,0-10.64.08-16,0-2.08.22-4.15.37-6.22a12.7,12.7,0,0,1,.28-2,31.15,31.15,0,0,0,.52-6.44c.1-4,.25-7.91.41-11.86a4.05,4.05,0,0,1,.89-2.44,2.28,2.28,0,0,1,4,.45A5.83,5.83,0,0,0,142,5.78a7.86,7.86,0,0,1,2.2,4.57,29.51,29.51,0,0,0,1.41,5.31,13.73,13.73,0,0,1,.75,3,37.45,37.45,0,0,0,2,6.92,13.94,13.94,0,0,0,.05-3.71c-.06-1.08-.17-2.15-.2-3.23-.08-3.32-.11-6.63-.21-9.95,0-1.44-.21-2.87-.29-4.3a8.41,8.41,0,0,1,0-1.67A2.63,2.63,0,0,1,150.09.37a2.57,2.57,0,0,1,2.58,1.92,7.72,7.72,0,0,1,.3,1.76c.15,2.19.3,4.38.39,6.58.17,4,.34,8,.44,12,.07,2.88,0,5.76.06,8.64.12,3.07.35,6.14.64,9.2a80.5,80.5,0,0,1,.29,10.3,4.16,4.16,0,0,1-.19,1.06,2.58,2.58,0,0,1-2.06,2,2.54,2.54,0,0,1-2.71-1.13,3.86,3.86,0,0,1-.52-.94c-.63-1.85-1.28-3.69-1.83-5.57-.72-2.45-1.44-4.9-2-7.4-.85-3.9-1.55-7.83-2.31-11.75a10.57,10.57,0,0,0-.33-1.64,41.93,41.93,0,0,1-1.57-6.63c-.07-.34-.19-.68-.28-1Z"/>
    <path d="M99.06,52a1.39,1.39,0,0,0-.21.16,1.46,1.46,0,0,1-2.6-.46,3.77,3.77,0,0,1-.32-1.19c-.18-2.79-.35-5.58-.48-8.37-.17-3.47-.3-6.95-.43-10.42-.1-2.62-.15-5.25-.25-7.87,0-.64-.19-1.28-.26-1.92a19.36,19.36,0,0,1-.18-2.24c0-2,.08-4,.13-6,0-1.6.06-3.2.16-4.79A4.76,4.76,0,0,1,95.06,7a2.38,2.38,0,0,1,2-1.29c1.66-.15,3.33-.22,5-.4a4.38,4.38,0,0,1,4.71,2.33,12.12,12.12,0,0,1,1.74,5.27,7.6,7.6,0,0,0,.25,1.82,16.83,16.83,0,0,1,.48,4.16c.09,2.21.3,4.42.39,6.63.07,1.53,0,3.07,0,4.6.09,2,.27,4,.41,6,.07.92.15,1.84.22,2.75.11,1.29.19,2.58.33,3.87a8.62,8.62,0,0,1-1.88,5.8,12.49,12.49,0,0,1-2.57,2.68,4.75,4.75,0,0,1-3.74,1C101.36,52.15,100.24,52.07,99.06,52Zm1-4.16c.72,0,1.4,0,2.06,0a1.68,1.68,0,0,0,1.37-.47,5.76,5.76,0,0,0,2-5.23c-.31-2.47-.52-5-.66-7.43-.21-3.71-.33-7.42-.49-11.13-.07-1.67-.07-3.34-.22-5-.16-1.83-.5-3.64-.68-5.47a12.58,12.58,0,0,0-.84-3,1,1,0,0,0-1.24-.72l-1,.09c0,.78,0,1.52,0,2.26-.09,2.25-.2,4.49-.3,6.74a11.67,11.67,0,0,0,.3,3.66,5,5,0,0,1,.14,1.32c0,6.75.17,13.5-.36,20.24C100.07,45,100.08,46.39,100,47.79Z"/>
    <path d="M129.57,14.94c-.16,2.16-.35,4.38-.5,6.61-.24,3.78-.5,7.57-.68,11.36-.14,2.91-.07,5.84-.26,8.74-.17,2.46-.53,4.92-.92,7.36a4.09,4.09,0,0,1-4.71,3.23c-.9-.15-1.8-.33-2.7-.5A5.49,5.49,0,0,1,115.3,47a31.44,31.44,0,0,1,0-7.64c.13-1.43.17-2.87.3-4.3.11-1.23.26-2.46.46-3.68a79.72,79.72,0,0,0,.72-9.43c.05-1.11.13-2.23.25-3.34.34-3.06.49-6.12.52-9.2,0-1.51.25-3,.41-4.52a3.13,3.13,0,0,1,.82-2.18A5.76,5.76,0,0,1,122.18.87a4.93,4.93,0,0,1,4.31,1.57,11,11,0,0,1,2.87,6.93C129.51,11.19,129.5,13,129.57,14.94Zm-6.92,32.35a37.44,37.44,0,0,0,.84-8.06c0-4.8.09-9.59.51-14.37.14-1.67.21-3.35.34-5a52.52,52.52,0,0,0,.1-10.64,6.23,6.23,0,0,0-.94-2.69c-.24-.36-.52-.74-1.07-.55l-1.67.53c0,.69,0,1.33,0,2-.06,3.23-.15,6.47-.19,9.7,0,2.6,0,5.2-.05,7.79,0,1.84,0,3.68-.11,5.51s-.25,3.9-.38,5.86c-.06.92-.15,1.83-.17,2.75a35.66,35.66,0,0,0,0,4.79c.24,2.12.09,2.11,2.22,2.37Z"/>
    <path d="M163.51,29.75l1.43,18.86c.53,0,1,0,1.46,0l2.75.12a5.77,5.77,0,0,1,3.5,1.67,1.46,1.46,0,0,1-.47,2.64,7.47,7.47,0,0,1-3,.5c-2.11-.15-4.23-.19-6.35-.26a2.47,2.47,0,0,1-2.61-2.42c0-.52,0-1-.05-1.56-.3-5-.53-10-.92-15-.32-4.14-.7-8.28-.6-12.44.08-3.44.23-6.87.37-10.3.07-1.75.17-3.51.28-5.26,0-.52.16-1,.23-1.54a2.42,2.42,0,0,1,1.73-2.34c.21-.06.37-.29.58-.41a9.12,9.12,0,0,1,1.56-.87A20,20,0,0,1,169,0a4.77,4.77,0,0,1,4.14,1.45C174,2.53,174,3,173,4a5.87,5.87,0,0,1-3.32,1.51c-1,.18-2,.35-2.94.55-1.13.23-2.25.49-3.45.75v19c2.86-.89,5.66-.38,8.45-.06a5.31,5.31,0,0,1,1.33.51c.51.21,1,.47,1.52.65.84.29,1.21.72,1.15,1.45s-.48,1-1.29,1.17a8.49,8.49,0,0,0-1.33.45,7.8,7.8,0,0,1-1.21.49c-2.75.52-5.47.67-8.06-.7A1.37,1.37,0,0,0,163.51,29.75Z"/>
    <path d="M39.2,15.57A80.06,80.06,0,0,0,39,29.82c1.28-.1,2.5-.16,3.71-.31,1-.12,2-.34,3-.5a5.3,5.3,0,0,1,3.69,1.13,1.34,1.34,0,0,1,.17,1.94,6,6,0,0,1-3.65,2.51,17.62,17.62,0,0,1-6.51.53c-.35,1.07-.25,9.08.15,11.6l3.85.47c.6.07,1.2.07,1.79.17A2.67,2.67,0,0,1,47.6,50a2.77,2.77,0,0,1-2.45,2.81,10.71,10.71,0,0,1-3.1-.1,23.48,23.48,0,0,0-4.53-.4h-.24A3.06,3.06,0,0,1,34,49c0-2.28,0-4.56,0-6.84q.06-6.36.13-12.71c0-2.36,0-4.72.09-7.08.09-2,.34-3.9.53-5.84.12-1.19.24-2.38.39-3.57a4,4,0,0,1,.31-1.27c.19-.38.48-.85.83-1a10.59,10.59,0,0,1,3.44-.83A23,23,0,0,0,44,9.58a7.17,7.17,0,0,1,2-.11,4.28,4.28,0,0,1,1.77.63,2.49,2.49,0,0,1,.22,4.09,4.81,4.81,0,0,1-1.92.9,17.13,17.13,0,0,1-6.42.48A3.84,3.84,0,0,0,39.2,15.57Z"/>
    <path d="M75.67,47c.43,0,.86,0,1.29.09a25.77,25.77,0,0,1,2.84.37,6.41,6.41,0,0,1,1.73.79c.58.33,1.1.77,1.65,1.13a1.39,1.39,0,0,1,.71,1.52,1.36,1.36,0,0,1-1.19,1c-.58.12-1.14.32-1.71.44a9.35,9.35,0,0,1-1.76.25c-1.32,0-2.64,0-4-.08a8.38,8.38,0,0,1-1.54-.19,4.09,4.09,0,0,1-3.5-4C70,44,69.62,39.72,69.77,35.4c.12-3.51.26-7,.44-10.53.21-3.83.45-7.65.75-11.47a17.12,17.12,0,0,1,.67-3,3.21,3.21,0,0,1,.55-1.05,1.79,1.79,0,0,1,1.89-.76,1.73,1.73,0,0,1,1.38,1.35,5.51,5.51,0,0,1,.15,1.42c-.07,3.67-.18,7.35-.24,11,0,3,0,5.91,0,8.87,0,2.79-.22,5.59-.2,8.38,0,2.27.24,4.55.38,6.82A3,3,0,0,0,75.67,47Z"/>
    <path d="M59.29,47.75c.88-.1,1.55-.22,2.22-.23a15.43,15.43,0,0,1,2.61.15,3.09,3.09,0,0,1,2,1.28,2.41,2.41,0,0,1-.9,3.73,3.06,3.06,0,0,1-1,.32q-3.16.27-6.33.48a4.08,4.08,0,0,1-1.07-.11,3,3,0,0,1-2.62-3.2c.05-1.76.21-3.51.33-5.27,0-.4.09-.8.1-1.19.1-3.56.15-7.11.31-10.67.13-3,.4-6.06.59-9.09.06-.88.1-1.76.11-2.63a65.62,65.62,0,0,1,1-9.52c.2-1.31.93-2,1.92-1.92s1.66.81,1.7,2.12c.07,2.12,0,4.24,0,6.35,0,1.36-.08,2.72-.15,4.07-.14,2.71-.31,5.42-.46,8.14,0,.56-.06,1.12-.07,1.68q-.12,7.07-.24,14.15C59.29,46.79,59.29,47.18,59.29,47.75Z"/>
  </g>
</svg>
