<svg version="1.1" xmlns="http://www.w3.org/2000/svg"
	 viewBox="0 0 42 54">
<title>logo__mark</title>
<path d="M32.3,5.5v0.8c-0.4,0.6-0.6,1.3-0.6,2v14.2c-0.7-0.4-1.4-0.7-2.1-1v-16c0.1-0.7,0.6-1.2,1.3-1.3C31.5,4.2,32.2,4.8,32.3,5.5 z M41.4,43.9L40.1,42c-1-1.4-1.5-3.1-1.5-4.8V25.5c0-0.1,0-0.1,0-0.1v-17c0-1.9-1.6-3.5-3.5-3.5c-0.3,0-0.6,0-0.8,0.1 c-0.3-1.7-1.7-3-3.4-3c-0.4,0-0.7,0.1-1,0.2c-0.6-1.2-1.8-2-3.2-2c-1.9,0-3.5,1.6-3.5,3.5v14.8c-0.8-0.4-1.6-0.8-2.5-1 c-6-1.7-12.1,1.8-13.8,7.8c-0.3,1-0.1,2,0.6,2.8l0.1,0.2l-0.2,0.2c-0.6,0.8-0.8,1.8-0.5,2.7c0.6,2.3,2,4.4,3.8,5.9l4.6,4.6 c1.4,1.4,3.2,2.5,5.1,3.2c1,0.3,1.9,1,2.5,1.8l4.1,6.2l1.7-1.2l-4.1-6.2c-0.8-1.2-2.1-2.2-3.5-2.6c-1.6-0.6-3.1-1.5-4.3-2.7 l-4.7-4.7L12,35.4c-1.5-1.2-2.6-2.9-3.2-4.8c0-0.1,0-0.2,0-0.3c0-0.6,0.5-1,1-1H10c0.5,0,0.9,0.3,1,0.8c0.3,1.2,1,2.3,1.9,3.1 c2.8,2.7,7.2,2.6,9.9-0.2c1.3-1.4,2-3.3,1.9-5.2c-0.2-3.8-3.5-6.7-7.3-6.6c-3,0.1-5.6,2.1-6.4,5c-0.1,0.5-0.5,0.8-1,0.8 c-0.3,0-0.7-0.1-0.9-0.4S8.8,26,8.9,25.7c0.4-1.3,1-2.5,1.8-3.5c3.3-3.8,9-4.3,12.8-1c0.2,0.2,0.4,0.2,0.7,0.2c0.6,0,1-0.5,1.1-1 V3.7c0-0.8,0.6-1.4,1.4-1.4c0.7,0,1.3,0.5,1.4,1.2c-0.4,0.6-0.7,1.3-0.7,2.1v15.6c-0.3,0.1-0.5,0.3-0.6,0.6 c-0.2,0.6,0.1,1.2,0.7,1.3c2.1,0.6,4,1.7,5.5,3.2c0.2,0.2,0.5,0.3,0.8,0.3l0,0c0.3,0,0.5-0.1,0.7-0.3c0.4-0.4,0.4-1.1,0-1.5 c-0.2-0.2-0.5-0.4-0.7-0.6V8.4c0-0.2,0.1-0.4,0.2-0.6c0.1-0.1,0.2-0.2,0.2-0.3c0.2-0.2,0.5-0.3,0.8-0.3c0.8-0.1,1.4,0.5,1.5,1.3 v16.2v0.8v11.8c0,2.1,0.6,4.2,1.8,6l1.3,2c0.1,0,0.1,0.2,0,0.3L41.4,43.9z M12.3,28.2c0.3-0.4,0.6-0.8,0.7-1.3 c0.6-2,2.4-3.4,4.5-3.5c2.6-0.1,4.9,2,5.1,4.6c0,0.1,0,0.2,0,0.3c0,2.7-2.2,4.9-4.9,4.9c-2.2,0-4.1-1.5-4.7-3.6 C12.9,29.1,12.6,28.6,12.3,28.2z M32.8,43.9c0,0.6-0.5,1-1,1h-0.2c-4,0-5.5-2-6-3.7c-0.1-0.6,0.3-1.1,0.9-1.2 c0.5-0.1,0.9,0.2,1.1,0.6c0.3,1,1,2.3,4.2,2.2C32.4,42.8,32.8,43.3,32.8,43.9z M6,23L6,23l-4.8-0.1c-0.6,0-1-0.5-1-1.1s0.5-1,1.1-1 L6,20.9c0.6,0,1,0.5,1,1S6.6,23,6,23z M8,18.5l-0.8-4.7c0-0.6,0.5-1,1.1-1c0.4,0,0.8,0.3,0.9,0.6l0.8,4.7c0.1,0.6-0.3,1.1-0.9,1.2 H8.9C8.5,19.4,8,19,8,18.5z M1.8,17.2c-0.5-0.3-0.6-1-0.2-1.5c0.3-0.5,1-0.6,1.5-0.2L6.3,18c0.5,0.3,0.6,1,0.2,1.5 c-0.2,0.3-0.5,0.4-0.8,0.4c-0.2,0-0.5-0.1-0.6-0.2L1.8,17.2z"/>
</svg>
