<svg xmlns="http://www.w3.org/2000/svg" width="182.56" height="69.06" viewBox="0 0 182.56 69.06">
  <title>logo__text</title>
  <g>
    <path d="M23.19,68.56H16L14.54,31.73,12.21,68.56H4.58L0,.71H7.83L9.36,32.14,12,.71h5.29l1.93,31.94L21.56.71h7.73Z" />
    <path d="M48.31.71V7.53h-5.8V31h5.8v6.82h-5.8v23.7h5.8v7H35V.71Z" />
    <path d="M61.33.71V61.54h5.8v7H53.8V.71Z"/>
    <path d="M77.8.71V61.54h5.8v7H70.28V.71Z"/>
    <path d="M106.89.71c5.49-.1,8,2.24,8,7.12V61c0,5-2.75,7.63-7.63,7.53h-9L98.25.71Zm-.61,60.72c1,.1,1.73-.92,1.73-2.34V10c0-1.93-.41-2.44-1.73-2.44h-.71l.1,53.91Z"/>
    <path d="M137.81,60c0,2.95-.41,4.58-1.32,5.8a8.87,8.87,0,0,1-7.22,3.25c-5.59,0-8.24-3.05-8.24-9.76v-48C121,3.56,123.77,0,129.57,0c5.39,0,8.24,3.25,8.24,9.46Zm-9.66-.1c0,1.63.41,2.24,1.42,2.24s1.32-.61,1.32-2.34V9.66c0-2-.3-2.54-1.32-2.54s-1.42.51-1.42,2.44Z"/>
    <path d="M151.74.71l4.78,39.16V.71h6.61L163,68.56h-8l-4.27-34,.1,34h-6.92V.71Z"/>
    <path d="M182.56.71V7.53h-5.8V31h5.8v6.82h-5.8v23.7h5.8v7H169.24V.71Z"/>
  </g>
</svg>
