<svg xmlns="http://www.w3.org/2000/svg" width="55.38" height="146.38" viewBox="0 0 55.38 146.38">
  <title>logo__text-3</title>
  <path d="M.41,18.6V12.8l29.52-1.14L.41,9.79V3.67L54.81,0V6.28L29.61,7.5l25.2,2.12v4.24L29.2,15.41l25.61,1.88v6.2Zm54.4,20.14H49.34V34.09H30.5v4.65H25V34.09H6v4.65H.41V28.05h54.4Zm0,10.44H6v4.65H.41V43.14h54.4Zm0,13.21H6V67H.41V56.35h54.4Zm0,23.32c.08,4.4-1.79,6.44-5.71,6.44H6.44c-4,0-6.12-2.2-6-6.12V78.86l54.4-.08ZM6.12,85.22C6,86,6.85,86.6,8,86.6H47.38c1.55,0,2-.33,2-1.39v-.57l-43.23.08ZM7.26,110.5c-2.36,0-3.67-.33-4.65-1.06A7.12,7.12,0,0,1,0,103.65C0,99.16,2.45,97,7.83,97h38.5c6.2,0,9.05,2.2,9.05,6.85,0,4.32-2.61,6.61-7.58,6.61Zm.08-7.75c-1.3,0-1.79.33-1.79,1.14S6,105,7.42,105H47.63c1.63,0,2-.24,2-1.06s-.41-1.14-2-1.14Zm47.47,18.92-31.4,3.83h31.4v5.3l-54.4-.08v-6.44l27.24-3.42-27.24.08v-5.55h54.4Zm0,24.71H49.34v-4.65H30.5v4.65H25v-4.65H6v4.65H.41V135.7h54.4Z"/>
</svg>
