<svg xmlns="http://www.w3.org/2000/svg" width="80.63" height="102.36" viewBox="0 0 80.63 102.36">
  <title>logo__mark-2</title>
  <g>
    <path d="M43.68,33.16a36.85,36.85,0,0,0,0-4,85.62,85.62,0,0,1-.32-15A27.8,27.8,0,0,1,45.87,3.87,6,6,0,0,1,50.73,0,4.35,4.35,0,0,1,54.4,1.11a7.69,7.69,0,0,1,1.5,1.54,1.75,1.75,0,0,0,2.23.79,8.61,8.61,0,0,1,2-.16,4.32,4.32,0,0,1,4,2.42c.3.57.52,1.17.86,1.71a1.25,1.25,0,0,0,.77.59c3,.23,5,2,6.47,4.39a18.19,18.19,0,0,1,2.62,9.49c0,4.24-.13,8.47-.19,12.71,0,2.36,0,4.72,0,7.08-.05,5.64-.18,11.27-.15,16.91,0,4.11.37,8.23.32,12.34a11.34,11.34,0,0,0,1.75,6.86c1.31,1.95,2.22,4.16,3.37,6.22a4.88,4.88,0,0,1-.08,5.22,34.5,34.5,0,0,1-5.78,8.06c-3.49,3.29-7.49,5.27-12.4,5.06-1.84-.08-3.7.1-5.51-.15a11.57,11.57,0,0,1-7.81-4.79,65.9,65.9,0,0,1-5.75-9,4.49,4.49,0,0,0-2.74-2.31c-1.75-.56-3.48-1.18-5.18-1.88a28.19,28.19,0,0,1-8-5.61c-2.07-1.88-4.17-3.73-6.27-5.58a21.27,21.27,0,0,1-4.29-5.58c-.65-1.14-1.42-2.21-2.17-3.29a7.86,7.86,0,0,1-1.33-4.05,27.75,27.75,0,0,1,0-4.31,17,17,0,0,1,.82-2.72,2.19,2.19,0,0,0,.11-1.32c-1.3-2.73-.83-5.27.64-7.77.46-.78.78-1.65,1.22-2.44A8.1,8.1,0,0,1,16.44,40c.78-.85,1.68-1.61,2.45-2.47a17.57,17.57,0,0,1,9.4-5.22,17.73,17.73,0,0,1,9.48,0,1,1,0,0,0,.46.1A8.58,8.58,0,0,1,43.68,33.16ZM69.63,24.9H70c-.12-1.63-.15-3.28-.37-4.89a12.44,12.44,0,0,0-.91-3.34,15,15,0,0,0-1.87-2.88.72.72,0,0,0-1.29.12,7.9,7.9,0,0,0-1,2.28c-.77,4.28-.44,8.61-.39,12.92s.29,8.63.41,12.94a2.74,2.74,0,0,1-.3,1.62c-.75,1-.41,1.61.39,2.29a2.45,2.45,0,0,1,.6,1,2,2,0,0,1-2.08,2.77,4.12,4.12,0,0,1-1.82-.8c-.81-.57-1.5-1.32-2.3-1.92-1.41-1.07-2.49-2.69-4.46-2.86a15.66,15.66,0,0,0-2.25,0,2.42,2.42,0,0,1-2.61-1.66A1.9,1.9,0,0,1,51.2,40a1.28,1.28,0,0,0,.91-1.46c-.09-3.4-.16-6.79-.26-10.19-.06-2.16-.09-4.32-.27-6.47A33.82,33.82,0,0,1,53.13,7.81c.5-1.46.41-1.77-.77-2.78-.88-.75-1.56-.67-2.14.36a10.84,10.84,0,0,0-1,2.41,31.05,31.05,0,0,0-1.44,9.32q.17,5.08.24,10.17c0,3,0,5.91,0,8.86a7.88,7.88,0,0,1-.43,2.35,2.11,2.11,0,0,1-3.61,1,10.67,10.67,0,0,0-6.38-2.42,36.57,36.57,0,0,0-5,0A15.27,15.27,0,0,0,22.46,41a14.76,14.76,0,0,0-4.41,5.59c-.73,1.9-.37,2.74,1.54,3.33,1.4.43,2,.14,2.52-1.18a7.44,7.44,0,0,1,1.28-2.53,20,20,0,0,1,4.25-3.28c4.48-2.39,8.88-1.65,13.12.81a8,8,0,0,1,4.16,5.86,15.38,15.38,0,0,1-.45,8.25c-.85,2.16-1.72,4.2-3.57,5.7s-4,2.68-6.59,2.24a25.54,25.54,0,0,1-4.17-1.08,10.05,10.05,0,0,1-3-1.58,45.37,45.37,0,0,1-3.81-3.78c-.88-.92-1.67-1.94-2.54-2.87-.48-.51-1.95-.78-2.33-.34a2.89,2.89,0,0,0-.56,1.7,13.34,13.34,0,0,0,.27,2.5c.46,2.88,2.27,5.07,3.8,7.4a8.65,8.65,0,0,0,1.52,1.68c2,1.74,4.05,3.38,6,5.18a25.48,25.48,0,0,0,11,6.51,10.42,10.42,0,0,1,6.3,4.81c1.57,2.46,3.34,4.78,5.08,7.13,1,1.41,2.27,2.69,3.27,4.12a1.35,1.35,0,0,0,1.44.71c1.55-.15,3.11-.22,4.66-.32A11.54,11.54,0,0,0,67,95.81c3.74-2.42,6.1-5.93,8.16-9.71a1.32,1.32,0,0,0,0-1.1q-2-3.52-4.2-7a5.44,5.44,0,0,1-1-2.88c-.05-4.87-.17-9.75-.22-14.62,0-3.59,0-7.19,0-10.78Q69.63,37.32,69.63,24.9ZM25,54.1c.62.72,1.22,1.51,1.92,2.21,2.15,2.15,4.5,4,7.68,4.26a1.32,1.32,0,0,1,.35.1,2.1,2.1,0,0,0,2.25-.34,27.84,27.84,0,0,0,3-2.76,4.07,4.07,0,0,0,1.09-2.29,29.14,29.14,0,0,0-.44-5.33,3,3,0,0,0-1.17-1.86c-2.71-1.65-5.65-2.49-8.79-1.4a7.08,7.08,0,0,0-4,3.38C26.14,51.33,25.62,52.66,25,54.1ZM59.82,41.52c-.07-.9-.17-1.56-.18-2.23-.11-7.11-.27-14.23-.25-21.34a13.13,13.13,0,0,1,1.1-5.1,4.6,4.6,0,0,0,.07-3.65c-.18-.51-.39-1.08-1-.94A4.14,4.14,0,0,0,58,9c-.22.16-.26.57-.36.87a25,25,0,0,0-1.26,8.49c.07,2.6.19,5.19.24,7.79.1,4.35.16,8.71.26,13.06a1.38,1.38,0,0,0,.45,1A25.78,25.78,0,0,0,59.82,41.52Z"/>
    <path d="M12.72,35.58a11.39,11.39,0,0,1-2.08-.87,21.51,21.51,0,0,1-6.18-6.24A6,6,0,0,1,3.83,27a1.52,1.52,0,0,1,.43-1.84,1.59,1.59,0,0,1,1.9-.06,8.28,8.28,0,0,1,1.2.78c2,1.66,4.1,3.3,6.07,5A5.87,5.87,0,0,1,15,33.17C15.47,34.5,14.62,35.55,12.72,35.58Z"/>
    <path d="M4.15,43.62a19.16,19.16,0,0,1-2.83-.41,2.15,2.15,0,0,1-1.19-1,1.36,1.36,0,0,1,.49-1.71,11,11,0,0,1,6.87-2.41,4,4,0,0,1,1.8.54,2.06,2.06,0,0,1,1.06,2.13,2,2,0,0,1-1.6,1.88C7.12,43,5.47,43.34,4.15,43.62Z"/>
    <path d="M22.12,27.76c0,1.74-.55,2.64-1.55,3a2.36,2.36,0,0,1-2.86-1.2c-1.18-2.28-2-4.63-.63-7.18.49-.88.75-.93,1.68-.5C21.5,23.1,21.78,25.63,22.12,27.76Z"/>
    <path d="M59.43,84.81c-3.1-.6-6.08-1.5-8.25-3.82a10.74,10.74,0,0,1-1.8-4c-.13-.38.31-1.15.71-1.44a1,1,0,0,1,1.41.5c1.3,3.13,4.3,3.65,7,4.66,1,.39,2.12.7,3.12,1.19a1.94,1.94,0,0,1,1,1.17c.13.67-.49,1-1.09,1.23S60.11,84.66,59.43,84.81Z"/>
  </g>
</svg>
