<svg xmlns="http://www.w3.org/2000/svg" width="79.78" height="103.31" viewBox="0 0 79.78 103.31">
  <title>logo__mark</title>
  <path d="M78.87,83.35l-2.45-3.58A15.53,15.53,0,0,1,73.69,71V16a7,7,0,0,0-7.13-6.88,7.38,7.38,0,0,0-1.28.12,7.09,7.09,0,0,0-7-5.55A7.3,7.3,0,0,0,56.43,4,7.12,7.12,0,0,0,42.92,7.13v27.3A21.81,21.81,0,0,0,11.91,48,6.4,6.4,0,0,0,13,53.71h0l-.09.11a6.38,6.38,0,0,0-1.13,5.55,22,22,0,0,0,7.43,11.44l8.79,8.81A25.92,25.92,0,0,0,38,85.8a8.51,8.51,0,0,1,4.4,3.26l7.86,11.71A5.77,5.77,0,0,0,55,103.31l.42,0c12-.88,19.81-5.72,23.89-14.79A5.32,5.32,0,0,0,78.87,83.35ZM60.42,10.64v1.91a6.65,6.65,0,0,0-1,3.48V42.34a23.16,23.16,0,0,0-3.27-1.59V10.64a2.14,2.14,0,0,1,4.26,0ZM74.75,86.45c-3.3,7.34-9.56,11.11-19.69,11.86a.78.78,0,0,1-.68-.33L46.52,86.28a13.46,13.46,0,0,0-6.94-5.21,20.86,20.86,0,0,1-8-5l-8.89-8.9L22.49,67a17,17,0,0,1-5.82-8.88,1.4,1.4,0,0,1,.25-1.23A1.38,1.38,0,0,1,18,56.33h.26a3.75,3.75,0,0,1,2.39,1A12.76,12.76,0,0,0,42.23,62.6,12.77,12.77,0,1,0,20.68,50.25a4,4,0,0,1-2.44,1A1.61,1.61,0,0,1,17,50.63a1.43,1.43,0,0,1-.26-1.28A16.81,16.81,0,0,1,43.8,41a2.5,2.5,0,0,0,4.12-1.91v-32a2.13,2.13,0,0,1,4.26,0,6.72,6.72,0,0,0-1,3.54v29.2a2.5,2.5,0,0,0,.43,4.73c4,.9,6.37,2.53,10.5,5.79a2.5,2.5,0,0,0,3.1-3.93l-.75-.58V16a2.15,2.15,0,0,1,4.26,0V71a20.52,20.52,0,0,0,3.6,11.63l2.45,3.57A.29.29,0,0,1,74.75,86.45ZM24.24,53.77a4.93,4.93,0,0,0,1.24-2.13,7.64,7.64,0,0,1,7.12-5.56,7.87,7.87,0,0,1,8.1,7.3,7.75,7.75,0,0,1-15.22,2.51A5,5,0,0,0,24.24,53.77ZM10.33,40.53l-7.58.76H2.5a2.5,2.5,0,0,1-.25-5l7-.7-4.8-4.8a2.5,2.5,0,0,1,3.54-3.54l4.44,4.44L13,25.58a2.5,2.5,0,1,1,5,.5l-.76,7.58a2.5,2.5,0,0,1-2.48,2.25h-.25a2.48,2.48,0,0,1-1.26-.5,2.51,2.51,0,0,1-.32.39,2.47,2.47,0,0,1-1,.59,2.49,2.49,0,0,1-1.59,4.16Z"/>
</svg>
