<svg xmlns="http://www.w3.org/2000/svg" width="22" height="24" viewBox="0 0 22 24">
  <title>trash</title>
  <path d="M16.11,23.14H5.84a.89.89,0,0,1-.89-.8L3.48,7.78A.89.89,0,0,1,5.26,7.6L6.65,21.36H15.3L16.7,7.6a.89.89,0,0,1,1.77.18L17,22.34A.89.89,0,0,1,16.11,23.14ZM20.88,3.89,18.28,2.7a.9.9,0,0,0-.37-.08H13.47A1.78,1.78,0,0,0,11.69.86H10.26A1.78,1.78,0,0,0,8.48,2.64H4.09a.89.89,0,0,0-.37.08L1.07,3.94a.89.89,0,0,0,.37,1.7.88.88,0,0,0,.37-.08L4.28,4.43l13.43,0,2.42,1.11a.89.89,0,1,0,.74-1.62ZM9.36,18.5a.89.89,0,0,0,.82-1L9.6,9.88A.89.89,0,0,0,7.83,10l.58,7.66a.89.89,0,0,0,.89.82Zm4-.82L14,10a.89.89,0,1,0-1.77-.13l-.58,7.66a.89.89,0,0,0,.82,1h.07A.89.89,0,0,0,13.38,17.68Z"/>
</svg>
