<?xml version="1.0" encoding="utf-8"?>
<!-- Generator: Adobe Illustrator 21.1.0, SVG Export Plug-In . SVG Version: 6.00 Build 0)  -->
<svg version="1.1" id="Layer_1" xmlns="http://www.w3.org/2000/svg" xmlns:xlink="http://www.w3.org/1999/xlink" x="0px" y="0px"
	 viewBox="0 0 77.8 38.9" style="enable-background:new 0 0 77.8 38.9;" xml:space="preserve">
<style type="text/css">
	.st0{fill:#D0D7D7;}
</style>
<title>wtc-logo</title>
<g>
	<path class="st0" d="M65.2,3.6l-0.4,0.5L65.2,3.6c-1.6-1.2-2.5-2-3.7-2c-1.2,0-1.8,0.4-3.1,1.4l-0.2,0.1c-3.1,2.3-8.9,7.8-11,12.9
		c-1.3-6.2-5.5-11.9-6-12.7l0,0c-0.8-1-1.4-1.8-2.3-1.8c-0.9,0-1.4,0.7-2.4,2.1l-0.1,0.1c-2,2.9-4.9,8.2-6,12.5
		c-2.1-5.4-8.2-11-11.2-13.5c-0.8-0.7-1.8-1.2-2.8-1.3l-0.1,0l0,0c-0.9,0.1-1.7,0.4-2.3,1c-3.6,2.8-6.9,6-9.7,9.6
		c-2,2.7-3.2,5.5-3.2,7.5C1,24.5,4.5,29.7,7.8,33c3,3,6.1,4.8,8.4,4.8c2.8,0,11.4-6.2,14-13.8c1.5,7.8,6.5,13.7,8.6,13.7
		c0,0,0,0,0.1,0c0.6,0,1.3-0.4,2.1-1.1c2.2-2.1,5.1-7.1,6.2-12.5c0.9,2.7,2.5,5.4,4.8,7.9c3.2,3.6,6.9,5.9,9.5,5.9
		c3.7,0,14.9-8.2,14.9-18.1C76.4,14.6,69.9,7.2,65.2,3.6z M43.2,11.3c-0.1-0.2,0.1-0.3,0.2-0.3c0.2,0,0.5-0.1,0.6,0.1
		s-0.3,0.2-0.3,0.4c0.3,0.2,0.4,0.4,0.7,0.6v0.1c-0.1-0.1-0.1,0-0.1,0c0.1,0.3,0.4,0.4,0.4,0.8V13c-0.3,0.1-0.5-0.1-0.7-0.3
		c-0.2-0.1-0.1-0.4-0.1-0.6C43.6,11.9,43.4,11.6,43.2,11.3z M42.1,15.5L41.7,15c0-0.1,0.1-0.1,0.2-0.1l0,0c0.2,0.2,0.3,0.4,0.5,0.7
		c0.5,0.3,0.3,0.9,0.9,1.2c0.1,0.3,0.4,0.6,0.4,1c-0.6-0.2-0.7-0.8-1.1-1.2C42.7,16.2,42.2,15.9,42.1,15.5z M37.2,13
		c-0.7-0.2-1.3,0.3-2,0.3v-0.2c0.3,0,0.6-0.1,0.8-0.4c0-0.1,0.1-0.2,0.2-0.2c0.2-0.4,0.7-0.4,0.8-0.8c0.5,0.1,0.9-0.6,1.1,0.3
		c0.2,0.2,0.7,0.2,0.6,0.6c-0.1,0.1-0.4,0-0.6,0.2c0.1,0.2,0.2,0.3,0.4,0.3c0.2,0,0.3-0.4,0.4-0.6c-0.1-0.2,0.2-0.2,0.3-0.3
		c-0.3-0.2-0.6-0.5-0.9-0.8l0.1-0.1c0.2,0.1,0.2,0.5,0.6,0.4c0.4,0.1,0.1,0.7,0.4,0.8c0,0.2-0.1,0.5,0.2,0.6s0.1-0.4,0.4-0.3
		c0-0.1,0.2,0,0.1-0.2c-0.1-0.1-0.4-0.2-0.2-0.4c0.5,0.1,0.3,1.1,0.9,0.8c0,0,0.2,0.1,0.2,0s0.2-0.1,0.3-0.1c0,0.2-0.1,0.4,0.2,0.4
		c0.1-0.1,0.1,0.1,0.2-0.1c0.1-0.2-0.2-0.2-0.1-0.3c0.1-0.1,0.3,0,0.3,0.1c0.1,0.3-0.1,0.5-0.2,0.8c-0.5,0-1,0.4-1.4,0
		c-0.4,0.1-0.7-0.5-1.1-0.2v0.4c-0.6,0.2-0.7-0.6-1.3-0.5c-0.1-0.1-0.4-0.1-0.2-0.3c0.2-0.2,0-0.4,0.2-0.5
		C37.7,12.8,37.4,12.8,37.2,13z M38.4,9.3c0.3-0.1,0.5-0.5,0.8-0.4c0-0.1,0-0.1-0.1-0.1H39c-0.2-0.3,0.5-0.5,0-0.7
		c0-0.2,0-0.5,0.3-0.5c-0.1,0.3-0.1,0.7,0.2,0.9h0.1c0.1,0.3-0.4,0.3-0.3,0.7c-0.1,0.1-0.1,0.2-0.2,0.3C38.8,9.2,38.7,9.5,38.4,9.3
		C38.4,9.3,38.4,9.3,38.4,9.3z M40.6,6.9c0.1,0.1,0.4,0.1,0.3,0.2c-0.1,0.1-0.2,0.2-0.3,0.1L40.6,6.9L40.6,6.9z M40.9,11.2
		c0.2,0.2,0.4,0.5,0.6,0.3c0.4,0.1,0.7,0.3,0.8,0.6c-0.5,0.2-1-0.4-1.5,0c-0.1,0-0.2,0-0.3,0c0,0,0,0,0,0c-0.2-0.1-0.2-0.3-0.1-0.5
		C40.6,11.5,40.6,11,40.9,11.2z M44.4,14.5c0.2,0,0.3,0.2,0.5,0.4c0.3,0.2,0.6,0.3,0.9,0.4c0,0,0,0.1,0,0.1
		c-0.1,0.1-0.2,0.2-0.2,0.3c-0.3,0-0.5-0.2-0.6-0.4C44.7,15,44.3,14.8,44.4,14.5z M14.7,3.5c0.4-0.4,1-0.6,1.6-0.7
		c0.4,0,0.7,0.1,1.1,0.3c-0.3,0-0.6,0-0.8,0c-0.1,0.1-0.2,0.1-0.3,0.1c-0.3,0.1-0.2,0.3-0.1,0.5c-0.1,0.3-0.2-0.1-0.4,0
		c-0.2,0.1,0.1,0.3-0.1,0.4l-0.2-0.3c-0.3-0.1-0.2,0.3-0.5,0.2c-0.1,0.1-0.4,0.1-0.4,0.4c0.2,0.1,0.3,0.2,0.4,0.3
		c0.2-0.1,0.3-0.2,0.6-0.2c0.3,0.2,0.7,0.1,0.9,0.4L16.3,5c-0.1,0-0.1-0.1-0.1-0.1c-0.3,0.2-0.4-0.3-0.6,0.1s0.2,0.6,0.2,0.7
		c0,0.1-0.2,0.3-0.3,0.2c-0.1-0.1-0.1-0.2-0.1-0.3c-0.2-0.3-0.5-0.5-0.7-0.8c-0.3-0.2-0.5,0.1-0.6,0.3c-0.2,0.3,0.2,0.3,0.3,0.4
		c-0.1,0.4-0.6,0-1,0.1c-0.4,0.3-0.7,0-1.1-0.1C13,4.8,13.8,4.1,14.7,3.5z M17.2,5.8l0.2,0.3c0,0.2-0.4,0.4-0.2,0.7
		c0.1,0,0.1,0.1,0.1,0.2C17.1,7,17,6.6,16.8,6.5C17.2,6.3,16.7,5.6,17.2,5.8z M16.9,7.4c0.1-0.1,0.2-0.3,0.4-0.3
		c0.2,0.5-0.2,1,0.3,1.4c-0.1,0.3,0,0.5,0,0.8c-0.2,0.1-0.2-0.2-0.3-0.3c0.1-0.1,0-0.4-0.1-0.4c-0.4,0.1-0.7-0.1-0.9-0.5
		c-0.4,0.1-0.1-0.4-0.4-0.4c0.1-0.1,0.1-0.3,0.1-0.4c0.2-0.1,0.3-0.4,0.6-0.4V7C16.6,7.2,16.7,7.3,16.9,7.4z M17.7,6.9l0.2,0.2
		C17.8,7.1,17.3,7.1,17.7,6.9z M17.3,10.8h0.1c0,0.1,0.1,0.3,0,0.3s-0.1-0.1-0.1-0.1V10.8z M16.9,10.4c-0.1,0.1-0.3,0-0.4-0.1
		l0.1-0.2c0,0,0,0,0.1,0C16.8,10.2,16.9,10.3,16.9,10.4z M16,5.2L16.2,5l0,0.1c-0.1,0.3,0.3,0.6,0.4,0.9C16.2,5.9,16.1,5.5,16,5.2z
		 M16.3,4.2H16l0.2-0.3c0,0,0.1,0,0.1,0C16.3,4,16.3,4.1,16.3,4.2z M15.5,4.2v0.1c-0.1,0-0.2,0-0.2-0.1H15.5z M15.6,6
		c-0.1,0-0.3,0.1-0.3,0s0.1-0.1,0.1-0.2l0,0.1C15.5,5.9,15.7,6,15.6,6z M14.7,6L14.7,6C14.7,6.1,14.7,6,14.7,6L14.7,6z M16.3,36.6
		c-1.9,0-4.8-1.7-7.5-4.4c-3.9-3.9-6.5-8.8-6.5-12.5c0-1,0.4-2.2,1-3.5c0,0.1,0.1,0.1,0.1,0.2c0,0,0,0,0,0c0.1-0.1,0.3-0.2,0.2-0.3
		c-0.1-0.1-0.1-0.2-0.2-0.1c0.5-0.9,1.1-1.9,1.8-2.9c1.3-1.6,2.6-3.1,4.1-4.6c0,0,0,0,0,0c0,0,0,0,0,0C9.4,8.1,9.5,8,9.6,7.9
		c0.1,0,0.1-0.1,0.2-0.1c0.4,0.1,1-0.4,1.2,0.3L11,8.8c0,0.1-0.3,0.4,0,0.5l0.2-0.2c0.1,0.1,0.3,0.1,0.1,0.3c-0.2,0.2-0.4,0.5,0,0.6
		c-0.1,1-1.1,1.8-0.5,2.8c0.1,0.2-0.1,0.4,0.2,0.6l0.2-0.2c0.3,0.3,0,0.7,0.4,0.9c0.1,0.2-0.1,0.3-0.1,0.4c0.6,0.2,0.3,0.8,0.8,1
		c0.1,0,0.1-0.1,0.2-0.1c-0.2-0.3-0.3-0.6-0.3-1c0.1,0,0.2,0.1,0.3,0.2c0.2,0.5,0.7,0.9,0.6,1.5c0.2,0.3,0.5,0.5,0.9,0.6
		c0.4,0.3,0.9,0.4,1.4,0.3c0.2,0.6,1,0.3,1.3,0.8c0.2,0.5,0.7,0.8,1.2,1.1c0.2,0,0.1-0.3,0.4-0.3s0.2,0.3,0.3,0.4
		c0.1,0.5-0.1,1-0.4,1.3c-0.4,0-0.2,0.4-0.3,0.6c0.5,0.4-0.6,0.5-0.1,0.9c0.5,0.4,0.6,1,0.9,1.5c-0.1,0.4,0.3,0.5,0.5,0.6
		c0.4,0.3,0.8,0.7,0.6,1.3c-0.1,0.6-0.3,1.1-0.6,1.7c0,0.5-0.2,1-0.5,1.4c-0.2,0.4-0.1,0.8-0.3,1.1c0.2,0.4-0.4,0.8-0.3,1.1
		c-0.2,0.4-0.3,1-0.1,1.4c0.3,0.2,0.6,0.6,0.9,0.1c0-0.2-0.3-0.3-0.3-0.4c0-0.1,0.1-0.2,0.1-0.3c0.1-0.4,0.5-0.7,0.6-0.8
		c0.1-0.2-0.1-0.3-0.1-0.5c0.5,0,0.4-0.6,0.8-0.7l-0.1-0.1c-0.1-0.3,0.3-0.1,0.3-0.2c0.2-0.5,0.8-0.2,1.1-0.6
		c0.3-0.2-0.1-0.5,0.2-0.7c0.7,0.3,0.9-0.6,1.5-0.9c0-0.4,0.5-0.2,0.5-0.6c-0.1-0.6,0.7-0.8,0.9-0.9c0.2-0.1,0.6,0.1,0.8-0.2
		c0.4-0.5,0.6-1,1-1.5c-0.3-0.7,0.6-0.9,0.9-1.3c0.2-0.3,0.2-0.6,0.1-0.9c-0.5,0.1-0.7-0.5-1.1-0.6c-0.7,0.2-1.1-0.7-1.9-0.5
		c-0.2-0.2,0.1-0.3,0.1-0.5c-0.3-0.8-1.1-0.9-1.7-1c-0.3-0.1-0.4-0.6-0.7-0.4c-0.2-0.3-0.3-0.6-0.7-0.5c-0.1,0.4-0.4,0.1-0.7,0.1
		s-0.4-0.4-0.7-0.2c-0.2-0.3-0.5,0-0.8,0.1s-0.2,0.4-0.4,0.5c-0.1,0-0.3-0.1-0.3-0.2c-0.3-0.5-0.2,0.3-0.8,0.1
		c-0.5-0.2-0.1-0.8-0.2-1.2c-0.2-0.4-0.7,0-1-0.3c0-0.3,0.3-0.7,0.3-1H16v0.3c-0.1,0.1-0.2,0.2-0.3,0.2c-0.2,0.1-0.5,0-0.7-0.2
		c-0.6-0.5-0.1-1.2-0.1-1.7c0.1-0.1,0.3-0.1,0.3-0.3c0.4-0.5,0.8,0.1,1.2,0V14c0.3-0.1,0.7,0,1,0.1c0.1,0.4,0.2,0.7,0.5,0.9
		c0.2,0,0.1-0.3,0.1-0.5c0.1-0.4-0.4-0.3-0.3-0.6c-0.2-0.5,0.5-0.8,0.9-1.2c0-0.2-0.1-0.3-0.1-0.5c0.1-0.4,0.4-0.7,0.7-0.9l-0.1-0.3
		c0.1-0.2,0.2-0.3,0.4-0.3c0.4,0.8,0.5-0.4,1-0.3c0-0.1-0.1-0.1-0.1-0.2c-0.2,0.1-0.2,0-0.5,0s-0.3-0.4-0.3-0.5c0.1-0.1,0.2,0,0.3,0
		V9.9c0.1-0.1,0.3-0.3,0.5-0.1c0,0.2,0,0.3,0.1,0.5c0.5,0,0.4,0.5,0.9,0.3c0-0.2-0.1-0.4-0.3-0.6c-0.2,0-0.4,0-0.5-0.2
		c0.1-0.3-0.2-0.4-0.2-0.6c-0.6-0.3-1.1-0.8-1.5-1.4c-0.3-0.1-0.1,0.3-0.3,0.3c-0.1,0-0.2,0-0.3-0.1c0.3-0.4-0.4-0.1-0.3-0.5
		c0-0.4,0.4,0.1,0.5-0.1c0.4-0.3-0.3-0.5,0.2-0.7c0-0.3-0.4-0.3-0.5-0.5c-0.4,0-0.2-0.5-0.5-0.5s-0.3-0.4-0.6-0.4
		c0-0.4-0.6-0.1-0.6-0.4c0.6,0,0-0.6,0.2-0.7c0.2-0.1-0.2-0.4,0.1-0.5c0.1,0,0.2,0,0.3,0.1c-0.3,0.2,0.1,0.5,0.1,0.7
		c0.7,0,1,0.8,1.4,1.1c-0.1,0.4,0.7,0.2,0.3,0.7c0.4,0.3,0.8,1.1,1.1,1.2c0.3,0.1,0.5,0.5,0.9,0.3V7.6c-0.2-0.3-0.1-0.6-0.4-0.9
		c-0.1-0.1,0.1-0.2,0.2-0.3c-0.1-0.2,0-0.3,0.1-0.4c3.6,3.4,8.9,9.1,8.9,13.6C29.8,28.6,18.8,36.6,16.3,36.6z M40.1,35.7
		c-0.6,0.6-1.1,0.8-1.3,0.8c-1.3,0-7.8-7.1-7.8-16.9c0-3.3,2.3-8.4,4.4-12.2c0,0.1,0,0.2,0,0.3c0.2-0.3,0.8-0.2,0.9-0.7l0,0
		c-0.1-0.1-0.1-0.3-0.3-0.3c-0.1,0.1-0.3,0.3-0.4,0.5c0.6-1,1.1-1.8,1.6-2.6l0.1-0.1c0.6-0.9,1.2-1.6,1.4-1.6c0.3,0,0.7,0.6,1.1,1.1
		c-0.1,0-0.1,0-0.2,0.1c0,0.1,0.1,0.1,0.1,0.2c0.1,0,0.1-0.1,0.2-0.1c0,0,0,0.1,0.1,0.1c0.3,0.4,0.6,0.8,0.9,1.3c0,0.1,0,0.2,0,0.3
		c0.1,0,0.2,0.1,0.3,0.2c0.1,0.2,0.2,0.3,0.3,0.5c-0.2,0-0.5-0.1-0.5,0.3c-0.1-0.1,0-0.2-0.2-0.3c-0.2-0.1-0.1,0.1-0.2,0.2
		c-0.3-0.4-0.9-0.2-1.1-0.7c-0.5-0.2-0.8,0.3-1.1,0.5c0.1,0.2-0.2,0.3-0.3,0.5c-0.2,0.4-0.5,0.7-0.9,0.9c-0.1,0.2-0.1,0.5,0,0.8
		c0.2,0.3,0.3-0.1,0.5-0.1c0.1,0.3-0.3,0.2-0.4,0.5c0.3,0.6-0.5,0.4-0.6,0.8c-0.1,0.2-0.2,0.3-0.4,0.4c0,0-0.1-0.1-0.1-0.2
		C37,9.6,36.5,9,36.8,8.7c-0.1-0.1-0.2-0.2-0.3-0.2c-0.1,0.3-0.7,0.3-0.4,0.6c-0.3,0.1-0.6,0.3-0.8,0.6c-0.1,0.7,0.5,0,0.7,0.1
		c0.1,0.3-0.3,0.3-0.3,0.5c0,0,0.1,0,0.1,0c0.2,0,0.3,0,0.4-0.2c0.1,0,0.3-0.1,0.4,0.1c-0.1,0.2-0.4,0.3-0.6,0.4
		c-0.6,0.3,0.4,0.3,0.1,0.8c-0.2,0.7-0.9,0.1-1.3,0.3c0.1,0.5-0.7,0.8-0.3,1.4c0.1,0,0.3,0,0.4,0.1c0.1,0.1-0.1,0.1-0.1,0.2
		c-0.5,0.3-0.9,0.7-1.2,1.2c-0.7,0.2-1,1-1.5,1.5c0.1,0.8-0.4,1.3-0.4,2c-0.1,0.4,0.4,0.5,0.6,0.7c0.1,0.5,0.7,0.9,1.2,1.1
		c0.6-0.6,1.3,0.5,1.8-0.3c0.3-0.1,0.5-0.1,0.8,0c0,0.4,0.6,0.3,0.7,0.5c0.5,0,0,0.3,0.1,0.5c-0.4,0.5,0.3,0.8,0.3,1.2
		c0.7,0.3,0.3,0.9,0.6,1.5c-1,0.9,0.2,1.8,0.2,2.7c0.1,0.7,0.8,1.2,0.7,1.8c0.1,0.1,0.3,0.3,0.5,0.2c0.9,0,1.8-0.5,2.1-1.3
		c0-0.4,0.3-0.7,0.6-0.8c0.3-0.2,0-0.6,0-0.9c0.3-0.3,0.7-0.6,1.1-0.9c0.2-0.4,0.3-0.9,0.2-1.4c-0.3-0.2,0.1-0.5-0.2-0.7
		c0.1-0.1,0.1-0.1,0.2-0.1c0-0.1,0-0.3,0-0.4c0.5-0.6,1-1.1,1.6-1.5c0.3-0.5,0.7-1.1,0.6-1.7c-0.4,0.2-0.9,0.2-1.4,0.4
		c-0.2-0.1-0.3-0.2-0.3-0.4c0.1-0.1,0.2-0.1,0.3-0.1c0.5-0.3,1.2-0.4,1.6-0.9c0.2,0.1,0.3,0,0.5-0.1c0.1,0.9,0.2,1.7,0.2,2.6
		C46.4,26.1,42.7,33.2,40.1,35.7z M61.5,36.6c-4.7,0-13.8-9.1-13.8-16.9c0-0.9,0.2-1.8,0.6-2.7c0.3,0,0.6-0.1,0.8-0.1l0.1,0.2
		c0,0.3,0.2,0.4,0.1,0.6c0.1,0.1,0.3,0.4,0.5,0.2c0.2,0.2-0.1,0.3-0.1,0.5c0,0.7,0.2,1.5,0.5,2.2c0.2,0,0.2-0.3,0.4-0.3
		c-0.1-0.4,0.3-0.4,0.4-0.6c-0.2-0.5,0.4-0.7,0.6-0.9c0.4-0.1,0.6-0.7,1.1-0.7c0.1-0.4,0.6-0.3,0.9-0.4c0.1,0.1,0.2,0.2,0.1,0.3
		c0.4,0.3,0.2,0.8,0.2,1.2c0.3,0.1,0.4-0.3,0.6-0.2c0.2,0.6,0,1.1,0,1.7c0.3,0.5,0.6,1,0.9,1.4c-0.1,0.1-0.2,0.2-0.3,0.1
		c-0.2-0.3-0.5-0.7-0.8-0.9c-0.2,0-0.5-0.4-0.5,0c0.7,0.7,1.1,1.6,1.9,2.3c0.4,0,0.3-0.4,0.4-0.6c0.1-0.1,0.3,0,0.3,0
		c0.1,0,0.1-0.1,0.1-0.2c-0.2,0.1-0.4,0-0.5-0.2c-0.1,0-0.2,0-0.2,0c-0.1-0.1-0.3-0.2-0.1-0.4h-0.1c0.1-0.2-0.3-0.2-0.2-0.3
		c0.1,0,0.2,0,0.3-0.1c-0.3-0.3,0-0.6-0.3-0.9c-0.6-0.1-0.4-0.7-0.6-0.9s0.2-0.3,0.3-0.4c0.4,0,0.6,0.4,0.7,0.5
		c0.1,0.2-0.1,0.4,0.1,0.4c0.2-0.5,0.7-0.3,0.9-0.7c0.5-0.8-0.7-1.1-0.5-1.8c0.1-0.1,0.2-0.1,0.3-0.2c0.1-0.1,0.4-0.1,0.5,0
		c0,0.2-0.1,0.3-0.3,0.4c0,0.1,0,0.2,0.1,0.3c0.2,0,0.3-0.1,0.4-0.3c0.1-0.2-0.2-0.4,0.1-0.5c0.3,0,0.7-0.1,1-0.2
		c0.6-0.5,1.3-1.2,1.2-2c-0.2-0.2-0.1-0.5-0.4-0.6c0.2-0.2,0.5-0.2,0.6-0.5l-0.1-0.1c-0.1,0.1-0.3-0.1-0.4,0.1c-0.1,0-0.2,0-0.2-0.1
		c0-0.1-0.1-0.1,0-0.2c0-0.1,0.1-0.2,0.3-0.2c0.2-0.1,0.3,0.1,0.3,0.2l0.1-0.1c0.1,0,0.1-0.1,0.2,0c0.1,0,0.2,0.2,0.2,0.3
		c0.4,0.2,0,0.6,0.2,0.9c0.2-0.1,0.3-0.2,0.5-0.3c0.2-0.3-0.1-0.6-0.2-0.9c0.3-0.2,0.4-0.8,0.8-0.6c0.4-0.3,0.6-0.7,0.8-1.1
		c0.1-0.1,0-0.4,0.2-0.4c0.2,0.2,0.1,0.6,0.3,0.8c-0.1,0.2,0.1,0.6-0.3,0.6c-0.1,0.1,0,0.3,0.1,0.4c-0.1,0.3,0,0.7-0.4,0.8
		c-0.2,0.5-0.9,0.3-1.2,0.8c0,0.2,0.2,0.4,0.3,0.5c0.1-0.1,0.1-0.2,0.2-0.3c0.2-0.1,0.4-0.4,0.6-0.3c0.1-0.3,0.4-0.1,0.6-0.3
		c0.2-0.1,0.2-0.5,0.2-0.7c0.3-0.3-0.1-0.6,0-0.8c0.2,0.1,0.4-0.1,0.5-0.2c0-0.4-0.4-0.2-0.6-0.5c0-0.1,0.2-0.2,0.2-0.3
		c-0.3-0.3-0.1-0.4,0-0.6c-0.3-0.2-0.3-0.6-0.3-0.9c-0.2-0.1-0.2,0.2-0.3,0.1c-0.1-0.1-0.5,0-0.5-0.3s0.4-0.5,0.6-0.8
		c0.3,0,0.5,0.2,0.8,0c0.3,0.5,0.5-0.4,0.8-0.4c0.1,0.1,0.2,0.2,0.2,0.4c-0.6,0.5,0.1,1.1,0.3,1.7c0,0-0.1,0.1-0.1,0.1v0.2
		c0.3-0.2,0.4-0.5,0.4-0.9c0.2-0.1,0-0.4,0.2-0.6c-0.4-0.2-0.1-0.5-0.2-0.8c0.1-0.1,0.3-0.2,0.4,0c0.1,0,0.2,0,0.2-0.1
		c0-0.3,0.3-0.4,0.5-0.5c0.1-0.4-0.6-0.1-0.4-0.4c0.2-0.3,0.4,0.1,0.7,0.1c0.1-0.8-0.9-0.6-1.3-1.1c-0.2,0.1-0.4,0.1-0.5-0.1
		c-0.3-0.1-0.5,0-0.7,0.1c-0.1-0.1,0.1,0-0.1-0.2c-0.2-0.1-0.4-0.3-0.7-0.2C62.5,7.2,62.3,7,62.2,7C62.1,6.9,62,7,61.9,7
		s0.1-0.2-0.1-0.2v0.1c-0.1,0.3-0.3,0.3-0.6,0.3C61.1,7.1,61,7,61,6.9c-0.2-0.3-0.5,0-0.7-0.1C59.7,6.8,60.7,6,59.9,6
		C59.7,5.8,60,5.6,60,5.4l0,0.1c-0.2,0-0.2-0.2-0.4-0.1c-0.4,0.2,0,0.4,0.1,0.6c0,0.1,0,0.2-0.1,0.3C59,6.4,58.5,6.7,58,6.9
		C57.8,7.2,57.5,7,57.2,7c-0.3,0.2-0.6,0.5-0.9,0.8c0-0.1-0.1-0.2-0.1-0.3c0.5-0.5,1.1-1.1,1.8-1.3c-0.1-0.1,0.1-0.3-0.1-0.4
		c-0.7,0.3-1.4,0.7-2,1.3c-0.7,0.6-1.5,1.2-2.3,1.8C55.4,7,57.3,5.3,59,4.1L59.1,4c1.3-0.9,1.6-1.1,2.3-1.1c0,0,0,0,0,0
		c0.8,0,1.6,0.6,2.9,1.7l0.1,0C68.8,8,75.2,15.1,75.2,19.7C75.2,28.8,64.8,36.6,61.5,36.6z"/>
	<path class="st0" d="M39.4,4.1c-0.2-0.2-0.4,0-0.5,0.1c0,0.2,0,0.4,0.2,0.5C39.6,4.7,39.2,4.3,39.4,4.1z"/>
	<path class="st0" d="M39.4,4C39.4,4.1,39.4,4.1,39.4,4C39.4,4.1,39.4,4.1,39.4,4L39.4,4z"/>
	<path class="st0" d="M44.3,24c-0.9,0.1-0.1,1-0.8,1.3c0.1,0.3-0.1,0.7,0.2,0.9c0.7,0.1,0.7-0.9,1.1-1.3c0.1-0.4,0.3-0.8,0.4-1.2
		l0,0C45.1,22.8,44.6,24,44.3,24z"/>
	<path class="st0" d="M60,16.8C60,16.8,60,16.8,60,16.8C60,16.8,60.1,16.8,60,16.8L60,16.8z"/>
	<path class="st0" d="M66.3,21.4C66.3,21.4,66.3,21.4,66.3,21.4C66.3,21.4,66.3,21.4,66.3,21.4L66.3,21.4z"/>
	<path class="st0" d="M65.9,21.7c0.1-0.1,0.1-0.3,0.3-0.3c-0.1-0.2-0.3-0.3-0.6-0.4c0.1,0.1,0.4,0.4,0.4,0.4s-0.1,0-0.2,0
		c-0.1,0.3-0.5,0.1-0.7,0.2c0,0.2,0.3,0.2,0.4,0.2c0.2,0,0.2,0.3,0.3,0.2C66,21.9,65.8,21.8,65.9,21.7z"/>
	<path class="st0" d="M67.8,22.4c-0.1-0.2-0.3,0-0.3,0.1c0.1,0.1,0.1,0.3,0.2,0.2C67.8,22.6,67.8,22.5,67.8,22.4z"/>
	<path class="st0" d="M62.1,6.3c-0.1,0-0.1,0.1-0.2,0.1c0.1,0.1,0.3,0.2,0.3,0.1C62.2,6.5,62.2,6.4,62.1,6.3z"/>
	<path class="st0" d="M61.4,6.5c0.2,0.2,0.3-0.2,0.4-0.1c0,0,0,0,0,0C61.8,6.2,61.3,6.1,61.4,6.5z"/>
	<path class="st0" d="M61.9,6.5L61.9,6.5C61.9,6.4,61.9,6.4,61.9,6.5C61.9,6.4,61.9,6.4,61.9,6.5C61.9,6.4,61.9,6.5,61.9,6.5z"/>
	<path class="st0" d="M64.3,7.3c0,0,0.1,0.1,0.1,0.1s0-0.1,0-0.1l0,0C64.4,7.2,64.3,7.3,64.3,7.3z"/>
	<path class="st0" d="M66.3,8.4c0.3,0.3,0.7,0.2,0.9,0.4c-0.2,0.4,0.3,0.5,0.3,0.8c0.3,0,0.5,0.2,0.7,0.1c0.1-0.3-0.3-0.4-0.4-0.6v0
		c-0.7-0.7-1.3-1.6-2.2-1.8c-0.1,0.5,0.4,0.6,0.7,0.9L66.3,8.4z"/>
	<path class="st0" d="M66.4,8.9C66.5,8.9,66.6,9,66.6,9C66.7,8.8,66.4,8.7,66.4,8.9z"/>
	<path class="st0" d="M68.8,10.8c0.1-0.1,0.5,0.1,0.5-0.2c-0.1-0.1-0.2-0.2-0.3-0.2C68.8,10.4,68.9,10.6,68.8,10.8z"/>
	<path class="st0" d="M63.7,12.6C63.8,12.6,63.8,12.6,63.7,12.6C63.8,12.7,63.8,12.7,63.7,12.6L63.7,12.6z"/>
	<path class="st0" d="M63.7,12.9c0-0.1,0.1-0.1,0-0.2c0,0,0,0,0,0C63.7,12.7,63.6,12.8,63.7,12.9C63.7,12.9,63.7,12.9,63.7,12.9z"/>
	<path class="st0" d="M59.5,17.1c0,0.2,0.2,0.4,0.1,0.7c0.1,0.1,0.1,0.1,0.3,0.1v-0.1c0.1,0,0-0.1,0.1-0.1c0.1,0,0.1,0.3,0.2,0.3
		s0.2-0.1,0.3,0s-0.1,0.1-0.1,0.2C60.1,18.2,60,18,60,18s-0.2-0.1-0.2,0c0.3,0.2,0.1,0.4,0.3,0.6c-0.3,0.3,0.3,0.4,0.3,0.7
		c0.3,0.1,0.3-0.3,0.5-0.4c-0.1-0.3-0.2-0.5-0.4-0.7l0.2-0.2c-0.1-0.1,0-0.2-0.1-0.2c-0.4,0.1-0.3-0.5-0.7-0.5
		c0-0.2,0.2-0.3,0.2-0.5c0-0.2-0.3-0.2-0.4-0.2v0.2c0,0,0,0-0.1,0.1c0,0,0,0,0,0c-0.1-0.1-0.3,0-0.3,0.2s-0.3,0.4,0,0.6
		C59.4,17.4,59.4,17.3,59.5,17.1z"/>
	<path class="st0" d="M58.9,20c-0.2,0.1-0.5,0.3-0.5,0.6h0.1C58.7,20.3,58.8,20.1,58.9,20z"/>
	<path class="st0" d="M51.1,20.5c-0.1-0.1-0.1-0.3-0.3-0.3c-0.1,0.2-0.3,0.3-0.2,0.6c0.1,0.1,0.1,0.3,0.3,0.2
		C51.2,20.9,51.1,20.6,51.1,20.5z"/>
	<polygon class="st0" points="51.1,20.5 51.1,20.5 51.1,20.5 	"/>
	<path class="st0" d="M58.8,21.1C58.8,21.1,58.8,21.1,58.8,21.1C58.8,21.1,58.8,21.1,58.8,21.1L58.8,21.1z"/>
	<path class="st0" d="M58.5,22.3c0-0.3,0.3-0.6,0.1-0.9c0-0.2,0.3-0.1,0.2-0.3c-0.2,0-0.2-0.4-0.5-0.3c-0.3,0.5-0.9,0.6-1.2,1
		c-0.1-0.1-0.4-0.2-0.4,0.1c-0.1,0.3,0.1,0.4,0.2,0.6c0.1,0.6,0.8,0.3,1.1,0.6C58.3,22.9,58.1,22.5,58.5,22.3z"/>
	<path class="st0" d="M60.7,21.7L60.7,21.7c-0.2,0-0.1,0-0.3,0.3c-0.2,0.2,0.1,0.4,0.1,0.6C60.6,22.3,60.7,22,60.7,21.7z"/>
	<path class="st0" d="M58.9,23.5c0.2,0,0.1-0.3,0.3-0.4c0.2,0.1,0.2,0.3,0.3,0.4l0.1-0.1c0-0.1,0-0.3-0.1-0.4
		c-0.2-0.2,0.2-0.3,0.2-0.5c-0.2-0.2,0.3-0.4,0.3-0.6c-0.2,0-0.4,0.2-0.4,0.4c-0.2,0-0.4-0.3-0.6-0.3l-0.3,0.9
		C59,23,58.6,23.3,58.9,23.5z"/>
	<path class="st0" d="M60,21.9C60,21.9,60,21.9,60,21.9C60,21.9,60,21.9,60,21.9L60,21.9z"/>
	<path class="st0" d="M61.2,22.4c0.3,0.1,0.4,0.5,0.5,0.7c0.4-0.1,0.8,0,1.1,0.3c0.1,0.1,0,0.2-0.1,0.3c0,0,0,0,0,0
		c0,0.1,0,0.2,0.1,0.2c0.4-0.3,0.6,0.2,0.8,0.3c0.2,0.1,0.2-0.2,0.2-0.3c0.1-0.1,0.2-0.2,0.4-0.1c0.3,0.1,0.3,0.3,0.5,0.5
		c0.3,0,0.6,0.3,0.7-0.1c-0.1-0.1-0.1,0.1-0.3-0.1c-0.2-0.2-0.4-0.4-0.4-0.7c-0.4-0.4-0.9-0.7-1.5-0.8c-0.4-0.5-0.8,0.4-1.1,0
		c0.1-0.5-0.4-0.3-0.6-0.3l0,0v-0.3C61,22.1,61.3,22.4,61.2,22.4z"/>
	<path class="st0" d="M60.5,23L60.5,23c0.2,0.2,0.4,0,0.6-0.1c0,0,0,0,0,0C60.9,22.7,60.7,22.8,60.5,23z"/>
	<path class="st0" d="M60.5,23c0-0.1-0.1-0.2-0.2-0.1c-0.1,0-0.1,0.2,0,0.2C60.4,23.1,60.4,23.1,60.5,23L60.5,23z"/>
	<path class="st0" d="M62,23.5l-0.1,0.1c0.1,0,0.1,0.1,0.1,0.1c0,0,0,0,0,0C62,23.6,62,23.5,62,23.5z"/>
	<path class="st0" d="M62,23.7C62,23.7,62,23.7,62,23.7C62,23.7,62,23.7,62,23.7L62,23.7z"/>
	<path class="st0" d="M66.3,23.7v-0.1v0c-0.1-0.1-0.2-0.2-0.3-0.1C66,23.5,66.2,23.7,66.3,23.7C66.2,23.7,66.3,23.7,66.3,23.7z"/>
	<path class="st0" d="M59.7,24.3c-0.1,0.1-0.1,0.2,0,0.2l0.7-0.4l0-0.1c0-0.2-0.2-0.2-0.2-0.3L60.2,24c-0.4-0.2-0.9,0.1-1.3,0v0.1
		c0,0-0.1,0.1-0.1,0.1v0.1c0.1,0.1,0.1,0.2,0.3,0.2c0.2-0.1-0.1-0.3,0.1-0.3s0.5-0.2,0.7,0C59.9,24.3,59.7,24.2,59.7,24.3z"/>
	<rect x="61.2" y="23.8" class="st0" width="0.1" height="0.1"/>
	<path class="st0" d="M66.9,24L66.9,24L66.9,24c0-0.1-0.2-0.1-0.1-0.1C66.9,24,66.9,24,66.9,24z"/>
	<path class="st0" d="M65.4,24.5c-0.1,0.1,0,0.3,0.1,0.2c0.1,0,0.1-0.1,0.1-0.2C65.6,24.5,65.5,24.4,65.4,24.5z"/>
	<path class="st0" d="M67.4,24.6L67.4,24.6c0.1-0.1,0-0.1,0-0.1V24.6z"/>
	<path class="st0" d="M64.6,26.5c-0.6-0.3-0.4-1-0.8-1.4l0,0c0-0.2-0.1-0.4-0.2-0.6c-0.5,0.3,0,0.9-0.5,1.3c-0.1-0.1-0.3-0.2-0.3,0
		c-0.1,0-0.1,0.1-0.1,0c-0.6-0.2-0.2-0.7-0.4-1c-0.3,0.1-0.5,0-0.8-0.1c-0.1,0,0,0.1-0.2,0.2c-0.1,0.1-0.2-0.1-0.2-0.2
		c0,0-0.1,0-0.1,0c0.2,0.2-0.1,0.3-0.1,0.4c-0.1,0.6-0.4-0.1-0.7,0.1c-0.1,0-0.2,0.1-0.3,0.2s-0.1,0.3-0.3,0.3
		c-0.2,0-0.1,0.3-0.2,0.4c-0.2,0.4-0.4,0.1-0.6,0.4c-0.4-0.1-0.6,0.3-0.9,0.3c-0.1,0.6,0,1.2,0.3,1.8c0.4,0.3,0,0.7,0.3,1.1
		c0.2,0,0.5-0.1,0.6-0.2c0.8,0.2,1.2-0.8,2-0.5c0.6-0.2,0.5,0.6,0.9,0.6c0.1,0.1,0.2,0.2,0.1,0.3c0.5-0.2,0.1,0.2,0.5,0.5
		c0.3,0.3,0.7-0.2,0.9,0.2c0.1-0.2,0.4-0.1,0.6-0.3c0.1-0.7,0.9-1,1.1-1.6c0.1-0.3-0.1-0.7,0.1-0.9C65,27.3,64.8,26.9,64.6,26.5z"/>
	<path class="st0" d="M68.2,25.4c-0.1,0.1,0,0.3,0.1,0.3s0.1-0.1,0.1-0.1h0C68.3,25.5,68.3,25.3,68.2,25.4z"/>
	<path class="st0" d="M70.8,25.8L70.8,25.8c0-0.1-0.1-0.2-0.1-0.1s-0.1,0.2,0,0.2C70.7,25.9,70.8,25.8,70.8,25.8z"/>
	<path class="st0" d="M70.6,26c-0.1,0-0.3,0-0.3,0.2c0,0.1,0.1,0.1,0.2,0.1C70.5,26.2,70.7,26.1,70.6,26L70.6,26z"/>
	<path class="st0" d="M70.8,26.3C70.8,26.3,70.8,26.3,70.8,26.3c-0.1,0-0.2,0.1-0.1,0.2c0.1,0,0.1,0.1,0.2,0v0
		C70.9,26.5,70.9,26.3,70.8,26.3z"/>
	<path class="st0" d="M71.1,26.3c0,0.1-0.1,0.2,0,0.2C71.2,26.4,71.1,26.4,71.1,26.3z"/>
	<path class="st0" d="M67.8,27c0.1,0,0.1,0,0.1-0.2h0c-0.2-0.1-0.2-0.4-0.5-0.3C67.4,26.8,67.7,26.8,67.8,27z"/>
	<path class="st0" d="M68.8,30.2c-0.5,0-0.2-0.6-0.6-0.6l-0.1,0.1c0,0.1,0.2,0.2,0.1,0.4c-0.1,0.2-0.1,0.5-0.3,0.6
		c0.1,0.1,0.2,0.1,0.1,0.2c-0.1,0.1-0.1,0.2-0.2,0.2c-0.4-0.4-0.5,0.4-0.9,0.4c-0.3,0.1-0.6,0.3-0.7,0.6c0.4,0.5,0.7-0.3,0.9-0.4
		c0.3-0.1,0.4-0.4,0.7-0.6c0.3,0.2,0.5-0.2,0.6-0.4C68.5,30.5,68.9,30.5,68.8,30.2L68.8,30.2z"/>
	<path class="st0" d="M63.7,30.9l-0.5-0.1c-0.1,0.2,0,0.5,0.2,0.6C63.7,31.4,63.8,31,63.7,30.9L63.7,30.9z"/>
	<path class="st0" d="M59.8,20.4c0.1-0.1,0.2-0.2,0.2-0.3c-0.1,0-0.3,0-0.3,0.1C59.7,20.3,59.8,20.4,59.8,20.4z"/>
	<path class="st0" d="M19.7,31.2C19.8,31.2,19.8,31.3,19.7,31.2c0.2,0.1,0.3,0,0.4-0.1c0.1-0.1-0.2-0.1-0.3-0.1
		C19.7,31.1,19.7,31.1,19.7,31.2z"/>
	<polygon class="st0" points="19.8,31 19.8,31 19.8,31 	"/>
	<path class="st0" d="M20.4,33.1h0.1c0.1,0,0.1-0.1,0.1-0.1h-0.2V33.1z"/>
	<path class="st0" d="M18.7,15.1c0,0,0.1-0.1,0.1-0.1c0,0,0-0.1-0.1-0.1C18.6,15,18.7,15.2,18.7,15.1z"/>
	<path class="st0" d="M22.3,31.7L22.3,31.7c0.1,0.1,0.1,0.1,0.2,0.1c0.1,0,0.1-0.1,0.1-0.1S22.3,31.6,22.3,31.7z"/>
	<path class="st0" d="M18.4,33.7c-0.1,0.4-0.6,0.4-0.8,0.7c0.7,0.2,1-0.6,1.6-0.8l0-0.1C18.8,33.2,18.8,33.8,18.4,33.7z"/>
	<polygon class="st0" points="18.4,16.4 18.4,16.4 18.4,16.4 	"/>
	<path class="st0" d="M4.1,23.6c0.1,0.2,0.3,0.2,0.4,0.3c0.2,0,0.2-0.2,0.1-0.4C4.5,23.4,4.2,23.4,4.1,23.6z"/>
	<path class="st0" d="M18.4,16.4c0,0.1,0.1,0.1,0.1,0.2c0,0.1,0.3,0.1,0.3-0.1C18.9,16.4,18.5,16.4,18.4,16.4z"/>
	<path class="st0" d="M20.6,16.4C20.6,16.5,20.6,16.5,20.6,16.4c0,0.2,0.1,0.2,0.3,0.2c0.1,0,0.1-0.1,0.1-0.2
		C20.9,16.4,20.7,16.3,20.6,16.4z"/>
	<path class="st0" d="M20,16.1c-0.6-0.1-1.2-0.2-1.7-0.5c-0.3,0.1-0.5-0.3-0.9-0.2c-0.1,0.1-0.3,0.2-0.2,0.3c0.3,0,0.4-0.3,0.6-0.1
		c0.3,0.3,0.7,0.3,1,0.5s0.4-0.1,0.6,0.1l-0.2,0.2c0.2,0.1,0.4,0.1,0.6,0.2c0.2-0.2,0.4-0.1,0.6-0.2C20.4,16.2,20,16.3,20,16.1z"/>
</g>
</svg>
