<svg xmlns="http://www.w3.org/2000/svg" width="36.04" height="47.35" viewBox="0 0 36.04 47.35">
  <title>logo-mark</title>
  <g>
    <g>
      <path d="M35.59,37.9l-.66-1.23-.07-.11a7.11,7.11,0,0,1-1.25-4l0-1.2h0l.18-8.73a1.15,1.15,0,0,0,0-.22,1.13,1.13,0,0,0,0-.18V7.32c0-1,0-3.16-2.41-3.16a5.33,5.33,0,0,0-1.72.29c-.16-1.85-1.09-2.78-2.78-2.78A4.33,4.33,0,0,0,25.23,2,2.26,2.26,0,0,0,23,0C20,0,18.1,2.35,18.1,6.13v9.43a10.93,10.93,0,0,0-4.59-1,9.83,9.83,0,0,0-9,5.45c-.09.17-.26.42-.42.66a4.76,4.76,0,0,0-1,2.1,2.75,2.75,0,0,0,1,2.08,2.65,2.65,0,0,0-.82.73,2.17,2.17,0,0,0-.17,2.24l.19.42a13.88,13.88,0,0,0,3,4.72,14.8,14.8,0,0,0,4.08,2.37,3.7,3.7,0,0,1,.74.67,9.23,9.23,0,0,0,1.92,1.63,12.18,12.18,0,0,0,2.36,1.08c.61.22,1,.36,1.08.52s3,4.73,3.9,6.39a3.15,3.15,0,0,0,2.89,1.71,5.33,5.33,0,0,0,.91-.09l.16,0c5.13-.6,8.29-2.26,10.89-5.74A3.06,3.06,0,0,0,35.59,37.9ZM26.9,4c.4,0,.52,0,.52,1.09V6.31a6.63,6.63,0,0,0-.78,3.41V20l-.14-.09a7.76,7.76,0,0,0-1.88-.78V14a1.62,1.62,0,0,0,.68,0,.52.52,0,0,0,.3-.85L25.47,13a4.87,4.87,0,0,1-.42-.56c-.12-.18-.23-.37-.34-.58l-.09-.18V7.56C24.61,5.31,25.47,4,26.9,4Zm6.55,36.16c-1.84,2.46-4.13,4.23-9.31,4.83l-.27,0c-.71.12-1.09.11-1.43-.49-.69-1.21-2.33-3.87-3.27-5.39h.06a3.5,3.5,0,0,0,1.32-.33.55.55,0,0,0-.06-1h0a11.1,11.1,0,0,0-1.12-.31l-1.07-.23-.83-.17a8.29,8.29,0,0,0-1.17-.49,10.09,10.09,0,0,1-1.95-.88,7.11,7.11,0,0,1-1.46-1.26,4.78,4.78,0,0,0-1.46-1.18A13.54,13.54,0,0,1,8,31.33a11.72,11.72,0,0,1-2.52-4c-.07-.16-.18-.35,0-.5a2.33,2.33,0,0,1,1.43-.29,2.8,2.8,0,0,1,2,1.57A5.71,5.71,0,0,0,14,30.74c2.94-.07,4.83-3.24,4.91-3.37a1.15,1.15,0,0,0,.16-.58c0-.09,0-2.25,0-3.34-.05-1.35-2.43-4-5.43-4a5.44,5.44,0,0,0-4.86,2.76C8,23.34,7.56,23.67,6.2,23.47a1.47,1.47,0,0,1-.74-.57A9.22,9.22,0,0,1,6,22c.2-.3.39-.59.53-.85a7.56,7.56,0,0,1,7-4.23,9.61,9.61,0,0,1,5.1,1.57,1.15,1.15,0,0,0,1.74-1V11.91a1.61,1.61,0,0,0,.67,0,.53.53,0,0,0,.24-.12.52.52,0,0,0,.06-.74l-.13-.15a4.85,4.85,0,0,1-.42-.56c-.12-.18-.23-.37-.34-.58l-.08-.16V6.13c0-1.73.44-3.8,2.54-3.83a2.35,2.35,0,0,1,.12.91v.72a1.13,1.13,0,0,0,0,.12,7.46,7.46,0,0,0-.75,3.51V19a2.74,2.74,0,0,0-.66.24.52.52,0,0,0,.12,1l.14,0a8.67,8.67,0,0,1,1.72.66l.87.44,1.81,1.06.72.48a6.88,6.88,0,0,1,1.33,1.16l.13.16a.57.57,0,0,0,1-.37,2.9,2.9,0,0,0-.38-1.36,3,3,0,0,0-.22-.36,1.13,1.13,0,0,0,0-.14V16.63a1.61,1.61,0,0,0,.67,0,.53.53,0,0,0,.24-.12.52.52,0,0,0,.06-.74l-.13-.15a4.87,4.87,0,0,1-.42-.56c-.12-.18-.23-.37-.34-.58l-.08-.16V9.72c0-2.19.81-3.26,2.48-3.26h.08a6.48,6.48,0,0,1,0,.86V22.2a1.15,1.15,0,0,0,0,.19,1.13,1.13,0,0,0,0,.16l-.18,8.72a6.25,6.25,0,0,1-.46,2.07c-.25.68-.76,2.1.68,2.81l.08,0a1.74,1.74,0,0,1,.86.9h0c.13.24.27.47.43.7L33.59,39l.06.11C33.73,39.24,33.91,39.52,33.46,40.13ZM9.2,25.09a6,6,0,0,0,1.48-1.72A3.16,3.16,0,0,1,13.6,21.7a4,4,0,0,1,3.14,1.94c0,.81,0,2.18,0,2.81-.49.71-1.61,2-2.82,2a3.4,3.4,0,0,1-3.18-1.55A6.52,6.52,0,0,0,9.2,25.09Z" style="fill: #9ba0a0"/>
      <path d="M27.68,36.71h0c-.48,0-.9,0-1.3,0a4.28,4.28,0,0,1-1-.17,3.63,3.63,0,0,1-.92-.45c-.32-.2-.63-.47-1-.75l0,0a.54.54,0,0,0-.84.56,3.38,3.38,0,0,0,.77,1.43,3.26,3.26,0,0,0,1.5,1,3.47,3.47,0,0,0,1.74,0A3.67,3.67,0,0,0,28,37.62a.5.5,0,0,0-.29-.9Z" style="fill: #9ba0a0"/>
    </g>
  </g>
</svg>
