<svg xmlns="http://www.w3.org/2000/svg" width="70" height="26" viewBox="0 0 70 26">
  <title>logo-text</title>
  <g>
    <path d="M1.67,25.83.08.17H3.57L3.91,18.1,4.53.17H7.67l.62,17.55L8.67.17h3.24L10.32,25.83H6.5L6,10.69,5.6,25.83Z" style="fill: #2d8ddd"/>
    <path d="M18.77.17V3.24H16.46v7.48h2V13.9h-2v8.83h2.38v3.1H13.15V.17Z" style="fill: #2d8ddd"/>
    <path d="M23.6.17l0,22.52h2.07v3.14H20.29V.17Z" style="fill: #2d8ddd"/>
    <path d="M30.47.17l0,22.52h2.07v3.14H27.15V.17Z" style="fill: #2d8ddd"/>
    <path d="M37.22.17H42C43.5.17,44.6,1,44.6,3V22.83c0,2-1,3-2.52,3H37.22ZM40.53,23h.31c.31,0,.41-.21.41-.66V3.55c0-.41-.1-.62-.41-.62h-.31Z" style="fill: #2d8ddd"/>
    <path d="M53.74,22.17c0,2.45-1.31,3.83-3.55,3.83h-.48c-2.34,0-3.59-1.41-3.59-3.83V3.9c0-2.41,1.1-3.9,3.59-3.9h.48c2.48,0,3.55,1.52,3.55,3.9ZM50.33,3.55c0-.38-.1-.59-.38-.59s-.38.17-.38.59v18.9c0,.35.1.55.38.55s.38-.21.38-.55Z" style="fill: #2d8ddd"/>
    <path d="M58.71.17,60,15,60,.17h2.76V25.83H59.57L58,9.35l0,16.48H55.3V.17Z" style="fill: #2d8ddd"/>
    <path d="M69.85.17V3.24H67.54v7.48h2V13.9h-2v8.83h2.38v3.1H64.23V.17Z" style="fill: #2d8ddd"/>
  </g>
</svg>
