<svg xmlns="http://www.w3.org/2000/svg" width="4.45in" height="3.51in" viewBox="0 0 320.62 252.98">
  <title>aqs-logo</title>
  <g>
    <g>
      <path d="M130.54,89.27H151l28.93,58.12h-21L154.16,137h-27l-4.87,10.42H101.62Zm1.3,36.47h17.55l-8.56-20.35h-.22Z" style="fill: #d0d7d7;stroke: #d0d7d7;stroke-width: 0.9306388770112158px"/>
      <path d="M236.06,153.42l-10.62-7.82a50.33,50.33,0,0,1-18,3c-24.38,0-38.13-13.43-38.13-30.28s13.76-30.28,38.13-30.28,38.13,13.43,38.13,30.28A27.43,27.43,0,0,1,236,139.5l9.32,6.76ZM214.4,123.71l7.58,5.54a17.15,17.15,0,0,0,3.47-10.91c0-8.63-5-17.26-18-17.26s-18,8.63-18,17.26,5,17.26,18,17.26a20,20,0,0,0,4-.33l-6.07-4.48Z" style="fill: #d0d7d7;stroke: #d0d7d7;stroke-width: 0.9306388770112158px"/>
      <path d="M261.42,127.86c.43,6.84,6.07,9,14.63,9,6.07,0,12.35-1.63,12.35-5.94,0-5.13-11.05-6.11-22.21-8.47s-22.64-6.11-22.64-16.77c0-12.7,17-17.66,31.53-17.66,15.38,0,30.88,5.62,31,18.72H285.9c.33-5.29-6.28-7-12.46-7-4.33,0-9.75,1.14-9.75,5,0,4.48,11.16,5.29,22.43,7.65s22.43,6.27,22.43,16.77c0,14.73-16.68,19.46-33.69,19.46-17.77,0-33.48-5.86-33.58-20.76Z" style="fill: #d0d7d7;stroke: #d0d7d7;stroke-width: 0.9306388770112158px"/>
    </g>
    <path d="M194.21,157.6c.62,7.45,2.48,43.43-8.68,49.64-22.84,12.69-56-13.12-75.69-75.07C91,73,94.57,26.17,127.21,18.62,143.1,14.95,167.53,59,167.53,59c-5.58-6.2-19.23-32.26-37.84-32.26-21.73,0-25.62,51.12-9.93,100.51,14.72,46.32,43.39,86.26,62,73.83C193,193.59,194.21,157.6,194.21,157.6Z" style="fill: #d0d7d7"/>
    <path d="M173.12,165c.62,7.45,2.48,43.43-8.68,49.63-22.84,12.69-56-13.12-75.69-75.07-18.8-59.16-15.26-106,17.37-113.54C122,22.39,146.44,66.4,146.44,66.4c-5.58-6.2-19.23-32.26-37.84-32.26-21.73,0-25.62,51.12-9.93,100.51,14.72,46.32,43.39,86.26,62,73.83C171.88,201,173.12,165,173.12,165Z" style="fill: #d0d7d7"/>
    <path d="M151.4,171.25c.62,7.45,2.48,43.43-8.68,49.64-22.84,12.69-56-13.12-75.69-75.07C48.22,86.65,51.76,39.81,84.4,32.27c15.89-3.67,40.32,40.33,40.32,40.33-5.58-6.2-19.23-32.26-37.84-32.26-21.73,0-25.62,51.12-9.93,100.51,14.72,46.32,43.4,86.26,62,73.83C150.16,207.23,151.4,171.25,151.4,171.25Z" style="fill: #d0d7d7"/>
    <path d="M128.45,176.21c.62,7.45,2.48,43.43-8.68,49.64-22.84,12.69-56-13.12-75.69-75.07C25.27,91.61,28.8,44.78,61.44,37.24c15.9-3.67,40.33,40.33,40.33,40.33C96.18,71.36,82.54,45.3,63.92,45.3,42.2,45.3,38.3,96.42,54,145.81c14.72,46.32,43.39,86.26,62,73.83C127.21,212.2,128.45,176.21,128.45,176.21Z" style="fill: #d0d7d7"/>
    <path d="M107.35,181.8c.62,7.44,2.48,43.43-8.68,49.63-22.84,12.69-56-13.12-75.69-75.07C4.17,97.2,7.71,50.36,40.35,42.82c15.9-3.67,40.33,40.33,40.33,40.33-5.58-6.2-19.23-32.26-37.84-32.26C21.1,50.89,17.21,102,32.9,151.4c14.72,46.32,43.39,86.26,62,73.83C106.11,217.78,107.35,181.8,107.35,181.8Z" style="fill: #d0d7d7"/>
  </g>
</svg>
