<svg xmlns="http://www.w3.org/2000/svg" width="3.03in" height="3in" viewBox="0 0 218.37 216">
  <title>nlb-logo</title>
  <g>
    <g>
      <path d="M188,77.32h-3V75.77h7.71v1.55h-3v8H188Z" style="fill: #d0d7d7"/>
      <path d="M194.41,75.77h1.78l2.89,4.49L202,75.77h1.78v9.5h-1.67V78.46l-3,4.48H199l-3-4.45v6.78h-1.64Z" style="fill: #d0d7d7"/>
    </g>
    <g>
      <path d="M69,46.23c.31,0,.33.23.61.09,0,.25,0,.55-.09.68s-.09-.24-.26-.24c0-.25.33.22.26-.19a.6.6,0,0,0-.63.1,3.68,3.68,0,0,0,0,.53s0,0,.05,0l-.05,0c0,.13,0,.27,0,.41.18-.16.33-.36.51-.51-.22.21.11.25.09.52-.5.1-.36.66-.34.91a.47.47,0,0,1-.17-.22,9.36,9.36,0,0,0,.35,1.42,15.51,15.51,0,0,0,1.78,3.32.44.44,0,0,1,.22-.09c-.09.08,0,.26,0,.41l.43.7c.08,0,.15-.07.18,0a.6.6,0,0,0-.09.2l.09.14a.37.37,0,0,0,.23,0,.79.79,0,0,1-.05.28,9.49,9.49,0,0,0,3.76,3.68c.46.23,1,.55,1.54.88a.21.21,0,0,1,.27.15c1.19.68,2.5,1.25,3.6.84-.29-.95-1.06-1.54-1.5-2.43-.35-.71-.39-1.52-.79-2.25a10.84,10.84,0,0,1-1.13-2.14,11.37,11.37,0,0,1-.6-2.43c0-.44-.05-.9,0-1.37-.19,0-.37,0-.29-.27a.27.27,0,0,1,.3.16,7.1,7.1,0,0,1,.1-1.27c.81-4.28,3.65-7.9,5.06-12,.62-1.76,2-2.76,2.51-4.58a38.58,38.58,0,0,0,1-9.9.36.36,0,0,0-.33.33c-.14,0-.15-.14-.21-.22-.11.11-.05.32-.31.35.13.14.33,0,.36.32-.72-.18-.93.67-1.43.42.49-.73,1.14-1.82,1.91-1.56,0-.6,0-1.22,0-1.8a6.74,6.74,0,0,0-.22-1.52c-.19.18-.42-.3-.66-.34,0-.16.57.24.41-.24.2.08.11.44.24.56a8.52,8.52,0,0,0-1.46-3,28.7,28.7,0,0,0-4-4.65C78.27,8.63,73.69,6,70.89,7.23a7.2,7.2,0,0,0,.52,2.16c.34.59.92.79,1.29,1.3a15.24,15.24,0,0,1,1.21,2.24l0,0s0,0,0,0a8.53,8.53,0,0,1,1,4.75,5.08,5.08,0,0,0,0,.59c.06,0,.1,0,.11-.09s.06.17.19.17c0,.16-.3.06-.26.25h0a18.5,18.5,0,0,0,.22,3,3.67,3.67,0,0,0,.54-.27c.09.28.18.59.26.89-.31.11-.4-.19-.64-.24,0,0,0,.06-.09.1,0,.28.08.57.12.88a.28.28,0,0,0,.24-.07c-.1.21,0,.4.29.49-.23.25-.35.07-.49-.11,0,.2.06.39.07.62.34,3.48-1.46,5.9-2.41,9.14a29.8,29.8,0,0,1-1.93,5.77c-.47.9-1,1.38-1.31,2.2a26,26,0,0,0-.66,3.73,5.84,5.84,0,0,0-.13.73c.05,0,.07,0,.13,0v.24a.51.51,0,0,1-.18.07c0,.24,0,.47,0,.71C69,46.47,69.05,46.4,69,46.23Z" style="fill: #d0d7d7"/>
      <path d="M97.6,42.32a.16.16,0,0,1-.09,0c0,.29,0,.57,0,.87a.42.42,0,0,1,.43,0c0,.23,0,.36-.24.32v-.32c-.08,0-.09.06-.19.06a18.72,18.72,0,0,0,1.19,6c.23,0,.44-.18.77.18-.2-.2-.41,0-.66,0a7.76,7.76,0,0,0,1.46,2c.08-.2.2-.43.38-.27-.22.14-.17.37,0,.57.51.49,1.05,1,1.51,1.41,1.21,1.15,3.1,1.2,4.84,1a5.88,5.88,0,0,0-1.37-1.89c0,.12,0,.21.18.23-.27.3-.33-.25-.54-.25,0-.1.13-.1.24-.1l-.48-.58c.14.28-.38.45-.34.84-.3.06-.38-.14-.54-.26.37-.08.54-.31.87-.59,0,0,0,0,0,0a4.29,4.29,0,0,1-.34-.6h0c-.14-.44-.52-.06-.72-.21s0-.1,0-.13.06-.11,0-.15a.71.71,0,0,0,.46.16,8.34,8.34,0,0,1-.56-4h-.06c0-.06,0-.08.07-.12a25.69,25.69,0,0,1,.7-4.14,17.35,17.35,0,0,1,1.56-3.84c.54-1,1-2.11,1.4-2.92a9,9,0,0,0,.62-1.52s0,0,0,0c.22-.65,0-.84,0-1.36.17,0,.11.23.33.16a1.1,1.1,0,0,0-.08.55c.16-.46.33-.94.52-1.38a19.41,19.41,0,0,0,1.07-3.16,28.18,28.18,0,0,1,1.64-3.52,13.75,13.75,0,0,0,.52-4.87c0-3.34.41-6.54-1.33-9.52a19.81,19.81,0,0,0-3.61-4.58h0c-.13,0-.15-.05-.16-.17a3.9,3.9,0,0,0-.41-.34,1.06,1.06,0,0,1-.45.25c0-.37.21-.43-.24-.33-.11-.2.1-.3.13-.36a11.83,11.83,0,0,0-2.38-1.4,12.9,12.9,0,0,0-3.5-.92c-.13.17-.15.44-.29.66-.41-.17-.12-.46-.15-.68a4,4,0,0,0-1,.09.85.85,0,0,0-.58.41h.07a.26.26,0,0,1-.07.29c.22.8,2.17,1.93,2.57,2.4,1.58,1.9,2.24,4.89,2.58,7.29.05.4.05.8.09,1.23a.26.26,0,0,0,.24,0c.09.13-.07.17-.23.18a17.12,17.12,0,0,1-1.47,8.2,46.84,46.84,0,0,0-2.73,8.31,8.75,8.75,0,0,1-.93,3.15,7.79,7.79,0,0,0-.65,1.29,1.64,1.64,0,0,1,.36,0c-.06.1-.25.11-.41.16a1.23,1.23,0,0,0,0,.18c0,.16-.1.26,0,.41-.06.09-.1,0-.14,0,0,.12-.07.22-.1.34V37a.44.44,0,0,1,.18.48.18.18,0,0,1-.18-.1c0,.92.25,1.78.29,2.69a15.17,15.17,0,0,1,0,1.56c.14,0,.18.1.26-.11.19,0,.15.21.15.43-.21-.05-.26.07-.42.07,0,0,0,.1,0,.14S97.62,42.19,97.6,42.32Z" style="fill: #d0d7d7"/>
      <path d="M124.7,43.29c.12.73.24,1.42.38,2.11a.13.13,0,0,1,.1.06s0,.06-.08.06c.17.87.35,1.71.59,2.52.12,0,.3,0,.36-.14.54.36-.22.5.16.93a.3.3,0,0,1-.24.09,16.25,16.25,0,0,0,.95,2.17c.14-.1.18-.29,0-.3.11-.27.29.1.25.25a1.48,1.48,0,0,1-.17.11,12,12,0,0,0,1.32,1.95,5.2,5.2,0,0,0,3.37,1.47c2,.24,1.1-1.53.59-2.61a15.12,15.12,0,0,1-1.95-5.5c-.51-4.46,1.83-8.82,4.86-12a14.07,14.07,0,0,0,2.67-4.58c.59-1.42,1.8-2.66,2-4.22a44.94,44.94,0,0,0,0-5.23h0c-.25-.11-.5-.47-.36-.73.19,0,.24.23.38.28,0-.1,0-.18,0-.27s-.11-.28-.18-.45a.21.21,0,0,1,.19,0c0-.34,0-.69,0-1a.2.2,0,0,1-.17-.12c-.28.25-.16.56-.42.58,0-.2-.09-.36.07-.59.19.15.32-.19.53,0,0-1,.08-1.91.14-2.83.06-1.59-.7-2.7-1.53-4-.6-1-1-2.15-1.56-3.07a8.37,8.37,0,0,0-2.74-2.33,8.45,8.45,0,0,0-5.05-1.36.81.81,0,0,0,0,.22c-.16,0-.17-.12-.09-.22h-.8a3.56,3.56,0,0,0-1.24.07c-.37.09-.39.51-.89.52.12,0,1.68,2.08,2.07,2.53a1,1,0,0,0,.52-.21c0,.18-.23.17-.26.33l-.19,0c1.12,1.28,2.38,2.26,3,3.9a10.42,10.42,0,0,1,.67,2.9,13.28,13.28,0,0,1,.07,2.76A26.69,26.69,0,0,1,129.92,26c-.89,2.08-2.49,3.74-3.64,5.65a.48.48,0,0,1,.54.35c.21,0,.29-.16.31-.35.32.52,1.37-.25,1.55.52.24,0,.22-.17.2-.32a2.29,2.29,0,0,0,1.84.14c.22-.19.45.58.46.14.23.05,0,.2.28.47-.13,0-.15-.12-.2-.22s-.05.19-.05.3c-.39-.15-.67.12-1.11,0,.14,0-.78-.79-.89-.15-.11,0-.42-.47-.42,0-.23-.07,0-.2-.29-.51-.52,0,0,.62-.67.62-.11-.18,0-.26.21-.31-.7.3-1.13-.44-1.88-.53a9.79,9.79,0,0,0-.75,1.54,22.32,22.32,0,0,0-.76,2.57c.18.11.24.36.36.53-.22,0-.28-.16-.46-.17a26.13,26.13,0,0,0-.48,3C123.95,40.84,124.45,41.86,124.7,43.29Z" style="fill: #d0d7d7"/>
      <path d="M190.45,185.6c.06,0,.09,0,.09.1.17,0,0-.27-.09-.27s.12-.17.2-.21c-.09-.81-.33-1.64-.48-2.39-.19-1.1-.38-2.18-.48-3.29,0-.38.06-1.24-.15-1.51s-.68-.26-1-.41c-.15-.49.22-.64.36-1.05a5.29,5.29,0,0,0,0-2.62.26.26,0,0,1,0-.09h0a8.14,8.14,0,0,1-.18-1.57,12.93,12.93,0,0,0-.35-2.38,11.07,11.07,0,0,1,.14-1.83,6.52,6.52,0,0,0-.48-.92,8.5,8.5,0,0,0-2-1.08c-.11,0-.2,0-.33-.08a6.75,6.75,0,0,1-1-.47l-.15-.07c-.07.13-.14.4,0,.41-.29.08-.12.61-.51.61.1-.21.48-.61.1-.77a.37.37,0,0,0,.15-.38,1.29,1.29,0,0,0-.55-.15,5.41,5.41,0,0,0-.67.21,1.27,1.27,0,0,0-.69.18c-1.73.81-3.45-.09-5.07,1.28-.41.33-.77.83-1.3.92s-.75-.19-1.21-.45c-.72-.36-.66,0-1.46.17-.15,0-.36,0-.47,0s-.19.15-.3.23a1.28,1.28,0,0,1-.82.33,5.56,5.56,0,0,0-.88.37c-.84.33-1.82,0-2.69.25-.35.13-.41.38-.77.45s-.5,0-.71.07c-.68,0-1.35.15-2,.19a10,10,0,0,0-1.81.33,2.8,2.8,0,0,0-.76.61c-.76.75-1.55.11-2.37-.17a23.08,23.08,0,0,1-2.31.15l-.48,0a3.78,3.78,0,0,0-.67.25c-.49.34-.89.89-1.5.89a4.85,4.85,0,0,1-.83-.06,7.85,7.85,0,0,0-2.84-.36,25.17,25.17,0,0,0-3.12.54,6.12,6.12,0,0,1-2.57.15,4.82,4.82,0,0,0-2.81.67,13.66,13.66,0,0,1-2.4,1.32l-.06,0a1.27,1.27,0,0,1,.09.31c.2,0,.13-.31.24-.42s0,.23.17.23c-.18.12-.16.43-.5.34a.89.89,0,0,0-.21-.43l-.13,0a1,1,0,0,1,.1.24c-.18,0-.2-.07-.08-.07a.45.45,0,0,0-.18-.14,6.21,6.21,0,0,1-.73.06s0,0,0,.07-.09,0-.13-.06c-.48,0-1,0-1.42,0a73.62,73.62,0,0,0-7.84.92c-.75.12-1.49.2-2.23.26-.06,0-.12.1-.06.28h-.25a1.75,1.75,0,0,1,.13-.27l-1.76.11c-1.27.07-2.5.29-3.77.41a9.15,9.15,0,0,1-2.93-.1.76.76,0,0,0-.25,0c-.73,0-1.46,0-2.19.06-.23.66-.44,1.32-.68,2,0,0,0,.06.06.06a.4.4,0,0,1-.1.11,17.76,17.76,0,0,1-1.71,3.52,13.14,13.14,0,0,0-1.43,3.44c-.66,2.32-.53,5.3-3.79,3.74-2.36-1.13-3.29-4.34-5.67-5.26a6.32,6.32,0,0,1-1.59-1.55.21.21,0,0,0-.33.15c-.18,0,0-.36,0-.52l.11,0c-.9-1.1-2-2.48-3.16-3.76a.38.38,0,0,1-.4.18c0-.15.1-.17.08-.35s.17,0,.24.08c-.35-.38-.71-.72-1.07-1.08-1.11,0-2.21.05-3.28.06a15.72,15.72,0,0,1-3.44.38c-1.18.07-2.36.09-3.53.1a.93.93,0,0,1-.78.33c.07-.13.12-.22,0-.33h-.59a14.29,14.29,0,0,0-2.78.05c-.26.06-.53.27-.81.32a7.74,7.74,0,0,1-3.66-.08,6.07,6.07,0,0,0-1.93-.1.6.6,0,0,1-.14.14s0-.08,0-.12h-.27c-.13.17-.3.24-.6.11,0,0,0,0,0-.06h-.48c-.46,0-.9,0-1.34.07,0,.09-.09.17-.27.09,0-.05,0-.05,0-.08-.62,0-1.23.08-1.85.08h-4a3.29,3.29,0,0,1-1,0,.74.74,0,0,1-.35-.14l-1.34.05a.76.76,0,0,0-.09.08c-.2.19-.23.54-.52.69s-.68.14-.88.17a3.36,3.36,0,0,1-1,.07A3.48,3.48,0,0,1,60.4,178a4,4,0,0,0-1.74-.34,11.7,11.7,0,0,0-2.38.66c-.8.19-1.72,0-2.49.45s-.93,0-1.44-.45c0,.12-.05.21-.19.2,0,.13,0,.17-.3.16,0-.19.05-.31.21-.33a.58.58,0,0,0-.08-.27h0l-.41-.23H51.5a5.41,5.41,0,0,1-1.47-.5,31.59,31.59,0,0,0-3.81,0,10.64,10.64,0,0,1-3.25-.56,3.41,3.41,0,0,0-2.35.18,3,3,0,0,1-2.21.39l-2.19-.57c-.52-.12-1-.35-1.55-.48a8.93,8.93,0,0,0-1.63.13,3.67,3.67,0,0,0-.67.32.16.16,0,0,0,.24-.11c.09.16.25.24.21.52-.21-.24-.44-.15-.52-.38a2.5,2.5,0,0,0-.83.78c-.88,1.43-.58,2.63-.56,4.18,0,.13,0,.28,0,.46,0,0,0,.05.08.06a.27.27,0,0,1-.09.08c0,.1,0,.17-.06.27a.94.94,0,0,1,.21-.09c0,.24-.3.15-.22.5l-.09-.05a2.65,2.65,0,0,0-.41.93,14.93,14.93,0,0,0-.08,2.8c0,.85.63,1.87.26,2.72-.09.27-.49.49-.66.71-.48.6-.31,1.08-.47,1.72s-.71,1-.84,1.64c-.1.43-.07.86-.12,1.27a6.42,6.42,0,0,0-.42,1.78,4.26,4.26,0,0,0,.11.61c.13,0,.31,0,.28-.22.28,0,0,.45-.24.47a7.23,7.23,0,0,1,.22,1.1,9.24,9.24,0,0,1,0,1.16,2.12,2.12,0,0,0,.71-.2c0,.21-.36.42-.72.57a1.26,1.26,0,0,0,.55,1.1c.53.36.65.45.75,1.12s0,.75.44,1.15a7.75,7.75,0,0,0,2.88,1.71c0-.4.38-.26.32-.66.27,0,.43.06.49.22-.4,0-.38.47-.82.44l.38.12s0-.06,0-.1a.21.21,0,0,1,.24.18c.43.13.86.23,1.3.34a.7.7,0,0,1,.52.05s0,0,0,0l1,.22a.79.79,0,0,0-.22-.53c-.07-.23.4.29.46.48.13-.09.15-.4.36-.11-.13,0-.18.14-.27.22l.23.06c-.09-.19.56,0,.47-.36.1.18-.15.44.3.28,0,.44-.36.16-.57.16.53.19,1.37.51,2.3.84l0,0s0,0,0,0a23.44,23.44,0,0,0,2.59.8c.15-.16.47.09.49-.27.15,0,.26.29.33,0,0,.14-.12.25-.35.33,1.11.2,1.95.14,2-.48.59-.1,1.42-.15,1.83.35s.16,1,1.21.84a5.67,5.67,0,0,1,1.94-.18,9.41,9.41,0,0,0,3,.22,9,9,0,0,1,2.37-.38c.46,0,.89.13,1.34.2.14-.32-.17-.29-.14-.54.29,0,.09.33.43.22a1.11,1.11,0,0,0,0,.33,4.61,4.61,0,0,0,.67.07,20.7,20.7,0,0,1,4.21.14l.62.09h.48c.81,0,1.63.05,2.44.1.23,0,.49,0,.73,0a15.88,15.88,0,0,1,3.41-.29c1,0,2,0,3,0s2.45.67,3.44.42c.35-.08.67-.3,1.07-.42a15,15,0,0,1,3.55-.1c1.71.09,3.29.49,4.94.05a16.92,16.92,0,0,1,3.41-.22,23.08,23.08,0,0,1,4.09-.07,12.87,12.87,0,0,0,2.73.32,5.3,5.3,0,0,0,1.35-.45c-.11-.08-.13-.23-.24-.29s.19.09.42,0c-.1.11,0,.1,0,.19l.51-.27a2.09,2.09,0,0,1-.17-.21c-.08,0-.08.06-.08.1-.23-.07.22-.15.08-.44a3.2,3.2,0,0,0,.36.46,4.59,4.59,0,0,1,3.07-.69A18.83,18.83,0,0,1,103,208a5.47,5.47,0,0,0,4,.25c.38-.13.62-.52,1-.67a.65.65,0,0,1,.27,0,.74.74,0,0,0-.2-.64c.35-.06.14-.24.27-.37-.64.24-.07-.71-.77-.28-.38-.3.05-.76.1-.89s-.22,0-.24,0c.23-.39.4-.38.91-.51.05.21.44.49.07.55a.91.91,0,0,1,0,1.22,4,4,0,0,0,.3.51.66.66,0,0,0-.17.45,12.67,12.67,0,0,0,1.18.55c1.25.18,2.73-.36,4-.38.75,0,1.71.11,2.65.11.3-.08.61-.13.92-.19l.08-.06s0,0,0,0c.32-.07.64-.15,1-.2a2,2,0,0,0,.39-.28c-.37,0-.74.11-1-.22.12-.08.75-.37.39-.34-.09-.39.43-.16.44-.48s.07.74.57.17a.63.63,0,0,1,0,.55,3.9,3.9,0,0,1,2.44-.52h.17c-.05-.1-.11-.18-.15-.26-.34.51-.28-.43-.79-.39-.09-.19.38-.23.19-.47s-.09.11-.27.16a2,2,0,0,0-.25-1.3c.25-.14.39.05.67-.11,0,.23.11.49-.12.66.31.56.57,1.3.78,1.59.18.1.39,0,.6,0a.27.27,0,0,0,0,.12h.36c0-.35.64-.06.52-.26.14-.06.2.18.3.29a.37.37,0,0,1-.11,0c.19,0,.37,0,.55,0,0-.07.06-.12.05-.19a1.61,1.61,0,0,0,1-.45c-.73-.7.1-1.19-.46-1.88.13-.07.26-.13.23-.24.21,0,0,.49.35.64-.11.11-.14.24-.26.36a4.91,4.91,0,0,1,1.21,1.71c.19,0,.4,0,.59-.05,1.2-.22,2.31-.81,3.55-.54a2.74,2.74,0,0,1,.65.2,4.46,4.46,0,0,0,.48-.16c.61-.18,1.18-.46,1.81-.63a8.52,8.52,0,0,1,3.32-.11.51.51,0,0,0-.15-.26c.14-.08.2,0,.33,0-.22-.25-.17-.15-.25-.46-.21-.14-.49,0-.71-.2.58-.76,1.09,1,1.86.39-.1.22-.63.29-.62.62l.3,0c.8.1,1.59.3,2.4.44.62,0,1.25,0,1.88,0,1.14-.06,2.28-.28,3.43-.34.56,0,1.05-.12,1.55-.2,0-.28.42-.3,0-.54,0-.4.18.26.29.08.08.17.14.27.2.39.81-.09,1.62,0,2.44-.09.5,0,.54-.15,1-.33s1.29-.07,1.89-.2a8.1,8.1,0,0,1,1.58-.35c.37-.05.71.07,1.09,0s.85-.3,1.26-.41a.19.19,0,0,0,0-.19.52.52,0,0,1,.22.13l.27-.06h0c.17,0,.35-.05.54-.05a12.35,12.35,0,0,0,2,0,3.18,3.18,0,0,1,1.14.06c.7-.06,1.43-.12,2.19-.12h.1c.23-.15.45-.32.68-.5l-.11-.11c.15-.22.27-.2.37-.1a3.13,3.13,0,0,1,.93-.51s.06-.07.09-.09,0,0,.05.06a1.32,1.32,0,0,1,.82.07,4.66,4.66,0,0,0,2,.55,11.76,11.76,0,0,1,1.27-.36,9.92,9.92,0,0,1,2.4-.93c1.27-.18,2.65,0,3.94-.07l2.38-.56,1-.4a.25.25,0,0,1,0-.25c.15,0,.17.1.33.09,0,0,0,0,0,.07a6,6,0,0,1,.6-.21,18.17,18.17,0,0,0,2.75-.79c.41-.15.53-.19.82.06a5.83,5.83,0,0,0,1.64-.94c.5-.65.94-1.34,1.49-2a19.16,19.16,0,0,0,2-2.61.52.52,0,0,1-.19-.31.88.88,0,0,0,.23.22,3.46,3.46,0,0,0,.24-.48,17.56,17.56,0,0,0,.8-2.37,5.85,5.85,0,0,1,.46-1.28,3.19,3.19,0,0,0,.26-1.26,20.23,20.23,0,0,1,.66-2,3.07,3.07,0,0,0,0-.66C190.58,185.82,190.45,185.79,190.45,185.6Z" style="fill: #d0d7d7"/>
      <path d="M27.31,167.08a16.55,16.55,0,0,0,2.53,1.27c.64.14,1.24.21,1.89.4a14.84,14.84,0,0,0,1.8.76c.44.08.93-.07,1.36,0,.71.1,1.24.49,2,.38,1.41-.61,2.83-.42,4.33-.47,0-.06-.05-.13.07-.16s.11,0,.15,0a1.26,1.26,0,0,1,0,.13,14.75,14.75,0,0,0,3.12-.38,3,3,0,0,0,1.47-.67c.29-.33.15-.83.67-.87s1.19.82,1.61,1.06a.52.52,0,0,1,.2.08c1-.17,2-.37,3-.54a4.67,4.67,0,0,1,2.72-.6,12.23,12.23,0,0,0,2.85-.2c0-.13-.09-.31-.23-.31.05-.2.14.14.35,0a.36.36,0,0,1,0,.26l.08,0c1.17-.11,2.34-.24,3.51-.32.47,0,.94-.1,1.42-.12a8.17,8.17,0,0,1,2.8-.09l2.27-.08a34.65,34.65,0,0,0,4.43-.69.36.36,0,0,1,.22,0,9.65,9.65,0,0,1,1-.08,12.17,12.17,0,0,1,1.22,0,6.86,6.86,0,0,0,1.07.28,5.9,5.9,0,0,0,2.28-.21c.58-.2,1-.6,1.63-.75.89-.21,1.68.44,2.51.65a1,1,0,0,0,.23,0c.7-.05,1.38-.16,2.06-.22-.42-.51-.84-1-1.28-1.51-.07.11-.36,0-.5.05a.51.51,0,0,1,.35-.18,14.65,14.65,0,0,0-1.06-1.09,1.64,1.64,0,0,1-.22-.21s0,0,0,.07c-.18,0-.51.1-.42-.17.16-.06.22,0,.33.05a.07.07,0,0,0,0-.06l-.17-.17h-.13a.14.14,0,0,0,0-.07c-.35-.31-.71-.64-1.06-1a.4.4,0,0,0,0,.3c-.21,0-.42,0-.51-.08.27,0,.31-.13.39-.3l-.33-.31s0,0,0,0c-.2.35-.07-.37-.4-.16v-.22c-2.49-2.38-5.13-5.1-7.2-7.35-1.45-1.59-1.9-.83-3.22-3.11-1.92-3.26-5.49-5.43-7.6-8.54a34.86,34.86,0,0,1-5-10.91c-.06,0-.06-.07,0-.13s0-.07,0-.11h0a8.81,8.81,0,0,1,0-4.78c.58-1.5.87-3.22,1.38-5,0,0,0,0,0,0h0a13,13,0,0,1,2.46-5c2-2.37,3.44-4,4.75-5.31h-.28c0-.15.24-.1.17-.31a.28.28,0,0,1,.28.16,15.39,15.39,0,0,1,3.8-2.72.77.77,0,0,1,0-.09.33.33,0,0,1,.14,0,25.22,25.22,0,0,1,2.63-1.09c4.57-1.64,8.12-3.12,13.62-.08,2,1.12,3.47,2.82,5.66,3.25,1.81.35,3.8,3.49,6.19,3.16.92-.15,1.79-1.89,2.14-2.26a24.66,24.66,0,0,0,2-2.08.21.21,0,0,0-.12-.23c-.06-.31.18-.31.41-.26a.47.47,0,0,0-.13.3,4.81,4.81,0,0,0,.91-1.69c.23-1,2-3,3.07-4.18,1.79-2.11,4.3-3.58,6.52-5.29-.12-.21-.06-.65.23-.58-.05.3-.15.33-.1.48a16.85,16.85,0,0,0,2.55-2.34,6.63,6.63,0,0,1,2-1.52h-.23c0-.08.12-.07.17-.1s-.08-.07-.17-.1.15-.18.35-.16c0,.16-.09.19-.08.33,2.68-1.39,6.9-2,11.89-1.83h.06a.48.48,0,0,0,0-.19c.17,0,.18-.08.34-.07a.76.76,0,0,1,0,.26c4.25.06,7.58-.72,12,2.51s5.82,8.51,7.27,10.89c2.11,3.48,3.88,12.4,1.69,17.4a41.4,41.4,0,0,1-3,5.62v0h0c-1,1.58-1.81,2.74-2.3,3.77.11.07,0,.36.29.3-.1.37-.31-.22-.31,0a.11.11,0,0,1-.09,0,3.91,3.91,0,0,0-.21.62h.11c-.21-.31.11.09.19-.16.07.06.07.19.24.16-.07.18-.42.07-.59.12s-.08.26-.1.39c-.29,2.12-6.08,7.81-7.88,10.5-2.1,3.09-6.45,6.94-7.38,11-.19.94-1.76,2.65-3.12,4.63a2.8,2.8,0,0,1,.29-.18,6.82,6.82,0,0,1,1.18-.14c-.32,0,.2,0,.28,0l.77,0c.86-.07,1.71-.07,2.6-.07.41-.09.84-.15,1.27-.21a10.92,10.92,0,0,1,1.38.06l.8-.17c.36-.09.7-.13,1-.21a8.94,8.94,0,0,1,3.2-.7,2.65,2.65,0,0,0,.49,0l.24,0a.43.43,0,0,0-.45,0c.07-.37-.15-.6-.15-1.12.46-.31.83-.38,1,.13-.07.21-.3.34-.3.55.31.23.13-.45.45-.25-.07.3.46.38.47.41s0,.07,0,.09c.47-.11.95-.24,1.39-.31,1.28-.22,2.58-.49,3.86-.68a22.34,22.34,0,0,1,2.23-.23,3.65,3.65,0,0,0,1.95-.33c.42-.32.53-.17,1-.15,1.34.07,2.69,0,4.06,0a5.13,5.13,0,0,0,1.55-.12c.76-.2,1.53-.36,2.3-.55a10.16,10.16,0,0,0,1.75-.54,3.49,3.49,0,0,1,1.51-.46c.67,0,1.36.23,2,.29l.47-.1c.52-.14,1.05-.26,1.58-.41a4.15,4.15,0,0,0,.53-.35c.1-.06.21-.15.32-.21s-.05-.16,0-.16-.09-.06-.16-.08.35-.07.5-.16c-.12.09-.12.16-.11.22a5.89,5.89,0,0,1,2.79-1.26s0-.1,0-.16.08.08.11.14l.23,0c.37,0,.75.05,1.12.08,0-.07.11-.1.13-.2a.25.25,0,0,0,.13.14,35.74,35.74,0,0,0,3.56-1.79c.34-.21.7-.44,1-.68s.46-.61.71-.9a12.59,12.59,0,0,1,2.72-3,.19.19,0,0,1-.07-.14c-.29.39-.71.1-.88.52-.23-.19-.62.19-.75-.3.13,0,.33-.15.41.13a.44.44,0,0,0,.15-.17.41.41,0,0,1,0-.49l-.11.05c0-.12,0-.23-.1-.17,0-.13.14-.13.25-.11a.57.57,0,0,0,0-.1s0,.08.06.11a1.54,1.54,0,0,0,.57.18c.31,0-.15.08-.28.14.08.17.21.12.29.33a.86.86,0,0,0,.41-.36c0-.08-.1-.06-.14,0,.14-.4.16.09.32.33a2.94,2.94,0,0,1,.48-.29.29.29,0,0,1,.25-.31c.07-.23.17-.47.25-.69-.19.15-.39.25-.52,0v.06c-.09-.14-.34-.1-.34-.33h.34v.27c.39,0,.29-.38.45-.49a.21.21,0,0,1,.2,0,1,1,0,0,0,0-.2,13.41,13.41,0,0,0,0-1.37s-.61.3-.52-.14c.12.1.41,0,.52.14a3.76,3.76,0,0,1,.06-.83l-.06-.09s.07-.06.09-.09a14.28,14.28,0,0,1,.47-1.61l.39-1c-.1-.12-.19-.2-.19,0-.28-.19,0-.16.26-.21.17-.45.33-.89.51-1.33.08-.19.19-.4.27-.59,0,0,0-.05-.05-.1l.12,0c.16-.37.32-.73.51-1.1s.35-.61.51-.94c-.11-.14-.24-.31-.07-.45s.06.12.07.24,0,0,.07.06c.1-.25.05-.33-.07-.66a3.27,3.27,0,0,1-.15-1.43.44.44,0,0,1-.29.17c.08-.19.28-.25.28-.5l0,0c0-.14,0-.27,0-.4a10.21,10.21,0,0,1-.2-1.92c.08-.53.53-1,.45-1.52s-.35-1-.4-1.48a4.07,4.07,0,0,0-.09-.91,4.4,4.4,0,0,1-.3-.63,9.66,9.66,0,0,1-.27-2.41,4.77,4.77,0,0,0-.16-1.07c-.1-.37-.13-.81-.22-1.2a15.13,15.13,0,0,1-.78-2.29,6.68,6.68,0,0,1-.07-.83,8,8,0,0,0-.55-2.82c-.29-.46-.8-.51-1.22-.83-1.32-1,.77-2,1-3a1.55,1.55,0,0,0,0-.31c0-.2-.09-.37-.13-.53a8.06,8.06,0,0,1-.83-2c-.05-.28-.14-.47-.2-.72a2.88,2.88,0,0,1,.07-1c-.16,0-.35,0-.26-.27a.47.47,0,0,1,.28.06c.06-1.5,0-3,0-4.51a3.88,3.88,0,0,0,0-.52c0-.1-.19-.2-.19-.24a2.56,2.56,0,0,1,0-.56,3.13,3.13,0,0,0,0-.7s-.1,0-.14,0,.06-.14.1-.15-.26-.27-.28-.4,0-.43,0-.65a5.79,5.79,0,0,1-.21-.73A18.54,18.54,0,0,0,176.81,93a17.51,17.51,0,0,1-.83-2,5,5,0,0,0-.39-1.72,2.07,2.07,0,0,0-.38-.4,10.51,10.51,0,0,1-1.43-2.06,16.24,16.24,0,0,0-2.2-3.19,36,36,0,0,0-2.84-3,15,15,0,0,1-1.55-1.88.2.2,0,0,0-.09.2c-.11,0-.12-.24,0-.24,0-.06-.12-.1-.15-.2a2.22,2.22,0,0,0-1-.62c-.62-.15-1.28.12-1.69-.53-.34-.47-.15-1.12-.46-1.59s-1.13-.73-1.58-1a20.05,20.05,0,0,1-2.49-1.38c-.35-.27-.6-.62-.94-.88a4.68,4.68,0,0,0-.47-.29,1.15,1.15,0,0,1-.21.36c-.21-.13-.13-.37,0-.52a.92.92,0,0,1-.2-.17c-.3-.35-.26-.54-.67-.8s-.66-.39-1-.63a2.27,2.27,0,0,1-.25-.25c-.55-.36-1.13-.7-1.71-1a3.31,3.31,0,0,1-.58-.14,13.78,13.78,0,0,1-1.34-.41c-.2-.11-.15-.2-.28-.34a1.43,1.43,0,0,0-.6-.31c-.55-.27-1-.72-1.57-1a34.9,34.9,0,0,0-3.63-1.26c-.34-.14-1-.47-1.23-.55s-.59-.19-.93-.26a8,8,0,0,1-.8,0,1.93,1.93,0,0,1-1.36.06,17.42,17.42,0,0,1-1.48-1,2.07,2.07,0,0,0-.42-.19,9.1,9.1,0,0,0-1-.19,8.86,8.86,0,0,0-1.43-.37,1.3,1.3,0,0,0-.43.1l.08,0c-.38.19-.28.16-.06.44-.27,0-.51,0-.52-.28a1.29,1.29,0,0,1-.47.12,3,3,0,0,1-.75-.16.74.74,0,0,1,0,.09,1.52,1.52,0,0,1-.27-.11.62.62,0,0,0-.39.15c-.18-.72-1-.59-1.47-.86s-.75-.65-1.23-.7a.85.85,0,0,0-.32,0c.15.12.07.58-.2.46a1.67,1.67,0,0,0,.18-.46,10.36,10.36,0,0,1-1.17.28l-.24,0a.18.18,0,0,1,0,.09s0-.05,0-.09a2.75,2.75,0,0,1-1.22,0c-.11-.06-.2-.22-.36-.3a2,2,0,0,0-.49-.19,4,4,0,0,0-.71,0,1.82,1.82,0,0,1-.58-.22.22.22,0,0,1-.14,0l-.7,0c-.28.05-.58.14-.78.16a11.8,11.8,0,0,1-2.38.31,7.08,7.08,0,0,0-1.65.08c-.24.07-.44.12-.64.16a.68.68,0,0,1,.22.18c-.2.29-.23,0-.6.2,0-.21.07-.29.26-.26a.26.26,0,0,1-.11-.09,1.55,1.55,0,0,1-.3,0H120s.06.09,0,.21a.29.29,0,0,1-.27-.21h-.19a.41.41,0,0,1,.13.31.35.35,0,0,0-.33-.1c.11.26,0,.32-.18.51s.39-.05.26.22a.17.17,0,0,0-.18.1c-.17,0-.14-.23-.33-.26,0-.18.14-.29.08-.57.18-.05.17.12.18.25a1.88,1.88,0,0,0,.21-.46,3.46,3.46,0,0,0-.94.08,2.28,2.28,0,0,0-.63.34c0,.08,0,.12-.07.19h.13l-.12.1,0,0-.06,0c-.21.15-.63.36-.83.21h-.09c-.8.05-1.82-.15-2.76-.19a.41.41,0,0,1,0,.15c-.15,0-.15-.11-.25-.11s0,0,0-.06a2.67,2.67,0,0,0-1.7.46c-.25.18.27.1-.3.23a4.16,4.16,0,0,1-1.35-.37c-.6.1-1.21.19-1.82.31,0,0,0,0,0,0h-.23c-.8.14-1.61.29-2.41.41l-.15.08c.07.1.18.16.42,0-.18.25-.09.43-.18.59a3.52,3.52,0,0,1-.5-.49l-.43.21c0,.09,0,.28,0,.36h-.25c-.1-.25.12-.21.16-.32a5.53,5.53,0,0,1-2.09.51,20,20,0,0,0-2.08.17c0,.15,0,.12.11.34-.14.14-.24-.05-.42-.09-.08.31.32.11.26.41-.22.19-.52,0-.61-.26-.32.3-.63-.06-.84-.16,0,0,0,0,0-.05a4,4,0,0,1-.64-.05.5.5,0,0,0,0,.19.48.48,0,0,0-.35-.09.27.27,0,0,0,.07-.13l-.09,0c-.24,0-.48,0-.73,0l-1.18.13c-1.16.1-2.31.25-3.46.37-.22.09-.47.21-.72.29a2.58,2.58,0,0,1-1.08.27s0,0,0,.06c-.15,0-.27-.07-.25.09a.44.44,0,0,1-.14-.15l-.67,0a3.1,3.1,0,0,0-1.83.54,8.73,8.73,0,0,1-2.42.66l-.74.17a.43.43,0,0,1-.16.41c-.06,0-.06-.18-.09-.37a11.42,11.42,0,0,1-2.6.38c-.77,0-1.57-.19-2.36-.17l-1.09.22c-.76.32-1.49.9-1.39,1.59-.66-.12-1.26-.45-1.72.17-.78-.55-2,.26-2.76.29a8.84,8.84,0,0,0-1.36.1.82.82,0,0,1-.13.49.63.63,0,0,1-.17-.44,4.63,4.63,0,0,0-.56.12,5.52,5.52,0,0,0-.83.56,2.13,2.13,0,0,0-.24.12.27.27,0,0,1,0,.14h-.29a8.85,8.85,0,0,1-1.34.53s0,.07,0,.12c0,.76,0,.62-.54.82a4.2,4.2,0,0,1-1.45.16c-.53-.09-1.1-.64-1.67-.48a4.63,4.63,0,0,0-1.15.71.51.51,0,0,0,.15.18c0,.38-.09,0-.19-.15a4,4,0,0,1-.48.28c-.68.27-1.58.34-2.2.67a10.86,10.86,0,0,0-1.5,1A5,5,0,0,1,58,76h0a8.06,8.06,0,0,0-1.54.79,2.63,2.63,0,0,1-1.37.62c-.65.06-1.21.17-1.85.26h0l-1.1.47a5.55,5.55,0,0,1-.6.47c-.06.09,0,.23-.15.27s-.36-.07-.47,0c-.42.14-.27.33-.59.61s-.66.21-1,.36a3.14,3.14,0,0,0-1.12,1,3.29,3.29,0,0,1-1.72,1,6.35,6.35,0,0,0-.89.4.46.46,0,0,0,.19-.09.38.38,0,0,1-.64.35c-.47.31-.93.65-1.4,1a4.25,4.25,0,0,1-.89.48c-.28.14-.74.16-1,.31s-.45.63-.71.8c-.71.6-1.45.54-2.2,1a1.45,1.45,0,0,0-.46.46.7.7,0,0,1,.32,1,.65.65,0,0,0-.42,0,1.59,1.59,0,0,1-.24-.67,4.3,4.3,0,0,1-1.64.9,3.36,3.36,0,0,0-.67.32l-.34.28a2.59,2.59,0,0,0-.32.43c-.16.21-.21.49-.33.69s-.89.45-.8,1c-.34.2-.71.07-1.09.21,0,0,0,0-.09.07a3.06,3.06,0,0,1-.23.23,3.71,3.71,0,0,1-.31.48c-.25.3-.51.4-.75.67-.59.62-.34,1.47-.59,2.2-.94-.13-.43.81-.87,1.25-.17.19-.82.16-1.08.23-.58.12-.86,0-1.2.53s-.25.85-.49,1.21c-.58,1-1.36,1.94-2,2.92-.09.12-.19.23-.28.34h.12c0,.26-.24.34-.34.51l-.16,0c-.31.37-.64.75-.93,1.16a6.84,6.84,0,0,0-.36.67,18.21,18.21,0,0,1-.88,1.71c-.16.29-.16.76-.45,1s-.45.15-.64.29a4.12,4.12,0,0,0-1.09,1.66c-.3.67-.54,1.35-.83,2h.08a.54.54,0,0,1,.08.27c-.19,0-.18.08-.27,0-.37.82-.7,1.64-1,2.47a7.3,7.3,0,0,0-.39,1.81l.26-.06a1.58,1.58,0,0,0,.08,1.24c-.14,0-.16-.24-.32-.19s-.07.19-.07.31a1.13,1.13,0,0,1-.19-.18,3.34,3.34,0,0,0-.24.63,3.5,3.5,0,0,1-.29,1.27c-.25.43-.65.49-.62,1a.39.39,0,0,0,0,.1c.12.09.18.21.09.31a1.18,1.18,0,0,1,.11.7s0,0,.22-.07c.1.49-.36.43-.34.84h-.26a.93.93,0,0,0,.18-.49c-.24.16-.63.18-.77.34a2.81,2.81,0,0,0-.36.85c-.14.76.09,1.57,0,2.34a2.44,2.44,0,0,1-.26.8,4.94,4.94,0,0,0,0,1,7.24,7.24,0,0,1,.09,1.79,16.48,16.48,0,0,0-.66,1.62,6.35,6.35,0,0,0,1.71,5.7c.57.51,1,.22.87,1.28-.05.57-.74.93-.83,1.5a12.42,12.42,0,0,0,.27,1.59h0c0-.13.07-.24.18-.18v.43s-.08,0-.11,0c.13.47.39.88.49,1.37.14.77-.19,1.63-.11,2.43,0,.38.21.77.23,1.16a4.75,4.75,0,0,1-.28,1.15,23.39,23.39,0,0,0,0,3.38,9.48,9.48,0,0,0,.47,2.1,9.65,9.65,0,0,0,.94,2c.43.79.09,1.14.26,1.88a2.06,2.06,0,0,0,.65.08c0,.63.37.58.61,1s.2.84.67,1.32c-.15-.14-.38,1.23-.34,1.38a1.9,1.9,0,0,0,.49,1c.54.85.57,1.94,1.22,2.67a16.14,16.14,0,0,1,1.41,1.63A8.4,8.4,0,0,0,24.78,165c.45.53.82,1.33,1.46,1.63C26.56,166.85,27,166.95,27.31,167.08Z" style="fill: #d0d7d7"/>
    </g>
  </g>
</svg>
