<svg xmlns="http://www.w3.org/2000/svg" width="1.9in" height="1.85in" viewBox="0 0 136.8 133.11">
  <title>bt-logo</title>
  <g>
    <ellipse cx="68.4" cy="66.55" rx="68.4" ry="66.55" style="fill: #fff"/>
    <path d="M68.19,4.5c-35.3,0-64,27.79-64,61.94,0,25.15,15.58,46.83,37.89,56.53a16.18,16.18,0,0,1,.16-2.2h0q.08-.57.19-1.12c0-.12.06-.24.08-.35,1.27-5.53,5.35-10.26,11.41-13.14,3.44-1.84,8.36-3,14.21-3h.74a30.08,30.08,0,0,1,13.4,3c6.65,3.13,10.95,8.48,11.77,14.71h0a16.18,16.18,0,0,1,.15,2.17v0c22.39-9.66,38-31.38,38-56.59C132.21,32.29,103.49,4.5,68.19,4.5Zm0,4.22c33,0,59.81,25.89,59.81,57.73a55.74,55.74,0,0,1-6.64,26.41H101c.09-.38-.06-.13.37-.54,1.37-1.15,4.4.37,5.9-.43v-.44c.51-.5.19,0,.45-.88a16.2,16.2,0,0,0-5.45-.88V88.8l6.36-.88V86.61l-.91-.44c-.15-.68.8-.57.91-.87V82.66l-2.72.44V81.78l2.27-.44c.39-.49-.05-.07.46-.44-.07-2.55-.92-2.84-1.81-4.39l-2.28-.43v-.88h4.09V73.88c-1.27-.19-3.61-.94-5.45-.44v.44H97.76c-.15-.44-.3-.87-.46-1.31l2.28-.44v-.44h.9v-.44H98.22c.27-.88-.07-.38.45-.88v-.44l2.26-.44v-.44h2.27v-.44l1.81-.43V66.43c-3,.05-4.59-.16-5.9-1.76-.52-.5-.2,0-.45-.88l.45-.44h3.17v-.44h1.37v-.43h1.81l.46-1.32,1.81-.88V59h-.45v-.44c-.55-.28-1.13,1.18-1.36,1.31H105v.44c-1.84.69-6.68-.77-7.26-1.32h-.46c.3-.58.6-1.17.91-1.76a6.39,6.39,0,0,1-2.28-1.32h-.45a2.75,2.75,0,0,1,2.27-2.18h1.82a3,3,0,0,1,.9-.88c.39-.5-.06-.07.45-.44v-.44H97.76v-.44h-.46c.38-1.41,1-1.68,2.28-2.2V45.37h-.46v-.43H96.4a3.21,3.21,0,0,0-.9-.88c.2-1.67.55-1.67,1.81-2.19a2.76,2.76,0,0,0-1.81-2.64V32.64a5.07,5.07,0,0,0,.9-.88h.91c-.52-1.65-.48-.75-1.36-1.76h-.45q-.23-2.62-.46-5.27h-.45c-.15-.73-.3-1.45-.46-2.18h-.9A16.61,16.61,0,0,1,91.41,30h-.46v.88H90.5v.88l-.9.44v.88h-.45c-.62,1,.19.62-.91,1.31.83,1.41,3.47,3.19,5,4-.38,1.43-2.43,3.3-3.63,3.95a5.88,5.88,0,0,0,1.82,3.95c-.28.88.06.38-.46.88-2,1.75-12.77.49-16.34.44V46.24c1.08-.49,2-.79,3.18-1.31v-.44H81v-.44l2.27-.44V41.86c-1.56-.05-4.17-.3-5,.43-2.67,0-3.41-.07-5-.88v-.88l2.27-.44v-.44H76c-1.32-1.17-2.1.09-2.73-2.2-.51-.49-.19,0-.45-.87h.45l.45-1.31h1.36v-.44l1.37-.44c.15-.44.29-.87.45-1.31a8.57,8.57,0,0,0-3.18-.44V30.89h.45c.79-1.11,1.13-.88,1.37-2.63a2.15,2.15,0,0,1-1.82-1.32c-.73-1.07.7-1.61,1.36-2.63a4.65,4.65,0,0,0-1.82-.44V22.56h.45V16h.45v-.88c.13-.24.79-.12.91-.87l-1.36-.88V10.27h-.9c-.1,3-1.12,5-3.18,6.15.36,1.26.73,1.29,1.82,1.75v1.76H71v.87l-1.37.88v.88l-1.36.88L65.53,26.5v1.31H66v.45l1.36-.45c1,.46.68,2.07,2.26.45a4.77,4.77,0,0,1,1.82.43c-.25,2.06-.83,1.79-2.27,2.64v.44h-.91c-.45.31-.81,1.35-1.36,1.75-.15.44-.31.88-.46,1.31h.46v.44l1.36-.44q-.22.88-.45,1.76c-1.23.34-1,.11-1.36,1.32,1.52,0,1.66,0,2.26-.87a7.49,7.49,0,0,1,2.72.43c-.44,1.54-1.82,1.9,0,3.08-.14.44-.3.88-.45,1.32H67.35v-.44L65.07,41v-.44a4.24,4.24,0,0,0-2.27-.44c.34,1.24.82,1.26,1.36,2.19l5,.88v.44c1.23.33,1,.1,1.36,1.32l-4.08,1.31v.44c-1.86,0-3.29.1-4.09-.87-.64-.77.44-.43-.91-1.32V41h-.92c-.15.73-.3,1.46-.44,2.19l-.91.44v1.76h-.46V48h-.45v.44h.45v.87h.46c.55,1.77-.65,2.71-.91,3.95h1.36c.39.49-.07.07.46.45V55h-.46l-2.27,2.64H53.72v.44h-.45l1.36,1.75h.46v3.07l1.81,1.32c-.16.73-.31,1.46-.46,2.2h.46v.44h1.36l-.45,1.32a16.59,16.59,0,0,0-4.54,1.31c-.12,2.57-1,4.13.9,5.27v.44c.82-.42.71-.63,1.82-.88-.34,1.24-.81,1.26-1.36,2.2A8.77,8.77,0,0,1,51,76.09v-.44H49.63v-.44c-1.43-.81-2.24-2.7-2.27-4.83a19.3,19.3,0,0,1,4.09-.44c.39-.49-.07-.06.45-.44-.26-1.91-.69-1.17-.91-3.07l-7.72.44V65.55h.46v-.44l5.44-.88v-.88H46v-2.2H43.74V59.84c1.75-.19,1.87-.72,3.63-.87V57.65H44.65c.15-.88.3-1.76.45-2.64l-2.72-.88V52.39c.13-.23,2.66-1.22,3.18-1.76s.19,0,.45-.87l-2.27-.87V47.56h.45c.79-.93.9-.27,1.36-1.75.51-.5.19,0,.45-.88l-2.72-3.07c-.85-.61-.66.19-1.36-.88h-.46a3.64,3.64,0,0,1,.91-1.32V34.4L43.74,34v-.44h.45v-.44a6.71,6.71,0,0,1-2.73-1.32c-1.46.17-1.32.4-2.26.88A3,3,0,0,0,41,34.84v4.39l-.91.44v1.75c-.45,1.06-1.46,1.69-1.81,3.07h1.36c.39.5-.05.07.46.44v.88c-.19.42-1.14,0-.91,1.32,0,.14.82,0,.91.88l-.91.44c-.3.87-.61,1.75-.91,2.63l-.91.44v1.32h-.45A5,5,0,0,0,35.56,55a9.94,9.94,0,0,1,4.54,0v1.32l-2.72.88v.44H35.56v.44c-1.76,1.36-.14.85-.91,2.19A8.85,8.85,0,0,1,31.93,62v1.31h1.36v1.31h.45v.44h2.72L36,66.43l-4.09.88c-.15.44-.3.88-.46,1.31H31v.44c2.16,0,4.41.16,5.45-.88a6,6,0,0,1,3.63.88v1.31c-1.07.28-.85.13-1.36.88h-5.9c-.76,1.16-1.51,2.33-2.26,3.51h-.91v1.32h.91v1.31a25.81,25.81,0,0,0,5.9.88c.16.44.31.88.46,1.32-3.24.73-5.49,3.15-9.08,3.51.35,1.26.72,1.29,1.82,1.76-.39.49.06.07-.46.43v.43H27.84v.44h-.91v.44H23.3c-.38.49.06.06-.45.44.6,2.31,2.41,2,4.54,2.64l-.45.88c-1.66,0-2.44,0-3.18-.88H23.3c.24,1.94.77,1.94,2.28,2.63v.44l1.36-.44v.44l.31.1H15A55.75,55.75,0,0,1,8.38,66.44C8.38,34.61,35.21,8.71,68.19,8.71ZM31.93,90.56v-.88c.33-.53,1.74-.54,2.27-.88l.91-1.31H36V87c1.75-.7,1.48.72,2.72-.88a5,5,0,0,1,1.81.44v1.75H40.1v.44H36.92v.44H36l-.45.88ZM40.1,54.14v-.88H41v.88ZM46.45,69.5H42.83l.45-1.31a9.1,9.1,0,0,1,3.18.43Zm4.09,14.92v1.31c-1.49,0-3.76.26-4.54-.43h-.45v-.43A15.66,15.66,0,0,1,50.54,84.42Zm1.82,7c.54-2.6.54-1.46,2.73-2.2V88.8h2.72l.45,1.76A28.78,28.78,0,0,0,52.36,91.44Zm7.26-30.28H56.9V59.84h.45V59.4c2,.1,1.54.28,2.73.88Zm8.62,24.57h.45v.44l1.36.44-.46.88L65.07,87v-.88h3.17Zm-4.09-18v-.88c.91-.27.39.06.91-.44,2.39-.11,4-.61,4.54,1.32A13.22,13.22,0,0,1,64.16,67.75Zm4.54-2.2c-1.59-.11-1.6-.38-2.26-1.32H66l.46-.88h3.63c.39.49-.06.07.46.44C70,64.64,69.3,64.84,68.7,65.55ZM69.61,55l-2.72.44v.88h2.27c.39.5-.06.07.45.44l-.45.88H66.44v-.44c-.49-.29-1.5-1.48-2.73-.88v.44a5.9,5.9,0,0,1-2.27-.44c.27-1.9.86-1.61.91-3.95,1.8-.4,3.64-1.57,5,0,2.36,0,1.77.16,3.18.88C70.24,54.33,70,54.23,69.61,55ZM61.9,59h6.8v1.32h-.91c.28.88-.07.38.45.88v.44h1.36c-.15.44-.3.88-.45,1.31H66.44c-.16-.29-.31-.58-.46-.87H61.9c-.39-.5.06-.07-.45-.44A6.62,6.62,0,0,1,61.9,59Zm5,12.72V73H61V71.69Zm7.26-21.07a4.4,4.4,0,0,0,2.28-.44v-.44c2.81-1.1,6.17,1.72,8.17,0,2.31,0,5.19-.15,6.81.44v.44c-1.43.51-5.44.54-6.36,1.32H84.6c.72,1.44.23,1.59,0,3.07-2.6-.07-3.58-.88-5.45-1.31L78.69,55h-.45c0,.44.93.93.45,1.76h-.45v.44l-3.18.44c.16-1.31,0-1.21.91-1.76V55c-.71.9-1.81-.22-2.28-.88h-.45c.33-1.26.49-1.45,1.82-1.75C74.63,51.6,74.41,51.7,74.15,50.63Zm8.63,21.5v2.63H79.15v-.44h-.91v-.44H75.52v-.44h-.46l.46-1.75a4.31,4.31,0,0,0,2.27-.44v-.44H79.6v-.44h.46c-.28-1.07-.49-1-.91-1.76H76v-.87l4.09-.44v-.44l10,.44v.44h.91v.44l1.37.43c-1,1.7-1.35,1-3.18,1.76v.44h-.91v.44H85.05v.44A4.24,4.24,0,0,1,82.78,72.13Zm.46,12.73v.43c-.82.12-.9.43-.9.43H77.79v.44c-.73.56-.62.24-.91,1.32a8.47,8.47,0,0,1-4.08,0V86.17l1.36-.44v-.43c1.84-.66,2.33.51,3.64-.88A18.16,18.16,0,0,1,83.23,84.86ZM90.5,61.6c.39.49-.06.07.45.44-.27.87.06.37-.45.87-1.66,1.5-6,.22-7.72,1.75-2.91,0-6.91.35-9.08-.44V62.48c1.39-.3,1.58-.74,3.18-.88V59.84c2.61.12,5.67.9,7.27-.87a16.54,16.54,0,0,1,5,.44l-.46.88H86.41v.88ZM80.06,77.84v.88H78.69v.44c-2.19,0-4.84.11-6.35-.44V76.52h.45v-.43Zm25,7.46c.39.5-.06.07.45.43v.44c-1.49.52-3.52.24-4.54,1.32-1.91.06-3.33.22-4.09-.88H96.4l.45-1.32Zm-6.35-5.7q.22-.66.45-1.32c1.64,0,4.56-.34,5.44.44.91.26.39-.06.91.44A10.74,10.74,0,0,1,98.67,79.59Z" style="fill: #d0d7d7"/>
    <path d="M77.09,108.78a23.24,23.24,0,0,0-8.62-1.55H68a23.67,23.67,0,0,0-9.15,1.56c-4.74,1.83-7.62,5.09-7.62,8.81,0,6,7.07,10.73,16.77,10.73s16.76-4.71,16.76-10.73c0-3.73-2.9-7-7.66-8.82m.61,3c0,1.7-2.7,2.78-5.85,3.27-.45-4-1.82-6.26-3.39-6.62h.92a22.67,22.67,0,0,1,5.06.86c1.93.59,3.26,1.46,3.26,2.46m-7.1,5.92c0,4-1.41,6.07-2.59,6.07s-2.58-2.07-2.58-6.07v0c.82.07,1.68.1,2.56.1s1.77,0,2.61-.1ZM68,115.34c-.78,0-1.6,0-2.4-.11.43-3,1.59-4.29,2.42-4.29s2,1.31,2.43,4.28c-.83.08-1.65.12-2.45.12m-6.56-6a22.92,22.92,0,0,1,5.54-.91h0l.6,0c-1.58.35-2.95,2.58-3.4,6.63-3.17-.48-5.89-1.56-5.89-3.27,0-1,1.28-1.83,3.15-2.43m-7.87,7.71a6.22,6.22,0,0,1,1.92-4.4c.21,2.32,3.58,4.22,8.54,4.88,0,.17,0,.36,0,.53,0,5.51,1.53,8.49,3.28,9.11-6.47-.25-13.74-3.89-13.74-10.12m15.18,10.11c1.75-.63,3.28-3.6,3.28-9.11,0-.18,0-.36,0-.54,4.93-.67,8.29-2.56,8.5-4.87a6.23,6.23,0,0,1,1.93,4.41c0,6.21-7.24,9.86-13.7,10.11" style="fill: #d0d7d7"/>
  </g>
</svg>
