<?xml version="1.0" encoding="utf-8"?>
<!-- Generator: Adobe Illustrator 21.1.0, SVG Export Plug-In . SVG Version: 6.00 Build 0)  -->
<svg version="1.1" id="Layer_1" xmlns="http://www.w3.org/2000/svg" xmlns:xlink="http://www.w3.org/1999/xlink" x="0px" y="0px"
	 viewBox="0 0 1140 396.6" style="enable-background:new 0 0 1140 396.6;" xml:space="preserve">
<style type="text/css">
	.st0{fill:#EAF8F8;}
	.st1{fill:none;stroke:#F2F2F2;stroke-miterlimit:10;}
	.st2{fill:#CBE8F4;}
	.st3{fill:#2C8DDD;}
	.st4{fill:#A9DAF4;}
	.st5{fill:#F4725D;}
	.st6{fill:#FFDD64;}
	.st7{fill:#005596;}
</style>
<title>Artboard 1 copy 16</title>
<path class="st0" d="M702.6,291.7c0-0.3,0-0.5,0.1-0.8c-1.9-5.1-4.3-9.9-7.2-14.5c-15.1-24-40-31-63.9-35.7l-2.4-0.5
	c-6.7,1.4-12.2,5.8-16.8,10.7c-9.7,10.6-16.4,23.4-19.6,37.4c-0.1,0.6-0.4,1.1-0.9,1.5c-0.8,1.7-3,2.8-4.5,0.9
	c-12.2-14.8-25.1-32-44.4-37.5c-9.9-2.9-20.5-2.6-30.2,1c-5.5,2.3-10.7,5.1-15.5,8.5c-6.4,5.9-11.6,12.9-15.6,20.6
	c-5.6,11-10.3,27.7-10.5,42.3c2,4.1,4.4,8,6.8,12c4.3,7.3,8,14.9,12,22.4c8.1,15.6,19,29.6,32.1,41.4c12.3,11.1,25.7,21,38.4,31.6
	c11,9.1,21.8,18.6,34,25.9c1,0.1,1.9,0.2,2.9,0.3c1.2,0.1,2.5-0.2,3.5-0.9c13.2-8.9,21.7-21.1,30.4-34.2l30.1-45.1
	c9.7-14.5,19.6-29,29.1-43.7c4.5-7,8.5-15.1,9.2-23.3C701.9,305.4,702.9,298.6,702.6,291.7z"/>
<line class="st1" x1="326.3" y1="569.5" x2="333.4" y2="571.2"/>
<path class="st0" d="M860.8,177.7c-7.4-11.7-19.6-15.2-31.3-17.5c-12.6-2.5-26-4.6-39.2-2.2c-12,2.2-27.2,9.5-34.2,23.1
	c-4.3,8.5-7.6,24.1-2.6,31.5c-2.4,11.5,0.4,23.5,7.2,30.9c4.9,5.4,11.5,8.5,17.8,11.6c6.7,3.5,13.7,6.5,20.9,9.1
	c13.8,4.7,29.9,5.5,43-5.1c11.6-9.4,20-25.6,23.5-40.8C869.1,204.2,867.8,188.9,860.8,177.7z"/>
<path class="st0" d="M1206.8,242.5c-7.4-11.7-19.6-15.2-31.3-17.5c-12.6-2.5-26-4.6-39.2-2.2c-12,2.2-27.2,9.5-34.2,23.1
	c-4.3,8.5-7.6,24.1-2.6,31.5c-2.4,11.5,0.4,23.5,7.2,30.9c4.9,5.4,11.5,8.5,17.8,11.6c6.7,3.5,13.7,6.5,20.9,9.1
	c13.8,4.7,29.9,5.5,43-5.1c11.6-9.4,20-25.6,23.5-40.8C1215.1,269,1213.8,253.7,1206.8,242.5z"/>
<path class="st2" d="M1055.9,155c-4-6.4-10.7-8.3-17-9.5c-6.8-1.4-14.2-2.5-21.4-1.2c-6.5,1.2-14.8,5.2-18.6,12.6
	c-2.4,4.6-4.1,13.1-1.4,17.1c-1.3,6.3,0.2,12.8,3.9,16.8c2.7,2.9,6.3,4.6,9.7,6.3c3.7,1.9,7.5,3.6,11.4,5c7.5,2.5,16.3,3,23.4-2.8
	c6.3-5.1,10.9-13.9,12.8-22.2C1060.5,169.4,1059.8,161.1,1055.9,155z"/>
<path class="st2" d="M371.2,140.4c-4-6.4-10.7-8.3-17-9.5c-6.9-1.4-14.2-2.5-21.4-1.2c-6.5,1.2-14.8,5.2-18.6,12.6
	c-2.4,4.6-4.1,13.1-1.4,17.1c-1.3,6.3,0.2,12.8,3.9,16.8c2.7,2.9,6.3,4.6,9.7,6.3c3.7,1.9,7.5,3.6,11.4,5c7.5,2.5,16.3,3,23.4-2.8
	c6.3-5.1,10.9-13.9,12.8-22.2C375.8,154.9,375,146.5,371.2,140.4z"/>
<path class="st0" d="M903.2,368.8c-4-6.4-10.7-8.3-17-9.5c-6.8-1.4-14.2-2.5-21.4-1.2c-6.5,1.2-14.8,5.2-18.6,12.6
	c-2.4,4.6-4.1,13.1-1.4,17.1c-1.3,6.3,0.2,12.8,3.9,16.8c2.7,2.9,6.3,4.6,9.7,6.3c3.7,1.9,7.5,3.6,11.4,5c7.5,2.5,16.3,3,23.4-2.8
	c6.3-5.1,10.9-13.9,12.8-22.2C907.8,383.2,907.1,374.9,903.2,368.8z"/>
<path class="st2" d="M1013.5,281.6c-10.3-4.9-20.3-1.8-29.4,1.7c-9.8,3.8-20,8.3-28.1,15.8c-7.3,6.8-14.6,18.6-13.4,31
	c0.8,7.8,5.4,20,12.1,22.9c3.4,9,10.7,16.1,18.6,18.2c5.8,1.5,11.7,0.8,17.4,0.2c6.2-0.6,12.4-1.5,18.5-2.9
	c11.6-2.9,23.1-9.4,27.5-22.5c3.9-11.6,2.5-26.5-1.8-38.6C1031,296.3,1023.3,286.3,1013.5,281.6z"/>
<path class="st2" d="M199.9,123.2c-4-6.4-10.7-8.3-17-9.5c-6.9-1.4-14.2-2.5-21.4-1.2c-6.5,1.2-14.8,5.2-18.6,12.6
	c-2.4,4.6-4.1,13.1-1.4,17.1c-1.3,6.3,0.2,12.8,3.9,16.8c2.7,2.9,6.3,4.6,9.7,6.3c3.7,1.9,7.5,3.6,11.4,5c7.5,2.5,16.3,3,23.4-2.8
	c6.3-5.1,10.9-13.9,12.8-22.2C204.4,137.7,203.7,129.3,199.9,123.2z"/>
<path class="st0" d="M54.5,83.4C49.2,75.1,40.6,72.7,32.4,71c-8.9-1.7-18.4-3.2-27.7-1.5c-8.5,1.5-19.2,6.7-24.1,16.3
	c-3.1,6-5.4,17-1.9,22.2c-1.7,8.1,0.3,16.6,5,21.8c3.5,3.8,8.1,6,12.6,8.2c4.8,2.5,9.7,4.6,14.8,6.4c9.8,3.3,21.1,3.9,30.4-3.6
	c8.2-6.6,14.1-18.1,16.6-28.8C60.3,102.1,59.4,91.3,54.5,83.4z"/>
<path class="st0" d="M287.8,232.2c-2.9-4.7-7.8-6.1-12.5-7c-5-1-10.4-1.8-15.6-0.9c-4.8,0.9-10.8,3.8-13.6,9.2
	c-1.7,3.4-3,9.6-1,12.6c-1,4.6,0.2,9.4,2.9,12.3c2,2.1,4.6,3.4,7.1,4.6c2.7,1.4,5.5,2.6,8.3,3.6c5.5,1.9,11.9,2.2,17.1-2
	c4.6-3.7,8-10.2,9.4-16.2C291.1,242.7,290.6,236.6,287.8,232.2z"/>
<path class="st2" d="M413.8,404.7c-7.4-11.7-19.6-15.2-31.3-17.5c-12.6-2.5-26-4.6-39.2-2.2c-12,2.2-27.2,9.5-34.2,23.1
	c-4.4,8.5-7.6,24.1-2.6,31.5c-2.4,11.5,0.4,23.5,7.1,30.9c4.9,5.4,11.5,8.5,17.8,11.6c6.7,3.5,13.7,6.5,20.9,9.1
	c13.8,4.7,29.9,5.5,43-5.1c11.6-9.4,20-25.6,23.5-40.8C422.1,431.2,420.8,415.9,413.8,404.7z"/>
<path class="st2" d="M1070.7,471.2c-7.4-11.7-19.6-15.2-31.3-17.5c-12.6-2.5-26-4.6-39.2-2.2c-12,2.2-27.2,9.5-34.2,23.1
	c-4.3,8.5-7.6,24.1-2.6,31.5c-2.4,11.5,0.4,23.5,7.2,30.9c4.9,5.4,11.5,8.5,17.8,11.6c6.7,3.5,13.7,6.5,20.9,9.1
	c13.8,4.7,29.9,5.5,43-5.1c11.6-9.4,20-25.6,23.5-40.8C1079,497.7,1077.7,482.4,1070.7,471.2z"/>
<path class="st0" d="M200.3,274.6c-7.4-11.7-19.6-15.2-31.3-17.5c-12.6-2.5-26-4.6-39.2-2.2c-12,2.2-27.2,9.5-34.2,23.1
	c-4.3,8.5-7.6,24.1-2.6,31.5c-2.4,11.5,0.4,23.5,7.2,30.9c4.9,5.4,11.5,8.5,17.8,11.6c6.7,3.5,13.7,6.5,20.9,9.1
	c13.8,4.7,29.9,5.5,43-5.1c11.6-9.4,20-25.6,23.5-40.8C208.6,301.1,207.4,285.8,200.3,274.6z"/>
<path class="st2" d="M80.8,355.5c-7.4-11.7-19.6-15.2-31.3-17.5c-12.6-2.5-26-4.6-39.2-2.2c-12,2.2-27.2,9.5-34.2,23.1
	c-4.4,8.5-7.6,24.1-2.6,31.5c-2.4,11.5,0.4,23.5,7.1,30.9c4.9,5.4,11.5,8.5,17.8,11.6c6.7,3.5,13.7,6.6,20.9,9.1
	c13.8,4.7,29.9,5.5,43-5.1c11.6-9.4,20-25.6,23.5-40.8C89.2,382,87.9,366.7,80.8,355.5z"/>
<path class="st3" d="M493,235.2c-0.7-5.4-2.3-11.3-7.4-14.1c-3.1-1.7-7-2-10.8-1.7v-0.8c-1,0.3-2,0.6-3.1,0.9v0.3
	c-1.4,0.3-2.8,0.6-4,1c-5.5,1.6-6.8,5.1-7.4,10.5c-1.1,9.9-1.3,19.9-0.8,29.8c0,0.7,0.6,1.4,1.3,1.5c0.4,2,0.9,4,1.6,6
	c0.8,2.4,1.8,6.7,4,8.2c3.6,2.4,11.3-2.8,14.4-4.6c5-3,9.4-7,11.5-12.5C494.9,252.1,494,242.9,493,235.2z M482.6,267
	c-3.1,2.4-7.6,5.5-11.5,6.3c-4.4,1-5.1-3.2-6.1-6.5c-1-3.3-1.7-6.6-2.1-10.1c0-0.4-0.3-0.8-0.6-1.1c-0.1-3.8-0.1-7.7,0.1-11.5
	c0.1-3,0.3-6,0.6-8.9c0.2-2.4,0-5.8,1-8c1.1-2.5,4.4-3.8,7.8-4.4l0.8,24.3c0.1,2,3.2,2,3.1,0l-0.8-24.7c1.8-0.1,3.5-0.1,5.3,0.1
	c7.5,1,9.2,7.8,10,14.2C491.3,247.6,492,259.7,482.6,267z"/>
<path class="st3" d="M426.4,444.9c-0.9,0-1.5,0.7-1.5,1.5c0,0.9,0.7,1.6,1.5,1.6s1.5-0.7,1.5-1.6C428,445.6,427.3,444.9,426.4,444.9
	z"/>
<path class="st3" d="M1049.3,145.5c-0.9,0-1.5,0.7-1.5,1.5c0,0.9,0.7,1.6,1.5,1.6c0.9,0,1.6-0.7,1.6-1.6
	C1050.9,146.2,1050.2,145.5,1049.3,145.5z"/>
<path class="st4" d="M429,249.5c-11.5-2.6-23.1-4.8-34.8-6.6c-5.2-0.8-6.6,7.4-1.3,8.2c11.7,1.8,23.3,3.9,34.8,6.6
	C432.9,258.9,434.2,250.7,429,249.5z"/>
<path class="st4" d="M63.9,287c-11.5-2.6-23.1-4.8-34.8-6.6c-5.2-0.8-6.6,7.4-1.3,8.2c11.7,1.8,23.3,3.9,34.8,6.6
	C67.8,296.4,69.1,288.2,63.9,287z"/>
<path class="st4" d="M501.7,392.6c-4,0-4,6.2,0,6.2S505.7,392.6,501.7,392.6z"/>
<path class="st4" d="M293.9,29.3c-4,0-4,6.2,0,6.2S297.9,29.3,293.9,29.3z"/>
<path class="st4" d="M479.6,390.4c-4,0-4,6.2,0,6.2S483.6,390.4,479.6,390.4z"/>
<path class="st5" d="M488.4,417.6c-4,0-4,6.2,0,6.2S492.4,417.6,488.4,417.6z"/>
<path class="st3" d="M82,158.3c-4,0-4,6.2,0,6.2S86,158.3,82,158.3z"/>
<path class="st4" d="M100.3,59.8c-4,0-4,6.2,0,6.2S104.3,59.8,100.3,59.8z"/>
<path class="st4" d="M67.7,145.6c-4,0-4,6.2,0,6.2S71.7,145.6,67.7,145.6z"/>
<path class="st5" d="M73.6,169c-4,0-4,6.2,0,6.2S77.6,169,73.6,169z"/>
<path class="st6" d="M719.4,402.3l-7.4-8.8c-0.1-0.1-0.2-0.2-0.4-0.3c-0.5-0.9-1.5-1.4-2.5-1.4c-3.2,0-3.8,4.1-1.8,5.6
	c0.1,0.2,0.2,0.3,0.3,0.4l7.4,8.8c1.2,1.2,3.2,1.2,4.4,0C720.6,405.5,720.5,403.6,719.4,402.3z"/>
<path class="st6" d="M728.3,385.3l-9.6-11.5c-0.1-1.6-1.4-2.8-3-2.7c-1.7,0-3,1.3-3,3c0,0.2,0,0.3,0,0.5c-0.2,0.9,0.1,1.9,0.7,2.6
	l10.4,12.5C726.5,392.8,730.8,388.4,728.3,385.3z"/>
<path class="st4" d="M702.2,423.6l-3.1-4.3c-0.9-1.4-2.8-1.9-4.2-1.1c-1.3,0.8-2.1,2.8-1.1,4.2l3.1,4.3c0.9,1.4,2.8,1.9,4.2,1.1
	C702.4,427,703.2,425,702.2,423.6z"/>
<path class="st6" d="M717.9,248.2c-6,3.9-10.9,9.1-14.5,15.2c-2,3.5,3.4,6.6,5.3,3.1c3-5.2,7.2-9.7,12.2-13
	C724.3,251.3,721.2,246,717.9,248.2z"/>
<path class="st6" d="M265,108.3c-6,3.9-10.9,9.1-14.5,15.2c-2,3.5,3.4,6.6,5.4,3.1c3-5.2,7.2-9.7,12.2-13
	C271.5,111.5,268.4,106.1,265,108.3z"/>
<path class="st6" d="M339.3,226.3c-4-5.9-9.4-10.7-15.6-14.1c-3.5-1.9-6.5,3.5-3,5.4c5.3,2.9,9.9,6.9,13.3,11.9
	C336.3,232.8,341.6,229.6,339.3,226.3z"/>
<path class="st6" d="M148.2,142.8c-4-5.9-9.4-10.7-15.6-14.1c-3.5-1.9-6.5,3.5-3,5.4c5.3,2.9,9.9,6.9,13.3,11.9
	C145.2,149.3,150.5,146.1,148.2,142.8z"/>
<path class="st4" d="M688.7,247.2c-4,0-4,6.2,0,6.2S692.7,247.2,688.7,247.2z"/>
<path class="st5" d="M687.4,269.3c-0.9-1.4-2.8-1.9-4.2-1.1c-0.9,0.4-1.9,0.4-2.8,0.3c-1.6-0.4-3.3,0.5-3.8,2.2
	c-0.4,1.6,0.5,3.3,2.2,3.8c2.6,0.6,5.2,0.3,7.6-0.9C687.8,272.6,688.3,270.7,687.4,269.3z"/>
<path class="st4" d="M331.9,329c-3-14.1-22.1-10.4-31.9-6.2c-4,1.7-7.8,6.1-5.3,10.7c3,5.4,13.3,3.2,18.1,3.2c4,0,4-6.2,0-6.2
	c-2.9,0-6.4,0.6-9.2,0.1c-1.5,0.6-2.2,0.3-1.8-0.9c-0.3-1.2,0.4-1.7,1.9-1.6c1.4-0.6,2.9-1,4.4-1.2c5.7-1.3,16.2-4.1,17.8,3.8
	c1,6.1-0.3,12.4-3.6,17.7c-1.9,3-4.9,5.1-8.3,6c-1.5,0.4-3.1,0.5-4.7,0.1c-1.4-0.4-4.3-2.5-2.2-4c3.2-2.3,0.1-7.7-3.1-5.4
	c-3.7,2.4-4.8,7.4-2.4,11.2c0.1,0.2,0.3,0.4,0.4,0.6c3.3,4.3,9.5,4.8,14.4,3.3C328.8,356.5,334.3,340.9,331.9,329z"/>
<path class="st4" d="M750.4,559.8c0,4,6.2,4.1,6.2,0.1S750.4,555.8,750.4,559.8z"/>
<path class="st4" d="M781.9,575.2l-1.1,16.2c0,0.1,0,0.1,0,0.2c-1.5-0.7-3.4,0-4,1.6c-0.2,0.4-0.3,0.8-0.3,1.2c0,4,6.2,4.1,6.2,0.1
	v-0.1c1.7,0.6,3.5-0.3,4.1-1.9c0.1-0.3,0.2-0.6,0.2-0.9l1.1-16.2C788.4,571.3,782.2,571.2,781.9,575.2z"/>
<path class="st6" d="M792.2,578.3l-0.3,22.9c0,4,6.2,4.1,6.2,0.1l0.3-22.9C798.5,574.3,792.3,574.3,792.2,578.3z"/>
<path class="st4" d="M273.1,548.8l0.5-1c1.1-0.1,2-0.8,2.4-1.8c1.4-3.2-2.8-5.5-4.9-3.6c-1.2,0-2.2,0.7-2.7,1.8l-0.9,2
	c-0.8,1.5-0.2,3.4,1.4,4.2c1.5,0.8,3.4,0.2,4.2-1.4C273.1,549,273.1,548.9,273.1,548.8L273.1,548.8z"/>
<path class="st5" d="M303.7,572.9c1.6-3.6-4-6.2-5.7-2.5S302,576.5,303.7,572.9z"/>
<path class="st6" d="M276.1,562.3c1.6-3.6-4-6.2-5.7-2.5S274.5,565.9,276.1,562.3z"/>
<path class="st4" d="M681,560.1c-4,0-4,6.2,0,6.2S685,560.1,681,560.1z"/>
<path class="st4" d="M688.4,556.4c-4,0-4,6.2,0,6.2S692.4,556.4,688.4,556.4z"/>
<path class="st4" d="M256.9,481.3c-4,0-4,6.2,0,6.2S260.9,481.3,256.9,481.3z"/>
<path class="st6" d="M931.2,456.8c-4,0-4,6.2,0,6.2S935.2,456.8,931.2,456.8z"/>
<path class="st4" d="M918.9,488.1c-4,0-4,6.2,0,6.2S922.9,488.1,918.9,488.1z"/>
<path class="st4" d="M497,158.3c-4,0-4,6.2,0,6.2S501,158.3,497,158.3z"/>
<path class="st6" d="M939.3,499.6c-4,0-4,6.2,0,6.2S943.3,499.6,939.3,499.6z"/>
<path class="st5" d="M926.8,320.2c-4,0-4,6.2,0,6.2S930.7,320.2,926.8,320.2z"/>
<path class="st4" d="M902.4,319.5c-4,0-4,6.2,0,6.2S906.4,319.5,902.4,319.5z"/>
<path class="st4" d="M914.2,287.8c-4,0-4,6.2,0,6.2S918.2,287.8,914.2,287.8z"/>
<path class="st4" d="M435.4,127.5l-15.9-7.7c-3.6-1.7-6.3,3.8-2.7,5.6l15.9,7.7C436.3,134.8,439,129.2,435.4,127.5z"/>
<path class="st4" d="M987.1,97.6h-17.7c-4,0-4,6.2,0,6.2h17.7C991,103.8,991,97.6,987.1,97.6z"/>
<path class="st4" d="M858.3,150.7c-1.5,0.8-2.2,2.6-1.4,4.1l0.6,1.3c0.7,1.6,2.6,2.2,4.1,1.5s2.2-2.6,1.5-4.1c0,0,0-0.1-0.1-0.1
	l-0.6-1.3C861.7,150.6,859.9,149.9,858.3,150.7z"/>
<path class="st5" d="M881.8,177l-15.9,7.7c-3.6,1.7-0.9,7.3,2.7,5.6l15.9-7.7C888,180.9,885.3,175.3,881.8,177z"/>
<path class="st5" d="M1115.5,76.6l-15.9,7.7c-3.6,1.7-0.9,7.3,2.7,5.6l15.9-7.7C1121.8,80.4,1119.1,74.8,1115.5,76.6z"/>
<path class="st0" d="M930.2,551.2c-7.3-8.8-15.7-16.7-24.8-23.6c-3.2-2.4-6.3,3-3.1,5.3c8.7,6.6,16.6,14.2,23.5,22.6
	C928.3,558.6,932.7,554.2,930.2,551.2z"/>
<path class="st6" d="M649.7,612c-7.6-5.1-16.5-10.4-25.9-7.6c-4.5,1.4-6.2,4.6-9.9,7.1c-3,2-4.8,0.3-7.4-1.5c-2.2-1.6-4.6-3.1-7-4.3
	c-8.1-4-16.9-4-23.9,2.1c-1.7,1.5-3.3,3.8-5.5,4.5c-3.1,1-5.4-1.7-7.9-3.1c-4.4-2.4-9.5-3.3-14.5-2.6c-3.9,0.5-4,6.7,0,6.2
	c6.4-0.8,10.2,1.4,15.4,4.5c2.8,1.8,6.3,2.1,9.4,0.8c3.9-1.7,6.1-5.5,9.7-7.6c5.5-3.2,12-0.9,17,2.1c6.7,4,11.8,9.8,19,3.3
	c4-3.7,6.9-6.6,12.8-5.9s10.8,4.2,15.5,7.4C649.8,619.5,653,614.2,649.7,612z"/>
<path class="st6" d="M1095.5,239.8c-7.6-5.1-16.5-10.4-25.9-7.6c-4.5,1.4-6.2,4.6-9.9,7.1c-3,2-4.8,0.3-7.4-1.5
	c-2.2-1.6-4.6-3.1-7-4.3c-8.1-4-16.9-4-23.9,2.1c-1.7,1.5-3.3,3.8-5.5,4.5c-3.1,1-5.4-1.7-7.9-3.1c-4.4-2.4-9.5-3.3-14.5-2.6
	c-3.9,0.5-4,6.7,0,6.2c6.4-0.8,10.2,1.4,15.4,4.5c2.8,1.8,6.3,2.1,9.4,0.8c3.9-1.7,6.1-5.5,9.7-7.6c5.5-3.2,12-0.9,17,2.1
	c6.7,4,11.8,9.8,19,3.3c4-3.7,6.9-6.6,12.8-5.9s10.8,4.2,15.5,7.4C1095.7,247.4,1098.8,242,1095.5,239.8z"/>
<path class="st3" d="M419.3,184.1L408.2,166c-2.1-3.4-7.4-0.2-5.3,3.2l11.1,18.1C416.1,190.8,421.4,187.5,419.3,184.1z"/>
<path class="st5" d="M265,248c-4,0-4,6.2,0,6.2S269,248,265,248z"/>
<path class="st3" d="M273.1,261.1c-4,0-4,6.2,0,6.2S277.1,261.1,273.1,261.1z"/>
<path class="st3" d="M284.2,245.9c-4,0-4,6.2,0,6.2S288.2,245.9,284.2,245.9z"/>
<path class="st3" d="M805.2,567.5c-0.7,6.1,4.6,10.4,8.4,14.5l15.8,17c2.7,2.9,7.2-1.4,4.4-4.3L821.9,582
	c-3.2-3.5-11.1-9.3-10.5-14.4C811.8,563.6,805.6,563.6,805.2,567.5z"/>
<path class="st3" d="M647.5,572.5c-2.2-2.4-4.6-4.8-6.9-7.2c2.3-1.9,4.5-4,6.5-6.1c2.7-2.9-1.7-7.3-4.4-4.4
	c-2.1,2.2-4.3,4.3-6.6,6.2c-1.8-1.7-3.6-3.4-5.5-5c-3-2.6-7.4,1.8-4.4,4.4c1.6,1.4,3.2,2.9,4.8,4.3c-5.1,3.4-10.7,6-16.5,7.9
	c-3.8,1.2-2.2,7.2,1.7,6c6.9-2.2,13.5-5.3,19.5-9.5c2.6,2.5,5.1,5.1,7.5,7.8C645.9,579.8,650.2,575.4,647.5,572.5z"/>
<path class="st3" d="M1027.2,442.6l-8.3,21.4l-7.5-8.4c-2.7-3-7,1.4-4.4,4.4l10.7,12c1.7,1.9,4.4,0.6,5.2-1.4l10.3-26.4
	C1034.6,440.6,1028.6,439,1027.2,442.6z"/>
<path class="st5" d="M191.5,379.4l-8.3,21.4l-7.5-8.4c-2.7-3-7,1.4-4.4,4.4l10.7,12c1.7,1.9,4.4,0.6,5.2-1.4l10.3-26.4
	C198.9,377.4,192.9,375.8,191.5,379.4z"/>
<path class="st3" d="M961.3,299.6c-12.5,4-25.4,6.6-38.5,7.8c-3.9,0.4-4,6.6,0,6.2c13.6-1.2,27.1-3.9,40.1-8
	C966.7,304.4,965.1,298.4,961.3,299.6z"/>
<path class="st3" d="M890.8,539.8c-1.8-13.1-9.2-29.3-24.7-29.1c-5.8,0-11.3,3-14.5,7.9c-3.8,6.4-2.1,15.4-1.9,22.5
	c0.1,5.8-0.3,11.5,6.8,12c6.5,0.5,13.7-2.5,18.3-7.2c4-4,6.7-10.6,3-15.7c-3.2-4.4-9.3-5.5-13.9-2.7c-3.4,2-0.3,7.4,3.1,5.3
	c2.1-1.2,5.3-0.9,6.2,1.8c0.8,2.4-1.3,5.3-2.8,6.8c-3.2,3.3-7.6,5.3-12.3,5.4c-2.2,0-1.8,0.2-2.1-2.1c-0.2-1.9-0.2-3.7-0.1-5.6
	c-0.1-4.2-0.6-8.7-0.2-13c0.9-9.5,11.7-11.4,18.7-6.7c7.1,4.9,9.4,13.8,10.5,21.8C885.4,545.4,891.4,543.7,890.8,539.8z"/>
<path class="st3" d="M268.8,456.1c-12-5.9-24.5-10.5-37.4-13.8c-3.9-1-5.8,4.9-1.9,5.9c12.4,3.1,24.5,7.5,36,13.1
	C269,463.1,272.3,457.8,268.8,456.1z"/>
<path class="st3" d="M162.3,499c-12-5.9-24.5-10.5-37.4-13.8c-3.9-1-5.8,4.9-1.9,5.9c12.4,3.1,24.5,7.5,36,13.1
	C162.5,505.9,165.9,500.7,162.3,499z"/>
<path class="st3" d="M27.9,30c-12-5.9-24.5-10.5-37.4-13.8c-3.9-1-5.8,4.9-1.9,5.9c12.4,3.1,24.5,7.5,36,13.1
	C28.1,36.9,31.5,31.7,27.9,30z"/>
<path class="st6" d="M455.7,610.9c-0.1-1.7-1.5-3-3.2-3l-8.6-0.5c-1.7,0.1-3.1,1.5-3,3.2s1.5,3,3.2,3l8.6,0.5
	C454.4,614.1,455.7,612.6,455.7,610.9z"/>
<path class="st3" d="M383.8,588.9c-3.7,3.6-8.8,5.5-13.9,5.2c-4-0.2-3.8,6,0.2,6.2c6.8,0.2,13.4-2.3,18.2-7.2
	C391.1,590.3,386.6,586.1,383.8,588.9z"/>
<path class="st3" d="M406.7,617.4c-3.9-0.9-5.3,5.1-1.4,6S410.6,618.4,406.7,617.4z"/>
<path class="st3" d="M372.3,569.2c-3.9-0.9-5.3,5.1-1.4,6S376.2,570.2,372.3,569.2z"/>
<path class="st3" d="M654.7,372.9c0.4-1,0.3-2.2-0.2-3.2C654.5,370.8,654.6,371.8,654.7,372.9z"/>
<path class="st2" d="M544.8,557.3c-0.5-9.8-3.2-16.5-13.2-19.5c-17.3-5.1-37,1.6-38.8,21.6c-0.2,2-0.2,3.9-0.1,5.9
	c-0.1,1.4,0.1,2.9,0.5,4.3c0.9,5.6,3,11.2,6.5,15.3c5.8,6.9,15.1,6.3,23,3.6c5.7,0.1,11.2-2,15.4-5.8
	C544.8,576.6,545.2,565.9,544.8,557.3z"/>
<path class="st3" d="M560.7,572.3c-8.7-5.9-18-10.7-27.9-14.3c-2.3-0.8-4.2-1.5-5.8,0.8c-2.4,3.6-1.7,11.1-1.5,15.1
	c0,0.5,0.3,1.1,0.7,1.4c0.3,0.8,1,1.3,1.8,1.3c10.5,0.4,21.1,0.3,31.6-0.5c1.1,0,2.1-1,2-2.1C561.7,573.3,561.3,572.6,560.7,572.3z
	 M529.7,572.5c-0.1-1.5-0.1-3,0-4.5c0-0.6,0.2-6.5,0.3-6.7c0.9-0.7,9.7,3.9,10.4,4.2c4.4,2,8.6,4.3,12.7,6.8
	C545.3,572.7,537.5,572.8,529.7,572.5L529.7,572.5z"/>
<path class="st3" d="M559,644.9c-2.7,0-2.7,4.1,0,4.1S561.6,644.9,559,644.9z"/>
<path class="st3" d="M706,639.9c-4.1-4.6-7.2-10.1-9.1-16c-0.8-2.5-4.8-1.4-4,1.1c2.1,6.6,5.6,12.6,10.2,17.8
	C704.9,644.8,707.8,641.9,706,639.9z"/>
<path class="st5" d="M484.2,642c-1.6,5.2-3.6,10.3-6.1,15.2c-1.2,2.4,2.4,4.5,3.6,2.1c2.6-5.2,4.8-10.6,6.5-16.2
	C489,640.6,485,639.5,484.2,642z"/>
<path class="st5" d="M590.4,590.3c-2.7,0-2.7,4.1,0,4.1S593,590.3,590.4,590.3z"/>
<path class="st5" d="M467.3,533.8c-2.7,0-2.7,4.1,0,4.1S470,533.8,467.3,533.8z"/>
<g>
	<path class="st4" d="M805.4,354.6h4.2c-0.4-3.4-1-6.7-1.7-9.9c-0.5-2.6-4.5-1.5-4,1.1S805.1,351.4,805.4,354.6z"/>
	<path class="st4" d="M805.1,369.9c1.2,1,2.3,2,3.5,3c1.2-4.3,1.7-8.7,1.5-13.1h-4.2C806,363.2,805.7,366.6,805.1,369.9z"/>
	<path class="st4" d="M803.4,375.3c-2,5-6.1,8.8-11.2,10.5c-0.4,0.1-0.8,0.3-1.2,0.4c0.1,1.3,0.2,2.7,0.4,4c3.6-0.8,7-2.5,9.6-5.1
		c2.2-2.1,4.1-4.5,5.5-7.2C805.5,377.1,804.5,376.2,803.4,375.3z"/>
	<path class="st4" d="M696.1,357.4v4.1c6.3-0.7,12.7-1.8,19-2.1v-4.2C708.9,355.5,702.5,356.7,696.1,357.4z"/>
	<path class="st4" d="M680.4,357.3c1.9-1.3,3.6-3,5-4.8c1-1,1-2.6,0-3.6s-2.6-1-3.7,0c-2.2,2.8-5,5-8.2,6.5
		c-0.7,0.4-1.2,1.1-1.2,1.9c-0.6,0.8-0.6,1.8,0,2.6c2,2.9,3.8,6,5.4,9.2c1.5,3,6,0.4,4.5-2.6c-0.9-1.7-1.8-3.4-2.8-5
		c3.7,0.7,7.6,0.9,11.4,0.7v-4.1C687.4,358.1,683.9,357.9,680.4,357.3z"/>
	<path class="st4" d="M720.6,355.3L720.6,355.3l-0.1,4.1c0.9,0,1.8,0.1,2.7,0.2c6.2,0.7,12.3,2.4,18,4.9c0.2-1.4,0.4-2.9,0.4-4.3
		C734.8,357.6,727.8,355.9,720.6,355.3z"/>
	<path class="st4" d="M754.9,367.7c-2.6-1.9-5.4-3.5-8.2-5c-0.1,1.5-0.4,2.9-0.7,4.3c0.6,0.3,1.2,0.7,1.8,1
		c3.9,2.4,7.7,5.2,11.2,8.3c0.7-1.2,1.3-2.4,2-3.7C758.9,370.8,756.8,369.1,754.9,367.7z"/>
	<path class="st4" d="M765,376.2c-0.7,1.2-1.3,2.4-2,3.6c1.3,1.1,2.6,2.1,4,3.2c1.3,1,2.7,1.9,4.1,2.8c0.5-1.3,0.9-2.6,1.3-3.9
		C769.9,380.1,767.4,378.2,765,376.2z"/>
	<path class="st4" d="M775.8,388.1c3.3,1.5,6.8,2.3,10.4,2.5c-0.2-1.3-0.3-2.5-0.4-3.8c-3-0.2-6-0.9-8.7-2.3
		C776.7,385.7,776.3,386.9,775.8,388.1z"/>
</g>
<g>
	<path class="st4" d="M192.9,464.7l0.5-4.2c-3.4,0-6.8,0.2-10.1,0.5c-2.6,0.3-2,4.3,0.6,4.1S189.7,464.7,192.9,464.7z"/>
	<path class="st4" d="M208.1,466.8c1.1-1.1,2.2-2.1,3.3-3.2c-4.1-1.7-8.4-2.6-12.8-2.9l-0.5,4.2
		C201.5,465.1,204.9,465.8,208.1,466.8z"/>
	<path class="st4" d="M213.3,469c4.7,2.5,8.1,7,9.2,12.3c0.1,0.4,0.2,0.8,0.2,1.3c1.3,0.1,2.7,0.1,4,0c-0.4-3.7-1.7-7.2-3.9-10.1
		c-1.8-2.5-4-4.6-6.5-6.3C215.3,467.1,214.3,468.1,213.3,469z"/>
	<path class="st4" d="M183.4,573.6l4.1,0.5c0-6.4-0.4-12.8,0.1-19.2l-4.2-0.5C182.9,560.8,183.4,567.2,183.4,573.6z"/>
	<path class="st4" d="M181.5,589.2c-1.1-2-2.5-3.9-4.2-5.5c-0.9-1.1-2.5-1.3-3.6-0.4c-1.1,0.9-1.3,2.5-0.4,3.6
		c2.5,2.5,4.4,5.5,5.5,8.9c0.3,0.8,1,1.3,1.8,1.4c0.7,0.7,1.8,0.8,2.6,0.3c3.1-1.7,6.4-3.1,9.7-4.4c3.1-1.2,1-5.9-2.1-4.7
		c-1.8,0.7-3.6,1.4-5.3,2.2c1.1-3.7,1.7-7.4,1.9-11.2l-4.1-0.5C183.1,582.4,182.5,585.8,181.5,589.2z"/>
	<path class="st4" d="M184.1,549.1L184.1,549.1l4.1,0.6c0.1-0.9,0.3-1.8,0.5-2.6c1.4-6.1,3.8-11.9,6.9-17.3
		c-1.4-0.4-2.8-0.7-4.3-0.9C187.9,535.2,185.4,542,184.1,549.1z"/>
	<path class="st4" d="M200.2,516.4c-2.2,2.4-4.1,4.9-5.9,7.6c1.4,0.3,2.8,0.7,4.2,1.2c0.4-0.6,0.8-1.2,1.2-1.7
		c2.9-3.6,6.1-7,9.5-10.2c-1.1-0.8-2.3-1.6-3.4-2.4C203.8,512.8,201.9,514.6,200.2,516.4z"/>
	<path class="st4" d="M209.8,507.3c1.1,0.8,2.2,1.6,3.4,2.4c1.2-1.2,2.4-2.4,3.6-3.6c1.1-1.2,2.2-2.5,3.2-3.8
		c-1.2-0.6-2.4-1.2-3.7-1.7C214.2,502.9,212.1,505.2,209.8,507.3z"/>
	<path class="st4" d="M222.9,497.9c1.8-3.1,3.1-6.5,3.7-10c-1.3,0-2.6,0-3.8,0c-0.5,3-1.6,5.9-3.3,8.4
		C220.6,496.8,221.7,497.3,222.9,497.9z"/>
</g>
<g>
	<path class="st4" d="M398.6,200.6c0.7-0.8,1.4-1.5,2.2-2.2c-1.3-2-2.3-4.2-3.2-6.4c-0.7-1.8-3.7-1-3,0.8
		C395.6,195.5,397,198.1,398.6,200.6z"/>
	<path class="st4" d="M422.3,215.3c-3.2-0.7-6.3-2.1-9-4c-0.8,0.9-1.5,1.8-2.2,2.8c3.3,2.4,7.2,3.9,11.2,4.4V215.3z"/>
	<path class="st4" d="M431.8,215.4c-0.2-0.8-0.5-1.7-0.7-2.5c-1.3,1.1-2.8,1.8-4.4,2.3v3.1c1.9-0.4,3.8-1.2,5.4-2.4
		C431.9,215.8,431.9,215.6,431.8,215.4z"/>
	<path class="st4" d="M456.9,189.1c-0.1-0.7-0.2-1.3-0.2-2c-1.9,1-3.7,2.2-5.4,3.6c0.3,1,0.7,1.9,1.1,2.9c1.1-0.9,2.3-1.7,3.5-2.4
		c0.5-0.3,1-0.6,1.5-0.9C457.1,189.9,457,189.5,456.9,189.1z"/>
	<path class="st4" d="M473.2,182.8c-2,0-3.9,0.2-5.9,0.5c-2.2,0.4-4.4,1-6.5,1.9c0.1,1.1,0.2,2.1,0.4,3.2c3.8-1.6,7.9-2.5,12-2.6
		V182.8z"/>
	<path class="st4" d="M488.4,186.9c-3.4-1.9-7.1-3.2-10.9-3.8v3c2.7,0.4,5.3,1.1,7.7,2.2c1.1,0.5,2.1,1.1,3.2,1.7
		C488.5,189,488.5,188,488.4,186.9z"/>
	<path class="st4" d="M501.1,195.1c-2.8-1.9-5.5-3.9-8.2-5.6c0,1.1,0,2.2-0.1,3.3c2.2,1.5,4.3,3.2,6.4,4.7
		C499.9,196.7,500.5,195.9,501.1,195.1z"/>
	<path class="st4" d="M512.5,201.2c-2.8-0.9-5.4-2.1-7.8-3.6c-0.6,0.9-1.2,1.7-1.9,2.5c0.5,0.3,1,0.7,1.5,1c2.4,1.5,5.1,2.7,7.8,3.5
		C512.2,203.4,512.4,202.3,512.5,201.2z"/>
	<path class="st4" d="M525.5,204.8l-1-2v-0.1l0,0l-2.5-5c-0.9-1.8-3.6-0.2-2.7,1.6l1.7,3.4c-1.4-0.1-2.8-0.2-4.1-0.5
		c-0.1,1.1-0.3,2.2-0.4,3.2c1.4,0.2,2.8,0.4,4.3,0.4l-6.3,3.7c-0.7,0.4-1,1.4-0.6,2.1s1.4,1,2.1,0.6l9-5.3
		C525.6,206.5,525.9,205.5,525.5,204.8z"/>
	<path class="st4" d="M447.8,193.7c-1.8,1.7-3.5,3.5-5.1,5.4c0.8,0.6,1.6,1.1,2.4,1.8c1.2-1.5,2.5-2.9,3.9-4.2
		C448.6,195.6,448.2,194.7,447.8,193.7z"/>
	<path class="st4" d="M440,202.4c-1.3,1.6-2.5,3.2-3.7,4.9c-0.5,0.7-1.1,1.5-1.7,2.2c0.4,1.1,0.8,2.2,1.1,3.4
		c0.9-0.9,1.7-1.9,2.4-2.9c1.5-2,3-3.9,4.4-5.8C441.6,203.6,440.8,202.9,440,202.4z"/>
	<path class="st4" d="M407.7,211.4c0.7-0.9,1.4-1.8,2.1-2.7c-2.4-2-4.6-4.2-6.5-6.7c-0.7,0.7-1.5,1.5-2.2,2.3
		C403,206.9,405.2,209.3,407.7,211.4z"/>
</g>
<path class="st4" d="M491.3,462.3c-2-2.7-3.4-5.7-4.2-8.9c-0.3-1.1-1.5-1.7-2.6-1.4c-0.1,0-0.3,0.1-0.4,0.2c-3.4,2.3-7,4.4-10.7,6.2
	c-0.9,0.4-1.3,1.4-0.9,2.3c-0.6,0.9-0.3,2,0.6,2.6c0.2,0.1,0.4,0.2,0.6,0.3c2.4,0.5,4.9,1,7.3,1.3c-3,14.3-4.6,28.8-4.5,43.4
	c0,2.7,4.1,2.7,4.1,0c-0.1-14.4,1.4-28.8,4.5-43c1.5,0.1,3,0.2,4.5,0.2S492.2,463.6,491.3,462.3z"/>
<path class="st4" d="M735.5,161.1c2.3-2.4,5-4.3,8-5.7c1-0.5,1.4-1.8,0.9-2.8c0-0.1-0.2-0.3-0.3-0.4c-2.9-2.9-5.6-6.1-8-9.5
	c-0.6-0.8-1.6-1-2.4-0.5c-1-0.4-2,0.1-2.5,1c-0.1,0.2-0.1,0.4-0.2,0.6c-0.1,2.5-0.1,5,0,7.4c-14.6-0.5-29.2,0.5-43.5,3.1
	c-2.7,0.5-1.9,4.5,0.7,4c14.2-2.6,28.6-3.6,43.1-3.1c0.2,1.5,0.3,3,0.6,4.5C732.4,161.4,734.4,162.2,735.5,161.1z"/>
<path class="st3" d="M1127.6,469.1c-2-2.7-3.4-5.7-4.2-8.9c-0.3-1.1-1.5-1.7-2.6-1.4c-0.1,0-0.3,0.1-0.4,0.2
	c-3.4,2.3-7,4.4-10.7,6.2c-0.9,0.4-1.3,1.4-0.9,2.3c-0.6,0.9-0.3,2,0.6,2.6c0.2,0.1,0.4,0.2,0.6,0.3c2.4,0.5,4.8,1,7.3,1.3
	c-3,14.3-4.6,28.8-4.5,43.4c0,2.7,4.1,2.7,4.1,0c0-14.4,1.5-28.8,4.5-43c1.5,0.1,3,0.2,4.5,0.2S1128.5,470.4,1127.6,469.1z"/>
<path class="st4" d="M960.6,205.6c0.1-1.4,0.2-2.8,0.2-4.1l-12.6-0.1c-6.9-0.1-14.1-1.9-18.1,4.8c-2.9,4.9-5.4,10.1-7.9,15.2
	c-2.1-0.9-4.2-1.7-6.3-2.5c-1.8-0.6-2.9,1.4-2.4,2.8c-0.4,0.5-0.5,1.2-0.2,1.7c0.8,2.2,1.4,5.6,3.1,7.5l-0.3,2.6
	c-0.2,1.6,1.9,2.6,3.1,1.8c2.9-1.9,6.2-3.2,9.6-3.8c0.7-0.1,1.3-0.6,1.5-1.4l0.9-0.1c1.9-0.1,3-2.8,1-3.9s-4.1-2.1-6.2-3.1
	c1.9-3.9,3.8-7.7,5.8-11.5c0.7-1.3,1.4-3.6,2.5-4.6c2.2-2.1,5.1-1.6,7.8-1.5l13.1,0.1L960.6,205.6z M920,226l-0.7-1.4l1.1,0.5
	L920,226z"/>
<path class="st6" d="M1110.3,163.7c-3.4,2.1-0.1,7.4,3.3,5.3S1113.7,161.6,1110.3,163.7z"/>
<path class="st4" d="M1116.6,196.8c-3.4,2.1-0.1,7.4,3.3,5.3S1119.9,194.7,1116.6,196.8z"/>
<path class="st4" d="M1110.3,34.5c-3.4,2.1-0.1,7.4,3.3,5.3S1113.7,32.4,1110.3,34.5z"/>
<path class="st6" d="M1139.9,195.7c-3.4,2.1-0.1,7.4,3.3,5.3S1143.3,193.6,1139.9,195.7z"/>
<path class="st3" d="M714.9,185.9c2.5,1.5,5,2.2,6.7,4.5c-0.4,0.8-0.7,1.7-1.2,2.4c-2.2,2.9-2.7,6.3-2.6,9.7
	c0.1,4.3-0.5,8.6-0.5,12.9c0,1.1,0.2,2.2,0.2,3.3c0,2.3-0.8,3.3-3.1,3.3c-8.1,0-16.1,0-24.2,0c-0.4,0-0.9,0-1.3-0.1
	c-2.1-0.3-2.6-0.8-2.9-2.9c0-0.2-0.1-0.4-0.1-0.7c0-7-0.2-13.9-0.1-20.9c0-2.7,1.2-3.8,3.9-4c2-0.2,4-0.1,6-0.1c4.5,0,9,0,13.4,0
	C711,190.7,712.9,188.4,714.9,185.9z M689,218.8c0.8,0.2,1.4,0.5,2,0.5c6.4,0.1,12.8,0.1,19.2,0c1.3,0,2.7,0.1,3.8-1.1
	c0.2-5.3,0.3-10.8,0.5-16.9c-0.8,0.9-1.2,1.2-1.4,1.7c-2.4,3.6-4.7,7.2-7.1,10.8c-0.4,0.5-0.8,1.2-1.3,1.4c-1.7,0.8-3.5,0.3-5.2,0.1
	c-1.3-0.1-1.9-1-2.5-1.9c-1.4-2-2.6-4.1-3.9-6.1c-0.3-0.5-0.5-1.2-0.7-1.9c1.5-1.6,2.7-3.2,4.7-3.9c1.6,1.3,2,3.3,3.9,4.4
	c2.1-3.1,4-6.1,6.1-9.3c-6.3-0.5-12.3-1.3-18.5-0.5C688.3,203.8,688.1,211.1,689,218.8z"/>
<path class="st3" d="M1010.5,343.6c3.9-8.5,11.5-14,17.7-21.1c-1.4-0.6-2.5-1.1-3.6-1.6c-3.2-1.5-3.7-3.1-1.3-5.5
	c3.3-3.4,6.8-6.7,10.2-10c1-1,2.3-1.8,3.2-2.9c3.4-4,8.4-5.5,12.6-8.3c0.9-0.6,1.9-0.6,2.8,0.1c0.9,0.8,0.7,1.9,0.3,2.8
	c-1,2.2-1.9,4.5-3.1,6.6c-1.9,3.4-4.1,6.6-6.4,10.3c1.4,0.8,2.7,1.4,3.9,2.1c1.6,1,3.2,2,4.7,3.2c1.9,1.5,2.1,2.9,0.7,4.9
	c-1.3,1.7-2.7,3.4-4.2,4.9c-3.1,3.2-6.2,6.4-9.6,9.9c1,0.4,1.7,0.7,2.4,1.1c1.2,0.5,2.5,0.8,3.6,1.5c1.8,1.1,2.3,2.5,1.6,4.4
	c-0.3,0.8-0.6,1.7-1.2,2.3c-2.6,2.9-5.1,5.9-8.1,8.4c-3.6,2.9-7.5,5.3-11.5,7.8c-3.2,2-6.5,3.7-9.8,5.4c-1.2,0.6-2.5,1.1-3.6-0.1
	c-1.1-1.1-0.6-2.4-0.1-3.7c0.4-0.9,0.9-1.8,1.4-2.7c2.2-3.9,4.5-7.7,6.7-11.6c0.8-1.3,1.4-2.7,2.2-4.3
	C1018.1,345.9,1013.3,348.2,1010.5,343.6z M1042.5,344.7c-1.9-1.6-4-1.5-5.9-1.9c-1.4-0.2-3-0.2-3.6-1.9c-0.5-1.7,0.9-2.6,1.9-3.6
	c3.7-3.7,7.4-7.4,11-11.1c1.3-1.3,2.7-2.5,3.3-4.6c-1.9-1.1-3.6-2.2-5.3-3.2c-1.8-1.1-4.3-0.9-5.7-3.4c2.7-4.8,6.2-9.4,8.9-14.7
	c-3,0.7-3.8,1-6,2.8c-5.2,4.3-10.1,8.9-14.5,14.3c1.9,1,3.5,1.6,4.9,2.5c1.5,0.9,1.7,2.3,0.7,3.7c-0.7,0.9-1.6,1.7-2.3,2.5
	c-4.4,4.7-8.9,9.5-13.3,14.3c-0.5,0.6-0.8,1.3-1.3,2.4c1.6,0.2,2.8,0.3,3.9,0.4c1.3,0.1,2.6,0.1,3.9,0.3c3.5,0.6,4.1,1.9,2.5,5.1
	c-0.3,0.5-0.6,1-0.8,1.5c-2.4,4.1-4.8,8.2-7.1,12.4c-0.3,0.6-0.4,1.4-0.8,2.7c2.5-1.4,4.4-2.4,6.2-3.6c3.3-2.1,6.3-4.5,9.7-6.5
	c3.8-2.3,6.2-5.9,9.2-9C1042.2,345.9,1042.2,345.4,1042.5,344.7z"/>
<path class="st3" d="M324.6,291.3c0.4-1.9-1.1-2.9-2.3-4.2c0.9-4.6,5.1-6.9,7.3-10.8c-1.4-0.5-2.6-0.9-3.8-1.3
	c-1.1-0.4-2.3-0.8-3.3-1.4c-1.8-1-1.9-2.3-0.6-3.8c0.6-0.7,1.2-1.3,1.9-1.9c3.4-2.5,6.8-5,10.1-7.5c3.2-2.4,6.3-4.9,9.4-7.4
	c0.9-0.7,1.8-1.6,2.9-2.5c0.6,0.8,1.3,1.4,1.5,2c0.4,1,0.5,2.1,1.5,2.9c0.4,0.3,0.6,1.2,0.6,1.8c0.7,7.9,1.4,15.9,2.1,23.8
	c0,0.2,0.1,0.4,0,0.7c0,2.2-1.3,3.3-3.4,2.8c-1.4-0.3-2.8-0.8-4.1-1.2c-1-0.3-2-0.8-3.3-1.3c-0.4,0.7-0.9,1.3-1.1,2
	c-1,2.7-1.9,5.4-2.8,8.2c-0.6,1.8-1.1,2.1-2.9,1.7C331.2,293.2,327.9,293.2,324.6,291.3z M333.3,275.4c-1.4,1.9-2.6,3.7-3.9,5.4
	c-1.3,1.8-3.2,3.3-4,5.7c2.7,1.1,5,2.6,8,2.6c0.4-1.1,0.8-2.2,1.2-3.2c1-2.6,1.9-5.2,3-7.7c0.3-0.6,0.9-1.2,1.4-1.8
	c2.8,1.4,5.5,2.5,8.7,3.1c-0.7-8.3-0.3-16.4-2.1-24.6c-0.8,0.6-1.2,0.9-1.6,1.2c-3.2,2.4-6.4,4.7-9.6,7.1c-3.1,2.3-6.1,4.8-9.1,7.2
	c-0.3,0.2-0.4,0.7-0.7,1.1C327.3,273.1,330.7,273,333.3,275.4z"/>
<g>
	<path class="st3" d="M928.2,157.3c-1.2-0.3-2.1-0.5-3-0.9c-0.4-0.2-1.1-0.7-1-1.1c0-0.6,0.4-1.2,0.9-1.6c0.5-0.4,1.2-0.5,1.8-0.8
		c0.7-0.3,1.3-0.7,2.1-1.2c-0.6-1.2-1.1-2.3-1.6-3.4c-1.4-3.6-0.1-7.1,3.1-8.8c0.5-0.3,0.5-0.3,2.4,0.3c-0.4,0.6-0.6,1.1-1.1,1.5
		c-2.8,2.4-3.1,4.3-1.4,7.5c0.6,1.1,1.1,2.1,1.8,3.2c-0.8,0.9-1.4,1.6-2.1,2.4c0.5,0.6,1.4,1.2,1.5,1.8c0.1,0.7-0.5,1.6-1,2.3
		c-0.8,1.3-1.9,2.5-2.6,3.8c-0.6,1-1,2.2-1.1,3.4c-0.2,2.3,0.6,3.2,2.8,3.8c0.7,0.2,1.5,0.3,2.3,0.5c0.7,0.2,1.5,0.4,2.5,0.7
		c-2.3,1.7-4.5,1.5-6.7,0.7c-2.1-0.8-3.2-2.4-3.4-4.5c-0.3-2.1,0.2-4.2,1.4-6C926.4,160,927.2,158.8,928.2,157.3z"/>
	<path class="st3" d="M942.2,138.4c0.9-1.2,1.6-1.1,2.3-0.7c1.1,0.7,2.2,1.5,3.2,2.3c2.3,2,3.1,4.4,2,7.4c-0.6,1.5-1.1,3.1-1.6,4.7
		c0.8,0.7,1.6,1.4,2.3,2c-0.3,2.4-2.2,2.6-3.5,3.6c-0.8,1.4-0.1,2.6,0.3,4c1.5,4.5-1.5,9.4-6.2,10.3c-0.2,0-0.5-0.3-1.1-0.5
		c0.6-0.8,1-1.5,1.6-2.1c0.6-0.6,1.4-1.1,2-1.7c1.7-1.5,2.1-3.3,1.2-5.4c-0.3-0.8-0.6-1.6-0.8-2.5c-0.3-2-0.1-3.8,2.1-4.7
		c-0.9-0.7-1.6-1.3-2.4-2c0.3-0.5,0.4-1,0.7-1.3c1.7-1.3,2.2-3.2,3-5c1-2.2,0.2-3.8-1.4-5.3C944.9,140.5,943.6,139.5,942.2,138.4z"
		/>
</g>
<g>
	<path class="st7" d="M598.6,215.4c3.1-0.3,6-1.1,8.9-2.4c1.2-0.6,2.5-1.1,3.8-1.5c3.9-1.2,6.6-3.7,8.5-7.2c0.4-0.7,0.8-1.3,1.3-2
		c1.5,0.7,1.2,1.7,0.9,2.6c-1.1,3-2.8,5.5-5.6,7.2c-1.8,1.1-3.6,2.1-5.5,3.1c-0.5,0.3-1,0.6-1.4,1.4c0.8,0,1.6,0.3,2.2,0.1
		c3-0.9,5.7-2.3,7.8-4.7c1.1-1.2,2-2.5,3.1-3.7c0.6-0.7,1.3-1.3,2.7-2.5c-0.2,1.4-0.2,2-0.4,2.4c-0.7,1.2-1.4,2.3-1.8,3.8
		c0.8-0.5,1.6-1.1,2.4-1.7c0.3,0.4,0.7,0.8,0.6,1c-0.2,0.7-0.5,1.4-0.8,2c-0.3,0.6-0.8,1.2-1.3,2c6.2,7.3,7.7,16,7.9,25.4
		c1.1,0.3,2.2,0.5,3.1,0.9c2.6,1.1,4.1,2.9,4.2,5.9c0.1,3.7-1.1,7-3.1,10.1c-0.5,0.8-1.7,1.3-2.7,1.7c-0.6,0.3-1.4,0.2-2.4,0.3
		c-0.3,1.2-0.6,2.4-0.9,3.5c-0.7,2.7-1.3,5.5-2.2,8.2c-1.6,4.6-4.1,8.7-7.7,12c-2.8,2.5-3.5,5.8-3.2,9.4c0.2,2.4,0.7,2.9,3.2,3.2
		c1,0.1,2,0.1,2.9,0.3c4.9,1.4,10,1.3,15,1.3c7,0,14,0.2,21.1,0.3c5.7,0.1,11.3,0.2,17,0.3c2.6,0.1,5.2,0.3,7.7,0.3
		c3.8,0.1,7.6,0.2,11.5,0.3c4.4,0.1,8.9,0.3,13.3,0.5c10.1,0.5,20.2,1,30.3,1.5c4,0.2,7.8-1,11.6-2c3.8-1,7.5-2.3,11.3-3.3
		c1.3-0.3,2.7-0.5,4-0.4c1.3,0.1,2.3,0.9,2.6,2.2c0.3,1.2-0.1,2.2-1.1,2.9c-1.2,1-2.4,2-4,3.3c2,0.8,3.6,0.5,5.1,0.4
		c3.7-0.2,7.4-0.5,11.1-0.8c1-0.1,2-0.1,3,0c0.7,0.1,1.5,0.2,2.1,0.5c1.4,0.6,2.1,1.7,2.2,3.2c0.1,1.5-0.8,2.6-2.1,3.2
		c-1,0.5-2,0.8-3.7,1.5c1.2,0.4,2,0.3,2.8,0.5c1.1,0.2,2.2,0.4,3.2,0.7c1.5,0.5,2,1.8,2.1,3.2c0.1,1.3-0.7,2.1-1.8,2.6
		c-0.9,0.4-1.8,0.7-2.8,0.9c-3.8,0.9-7.7,1.7-12.1,2.6c1,0.5,1.5,0.8,2,1c2.5,0.7,5.1,1.1,7.5,2c2.1,0.8,3.5,2.4,2.8,5
		c-1.3,1.4-3.2,1.6-5,1.8c-3,0.4-6.1,0.7-9.2,0.8c-17.5,0.3-35,0.6-52.5,0.8c-16.8,0.3-33.5,0.7-50.3,0.9c-7.5,0.1-15-0.1-22.6-0.1
		c-1.7,0-3.4,0.1-5.3,0.1c-0.5,2.4-0.2,4.6,0,6.8c1.2,16.3,2.5,32.7,3.7,49c0.4,5.9,0.3,11.8,0.8,17.7c0.8,9.2-0.7,18.2-1.2,27.3
		c-0.3,6.4-1.1,12.8-1.9,19.1c-2.1,16.7-4.3,33.5-6.4,50.2c-0.2,1.5,0,2.9,0,4.5c0.7,1.2,2,1.6,3.2,2.1c5.6,2.2,11.2,4.4,16.7,6.9
		c2.7,1.2,5.1,2.9,7.6,4.5c1.6,1.1,1.5,1.2,2.3,3.6c-0.5,1.5-2,1.6-3.3,2.2c0.2,2.5-0.5,4.3-3.6,3.9c0,1.4,0.9,2.7-0.4,3.6
		c-1.1,0.8-2.3,0.9-3.5,0.6c-0.2-0.1-0.5-0.1-0.7-0.2c-6.7-2.7-14-3.8-20.9-5.9c-4.2-1.3-8.6-2-12.9-3c-1.3-0.3-2.6-0.6-4-0.8
		c-2.4-0.5-3.5-2.1-3.7-4.4c-0.2-3.3-0.4-6.6-0.6-10c-0.3-5.7-0.6-11.3-1-17c-0.8-9.8-1.9-19.6-2.6-29.4c-0.6-8.4-2.2-16.6-4-24.8
		c-1.4-6.5-2.8-13-4.3-19.5c-0.1-0.3,0-0.7,0-1.4c0.9-0.2,1.9-0.5,2.8-0.7c0.4,0.6,0.6,0.9,0.7,1.2c2.5,11.8,5,23.6,7.4,35.5
		c0.6,3,0.9,6.1,0.9,9.2c0,4.1,0.6,8.1,1.2,12.1c0.9,5.8,1.4,11.7,1.7,17.6c0.5,8.4,0.6,16.7,0.9,25.1c0,1.1,0.2,2.2,0.3,3.2
		c1.6,1.5,3.6,1.3,5.3,1.7c4.2,1,8.4,1.8,12.6,2.8c3.8,0.9,7.7,1.7,11.5,2.8c2.3,0.6,4.4,1.5,6.6,2.3c1.1,0.4,2.1,1.4,3.7,0.8
		c-1.6-2.1-3.8-3.2-5.8-4.5c-1.9-1.2-4.4-1.5-6-3.5c1-1,2.1-0.8,2.9-0.5c2.1,0.7,4.1,1.6,6.2,2.5c1.9,0.8,3.7,1.9,6.1,2
		c-0.2-1.3-1-1.9-1.8-2.3c-1.6-0.9-3.3-1.6-5-2.4c-1.2-0.6-2.5-1-3.1-2.7c2.6-1,4.6,0.7,6.6,1.4c2,0.8,3.9,2,6.7,2.1
		c-0.7-0.9-1-1.5-1.5-1.8c-1.7-1.1-3.5-2.4-5.4-3.2c-6.7-2.9-13.4-5.6-20.1-8.3c-2.5-1-2.9-1.5-2.6-4.4c1.8-14.4,3.7-28.8,5.5-43.3
		c0.3-2.6,0.2-5.2,0.4-7.7c0.1-1.6,0.3-3.2,0.5-4.8c1.4-8.5,1.5-17.2,2.3-25.8c0.1-0.9,0.1-1.7,0.2-2.6c0.6-4.3,0.6-8.6,0.6-12.9
		c0.1-6.9-0.8-13.7-1.3-20.6c-0.6-7.9-1.2-15.7-1.8-23.6c-0.6-8.2-1.4-16.5-2-24.7c-0.2-3.2-0.5-6.4,0-9.7c4.1-1,8.1-1.3,12.1-1
		c11.6,1,23.2,0.3,34.7,0.3c6.9,0,13.8-0.2,20.7-0.4c18.2-0.3,36.5-0.6,54.7-0.9c4.6-0.1,9.1-0.2,13.7-0.6c2.5-0.2,5-1,8.1-1.7
		c-0.9-0.6-1.4-1.1-1.9-1.2c-5.3-1.2-10.6-2.2-16.1-2.3c-1.2,0-2.5,0-3.7-0.1c-0.8-0.1-1.5-0.5-1.4-1.3c0.1-0.5,0.6-1.1,1.1-1.2
		c1-0.3,2.2-0.4,3.3-0.7c7.3-1.4,14.5-2.8,21.8-4.2c0.7-0.1,1.3-0.5,2.8-1c-1.7-0.4-2.6-0.8-3.5-0.8c-3.3-0.1-6.7-0.1-10-0.1
		c-4.2,0-8.4,0-12.6-0.1c-1,0-2,0.1-2.7-1.3c0.4-0.4,0.7-1.2,1.2-1.4c1.4-0.4,2.9-0.6,4.3-0.9c6-1,11.9-1.9,17.9-2.9
		c1.1-0.2,2.2-0.3,3.1-1.6c-0.7-0.3-1.3-0.8-1.9-0.8c-2.8,0-5.7,0.1-8.5,0.2c-3.8,0.1-7.6,0.3-11.4,0.4c-2.1,0-4.1,0.3-6.1,1.3
		c-1.6,0.8-3.4,1.3-5.4,2c-1.1,2.7-1.3,6.1-4.6,8.3c-0.6-3.7,1.9-6.5,1.8-9.6c5.3-3.3,11.1-5.5,15.8-9.6c-2.9,0.1-5.6,1-8.3,1.7
		c-5.1,1.3-10.2,2.7-15.4,3.6c-2.4,0.5-4.9,0.2-7.4,0c-7.6-0.4-15.3-0.8-22.9-1.4c-6.3-0.5-12.5-0.5-18.8-0.7
		c-12.1-0.4-24.1-1.1-36.2-1.4c-9-0.2-18,0-27,0c-4.1,0-8-1-11.6-3.1c-1.4-0.8-1.9-2.2-2.1-3.7c-0.7-4.9,0-9.4,3.8-12.9
		c3.2-2.9,5.3-6.4,6.9-10.4c1.5-3.6,2.3-7.3,2.5-11.1c0.1-2.1,0.3-4.2,0.8-6.2c0.3-1.4,0.2-2.7-0.2-4c-0.6-2.1-1.3-4.2-2-6.3
		c-2.2-7.5-6.1-14-11.1-19.8c-0.6-0.7-1.5-1.3-2.3-1.9c-1.6-1.2-3.2-1.6-5.2-1c-2,0.6-4.1,0.9-6.1,1.3c-7,1.1-14,0.7-20.9-0.8
		c-4.2-0.9-8.4-1.8-12.9-2.7c-0.8,0.3-1.8,0.8-2.9,1.1c-5.5,1.4-9.6,4.9-13.1,9.1c-1.1,1.4-2,3.1-2.6,4.9c-1.2,3.5-2.1,7.1-3,10.7
		c-0.4,1.4-0.5,2.9-1.8,3.9c-1.3,0.2-1.5-1.1-2.3-1.5c-0.8-0.4-1.8-0.5-2.7-0.7c-3.1,4.1-2.9,9,0.3,12.5c1.9,0.2,2.5-1,2.6-2.8
		c-0.7-0.8-1.5-1.7-2.5-2.8c0.2-0.3,0.3-0.7,0.6-1.1c0.2-0.3,0.6-0.4,0.8-0.6c-0.3-1-0.5-1.8-0.7-2.6c0.4-0.2,0.7-0.4,0.8-0.3
		c0.3,0.1,0.8,0.3,0.9,0.6c1,3,3.2,5.6,3.1,8.9c-0.3,8.1,3.4,14.5,8.7,20.1c2.5,2.7,4.2,5.9,5.2,9.3c1.2,4.1-0.3,10.7-5.5,13.3
		c-2.4,1.2-4.8,2.4-7.3,3.5c-0.7,0.3-1.7,0.2-2.6,0.2c-12.2,0-24.4-0.2-36.6,0.1c-13.3,0.3-26.6,1.1-39.9,1.7
		c-5.2,0.2-10.4,0.2-15.5,0.5c-9.6,0.5-19.2,1.1-28.8,1.7c-2.6,0.2-5.1-0.3-7.7-0.7c-7.1-1-13.8-3.6-21-5.3c0.2,1.5,1.3,2,2.1,2.4
		c4.4,2.5,8.8,4.9,13.4,7.4c0.4,3.6,0.9,7.3,1.4,11.6c-1-0.7-1.5-0.9-1.8-1.3c-1.1-1.7-1.7-3.5-1.8-5.6c0-1.1-0.2-2.2-0.3-3.1
		c-2.5-1-4.7-2-7-2.8c-1.4-0.5-2.9-0.7-4.3-0.7c-6-0.3-12.1-0.5-18.1-0.7c-1.3,0-2.7-0.5-4,1.1c0.7,0.4,1.4,1,2.1,1.1
		c4,0.8,8,1.4,12,2.1c3.3,0.5,6.6,1,9.9,1.6c1.2,0.2,2.5,0.4,2.5,2.3c-0.4,0.2-0.8,0.5-1.2,0.6c-4.7,0.6-9.3,0.7-14,0.3
		c-4.2-0.4-8.3-0.5-13,0.8c0.9,0.5,1.5,1,2,1.1c7.7,1.5,15.5,3,23.2,4.5c0.8,0.2,1.8,0.3,2.5,0.7c0.4,0.3,0.6,1.1,1,2.1
		c-8.1,0.5-15.7,0.9-23.8,3.5c3.6,1.1,6.4,2.1,9.4,2.1c7.8,0.1,15.5,0.4,23.3,0.6c17.7,0.4,35.5,0.7,53.2,0.9
		c18.5,0.2,37,0.3,55.5,0.4c2.4,0,4.9-0.5,7.3-0.6c1.2-0.1,2.4,0.1,3.9,0.2c-0.2,2.5-0.3,4.7-0.6,6.9c-1.6,11-2.1,22.1-3,33.1
		c-0.7,8.2-1.3,16.5-2,24.7c-0.7,8.6-0.8,17.2,0.2,25.7c0.5,4.6,0.6,9.3,1,14c0.4,4.2,0.9,8.3,1.3,12.5c0.2,2.1,0.3,4.2,0.4,6.3
		c0.2,2.5,0.3,4.9,0.6,7.4c1.6,13,3.3,25.9,4.9,38.9c0.2,1.5,0.3,2.9,0.5,4.4c0.3,2.3-0.2,3.1-2.3,3.9c-3.7,1.4-7.4,2.7-11,4.2
		c-3.4,1.4-6.8,2.9-10.1,4.5c-2.2,1.1-4.3,2.3-6.4,4.6c1.2-0.1,1.9,0.1,2.4-0.1c2.5-1,5-2.1,7.5-3c1-0.4,2.2-1.2,3.6,0
		c-2.4,3.6-7.5,3.2-10,7.1c1-0.1,1.7,0.1,2.3-0.2c2.9-1.1,5.7-2.4,8.5-3.5c2-0.8,2-0.7,4.3-0.3c-0.7,1.7-2.4,2-3.7,2.7
		c-1.4,0.8-2.9,1.5-4.2,2.3c-1.3,0.9-2.5,1.9-3.7,3.1c13-3.8,26-7.4,39.6-9.8c0.3-4.3,0.7-8.3,0.7-12.4c0-10.1,0.7-20.2,1.5-30.3
		c0.1-0.7,0.2-1.5,0.4-2.2c0.8-4.2,1.4-8.5,1.4-12.8c0-3.8,0.5-7.6,1.2-11.4c1.6-8.8,3.5-17.6,5.3-26.4c0.2-0.8,0.5-1.7,0.7-2.4
		c1.1-1,2.1-0.7,3.2-0.1c0,0.4,0.2,0.7,0.1,1.1c-1.9,9.7-3.9,19.3-5.7,29c-0.6,2.9-0.8,5.9-1,8.8c-0.9,9.4-1.6,18.9-2.5,28.3
		c-0.8,8.7-1.4,17.4-1.6,26.2c0,1.1-0.1,2.2-0.2,3.3c-0.3,2-1.3,3.4-3.4,3.9c-1,0.2-1.9,0.6-2.9,0.7c-8.6,1.1-16.8,3.9-25.1,6.2
		c-0.2,0.1-0.5,0.2-0.7,0.3c-3.4,0.1-6.4,1.4-9.5,2.6c-0.1,0-0.2,0.1-0.4,0.1c-3.2,0.8-4.5-0.3-4.3-3.8c-2.2-0.3-4-1.2-3.4-3.9
		c-0.3-0.2-0.4-0.4-0.6-0.5c-3.4-1.5-3.7-2.9-0.8-5.1c2.4-1.9,5-3.6,7.8-4.8c5.5-2.5,11.1-4.6,16.7-6.9c1.1-0.5,2.2-1.1,3.5-1.7
		c-0.1-2.8-0.1-5.5-0.4-8.2c-1.6-13.7-3.3-27.4-5-41.1c-0.6-4.6-1.6-9.2-2.1-13.9c-0.6-6.2-1-12.5-1.4-18.8
		c-0.1-1.8-0.4-3.7-0.4-5.5c-0.1-3.9-0.1-7.9-0.3-11.8c-0.4-10.1,1-20.2,1.6-30.3c0.6-9.2,1.3-18.4,2.1-27.7
		c0.2-2.9,0.3-5.8,1.6-8.6c0.7-1.6,0.5-3.6,0.8-5.7c-1-0.1-1.6-0.1-2.3-0.1c-2.4,0-4.8,0.1-7.3-0.4c-3.5-0.6-7.1-0.4-10.7-0.2
		c-11.1,0.8-22.2,0.4-33.3,0.2c-24.6-0.4-49.3-1.3-73.9-1.2c-5.9,0-11.8-0.5-17.7-0.8c-4.1-0.2-5.5-0.7-8.1-2.2
		c-0.8-2.3,0.3-3.9,2.3-4.8c1.5-0.8,3.2-1.3,4.9-1.7c1.7-0.4,3.4-0.6,5.2-1.4c-1.1-0.3-2.2-0.6-3.3-0.8c-2.9-0.6-5.8-1.2-8.7-1.8
		c-0.8-0.2-1.7-0.4-2.5-0.7c-1.6-0.7-2.4-1.9-2.2-3.1c0.3-1.5,1-2.8,2.7-3.2c1.5-0.4,3.1-0.7,5.1-1.1c-1.4-0.6-2.4-0.9-3.4-1.4
		c-1.3-0.7-2.2-1.7-2-3.2c0.2-1.6,1.1-2.9,2.6-3.2c1.3-0.3,2.7-0.4,4-0.3c4.1,0.2,8.1,0.6,12.2,0.9c1.3,0.1,2.7,0,4.6,0
		c-0.8-1-1.2-1.6-1.8-2.2c-0.4-0.4-0.9-0.8-1.4-1.2c-2-1.2-2.2-2.7-1.6-4c0.6-1.3,2.2-2.2,4.1-1.8c3.1,0.7,6.2,1.6,9.3,2.4
		c3.8,1,7.6,2.5,11.4,2.9c4.2,0.5,8.6,0.1,12.9,0c4.3-0.1,8.6-0.4,12.9-0.6c1.6-0.1,3.2,0,4.8-0.2c6.8-0.6,13.5-0.8,20.3-0.6
		c2.5,0.1,4.9-0.4,7.4-0.5c18.7-0.4,37.5-1.2,56.2-1c1.4,0,2.9-0.4,4.4-0.5c1-0.1,2-0.2,2.9-0.2c2.7,0,5.4-0.1,8.1,0.1
		c3.6,0.2,6.6-1.3,9.1-3.4c2.9-2.4,3.7-5.9,2.6-9.4c-0.8-2.4-2-4.9-3.7-6.7c-5.3-5.5-9.1-11.6-10.4-19.4c-0.8,0-1.5,0.2-2.1,0.1
		c-0.9-0.2-1.9-0.5-2.6-1.2c-1.5-1.3-2.6-3.1-2.8-5.1c-0.4-4.6-0.3-9.2,3.9-12.5c-0.5-5-0.1-9.9,1.3-14.7c1.5-5,5-8.4,8.9-11.5
		c-2.7,0.1-4.3,2.4-7.3,3.5c1.5-3.7,4.2-4.8,6.8-5.9c2.5-1.1,5.3-1.7,8.1-2.5c-0.6-1-1.3-2.1-2-3.3c2.1-1.2,3,1.2,4.7,1.2
		c0.4-2-0.5-4.4,1.2-6.3c1.5,1.1,0.9,2.9,1.8,4.3c0.4-0.3,0.9-0.5,1.3-0.9c6.4-6.5,14.3-9,23.1-8.9c3.2,0,6.4-0.6,9.5,0.6
		c2.5,1,5,2,7.5,3c2.6,1.1,5.1,2.4,7.9,3.7c0.5-0.5,1.3-1.2,2.1-2c0.7-0.8,1.4-1.6,2.5-2.8c0.4,1,0.8,1.6,0.7,2
		c-0.7,1.6-1.2,3.4-2.3,4.5c-3.4,3.2-7,6.2-11.8,7.1c-1,0.2-1.9,0.5-2.8,0.8C599,214.8,598.9,215.2,598.6,215.4
		c-4.5-0.5-9.2-1-13.8-0.5c3.5,0.5,7,0.8,10.6,1C596.4,215.9,597.5,215.6,598.6,215.4z M583.5,219.1c2.6,0.4,5.2,0.8,7.8,1.2
		C588.8,218.8,586.1,218.7,583.5,219.1c-0.2-0.1-0.3-0.5-0.5-0.5c-4.1-1.1-8.3-2.2-12.4-3.2c-0.3-0.1-0.8,0.5-2,1.1
		C574.1,217.5,578.8,218.3,583.5,219.1z M605.3,209.5c1.2-0.6,2.4-1.1,3.2-2.4c-1.8-1.9-4.2-2-6.3-3c-3.9-1.8-7.9-3.3-12.3-3.6
		c-5.1-0.3-10.1-0.3-15,1.3c-2.6,0.8-4.9,2-6.8,4.1c0.6,0,1.2-0.1,1.7-0.3c5.3-2.1,10.9-3.1,16.6-2.9c5.5,0.1,10.7,1.1,15.8,3.2
		C603.9,206.6,605.1,207.7,605.3,209.5c-1.4-0.4-3-0.6-4.5-1.2c-6.4-2.7-13.1-3.1-19.8-2.2c0.8,0.2,1.7,0.2,2.5,0.2
		c4.5-0.3,8.7,1.1,13.1,1.8c0.8,0.1,1.7,0.4,2.4,0.9c0.7,0.5,1.2,1.4,2,2.3C602.4,210.7,603.8,210.1,605.3,209.5z M626.2,234.5
		c0.2,0,0.3,0,0.5-0.1c-0.5-1.5-0.9-3-1.5-4.4c-0.6-1.5-1.5-2.8-2.1-4.3c-0.6-1.4-1.8-2.6-1.6-4.6c3.4,0.5,3.2,4.2,5.8,5.8
		c-0.9-3.8-3.1-6.7-4.6-9.7c-2.7,0.7-5.2,1.3-7.8,2c2.2,2.7,4.2,4.9,6,7.4C622.8,229.1,624.5,231.8,626.2,234.5z M633.3,256.4
		c2-2.9,3.2-5.7,2.9-8.9c-0.2-2.1-2.1-3.6-4.1-3.2c-1.3,0.2-2.6,0.6-3.3,1.8c0.8,2,2.3,2.9,4.2,3.3c-0.6,2.3-2.3,3.8-2.3,6.2
		C631.5,255.8,632.2,256,633.3,256.4z M567.6,213.1c1.8-0.5,3.1-0.8,4.4-1.1c3.2-0.8,6.4-1.2,9.8-0.6c4.4,0.8,9,1.2,13.7,0.7
		C589.3,207.9,574,208.4,567.6,213.1z M556.2,219.8c-3.6,0.5-3.5,0.7-5.8,2.8c-4,3.6-6.1,8.2-7.4,13.3c-0.4,1.6-0.6,3.4-2,4.6
		c-0.3,0.3-0.2,1.4,0.1,2c0.1,0.3,1,0.4,1.5,0.6c0.9-3.1,1.8-5.9,2.6-8.7c1.6-5.5,4.5-10,9.3-13.2
		C555.1,220.7,555.6,220.2,556.2,219.8z M549.3,219.9c-4.6,2.5-7.2,6.3-7.6,11.5C543.3,226.9,546.4,223.5,549.3,219.9z M557.8,216.4
		c0-0.2-0.1-0.4-0.1-0.6c-0.9,0-1.9-0.1-2.8,0.2c-1.5,0.5-3,1.2-4.7,3C553.3,217.9,555.5,217.2,557.8,216.4z"/>
	<path class="st3" d="M567.6,255.9c1.5-0.6,2.2,0.3,3,1c1.1,1,2.1,2.1,3.3,2.9c3,1.8,6.1,3.3,9.7,2.8c0.7-0.1,1.5-0.1,2.2,0
		c6.4,0.4,11.5-2.1,15.6-6.8c0.6-0.7,1.3-1.5,2.1-2.1c0.6-0.5,1.5-0.6,2.2-0.9c1.2,1.7,0.6,3.1-0.3,4.3c-3.8,5-8.6,8.6-15,9.2
		c-3.3,0.3-6.7,0.5-10,0.1c-5.2-0.6-9.6-3-12.5-7.6C567.6,257.9,567,257.1,567.6,255.9z"/>
	<path class="st3" d="M579.5,250.6c2.3,0.9,4,0.5,5.7,0.4c1.6-0.2,3.1-1.4,5.1-0.4c-1.4,2.3-3.2,3.6-5.4,3.8
		c-2.5,0.3-5.2,0.2-7.7-0.2c-2.3-0.3-3-2.6-1.7-4.5c0.5-0.8,1.3-1.5,2-2.2c3.9-3.3,5.5-7.7,6-12.7c0.3-3.3,0.7-6.6,1.1-10.3
		c0.8,0.5,1.6,0.8,1.8,1.2c0.4,0.8,0.5,1.7,0.5,2.5c-0.2,3.7-0.3,7.4-0.9,11C585.5,243.7,583.2,247.3,579.5,250.6z"/>
	<path class="st3" d="M572.9,240.9c-0.6-0.8-1.3-1.7-1.9-2.6c-2.3-0.9-3.2,2-5.5,2c-0.1-0.7-0.4-1.4-0.3-2c0.8-3.5,5.6-5.1,8.3-2.8
		c1,0.9,1.4,2,1.3,3.3C574.7,239.9,574.3,240.7,572.9,240.9z"/>
	<path class="st3" d="M597.5,241c-0.2-0.6-0.5-1-0.5-1.4c0-2.1,1.3-3.4,3-4.2c1.8-0.8,3.6-0.7,5.2,0.5c0.9,0.7,1.4,1.7,1.3,2.9
		c0,1.3-0.4,2.4-2.1,2.8c-0.7-1.2-1.3-2.3-1.9-3.3C600.3,238,599.8,240.6,597.5,241z"/>
	<path class="st7" d="M580.4,279.4c2.2-1.3,3.9,0,5.5-0.1c1.5-0.1,3.1-0.2,5.2-0.3c-1.8,2.1-3.6,2.7-5.6,2.6
		C583.8,281.6,582,281.3,580.4,279.4z"/>
	<path class="st7" d="M554.6,333.2c0.7,2.2,0.3,3.6-0.6,4.7c-0.3,0.4-1.1,0.7-1.5,0.6c-0.4-0.1-1.1-0.8-1-1.2
		c0.1-0.9,0.3-1.9,0.9-2.7C552.7,334,553.5,333.8,554.6,333.2z"/>
	<path class="st7" d="M609.7,330.7c1.5,1.4,1.4,3,1.2,4.6c-0.1,0.8-0.7,1.4-1.6,1.2c-0.5-0.1-1.1-0.7-1.2-1.2
		C607.8,333.7,608,332.1,609.7,330.7z"/>
	<path class="st7" d="M586.8,310.1c-0.1,2.7-1.1,5-3.5,7.7C583.4,314.1,584.6,311.9,586.8,310.1z"/>
	<path class="st7" d="M575.4,323.2c1.7,2.6,1.7,2.6,1,5.1C574.8,326.9,574.7,325.4,575.4,323.2z"/>
	<path class="st7" d="M593.9,314.1c0.4,2.1-0.4,3.6-2.2,5.4C591.9,316.2,591.9,316.2,593.9,314.1z"/>
	<path class="st7" d="M585.3,327c-1.2-2.2-0.5-3.7,0.4-5.6C587,323.5,586.7,325,585.3,327z"/>
	<path class="st7" d="M567.5,314.2c1.8,1.2,2.9,2.5,2.4,4.8C567.9,317.9,567.2,316.5,567.5,314.2z"/>
	<path class="st7" d="M574.9,307c1.8,1.5,2.1,2.7,1.5,4.5C574.3,310.5,574.7,309,574.9,307z"/>
	<path class="st7" d="M578.2,314.7c1.4,1.6,1.3,2.7,0.6,4.1C577.3,317.7,577.5,316.6,578.2,314.7z"/>
</g>
<g>
	<path class="st3" d="M23.2,409c1.5-0.3,2.5-0.4,3.6-0.6c0.1-0.7,0.3-1.4,0.3-2.1c0-9,0-17.9,0-26.9c0-1.9,0.5-2.3,2.3-2.3
		c3.2,0,6.4,0,9.7,0c0.7-1.6,0.3-3.2,0.4-4.9c0.1-2.4,0.5-2.8,2.9-3.2c1.6-0.2,3.2-0.4,5.1-0.7c0-1.6,0.1-3.2,0.1-4.7
		c0-2.5,0-5.1,0-7.6c0-0.9,0.1-1.8,0.2-2.6c0.5-2.9,1.9-4,4.8-3.9c2,0.1,4,0.2,6,0.3c0.6,0,1.3-0.1,2.1-0.1c0-1.9,1-3.7-0.3-5.5
		c-0.5-0.8-0.6-1.7,0.1-2.4c0.7-0.7,1.6-0.9,2.4-0.5c0.6,0.2,1,0.7,1.6,1.2c-1.4,2.3-1.3,4.6-0.7,7.3c2.6,0,5.1,0,7.6,0
		c1.1,0,2.2-0.1,3.3,0c2.2,0.2,2.9,0.9,3,3.1c0,0.6,0,1.1,0,1.7c0,3.7,0,7.3,0,11c0,0.9,0.1,1.7,0.1,2.4c2.1,0.5,4.1,0.7,5.9,1.3
		c2.1,0.8,2.1,3.2,2.8,5c3.3,0.9,6.9-0.4,10.4,0.9c0.4,5.7,0.3,11.3,0.3,16.9c0,5.5,0,11,0.1,16.6c1.5,0.2,2.6,0.3,3.9,0.5
		c0.9,1.7,0.7,3.5,0.5,5.2c-0.1,0.6-0.6,1.1-0.9,1.6c-1.7-0.8-1.7-0.8-2.7-2.5c-3.6,0-7.4,0-11.3,0c-0.2,0.5-0.3,1-0.5,1.5
		c-0.8,1.3-2.3,1.3-2.8-0.1c-0.7-2-0.9-4,0.1-6c1.6,0,3,0,4.3,0c0.1-0.1,0.2-0.2,0.3-0.3c0.1-0.1,0.2-0.2,0.2-0.3
		c0.1-7.9,0.1-15.7,0.2-23.6c0-0.4-0.1-0.9-0.2-1.5c-1.1-0.2-2-0.1-2.2,1.2c-0.1,0.8-0.1,1.5-0.1,2.3c0,3.9,0,7.7,0,11.6
		c0,1.1,0,2.2-0.3,3.3c-0.4,2-1.6,3-3.6,3.1c-2,0.1-4,0-5.9,0c-0.7,2.6-0.7,17.4-0.1,20.8c1.8,0.2,3.6,0.4,5.3,0.6
		c1,1.3,0.7,2.5,0.5,3.6c-2.4,0.8-11.8,0.9-15.8,0.2c-0.9-4-0.4-8.2-0.5-12.4c-0.1-4.1,0-8.2,0-12.3c-1.8-0.7-3.6-0.3-5.3-0.4
		c-1.6-0.1-3.3,0-5.2,0c-0.7,4.3-0.1,8.5-0.4,12.7c-0.3,4.1-0.1,8.2-0.1,12.3c-0.6,1-1.6,1.1-2.6,1.1c-4.2,0-8.4,0-12.6-0.1
		c-0.3,0-0.6-0.2-1.1-0.4c0-1,0-2.1,0-3.2c2-1.1,4.2,0,6.1-0.8c0.8-2.7,1.4-14,1.2-21.3c-1.9-1-4.1-0.1-6.3-0.9
		c-0.8-6.3,0-12.7-0.5-19.3c-1.2,0-2.2,0-3.2,0c-0.6,2.3-0.7,18.6-0.2,22.8c1.2,1.5,3-0.3,4.6,0.9c0.8,2.2,0.7,4.6-0.2,7.2
		c-2.3,0.1-3.3-1.1-3.7-3c-3.3,0-6.4,0-9.5,0c-0.3,0.8-0.4,1.6-0.8,2.2c-0.5,0.9-1.5,1.1-2.2,0.4c-0.5-0.5-1-1.3-1.1-1.9
		C22.9,412.3,23.1,410.8,23.2,409z M42.5,372.3c-0.8,3.2-0.3,6.5-0.4,9.8c-0.1,3.4-0.1,6.9,0,10.3c0.1,3.3-0.3,6.6,0.2,9.8
		c0.5,0.1,0.8,0.3,1.1,0.3c13.3,0,26.5-0.1,39.8-0.2c0.1,0,0.2-0.1,0.3-0.1c0.1-0.1,0.2-0.2,0.4-0.4c0-1.2,0-2.7,0-4.1
		c0-6.9,0.1-13.7,0-20.6c0-1.7,0.1-3.5-1.1-5.1c-0.6-0.1-1.1-0.2-1.6-0.3c-3.1-0.5-6.1-0.1-9.2-0.1c-8.2,0-16.3-0.1-24.5-0.2
		C45.9,371.3,44.2,371.4,42.5,372.3z M50.2,368.4c3.5,0.9,21.8,0.7,24.9-0.1c0.6-3.9,0.4-12.7-0.3-15.7c-2.5-0.4-5.2-0.2-7.8-0.2
		c-2.8,0-5.5-0.1-8.3,0c-2.6,0.1-5.3-0.4-8,0.5C49.8,358.1,50.4,363.3,50.2,368.4z M73.4,420.3c-1.7,0.3-3.1,0.5-4.5,0.8
		c-0.1,1.7-0.4,3.2,0.2,4.7c1.5,0.2,2.9,0.5,4.3-0.2C73.4,423.9,73.4,422.3,73.4,420.3z M91.6,393.9c0,1.9,0,3.7,0,5.8
		c1.2-0.3,2-0.5,3-0.7c0.1-2.1,0.3-3.9-0.2-5.9C93.4,393.4,92.6,393.6,91.6,393.9z M68.9,413.8c1.7,0.1,3,0.2,4.6,0.3
		c-0.1-1.4,0.5-2.6-0.5-3.8c-1.3,0-2.7-0.5-4.1,0.1C68.9,411.6,68.9,412.5,68.9,413.8z M94.5,390.6c0-1.7,0-3,0-4.4
		c-1.1,0-2,0-3.2,0c0.3,1.7-0.3,3.3,0.5,5.1C92.7,391,93.5,390.8,94.5,390.6z M49,414.2c0,1.5,0,2.7,0,4c0.8,0,1.3,0,1.8-0.1
		c0.5-0.1,1-0.3,1.5-0.5c0.2-1.3,0.4-2.5-0.3-3.8C51,413.9,50.1,414.1,49,414.2z M73.4,408.2c0-1.3,0-2.1,0-3.1c-1.5,0-2.9,0-4.4,0
		c-0.1,0.7-0.2,1.2-0.2,1.7c0,0.3,0.2,0.6,0.3,1C70.5,408,71.8,408.1,73.4,408.2z M73.4,415.7c-1.7,0.1-3.1,0.3-4.6,0.4
		c0.1,1,0.2,1.8,0.3,2.8c1.6-0.3,3-0.5,4.4-0.7C73.4,417.4,73.4,416.7,73.4,415.7z M32.8,397.1c0-1.8,0-3.2,0-4.9
		c-0.9-0.1-1.7-0.2-2.6-0.3c0,1.8,0,3.3,0,5C31.1,397,31.8,397,32.8,397.1z M39.3,380c-1.8,0-3.4-0.4-5.3,0.5
		c1.5,2.4,3.4,1.5,5.3,1.6C39.3,381.4,39.3,380.8,39.3,380z M94.4,383.6c0.3-3.1,0.3-3.1-0.5-5.1c-0.8,2-3.2,3.1-2.2,5.8
		C92.7,384.1,93.6,383.8,94.4,383.6z M49.1,405.2c0.1,0.9,0.1,1.5,0.2,2.4c1.1,0,2.1,0,3.2,0c-0.1-0.9-0.1-1.6-0.2-2.4
		C51.2,405.2,50.3,405.2,49.1,405.2z M48.5,422.5c1.3,0.8,2.5,0.5,3.9-0.1c0-0.8-0.1-1.5-0.1-2.4c-1.3,0.1-2.3,0.2-3.5,0.3
		C48.6,421.2,48.5,421.8,48.5,422.5z M30.2,386c-0.2,1.4-1,2.7,0.8,3.5c0.5,0.2,1.2,0,2-0.1c-0.1-1.1-0.2-1.9-0.2-2.7
		C31.8,386.4,31.1,386.2,30.2,386z M32.8,399.8c-0.9-0.1-1.7-0.2-2.6-0.2c-0.2,1.2-0.6,2.2,0.5,3.3c0.6-0.1,1.3-0.1,2.1-0.2
		C32.8,401.7,32.8,400.9,32.8,399.8z M91.6,402c0,0.8,0,1.4,0,2.3c1.1-0.1,2-0.2,3-0.3c-0.1-0.9-0.1-1.5-0.2-2.3
		C93.4,401.8,92.5,401.9,91.6,402z M32.5,384.1c-0.7-2.8-0.7-2.8-2.1-3.9c-0.8,1.1-0.6,2.2-0.1,3.4C31,383.7,31.7,383.8,32.5,384.1z
		 M32.7,408.5c0-1.2,0-2,0-2.9c-0.9-0.1-1.6-0.2-2.3-0.3c-0.6,1.2-0.7,2.2,0.1,3.3C31.2,408.5,31.8,408.5,32.7,408.5z M52.4,425
		c-1.3,0.1-2.3,0-3.2,0.2c-0.4,0.1-0.6,0.8-1,1.3C51.8,427.1,51.8,427.1,52.4,425z M94.7,408.7c-0.1-0.7-0.2-1.2-0.3-2
		c-1.1,0.1-2,0.3-2.9,0.4C91.8,409.1,91.8,409.1,94.7,408.7z M89.5,380.1c0.2,0.1,0.4,0.1,0.6,0.2c0.5-0.7,1-1.4,1.4-2.1
		c0.1-0.1-0.1-0.4-0.3-0.7c-0.6,0.1-1.2,0.1-1.8,0.2C89.5,378.6,89.5,379.4,89.5,380.1z M49.1,410c1,1.4,1,1.4,3.1,0.3
		C51,410.2,50,410.1,49.1,410z"/>
	<path class="st3" d="M70.8,375.8c1.4,0,2.9,0,4.3,0c0.5,0,1.1,0.2,1.5,0.5c0.7,0.4,0.6,1.6-0.1,1.9c-0.6,0.2-1.3,0.4-1.9,0.4
		c-2.7,0-5.3,0-8,0c-0.3,0-0.7,0-1-0.1c-0.8-0.1-1.5-0.4-1.5-1.4c0.1-0.9,0.8-1.2,1.6-1.3c0.6,0,1.1,0,1.7,0
		C68.6,375.8,69.7,375.8,70.8,375.8C70.8,375.8,70.8,375.8,70.8,375.8z"/>
	<path class="st3" d="M57.5,375.8c1.1,0,1.9,0.7,2,1.7c0,1-0.8,1.8-1.8,1.9c-1,0.1-1.9-0.7-2-1.7C55.7,376.6,56.5,375.8,57.5,375.8z
		"/>
	<path class="st3" d="M48,377.8c0-0.9,0.7-1.7,1.6-1.7c0.9,0,1.7,0.8,1.7,1.6c0,0.8-0.8,1.7-1.6,1.7C48.8,379.4,48.1,378.7,48,377.8
		z"/>
	<path class="st3" d="M55,363.2c0.4-1.2,1.3-1.3,2.2-1.3c4.3,0,8.6,0,12.9,0c1.7,0,1.9,0.3,1.8,2.3c-0.6,0.1-1.2,0.4-1.9,0.4
		c-4.2,0-8.4,0-12.6,0C56.5,364.5,55.5,364.6,55,363.2z"/>
	<path class="st3" d="M68,357.8c-0.8,0-1.3-0.6-1.4-1.4c-0.1-0.9,0.6-1.7,1.5-1.8c0.9-0.1,1.8,0.7,1.7,1.6
		C69.8,357,69,357.8,68,357.8z"/>
	<path class="st3" d="M54.7,356c0.8-0.4,1.5-0.7,2.1-0.9c0.3-0.1,0.8,0.3,1.1,0.6c0.6,0.8,0.3,2.1-0.4,2.6
		C56.7,358.8,56.1,358.4,54.7,356z"/>
</g>
<g>
	<path class="st3" d="M824.7,129.3c3-1.5,5.8-2.6,8.9-2.5c3.1,0.1,5.9,1,8.3,3.1c1.6,1.3,3.1,2.7,4.8,3.9c3.9,3,8.1,3.8,12.8,2.3
		c0.9-0.3,1.8-0.5,2.6-0.7c2.7,2,2.9,3.2,0.8,5.2c-0.6,0.6-1.3,1-2,1.5c-0.5,0.4-1.1,0.8-1.7,1.4c0.3,0.9,0.5,1.8,0.8,2.7
		c1.4,3.9,2.9,7.7,4.2,11.6c1,3.1,0.7,3.7-2.4,5.8c1.6,6.7,0.9,13.8,3.6,20.4c0.3,0.6,0.4,1.3,0.5,2c0.3,2.6-0.5,3.7-3.1,4.3
		c-0.5,0.1-1,0.1-1.6,0.2c0.4,4.5,0.9,8.7,1.3,12.9c0.1,0.7,0.2,1.4,0.3,2c0.3,2.5,0.1,4.7-3.4,5.4c0.5,3.8,1,7.4,1.4,11
		c0,0.3,0.1,0.5,0.2,0.8c1,4.4,0.3,5.8-3.9,7.8c-0.2,1.4-0.3,2.9-0.5,4.4c-0.2,0.9-0.4,1.9-0.7,2.8c-1.6,3.9-3.7,4.2-6.7,0.8
		c-0.5,0.6-1,1.2-1.5,1.8c-3.2,4.3-7.6,5.7-12.7,5.2c-1.5-0.2-3-1.1-4.4-1.9c-1.3-0.7-2.4-1.7-3.8-2.8c-0.5,1.1-0.9,2-1.4,2.7
		c-1,1.5-2,2.9-3.2,4.2c-1.3,1.4-2.8,1.4-4.5,0.7c-1.9-0.9-3.5-2.1-4.6-3.9c-0.5-0.9-1-1.9-1.6-3.1c-1,0.7-2,1.2-2.8,1.8
		c-2,1.6-4,1.5-6.1,0.4c-2.6-1.4-4.8-3.2-6.3-5.8c-0.7-1.2-1.4-2.3-2.2-3.7c-1.3,0.8-2.3,1.6-3.5,2.2c-2.1,1.1-3.8,0.5-4.7-1.6
		c-0.7-1.9-1.3-3.9-1.4-5.9c-0.2-3.4-0.1-6.8-0.1-10.6c-1,0.4-2,0.7-2.9,1c-2.4,0.6-4.1-0.3-4.7-2.7c-0.3-1.4-0.4-3-0.1-4.5
		c0.9-4.8,2.1-9.6,3.2-14.4c0.3-1.4,0.7-2.9,1.2-4.4c-0.7-0.1-1-0.1-1.4-0.1c-2.4-0.2-3.4-1-3.4-3.1c0-1.8,0.3-3.6,0.7-5.3
		c1.6-6.2,3.2-12.5,4.8-18.7c0.3-1.2,0.5-2.4,0.8-3.5c-0.2-0.4-0.3-0.7-0.5-0.8c-3.8-1.8-4.3-2.7-2.7-6.6c0.6-1.4,1.3-2.7,2.1-4
		c1.3-2.3,2.5-4.6,4-6.7c1.3-1.7,1.4-3.4,0.6-5.5c-0.7-0.3-1.6-0.6-2.5-1c-0.9-0.4-1.8-1.2-1.4-2.2c0.3-0.9,1.1-1.8,1.9-2.5
		c0.4-0.4,1.3-0.2,2-0.2c5.6,0,10.8-1,15.7-3.8c3.2-1.8,6.9-2.7,10.6-2.9C816.6,125.5,820.9,126,824.7,129.3z M845.5,141.4
		c1.1,0.2,2.2,0.2,3.2,0.5c3.1,1.1,5.8-0.2,8.5-1.5c-0.6-0.2-1.2-0.2-1.8-0.2c-4,0.1-7.6-1.1-10.7-3.6c-1.4-1.1-3-2.1-4.1-3.4
		c-3.4-3.9-9.7-4-13.6-1.5c-0.8,0.5-1.7,0.7-2.6,1.1c-4.6-4.7-10.1-4.8-15.8-3.4c-2.4,0.6-4.7,1.5-6.9,2.6
		c-3.6,1.8-7.2,3.4-10.8,3.8c-0.8,1.6-1.4,2.8-2,4.2c0.8,0.5,1.4,1.2,2.1,1.2c2.7,0.1,5.4,0.1,8.7,0.1c3.5,2.7,7.9,3.1,12.7,1.8
		c4.8-1.3,8.7-3.9,11.1-8c2.4-0.6,3.5,0.2,4,2.2c0.8,3.5,2.7,6.3,5.6,8.4c3.7,2.6,7.7,3.6,11.8,0.8c0.4-0.3,1-0.5,1.5-0.8
		c0.2-0.1,0.2-0.4,0.4-0.6c-0.7-0.6-1.4-1.2-2-1.8C845,142.5,845.3,141.9,845.5,141.4L845.5,141.4z M785.4,184.3
		c-0.3,1.7-0.3,2.7-0.6,3.7c-1.2,4.4-2.6,8.6-3.7,13c-0.9,3.9-1.5,7.8-2.2,11.7c-0.2,1.3-0.2,2.7,1.1,3.5c3.7-0.3,3.6-5.2,7.1-5.5
		c1.1,1.6,0.3,3.1,0.3,4.6c-0.2,4.2-0.4,8.5-0.5,12.7c0,2,0.3,4.1,1.7,5.6c3.7-0.2,3.1-4.7,6.2-5.7c2.2,5.5,4,11.3,10.7,13.5
		c1.2-1,2.7-1.8,3.7-3c1-1.2,1.4-2.7,2.4-4.6c0.7,1.3,1.2,2.1,1.5,2.9c0.5,1.4,0.7,2.9,1.3,4.3c0.9,2.4,2.4,4.3,5.2,4.7
		c1.8-1.1,2.6-2.7,3.5-4.5c0.8-1.6,0.2-3.9,2.7-5.2c1.9,1.4,3.8,2.9,5.7,4.3c1,0.7,2,1.5,3.2,1.7c3.1,0.6,6,0,8.6-1.9
		c2.3-1.7,3.2-4,2.5-6.9c-0.1-0.6,0.5-1.7,1-1.9c0.6-0.3,1.8-0.2,2.3,0.2c0.8,0.6,1.3,1.7,1.8,2.6c0.5,0.8,0.9,1.8,1.4,2.9
		c2.7-3.8,0.1-7.9,1.9-11.7c1.3,0.3,2.4,0.6,3.7,1c0.1-0.7,0.4-1.4,0.3-2c-0.9-4.7-1.9-9.4-2.9-14c-0.4-1.6-1-3.1-1.4-4.7
		c-0.3-1.3,0.2-2.1,1.8-2c1,1,2,2,3.5,3.6c-0.3-3.8-0.3-6.9-0.7-10c-0.4-2.8-1.1-5.6-1.7-8.4c-0.3-1.3-0.8-2.6-0.8-4
		c0-0.6,0.7-1.2,1.1-1.8c2.5,0.5,2.5,4,5.5,3.5c0-0.5,0.1-1.1,0-1.6c-1.5-4.4-2.4-8.9-2.9-13.6c-0.5-4.3-1.1-8.7-3-12.7
		c-0.4-0.9-0.4-1.9,1.2-2.2c0.9,1.1,1.9,2.2,2.9,3.4c-0.4-4.5-2-8.4-3.5-12.4c-0.8,0.4-1.3,0.7-1.9,1c-0.7-0.8-1.2-1.3-1.7-1.9
		c-2.3,0.8-4.4,1.6-6.3,2.3c-0.7,4.7-1,9.1-2,13.3c-0.8,3.7-2.2,7.3-3.4,11c-0.3,0.9-0.9,1.7-1.5,2.4c-1.1,1.2-2.4,1.2-3.6,0.1
		c-0.7-0.7-1.2-1.5-2-2.5c-0.5,1.5-0.7,2.7-1.1,3.8c-1.1,3.2-3.4,3.8-5.9,1.4c-0.8-0.7-1.2-1.8-1.7-2.7c-0.4-0.7-0.7-1.5-1.2-2.8
		c-0.6,1.5-1,2.3-1.4,3.2c-0.4,0.9-0.7,1.8-1.1,2.6c-2,3.7-5,3.9-7.3,0.4c-0.5-0.8-0.9-1.7-1.4-2.5c-0.5-0.9-1.1-1.7-1.7-2.5
		c-1,1.2-1.7,2.2-2.7,3c-2.1,1.7-4.6,1.2-6-1.1c-0.5-0.8-0.7-1.8-1-2.7c-0.3-1.2-0.6-2.3-0.9-3.5c-0.5,0.1-0.7,0.2-1,0.3
		c-2.9,0.8-3.9,0.3-3.9-2.6c0-1.5,0.1-3,0.4-4.5c0.9-4.6,1.9-9.1,2.8-13.7c0.2-1.2,0.3-2.4,0.5-3.9c-1.1-0.5-2-1.3-2.9-1.3
		c-3-0.2-6-0.1-8.9-0.1c-1.3,2.2-2.6,4.5-3.9,6.7c-1.3,2.2-2.9,4.2-3.3,6.9c2.7-0.3,2.3-3.8,5.1-4.2c0.1,1,0.5,2,0.3,2.8
		c-1.2,5.5-2.6,10.9-3.9,16.4c-1.2,4.8-2.4,9.6-3.5,14.4c-0.2,0.7,0,1.4,0,2.5C781.4,187.5,782.2,185,785.4,184.3z M839,172.5
		c3.6-8,5.6-17.6,4.4-21.5c-7.8,1.5-15.1-1.8-19.2-12.8c-2.3,3.7-5.7,5.6-9.4,7.1c-3.8,1.6-7.8,1.1-11.6,1.4
		c-2.5,7.4-4,16.2-3.5,19.8c1.2-1.2,2.4-2.2,3.5-3.3c1.5,1.7,1.4,1.7,1.5,2.9c0.1,2.3,0.2,4.6,0.5,6.9c0.1,0.8,1,1.4,1.4,2.1
		c2.2-0.7,2.5-2.5,3.2-3.9c0.8-1.5,0.9-3.5,3.3-4c0.3,0.6,0.7,1.2,0.9,1.8c0.3,1,0.4,2.2,0.8,3.2c0.9,2.3,1.7,4.8,4,6.5
		c2.8-3.1,2.2-8.1,6.3-10c1.7,0.6,2.3,1.9,2.8,3.4c0.3,0.9,0.4,1.9,0.9,2.7c0.3,0.6,1,1,1.7,1.7c1.9-3.1,1.1-7.1,4.3-9.3
		C837.2,168.2,837,171,839,172.5z"/>
	<path class="st3" d="M792,172.7c0.6,1.2,1.3,1.9,1.3,2.5c-0.2,3.7-0.7,7.3-2.9,10.4c-0.4-0.1-0.8-0.2-0.8-0.3
		C789.3,182.8,790.5,176.2,792,172.7z"/>
	<path class="st3" d="M849.3,202.3c-2.9-2.9-2.4-6.1-2.9-8.9c-0.2-1.2-0.7-2.8,1-3.6c0.2,0.2,0.6,0.3,0.6,0.5c0.5,2.7,1,5.4,1.3,8
		C849.5,199.4,849.3,200.5,849.3,202.3z"/>
	<path class="st3" d="M785.7,206.5c0.3-1.1,0.4-2.1,0.8-2.8c1.6-2.4,1.4-5.7,3.6-8.3c1.6,2.1,0.5,3.9,0,5.5
		C789.1,204.6,788.5,205.3,785.7,206.5z"/>
	<path class="st3" d="M834.2,186.2c1.5,2.6,1.6,7.8,0.1,10.5C832.7,193.9,832.6,189,834.2,186.2z"/>
	<path class="st3" d="M848.9,217c0.9,3.7,0.7,6.8,0.1,10.6c-0.7-0.7-1.5-1.1-1.5-1.5c-0.2-2.6-0.3-5.1-0.2-7.7
		C847.3,218,848.2,217.6,848.9,217z"/>
	<path class="st3" d="M833.9,210.8c0.3,1.1,0.6,2,0.7,2.8c0.2,4.2,0.1,4.7-1.1,7.4c-1.5-2.2-1.1-4.5-1.1-6.7
		C832.4,212.7,832.4,212.7,833.9,210.8z"/>
	<path class="st3" d="M801.5,209.4c1.3,2.2,1.4,6.4,0.4,9.9C799.8,216.6,799.7,212.3,801.5,209.4z"/>
	<path class="st3" d="M793.9,212.1c-0.8-4.2,0.9-7.3,1.3-10.5c0.1-0.5,0.5-0.9,0.9-1.3c0.1-0.1,0.5,0,0.7,0
		C797.1,204.1,796.2,208.2,793.9,212.1z"/>
	<path class="st3" d="M819.6,214.7c-2.6-2.5-2.3-5.4-2.7-8c-0.1-0.6,0.5-1.3,0.9-2.1C819.8,207.2,820.1,209.3,819.6,214.7z"/>
	<path class="st3" d="M830.2,226.3c2,1.8,2.5,4.8,1.8,9.6C829.6,233.9,829.1,231.4,830.2,226.3z"/>
	<path class="st3" d="M810.6,204.3c1.4,3.3,1,6.2-0.8,9.7c-1-1.9-1-1.9-0.5-4.7C809.5,207.5,809.7,205.8,810.6,204.3z"/>
	<path class="st3" d="M796.7,192.4c0.1-3.9,1.6-6.6,2.8-10.2c0.5,1.1,0.9,1.7,0.8,2.1C800,187.3,798.9,189.8,796.7,192.4z"/>
	<path class="st3" d="M846.4,204.5c0.6,3.5,0.3,6.2-0.5,9.1C843.9,211.4,843.9,207.9,846.4,204.5z"/>
	<path class="st3" d="M839.1,207c-1.4-2.9-1-5.5-0.4-8.5C840.7,200.6,840.7,203.6,839.1,207z"/>
	<path class="st3" d="M807.5,186.2c2.2,3,1.6,5.7,0.6,9c-1.6-2.4-1.4-4.5-1.4-6.5C806.8,187.9,807.2,187.1,807.5,186.2z"/>
	<path class="st3" d="M847.4,175.1c1.2,3,1.4,4.7,1.2,9c-1.9-0.9-1.7-2.6-2-4C846.2,178.5,845.9,176.9,847.4,175.1z"/>
	<path class="st3" d="M803,202.9c-1.3-3.1-1.7-5.6-1-8.4C804.2,196.3,804.6,199.2,803,202.9z"/>
	<path class="st3" d="M806.6,232.7c-1.2-2.9-0.7-5.5,1.3-8.7C808.7,227.6,808.1,230.2,806.6,232.7z"/>
	<path class="st3" d="M839.8,183.6c2.8,1.7,3.2,3,2.5,6.9C840.6,189.2,840.3,188.4,839.8,183.6z"/>
	<path class="st3" d="M818.7,188.3c0.6,1.2,0.9,1.5,0.9,1.9c0,2.7,0,5.4,0,8.7c-0.7-1.1-1.2-1.6-1.4-2.3
		C817.8,194.1,817.5,191.6,818.7,188.3z"/>
	<path class="st3" d="M838.5,228.7c1.3,2.4,1.6,4.3,1,6.6C837.2,232.9,836.9,230.6,838.5,228.7z"/>
	<path class="st3" d="M815.5,226.6c-1.8-3.4-1.9-6-1.2-8.8c0.5,0.3,1.1,0.4,1.2,0.6C815.7,220.8,816.7,223.2,815.5,226.6z"/>
	<path class="st3" d="M854.8,195.6c-1.6-2.1-2.8-4.1-1-7C855.7,191,855.3,193.3,854.8,195.6z"/>
	<path class="st3" d="M852.7,217.1c-1.8-2.1-2.5-4.4-1.2-7.7C852.9,212.3,853,214.6,852.7,217.1z"/>
	<path class="st3" d="M826,215.9c1.7,2.8,1,4.9,0.2,7.3C824.5,220.1,824.5,219.7,826,215.9z"/>
	<path class="st3" d="M856.3,166.1c1.6,2.3,1.5,4.3,0.6,6.5C855.1,170,855.1,169.3,856.3,166.1z"/>
	<path class="st3" d="M792.1,216.4c1.6,2.4,1.2,4.3-1.2,6.7C789.9,220.6,790.8,218.6,792.1,216.4z"/>
	<path class="st3" d="M819,228.1c1.5,3.7,1.4,5.1-0.1,8.2c-0.4-0.5-0.8-0.8-0.8-1.2C817.6,232.8,817.9,230.6,819,228.1z"/>
	<path class="st3" d="M827.5,197.6c2.3,2.8,1.3,5.5,1.2,8.7C826.6,203.3,826.9,200.8,827.5,197.6z"/>
	<path class="st3" d="M825.7,183.1c1.6,2.5,1.3,4.5,0.7,6.9C824.5,187.3,824.5,187.1,825.7,183.1z"/>
	<path class="st3" d="M796.3,151.8c-0.9-2.7-0.1-4.4,1.6-6.4C799,148.1,798,149.8,796.3,151.8z"/>
	<path class="st3" d="M791.7,161.4c1.2,2.4-0.4,3.8-2.1,5.6C789.1,164.4,790.5,163,791.7,161.4z"/>
	<path class="st3" d="M840.5,222.7c-1.1-1.6-1-2.9-0.7-4.7c0.7,0.5,1.4,0.7,1.6,1.1C842,220.2,841.8,221.4,840.5,222.7z"/>
	<path class="st3" d="M798.4,226.4c-1.8-1.8-2.2-3.2-1-5.1C799,222.8,799.1,224.1,798.4,226.4z"/>
	<path class="st3" d="M853.9,179.4c-1.2-2.2-1.2-2.2-0.3-4.4C855.3,176.7,855.3,176.7,853.9,179.4z"/>
	<path class="st3" d="M789.2,149.3c0.1-2.1,1.4-3.2,3-4.1C792.3,147.4,791,148.6,789.2,149.3z"/>
	<path class="st3" d="M851.8,165.3c0,1.5,0,3,0,4.8C850,168.1,849.9,167.9,851.8,165.3z"/>
	<path class="st3" d="M790.9,157.7c0-2,0-3.3,0-5.2c0.8,0.7,1.5,1,1.6,1.4C792.7,155.1,792.7,156.3,790.9,157.7z"/>
	<path class="st3" d="M852.7,159.1c-0.1-1.1-0.1-2.3-0.2-4C853.6,157,853.6,157,852.7,159.1z"/>
	<path class="st3" d="M833,136.6c0.9,1.5,1.5,3,2.6,4.1c1,1,2.4,1.6,3.8,2.4c-2.7,1.2-4.3,0.9-6-0.9
		C831.8,140.4,831.7,139.1,833,136.6z"/>
	<path class="st3" d="M817.9,134.3c-2.2,2.5-4.7,4.5-8.6,3.6c2.7-1.5,5.4-2.9,8.1-4.4C817.6,133.8,817.8,134,817.9,134.3z"/>
	<path class="st3" d="M801.1,136.1c-2,2.3-3.8,2.6-6.4,2.1C796.6,136.5,798.2,135.6,801.1,136.1z"/>
	<path class="st3" d="M845.6,141.3c-3.5,0.4-3.5,0.4-5.1-2.8c0.8,0.1,1.5,0,1.9,0.3C843.5,139.5,844.5,140.5,845.6,141.3
		L845.6,141.3z"/>
	<path class="st3" d="M809.7,134.1c-1.5,1.4-3.2,1.9-5.6,1.4C805.9,133.8,807.8,133.9,809.7,134.1z"/>
	<path class="st3" d="M837.3,135.2c-0.9-0.3-1.7-0.6-3.1-1C835.9,132.9,836.7,133.6,837.3,135.2z"/>
</g>
<g>
	<path class="st3" d="M827.1,428.2c0-1.3,0-2.4,0-3.5c0-18.4,0-36.7,0-55.1c0-2.1,0.1-4.2,0.3-6.3c0.3-4.3,2.8-6.9,7-6.7
		c1.4,0,2.9-0.1,4.3-0.1c20.5,0,40.9,0,61.4-0.1c3.9,0,7.7-0.4,11.6-0.6c2.3-0.1,4.6-0.1,7-0.1c0.8,0,1.6,0.1,2.3,0.3
		c3.1,0.7,4.5,2.5,4.6,5.6c0,3.5-0.1,7.1-0.1,10.6c0,16.8-0.1,33.6-0.1,50.5c0,1.4-0.2,2.9-0.4,4.3c-0.1,1.1-0.9,1.7-2.1,1.8
		c-0.8,0-1.5,0-2.3,0c-29,0-58,0-87-0.1C831.5,428.8,829.5,428.5,827.1,428.2z M830.4,366c-0.2,1.9-0.7,3.8-0.7,5.8
		c0,17.4,0,34.7,0,52.1c0,0.8,0.2,1.7,0.2,2.4c9.9,0,19.5,0,29.1,0c19.9,0,39.8,0,59.7,0c1.3,0,2.6,0.3,3.8-0.3
		c0.5-3.7,0.3-57.3-0.2-59.7C919.2,365.7,834.6,365.4,830.4,366z M830.3,363.2c0.8,0,1.4,0.1,1.9,0.1c19.7,0,39.4,0,59.1,0
		c9.3,0,18.6,0,27.9,0c1.2,0,2.4-0.1,3.6-0.1c-0.1-3.3-0.9-4.2-3.6-4.2c-2.1,0-4.2,0.2-6.3,0.2c-24.7,0-49.3,0-74,0
		c-1.7,0-3.3,0-5,0.1C831.6,359.4,830.9,360.1,830.3,363.2z"/>
	<path class="st3" d="M845.2,399.6c0-3.5,0-6.4,0-9.6c20.8-0.4,41.3-0.1,61.8-0.2c1.5,3.2-0.4,6.2,0,9.4c-0.8,0.2-1.5,0.5-2.2,0.6
		c-1.1,0.1-2.2,0.1-3.3,0.1c-17.6,0-35.2,0-52.7-0.1C847.6,399.8,846.4,399.7,845.2,399.6z M905,392.4c-1.2-0.1-2.2-0.2-3.2-0.2
		c-17,0-34.1-0.1-51.1-0.1c-1.1,0-2.1,0.2-3.2,0.3c-0.1,0.6-0.2,0.9-0.2,1.2c0.1,1.2,0.2,2.4,0.4,3.6c3.2,0.5,53.9,0.4,56.7-0.2
		C904.6,395.6,904.8,394.1,905,392.4z"/>
	<path class="st3" d="M857.5,383c-2.6-0.1-4.7-1.8-4.7-3.8c0-2.3,2.4-4.4,4.9-4.4c2.3,0,3.6,1.4,3.6,3.8
		C861.4,381.3,859.8,383.1,857.5,383z"/>
	<path class="st3" d="M895,382.1c-2.7,0.8-3.1,0.8-5.7,0.1c-0.9-3.2-0.9-4.4,0.1-7.1c0.6,0.3,1.3,0.4,1.7,0.8
		C892.5,377.9,894.4,379.5,895,382.1z"/>
	<path class="st3" d="M869.2,380.6c0,1.7-0.9,2.6-2.7,2.6c-1.7,0-2.8-1.1-2.7-3c0-1.5,1-2.4,2.5-2.5
		C868.1,377.7,869.2,378.8,869.2,380.6z"/>
	<path class="st3" d="M883.2,376.9c1.5,0,2.7,1.3,2.7,2.7c0,1.6-1.4,2.8-3.1,2.8c-1.4,0-2.6-1.4-2.5-2.9
		C880.4,378.1,881.8,376.8,883.2,376.9z"/>
	<path class="st3" d="M874.5,382.9c-1.4,0-2.4-1.1-2.4-2.6c0-1.7,1.3-2.9,3-2.9c1.4,0,2.4,1.1,2.4,2.6
		C877.5,381.6,876.1,382.9,874.5,382.9z"/>
	<path class="st3" d="M844.5,361.3c-0.7,0.4-1.1,0.9-1.5,0.9c-0.4-0.1-0.6-0.7-1-1c0.4-0.3,0.8-0.8,1.1-0.8
		C843.5,360.3,843.9,360.8,844.5,361.3z"/>
	<path class="st3" d="M838.5,360c0.5,0.6,0.9,0.8,1.1,1.2c0.1,0.2-0.6,0.9-0.7,0.8c-0.4-0.1-0.8-0.5-1-0.9
		C837.8,361,838.2,360.6,838.5,360z"/>
	<path class="st3" d="M835.8,361.3c-0.6,0.3-1,0.7-1.3,0.6c-0.3-0.1-0.5-0.6-0.7-0.9c0.3-0.2,0.6-0.6,0.9-0.6
		C835,360.4,835.3,360.8,835.8,361.3z"/>
</g>
<g>
	<path class="st3" d="M130.6,221.8c1.4-0.3,2.7-0.7,4-0.9c3.3-0.6,6.1,0.6,8.5,2.7c1.5,1.3,2.2,3,2.3,5c0.7,8.5,0,16.8-2,25.1
		c-1.1,4.7-6.1,8.6-10.7,7.5c-0.5-0.1-1-0.1-1.8-0.1c-0.2,0.9-0.4,1.6-0.4,2.4c-0.1,1.5-0.6,2.9-1.7,4c-0.4,0.4-0.7,0.8-0.9,1.3
		c-1.3,3.5-4.1,4.8-7.4,5.4c-9.7,1.6-19.4,2.2-29.2,1c-4.7-0.6-8.3-2.7-10.6-7c-0.6-1.1-0.9-2.1-0.9-3.4c0-14.1,0-28.2,0-42.2
		c0-6.4,0.3-6.8,6.6-8.5c9.9-2.6,19.9-2.8,29.9-1.3c0.9,0.1,1.8,0.4,2.8,0.4c3.2,0.2,5.9,1.4,8.7,2.9c1.7,0.9,2.7,2.1,2.6,4.1
		C130.3,220.6,130.5,221.1,130.6,221.8z M100.5,223.6c-1.4,3.1-1.4,6.2-1.3,9.2c0,1.9,0.8,3.3,2.3,4.5c1.7,1.3,3.3,2.8,4.9,4.1
		c1,0.8,1.6,1.7,1.5,3.1c-0.3,3.3-0.6,6.7-1,10c-0.1,1.2-0.9,1.9-2.1,2c-3.5,0.3-6.9,0.7-10.4,0.9c-2.9,0.2-3.5-0.5-3.6-3.4
		c0-2.8,0.1-5.6,0.1-8.4c0-2,0.7-3.6,2-5.1c0.6-0.6,1-1.2,1.6-1.8c1.1-1.3,1.5-2.6,1.4-4.4c-0.2-2.6,0.2-5.3,0.4-8
		c0.1-0.9,0.2-1.8,0.3-2.7c-4.6-0.5-8.9-0.9-13.3-1.4c0,14.2,0,28.1,0,42.2c1.7,0.4,3.3,0.9,4.8,1c7.5,0.4,15,0.8,22.5,0.8
		c4,0,8-0.9,11.9-1.7c1.6-0.3,3.2-1.2,5-2c0-4.7,0-9.1,0-13.5c0-4.6,0.1-9.1,0-13.7c0-4.4,0.4-8.7-0.2-13.3
		C118.2,224.7,109.5,224.6,100.5,223.6z M130.6,225.6c0,1.2,0,2.4,0,3.8c0.5,0,0.9-0.1,1.3-0.1c3.9-0.7,4.8-0.4,6.1,3.2
		c2,5.6,1.6,11.3-0.1,16.9c-1,3.2-3,5-6.5,4.7c-0.2,0-0.4,0.3-0.8,0.5c0,0.4-0.1,0.9-0.1,1.5c0,0.4,0.2,0.8,0.3,1.1
		c5.2,2,8.1,0.6,9.5-4.4c2.1-7.7,2.7-15.5,2-23.4c-0.2-2.3-1.3-3.7-3.2-4.7C136.2,223.1,133.4,223.6,130.6,225.6z M124.2,267.6
		c-3.4,0.4-6.7,0.9-9.9,1.1c-3.3,0.2-6.7,0.3-10,0.2c-3.3-0.1-6.7-0.4-10-0.7c-3.2-0.3-6.5-0.7-9.9-1.1c1.8,3.5,2.8,4.2,6.2,4.7
		c6.5,1.1,13.1,0.8,19.6,0.5c3.5-0.2,6.9-0.9,10.3-1.5C122.1,270.6,123.9,270.1,124.2,267.6z M84.4,218.8c2.3,1.4,4.1,0.5,5.8,0
		c4.7-1.3,9.6-1.4,14.3-1.3c5.3,0.1,10.6,1.4,15.8,2.4c1.8,0.3,3.3,0.1,4.9-0.7C118,213.9,95,213.7,84.4,218.8z M98.1,238.9
		c-1.4,2-3.2,3.4-3.6,5.2c-0.7,3.2-0.6,6.5-0.1,9.9c3.3-0.3,6.1-0.7,9.2-1c0.3-3,0.6-5.9,0.9-8.8
		C102.3,242.5,100.4,240.9,98.1,238.9z M133.3,250.7c3.6-5.5,3.8-14.2,0.5-18.8c-0.6,0.5-1.4,0.9-1.6,1.5c-0.7,1.7-1.5,3.5-1.6,5.3
		c-0.2,3.6-0.1,7.2-0.1,10.7c0.6,0.4,1.1,0.7,1.5,0.9C132.3,250.6,132.7,250.6,133.3,250.7z"/>
	<path class="st3" d="M104.4,206.5c-1-2-1.9-3.8-2.7-5.5c-1.1-2.2-1.2-4.6,0.5-6.4c1.7-1.8,2.6-3.9,3.4-6.1c1.7,0.4,2,1.6,1.8,2.8
		c-0.2,1.2-0.5,2.4-1.2,3.3c-1.7,2.1-2.1,4.1-0.5,6.5c0.9,1.4,0.7,3.1-0.2,4.5C105.2,205.9,104.8,206.1,104.4,206.5z"/>
	<path class="st3" d="M114,186.9c2.7,1.9,3.5,4.3,3.9,6.8c0.1,0.8-0.3,1.9-0.9,2.5c-1.5,1.5-2.2,3.3-2.6,5.3c0,0.2-0.4,0.3-0.6,0.5
		c-1.2,0-1.8-0.8-1.8-1.7c0.1-1.4,0.2-3.1,0.9-4.2c1.5-1.9,1.5-3.9,1.1-6C113.8,189.2,114,188.3,114,186.9z"/>
	<path class="st3" d="M94.4,203.5c-1.7-2-2.4-3.9-1.5-6.1c1.2-2.7,2.4-5.2,1.5-8.3c0.7,0,1.3-0.2,1.4,0c1.5,1.7,2.3,3.6,1.6,5.9
		C96.5,197.7,95.5,200.4,94.4,203.5z"/>
	<path class="st3" d="M102.7,244.7c-0.1,2.6-1.9,1.7-2.7,2.5c-0.9,1.3,0.4,3.6-1.8,4.6c-3-1.2,0.6-5-3-5.8
		C97.9,243.9,100.2,244.6,102.7,244.7z"/>
</g>
<g>
	<path class="st3" d="M459.9,416.3c-4.2,4.7-9.5,6.3-15.3,6.6c-2.4,0.1-4.9,0-7.3,0c-2,0-3.9-0.4-5.7-1.3c-3.8-1.7-5.5-4.4-5.5-8.5
		c0.1-8.5,0.1-17,0.1-25.5c0-4.9,0-9.7,0-14.6c0-0.9,0-1.8,0.1-2.6c0.2-1.9,1.2-3.3,3.1-3.9c1.7-0.5,3.4-0.9,5.1-1.4
		c1.8-0.5,3.5-1.1,5.3-1.6c0.8-0.2,1.9-0.5,2.5-0.2c1.7,0.7,3.5,0.5,5.2,0.5c4.7,0,8.2,2.4,11.1,5.6c0.6,0.7,0.9,1.8,1,2.7
		c0.2,1.4,0.2,2.9,0.2,4.3c0,12.6,0,25.2,0,37.8C460,414.8,459.9,415.5,459.9,416.3z M429.2,377.3c2.6,1.2,5.1,1.4,7.7,1.6
		c2.3,0.2,4.6,0.3,6.9,0.6c2.6,0.3,2.9,0.6,3,3.4c0,1.4,0,2.9-0.1,4.3c-0.3,6.4-0.3,12.8,0.3,19.2c0.2,2.4,0.5,4.8-0.2,7.2
		c-0.5,1.5-1.3,2.5-2.9,2.9c-2.3,0.5-4.5,1.1-6.9,0.5c-2-0.5-4.1-1-6.1-1.5c-0.5-0.1-0.9-0.1-2-0.3c2,3.2,4.4,4.9,7.6,4.9
		c3.6,0,7.3-0.3,10.9-0.7c2.5-0.3,4.9-1.2,7.2-2.4c2-1.1,3-2.6,3-5c-0.1-11.2,0-22.3-0.1-33.5c0-0.8-0.2-1.7-0.2-2.5
		c-4.8,0.7-9.5,1.3-14.1,0.8c-4.6-0.5-9.1-1.5-13.7-2.3c-0.1,0.3-0.2,0.6-0.3,0.9C429.1,375.9,429.2,376.5,429.2,377.3z
		 M429.6,380.5c-0.4,2.2-0.5,27.9,0,31.7c4.5,2,9.1,3.6,14.5,1.5c0.2-1.1,0.6-2.3,0.6-3.4c0.1-1.8,0-3.5-0.1-5.3
		c-0.6-6.4-0.6-12.8,0-19.2c0.1-1.3,0.4-2.6-0.4-3.8C439.3,381.4,434.5,381,429.6,380.5z M437.1,367.8c-2.1-0.4-4.1,0.1-6,0.8
		c-0.4,0.1-0.6,0.8-0.9,1.1c0.4,1.3,1.4,1.7,2.3,2c3.6,1.4,7.4,2.3,11.3,2.6c3.4,0.2,6.6-0.3,9.8-1.4c1.1-0.4,2-1,2.3-2.4
		c-3-3.1-6.7-4.1-11-3.8c-0.3,0.9-0.6,1.6-0.9,2.3c-0.8,2.1-2.4,3.1-4.7,3c-1.5-0.1-3.1-0.3-4.6-0.6c-0.8-0.2-1.4-0.7-1.2-2
		C434.7,368.9,435.9,368.3,437.1,367.8z M440.2,369.6c1.3-1.4,1.3-1.4,1.4-2.8C439.8,367.2,439.6,367.5,440.2,369.6z"/>
	<path class="st3" d="M432.1,383.1c2-0.3,3.7-0.6,5.4-0.7c1.6-0.1,2.2,0.4,2.5,1.6c0.5,1.9,0,3.5-1.3,4c-1.2,0.4-2.3,0.9-3.4,1.6
		c-1.4,1-3.5-0.4-3.7-2.5C431.5,385.9,431.9,384.7,432.1,383.1z M434.4,388c0.2-1.2,0.4-1.8,0.4-2.4c0-0.3-0.2-0.5-0.4-1
		C433.4,385.5,433.3,386.3,434.4,388z"/>
	<path class="st3" d="M432.6,410.8c0.8-1.7,3.5-1,2.6-3.3c-1.2-0.4-2.6,0.7-3.8-0.6c0.2-0.3,0.3-0.8,0.6-0.9
		c2.1-0.7,4.1-1.5,6.3-1.9c2.3-0.5,3.6,0.9,3.1,3.2c-0.3,1.4-1.1,2.6-2.5,2.8c-1.6,0.2-2.9,0.6-4.4,1.1
		C434,411.4,433.4,411,432.6,410.8z M439.3,406.3c-0.5,0-1.1,0-1.8,0c0.1,0.6,0,1,0.2,1.4c0.1,0.3,0.4,0.5,0.6,0.7
		C439.5,408.2,439.6,407.4,439.3,406.3z"/>
	<path class="st3" d="M440.2,395.4c-0.6-0.9-0.8-1.3-1.1-1.8c-0.3-0.5-0.5-0.9-0.7-1.3c-2.1,0-1.3,2.2-2.6,3c-0.4-0.4-0.7-0.8-1-1.2
		c-0.3-0.3-0.5-0.6-1.1-1.1c-0.4,1.3-0.8,2.3-1.2,3.6c-0.5-0.6-1-0.9-1-1.2c-0.2-2.2,0.6-3.3,2.7-3.8c0.7-0.2,1.4-0.4,2.1-0.7
		c2.8-1.3,4.5-0.3,4.5,2.8C440.8,394.1,440.6,394.4,440.2,395.4z"/>
	<path class="st3" d="M439.8,402.2c-1.1-1.2-1.7-1.9-2.6-2.8c-0.4,0.9-0.8,1.7-1.2,2.8c-0.8-0.5-1.3-0.9-1.9-1.3
		c-1.6,0.3-0.8,1.5-0.9,2.5c-0.4,0-0.9,0.2-1.2,0c-1.1-0.7-1.5-1.6-0.9-2.5c0.6-0.9,1.5-1.6,2.4-2.2c0.6-0.4,1.5-0.5,2.2-0.7
		C438.8,397.2,439.7,397.9,439.8,402.2z"/>
</g>
<g>
	<path class="st3" d="M367,159.6c2.2,0.1,4,0.3,5.8,0.1c5.2-0.4,10.2,0.5,15.3,1.7c2.2,0.5,4.1,1.7,5.5,3.4c1.6,1.9,1.3,4-0.8,5.3
		c-2.2,1.4-4.7,2-7.3,2.1c-3.1,0.1-6.2,0.2-9.2,0.2c-8.7-0.1-17.5-0.2-26.2-0.3c-3.5-0.1-6.9-0.3-10.4-0.5c-8.1-0.3-16.2-0.7-24.3-1
		c-1,0-2,0.1-3.1,0.2c-0.5,0-1,0.2-1.5,0.2c-3.5-0.4-7-0.8-10.8-1.3c-0.1-0.8-0.4-1.7-0.4-2.5c0.1-4.5,0.3-9,0.5-13.5
		c0.2-4.6,1.4-8.9,3.7-12.8c1.3-2.2,2.5-4.5,3.8-6.7c2-3.4,4.8-6.1,8.5-7.5c3.6-1.4,7.3-2.4,11-3.5c1.4-0.4,2.5-0.9,3.6-1.9
		c2.8-2.8,4.6-2.7,7.9,0c0.7,0.6,1.8,0.8,2.8,1.1c5.2,1.2,10.3,2.7,14.3,6.4c3.8,3.5,6.9,7.4,9.1,12.2c2.3,5,2,10.2,2.4,15.4
		C367.1,157.2,367,158.2,367,159.6z M363.1,159.6c1-4.5,0.3-12.5-1.1-16.5c-1.2-3.2-3-5.9-5.1-8.5c-5.3-6.7-12.4-9.2-20.6-9.5
		c-1.9-0.1-3.3,0.6-4.1,2.2c-1.2,2.3-2.5,4.5-3.4,6.9c-1.2,3.3-2.1,6.6-2.9,10c-1.5,6.4-1.5,12.9-0.2,19.7
		C338.2,162.4,350.6,161,363.1,159.6z M322.4,164.4c-2-13.7,1-26,6.6-38.2c-4.2,0.4-7.8,1.7-11.5,3.3c-3,1.3-5.4,3.4-7.1,6.2
		c-1.4,2.3-2.7,4.6-4.1,7c-2,3.5-3,7.3-3.3,11.4c-0.2,3.3-0.5,6.7-0.7,10c-0.1,0.8-0.1,1.7-0.1,2.6c0.7,0.1,1.2,0.2,1.7,0.2
		C310.1,167.3,315.8,164.8,322.4,164.4z M322,167.6c0,0.1-0.1,0.2-0.1,0.4c0.5,0,1,0.1,1.5,0.1c18.6,0.5,37.3,1.1,55.9,1.6
		c2.6,0.1,5.1-0.2,7.7-0.5c1.6-0.2,3.3-0.5,4.4-1.9c-1-2.1-2.8-2.8-4.7-3.1c-3.2-0.6-6.3-1.2-9.5-1.3c-9.8-0.3-19.5,0.3-29.3,1.3
		C339.2,164.9,330.6,166.3,322,167.6z"/>
	<path class="st3" d="M345.2,145.9c1.8,1.9,1.8,1.9,3.2,7.7c-1.8,1.8-2.2-0.7-3.3-1.1c-1.5,0.2-0.7,3-2.9,2.5
		c-1.1-0.9-0.5-2.1-0.2-3.1C343.2,147.8,343.3,147.7,345.2,145.9z"/>
	<path class="st3" d="M338.8,155.7c-1.9-0.5-0.6-3.4-3-3.2c-0.5,0.9-1,1.8-1.6,2.8c0,0.1-0.2,0.1-0.6,0.1c-1.1-2.8-0.3-5.5,0.5-9.1
		c0.7,1.7,1.1,2.6,1.7,3.9c0.6-0.3,1.4-0.4,1.8-0.9c0.5-0.6,0.7-1.4,1.4-2.9c1,2.8,0.3,5,0.8,7.1c0.1,0.5,0.2,1.1,0,1.5
		C339.6,155.3,339,155.5,338.8,155.7z"/>
	<path class="st3" d="M357.9,147.3c-1.2,0.6-1.9,1.1-2.6,1.4c-1.1,2,1.1,4.5-1,6.6c-2.3-1.9-1.2-4.4-1.8-6.7
		c-0.9-0.4-1.8-0.9-3.3-1.6c1-0.6,1.6-1.2,2.1-1.2C353.4,146,355.7,145,357.9,147.3z"/>
</g>
<g>
	<path class="st3" d="M238.6,407.4c-4.5,0.2-8.3-1.7-12-3.6c-0.2-0.1-0.4-0.2-0.6-0.3c-5.2-4-9.4-8.7-11-15.3
		c-0.3-1.1-0.5-2.2-0.4-3.3c0.4-3.3,0.4-6.7,1.5-9.8c2.5-7.7,7.6-13.1,15.7-15.2c6.3-1.6,12.6-1.1,18.3,2.1
		c4.8,2.7,8.8,6.2,11.3,11.3c0.3,0.7,0.7,1.4,0.8,2.2c0.7,3.7,1.1,7.4,0.9,11.2c-0.5,7.1-7.9,18.1-17,19.5
		C243.6,406.7,241.1,407.1,238.6,407.4z M221.5,371.2c-2.4,2.2-3.2,5.2-3.9,8.2c-0.4,1.9-1,4-0.4,6.4c1.4-1.3,2.7-2.4,3-3.8
		c0.5-1.9,2.1-3.6,0.6-5.8c-0.4-0.7-0.2-1.9-0.1-2.9C220.9,372.5,221.3,371.8,221.5,371.2c2.1-1.2,4.4-2.3,6.5-3.6
		c1.5-0.9,1.9-1.7,2.3-4.1c-1,0.4-2,0.7-2.7,1.2C225.1,366.4,222.6,368.1,221.5,371.2z M256.1,391.5c-0.6-1.2-1.2-2.3-1.7-3.4
		c-0.7-1.4-0.5-2.6,0.5-3.6c0.5-0.6,1.2-1,1.7-1.5c0.6-0.5,1.2-1,1.6-1.7c1.2-2,0.6-3.6-1.7-4.3c-0.5-0.2-1.1-0.2-1.6-0.4
		c-3.4-1-4.4-2.5-4.3-6c0.1-1.1,0.3-2.2-0.9-3.3c-1,0-2.3,0-3.7,0c-1.4,0-2.7-0.2-3.6-1.3c-1.6-1.9-3.8-2.1-6-2.1
		c-1.8,0-3.2,0.6-4,2.3c-1,2.2-2.8,3.6-5,4.7c-1.1,0.5-2.1,1.2-3.1,1.9c-0.8,0.6-1.2,1.5-0.9,2.6c0.4,1.7,0.8,3.4,1.3,5.4
		c0,0,0.4,0.3,0.6,0.6c0.3,0.4,0.6,0.9,1.1,1.6c-1.4,0-2.4,0-3.5,0c-0.9,1.3-1.9,2.6-2.8,4c1.6,3.1,5.7,3.3,6.7,6.5
		c1.5,0.2,2.7-1.3,4,0.2c-0.2,1.8-2.4,1.3-3.1,2.5c1.4,3.4,1.9,3.9,4.3,3.3c2.4-0.6,4.1,0,5.7,1.7c1.1,1.2,2.5,1.4,3.9,1.2
		c2.1-0.3,3.7-1.2,4.7-3.2c0.9-1.9,2.4-3.1,4.6-3.4C253.3,395.3,254.9,393.8,256.1,391.5z M226.2,400.2c-0.3-1.9-1.3-3.3-3-3.9
		c0.4-0.9,0.6-1.6,1-2.5c-1-0.6-1.9-1.2-2.8-1.8c-0.9-0.6-1.7-1.5-3.2-2.1C219.9,394.5,223,397.5,226.2,400.2z M253.7,368.1
		c-0.1,0.7-0.2,1.2-0.2,1.6c-0.2,3.3,0.1,3.7,3.3,4.5c0.6,0.1,1.2,0.1,1.9,0.2C257.6,371.2,256.7,370.1,253.7,368.1z M247.2,403.1
		c4-1.4,6.2-3.1,7.8-5.8c-1.4,0.4-2.8,0.7-4.1,1.2c-0.8,0.3-1.5,0.9-2,1.6C248.3,400.8,247.9,401.7,247.2,403.1z M256.7,386.4
		c0.9,1.8,1.5,3.1,2.3,4.8c1.3-2.6,1.6-4.8,1.1-7.6C258.8,384.7,257.8,385.5,256.7,386.4z M230.7,402.7c1.8,1.1,3.5,1.8,5.6,1.5
		C234.6,401.6,234.6,401.6,230.7,402.7z M247.1,364.1c-1.4-1.1-1.4-1.1-3.3-1.2C245.1,364.4,245.1,364.4,247.1,364.1z"/>
	<path class="st3" d="M244.6,377.3c0.6,1.2,1.3,2.3,1.6,3.4c0.6,2.7-1.7,6.6-4.4,7.4c-2.5,0.7-5,0.6-7.4-0.6
		c-2.2-1.2-3.3-3.4-2.7-5.8c0.5-2.6,2.4-4.5,4.2-6.2c0.7-0.7,2.3-0.7,3.5-0.7c1,0,1.9,0.4,2.9,0.6c2.5-1.6,2.5-1.6,3.8-0.3
		C245.5,375.7,245.1,376.6,244.6,377.3z M239.8,377.5c-1.2,0.4-2.2,0.7-3.2,1.2c-1.7,0.8-2.8,3-2.4,4.7c0.3,1.4,1.7,2.3,3.9,2.4
		c0.8,0,1.5,0,2.3-0.1c1.7-0.3,3.3-2.4,3-4.1c-0.1-0.6-0.7-1.5-1-1.5C240.7,380.1,240.4,378.8,239.8,377.5z"/>
	<path class="st3" d="M237.7,365.5c1.8,0.4,1.6,1.9,1.4,3.1c-0.1,1-0.1,2.5-1.8,2.6C236.2,368.6,236.3,367.4,237.7,365.5z"/>
	<path class="st3" d="M230,386.4c0.6,2.4-0.8,3.4-2.4,4.6c-0.3-0.7-0.7-1.2-0.6-1.6C227.4,388,228.3,387.1,230,386.4z"/>
	<path class="st3" d="M233,393.9c2.2-0.4,3.3,0.6,4.4,2C235.1,396.7,234,396.1,233,393.9z"/>
	<path class="st3" d="M248,370.7c-1.8,1.1-3.1,0-5-0.8c1-0.6,1.5-1.2,1.9-1.1C246,369.1,247.6,368.9,248,370.7z"/>
	<path class="st3" d="M249.9,381.3c-1.4-1.6-1.1-2.8-0.2-4.3C251.5,379.1,251.5,379.4,249.9,381.3z"/>
	<path class="st3" d="M245.5,390.8c-1.5,1.9-1.7,1.9-4.2,0.8c0.3-0.4,0.5-1,0.9-1.1C243.2,390.2,244.2,390,245.5,390.8z"/>
	<path class="st3" d="M230.8,376.3c-1.8,0.1-2.6-0.9-3.5-2.3c0.7-0.2,1.3-0.6,1.8-0.4C230.3,374,230.3,374.1,230.8,376.3z"/>
	<path class="st3" d="M249.3,387.7c1.4,0.7,1.8,1.7,1.3,3.2C248.6,389.9,248.6,389.9,249.3,387.7z"/>
	<path class="st3" d="M244,397.5c-0.4,0.4-0.7,0.8-1,0.9c-0.7,0.2-0.9-0.4-1-0.9c-0.1-0.6,0.2-1.2,0.8-1
		C243.2,396.4,243.5,397,244,397.5z"/>
</g>
<g>
	<path class="st3" d="M1086,175.5c1.5,1.6,3.3,0.8,5,0.9c0.3,0.6,0.6,1.1,0.9,1.6c-0.2,0.4-0.2,0.6-0.4,0.8c-2.5,1.6-5,3.3-7.6,4.9
		c-2.8,1.7-4.2,1.5-6.4-0.8c-0.9-0.9-1.5-2.1-2.3-3.3c-1.4,0-2.5,1-3.8,1.7c-1.8,1-3.7,1.9-5.6,2.5c-2.6,0.8-4.9-0.1-6.6-2
		c-3.3-3.8-4-8-2.2-12.6c0.7-1.7,2-2.7,3.8-3.3c3.3-1.3,6.6-2.8,9.9-4c2.9-1.1,4.2-3,4-6c-0.1-1.1,0-2.3-0.2-3.5
		c-0.3-1.8-1.1-2.6-2.6-2.8c-1.7-0.2-3.4,0.6-4.1,1.9c-0.5,0.9-0.7,2-1.1,2.9c-0.6,1.3-1.3,2.7-2.1,3.9c-2.1,3-7,1.8-8.2-1.4
		c-0.3-0.8-0.2-1.8,0.1-2.7c0.8-2.3,2.2-4.3,4.5-5.5c1.9-1,3.9-2,5.9-2.8c3.1-1.3,6.3-1.1,9.5-0.4c1.3,0.3,2.7,0.8,4,1.2
		c2.7,0.9,4.5,2.7,5.2,5.5c0.5,2.1,0.6,4.3,0.6,6.5C1085.9,164.4,1086,169.9,1086,175.5z M1073.9,164c-1.5,0.9-2.7,1.6-3.8,2.3
		c-3.2,2-3.9,6.7-1.3,9.5c0.7,0.7,1.7,1.1,2.6,1.4c1.1,0.3,2-0.1,2.5-0.9C1073.9,172.1,1073.9,168.3,1073.9,164z"/>
	<path class="st3" d="M1051.6,182.3c-0.6,1.6-2,1.8-3.2,1.7c-4-0.2-8-0.5-12.3-0.8c-1.1-3.3-2.2-6.5-3.4-9.9
		c-6.3-0.2-12.5-0.1-18.7,0c-2.1,3.2-3,6.5-4.3,9.8c-1.8,1.3-3.9,0.9-6,1.1c-1.9,0.2-3.9,0-5.9-0.1c-2.1-0.1-2.6-0.9-1.8-3
		c0.8-2.3,1.7-4.5,2.6-6.8c2.5-6.7,5-13.4,7.6-20.1c0.8-2.1,1.6-4.1,2.5-6.1c2-4.7,3.9-9.4,5.9-14c1.5-3.4,3.2-6.6,5-10.2
		c3-0.9,6.1-0.2,9.1,0.2c1.5,0.2,2.6,1.3,3.1,2.9c0.8,2.6,1.7,5.3,2.6,7.9c1.3,3.8,2.8,7.6,4.1,11.4c1,2.9,2,5.9,3,8.9
		c1.7,5,3.5,10,5.1,15.1c1.2,3.7,2.6,7.4,4.7,10.8C1051.4,181.5,1051.5,181.9,1051.6,182.3z M1020.6,125.8c-1.8,3.1-3.2,6.1-4.3,9.3
		c-1.2,3.4-2.6,6.7-3.9,10c-1.4,3.5-2.9,7-4.3,10.6c-2.5,6.5-4.8,13-7.2,19.5c-0.8,2.1-1.6,4.3-2.4,6.5c3.3,0.7,6.2,0.3,9.1-0.4
		c2-3.1,2.2-6.9,5-9.6c6.4-1.1,12.9-0.7,19.3-0.7c1.9,0,3.2,1.2,3.9,2.9c0.9,2.3,1.7,4.5,2.6,6.9c3.3,0.1,6.6,0.6,9.9,0.3
		c-1.3-3.4-2.6-6.5-3.7-9.6c-1.5-4-3.2-7.9-4.4-12c-1.7-5.4-3.4-10.8-5.4-16.1c-1.8-4.8-3.2-9.9-4.8-14.8c-0.3-0.8-0.7-1.6-1-2.3
		C1025.8,126.2,1023.2,126,1020.6,125.8z"/>
	<path class="st3" d="M1031.3,163.6c-4,1.1-12,1.1-16.4,0c0.2-1,0.2-2,0.5-2.9c1.7-5.6,3.7-11.1,6.5-16.3c0.2-0.3,0.3-0.6,0.5-0.9
		c0.4-0.8,0.9-1.7,2-1.5c1.1,0.2,1.4,1.1,1.7,2c1.5,5.2,3,10.4,4.4,15.6C1030.8,160.8,1031,162.1,1031.3,163.6z M1027.9,161.1
		c-1.3-5.1-2.2-10.1-4.1-15.1c-2.5,4-5.5,12.6-5.5,15.7C1021.4,161.4,1024.6,162.8,1027.9,161.1z"/>
</g>
<g>
	<path class="st3" d="M6.9,157.2c-3.8,0.5-7.4-1.4-11.1-3.1c-0.3-0.1-0.6-0.3-0.9-0.5c-4.9-3.8-8.9-8.3-10.6-14.5
		c-0.4-1.4-0.7-2.9-0.6-4.2c0.3-3.2,0.4-6.5,1.4-9.5c2.5-7.7,7.6-13.2,15.7-15.3c6.2-1.6,12.3-1.2,18,1.9c4.9,2.7,9.1,6.3,11.6,11.4
		c0.3,0.7,0.7,1.4,0.8,2.1c0.7,3.9,1.2,7.8,0.8,11.9c-0.7,6.8-7.8,17.4-16.8,19C12.7,156.9,10.1,157.5,6.9,157.2z M29.7,134.8
		c-0.3-2.5-0.5-5.1-0.8-7.6c-0.3-3.1-2-5.5-4.2-7.7c-0.8-0.8-1.6-1.5-2.5-2.2c-5.5-4.2-11.4-6.1-18.6-5c-12.3,2-18.1,14-17.4,23.2
		c0.5,6.8,4.6,12,10,15.7c5.5,3.6,11.8,4,18.4,2.7C22.2,152.4,29.9,142.5,29.7,134.8z"/>
	<path class="st3" d="M17.3,120c-7.4,8.1-14.4,15.7-22.6,22.6c-0.6-0.8-1.4-1.3-1.7-2.1c-2.3-5.7-1.8-11.3,1.7-16.4
		c1.9-2.8,4.6-4.7,7.6-6.2c0.5-0.2,1-0.5,1.5-0.6c3.5-0.4,7.1-0.6,10.4,0.8C15.2,118.5,16.1,119.2,17.3,120z M13.1,120.5
		c-8.1-2.1-12.9,0.1-16.9,5.5c-1.9,2.6-2.4,5.7-2.3,8.8c0,1.4,0.1,2.8,1.2,3.8C1.7,133.1,7.5,127.1,13.1,120.5z"/>
	<path class="st3" d="M22.1,126.4c1.8,2,2.2,4.3,2.1,6.8c-0.3,4.3-1.8,8-4.9,11.3c-4.4,4.7-9.7,5.3-15.5,4.5
		c-0.5-0.1-1.1-0.3-1.6-0.6c-1.5-0.7-1.9-1.8-0.9-3.2c0.6-0.8,1.2-1.6,1.9-2.3c5-4.8,9.7-10.1,15.1-14.4
		C19.5,127.7,20.3,126.6,22.1,126.4z M4.5,146c6.2,1.2,11.1-0.6,14.8-5.6c2.3-3.1,3.2-7.9,1.7-10.6C14.7,134.5,9.8,140.4,4.5,146z"
		/>
</g>
<path class="st3" d="M432.8,451.2c1.8,5.7,0.5,11.2,0.8,16.5c-0.6,0.4-0.8,0.7-1,0.7c-4.4,0.2-8.8,0.6-13.2,0.6
	c-44.7,0-89.3,0-134,0c-0.7,0-1.3-0.1-2.2-0.1c-1.4-5.6-0.3-11.2-1.2-16.5c0.7-1.3,1.8-1.3,2.9-1.3c2.8,0,5.6,0,8.4,0
	c44.7,0,89.3-0.1,134-0.1C429.1,450.9,430.8,451.1,432.8,451.2z M291.1,459.2c-1-0.6-1.8-0.8-2-1.3c-0.3-1-0.3-2.1-0.5-3.1
	c0-0.2-0.2-0.4-0.5-0.9c-0.7,0-1.6,0.1-2.7,0.2c-0.1,4-0.2,7.6-0.1,11.1c0.6,0.3,0.8,0.5,1.1,0.5c47.7,0,95.5-0.1,143.2-0.1
	c0.1,0,0.3,0,0.4-0.1c0.1-0.1,0.2-0.2,0.4-0.5c0.3-3.5,0.6-7.1,0.9-10.9c-1.9,0-3.5,0-4.9,0c-1.1,1.4-0.4,4.1-3.4,4
	c-0.2-1.4-0.3-2.6-0.5-4.1c-0.9,0-1.7-0.2-2.4,0.1c-0.8,0.3-1.5,1-2.1,1.5c-2.7-2.2-4.4-2.4-7.6,0.2c-0.8-1.6-2.3-1.9-4-1.8
	c-1.7,0.1-3.5-0.4-4.7,1.5c-2-1.7-4.2-1.7-6.5-1.3c-0.6,0.7-1.2,1.3-2,2.1c-0.8-0.8-1.4-1.4-2-2.1c-2.1-0.3-4.2-0.5-5.8,0.9
	c-3.2-1.4-6.2-1.8-9.2,0.3c-2.9-2-5.8-1.7-8.9-0.1c-1.9-1.8-4.2-1.2-6.2-1.1c-1.4,1.2-0.5,3.5-2.5,4c-2-0.7-0.6-2.7-1.7-4.1
	c-1.5,0-3.3-0.2-5,0.1c-1.5,0.2-2.8,0.3-4.2,0c-1.8-0.4-3.7-0.2-5.6-0.1c-0.9,0.1-1.8,0.8-2.9,1.3c-1-1.3-2.6-1.3-4.2-1.4
	c-1.8-0.2-2.5,1.1-4.1,2.2c-0.7-2.5-2.6-1.9-4.3-2.1c-1.9-0.2-3.2,0.8-4.6,2c-1.2-1.2-2.2-2.2-3.9-2c-1.3,0.2-2.7,0.2-4,0
	c-1.7-0.3-2.5,1.2-4,2c-0.6-2-2.1-2.1-3.6-1.9c-2.2,0.3-4.3,0.6-6.5,0.1c-0.9-0.2-2.1,0.6-3.4,1.1c-1.1-1.5-2.8-1.5-4.8-0.9
	C291.7,455.7,291.5,457.1,291.1,459.2z"/>
<path class="st3" d="M1126.9,247.8c0-1.3,0.1-2.5,0.1-3.6c0-2.9,1-4.2,3.9-4.2c6.9-0.1,13.7,0,20.6,0c1.1,0,2.1,0.4,3.3,0.6
	c0.1,2.4,0.2,4.6,0.3,6.9c1.1,0.1,1.9,0.2,2.8,0.2c6.2,0,12.4-0.1,18.6-0.1c2.2,0,4.4,0.1,6.6,0.3c2.5,0.2,4.2,1.5,4.7,4
	c0.5,2.5,0.9,5,0.9,7.6c0,13.2-0.1,26.3-0.1,39.5c0,2-0.7,3.6-2,5.1c-1.1,1.2-2.3,2.4-3.4,3.6c-0.9,1-1.8,2-2.3,3.2
	c-0.8,2.1-2.5,2.8-4.4,3c-1.9,0.2-3.8,0.2-5.6,0.2c-21.8,0-43.6,0-65.4,0c-3.3,0-4.4-0.9-4.7-4.1c-0.1-1.2-0.1-2.4-0.1-3.6
	c0-13.3,0.1-26.6,0.1-39.9c0-1.8,0-3.5-0.1-5.3c-0.1-2.2,0.5-4.2,2.1-5.7c2-2,4.1-4,6.2-6c1.2-1.2,2.6-1.5,4.2-1.5
	c3.9,0.1,7.7,0.1,11.6,0.1C1125.3,248,1126,247.9,1126.9,247.8z M1103.9,311c1.2,0.1,2.4,0.3,3.5,0.3c22.7,0,45.3,0,68-0.1
	c0.7,0,1.5-0.3,2.4-0.5c0.1-1.1,0.3-2.2,0.3-3.3c0-1.6-0.3-3.3-0.3-4.9c0-9.7,0.1-19.5,0.1-29.2c0-4-0.2-7.9-0.3-11.9
	c0-1-0.4-1.7-1.2-2.3c-0.9-0.6-1.8-0.9-2.8,0.1c0,0.4-0.1,1-0.2,1.5c-0.4,2.2-0.9,2.7-2.9,2.9c-1.9,0.1-3.8,0.3-5.7-1
	c-0.1-1.1-0.2-2.4-0.4-3.6c-4.1-0.5-46.8-0.4-49.3,0.1c-0.1,0.8-0.1,1.7-0.3,2.6c-0.4,2-0.9,2.3-3.6,2.4c-3,0.1-3.7-0.3-4.1-2.2
	c-0.2-1-0.4-1.9-0.5-2.9c-1.3-0.1-2.3-0.5-3.3,0.5c0,16.7,0,33.4,0,50.1C1103.6,309.9,1103.8,310.3,1103.9,311z M1116.6,256.1
	c1.5,0.1,2.6,0.3,3.8,0.3c10.2,0,20.3,0.1,30.5,0c4.3,0,8.6-0.2,12.9-0.2c1.7,0,2.9-0.6,3.3-2.6c-3.1-0.1-6.1-0.2-9-0.4
	c-0.7,0-1.3,0-2-0.1c-0.3,0-0.7,0-1,0c-0.4,0.1-0.9,0.1-1.3,0.3c-1.8,1.4-3.8,0.9-5.7,0.5c-0.7-0.1-1.6-0.5-2.2-0.3
	c-2.5,0.7-5,0.4-7.6,0.1c-0.8-0.1-1.6-0.3-2.3-0.1c-3.1,0.8-6.2,1.4-9.3-0.4c-2.8,0.1-5.5,0.2-8.3,0.3
	C1117.5,253.8,1117.1,254.6,1116.6,256.1z M1151.8,251.7c0.6-3.3,0.5-6.4-0.3-8.8c-4.6-0.7-18.8-0.6-21.6,0.1c0,2.9,0,6,0,9.1
	c0.9,0,1.7,0,2.6,0c0.6-2-0.6-4.2,1.2-6c4.8,0.1,9.7-0.8,14.8-0.2c0.2,1.6,0.4,3,0.6,4.4C1149.5,251.7,1150.3,252.2,1151.8,251.7z
	 M1182.3,258.7c-1.4,0.1-1.6,1-1.5,2.1c0.1,1.8,0.2,3.5,0.2,5.3c0.1,11.7,0.1,23.4,0.1,35.2c0,1.4-0.1,2.8,0.6,4.3
	c1.5-1.1,2.4-2.1,2-3.9c-0.3-1.3-0.4-2.6-0.5-3.9c-0.3-8.7-1.1-17.4-0.6-26.2C1182.9,267.3,1183,263,1182.3,258.7z M1184.9,301.4
	c1.6-0.8,1.4-2,1.4-3.1c-0.1-12.7-0.2-25.4-0.3-38.1c0-1.8-0.2-3.5-0.3-5.3c0-0.4-0.4-0.9-0.5-1.3c-0.5,0.5-0.6,0.9-0.6,1.2
	c0,1,0.2,2,0.2,2.9c-0.3,3.8-0.6,7.6-0.5,11.5c0.4,8.6,0.4,17.2,0.6,25.8C1185,297.1,1184.9,299,1184.9,301.4z M1183.4,251.2
	c-3.7-1.4-7.1-1.5-10.5-1.2c-0.5,0-1.1,0-1.7,0c-4.7,0-9.5-0.1-14.2-0.1c-0.5,0-1.1,0.3-1.6,0.4c0.5,0.7,1,0.9,1.4,0.9
	c4.1,0.1,8.2,0.1,12.2,0.2c0.3,0,0.7,0,1-0.1c2.4-1.6,4.5-0.4,6.8,0.4c1.6,0.6,3.4,0.6,5.1,0.7
	C1182.3,252.5,1182.7,251.8,1183.4,251.2z M1136.1,251.5c3.5,0.7,6.9,1.6,10.3,0.2c0-0.9,0-1.6,0-2.6c-3.5,0-6.9-0.1-10.3,0.1
	C1136.1,250.1,1136.1,250.8,1136.1,251.5z M1111.6,250.7c0.3,0.4,0.4,0.7,0.5,0.7c2.2,0,4.3,0.2,6.4,0.6c2,0.4,4.2,0,6.2-0.1
	c0.6,0,1.1-0.3,1.8-0.5c-0.3-0.4-0.4-0.7-0.5-0.7c-4.3-0.1-8.6-0.1-12.8-0.2C1112.7,250.5,1112.2,250.6,1111.6,250.7z M1175.9,255.5
	c1.3,0.6,2.3,1.1,3.4,1.6c0.6-0.9,1.1-1.6,1.9-2.7c-1.6-0.2-2.8-0.4-4-0.4C1176.8,254.1,1176.5,254.9,1175.9,255.5z M1109.3,258.9
	c0.3,1.2,0.4,1.9,0.6,2.8c1-0.1,1.8-0.2,2.7-0.3c-0.1-1-0.1-1.7-0.2-2.5C1111.4,258.9,1110.6,258.9,1109.3,258.9z M1169.4,255.4
	c0.1,0.2,0.1,0.5,0.2,0.7c0.8-0.1,1.8,0,2.4-0.4c0.9-0.5,1.9-1.2,2-2.5C1171.5,252.2,1170.7,254.3,1169.4,255.4z M1171,259
	c-1.3,0-2.3,0-3.5,0c0,0.7,0,1.3,0,2c1.3,0.2,2.4,0.4,3.5-0.3C1171,260.2,1171,259.8,1171,259z M1105.9,255.6
	c2.8,0.5,2.8,0.5,4.2-2.1C1108,252.8,1107,254,1105.9,255.6z M1111.6,255.9c2-0.1,2-0.1,2.6-1.3c0-0.1-0.2-0.3-0.4-0.5
	C1113.2,254.6,1112.7,255,1111.6,255.9z"/>
<path class="st6" d="M171.8,282.7c-1.8-4.5-7.1-7.4-11.7-8.2c-5.2-0.9-10,2.4-13.1,6.4c-3.1,4-4.4,9.5-1.7,14
	c2.1,3.6,6.3,5.3,10.3,3.9c4.3-1.5,8.1-6.5,6.9-11.2c-1.4-5.6-7.5-4.6-11.3-2.4c-2.2,1.3-0.2,4.7,2,3.5c1-1,2.1-1,3.3,0
	c2.5,0,2.9,1,1.4,3.1c-1,1.9-2.6,3-4.7,3.2c-6.3,0.5-6.2-7-3.7-10.8c1.8-2.8,5.3-5.8,8.9-5.8c4.5,0,9.5,3.8,10.2,8.1
	c1.1,6.8-2.3,14-8.3,17.3c-6.7,3.7-18.2,0.8-16.7-8.7c0.4-2.5-3.5-3.6-3.9-1.1c-1.7,10.8,8.8,17.6,18.6,14.8
	C168.7,305.8,176,293,171.8,282.7z"/>
<path class="st4" d="M221.7,185.9c-5.5-2.5-8.7-7.8-8.4-13.8c0.1-2.6-3.9-2.6-4,0c0,0.4,0,0.9,0,1.3c-0.6,0.3-1,0.9-1,1.7
	c0,6.7-5.9,10.2-11.1,13.1c-1.3,0.7-1.3,2.7,0,3.5c3.9,2.1,5.9,5.4,6.9,9.2c-0.5,2-0.6,4.2-0.2,6.6c0.1,0.7,0.5,1.1,0.9,1.3
	c0,0.3,0,0.5,0,0.8c-0.1,2.6,3.9,2.6,4,0c0.2-3,0-5.9-0.6-8.7c1.7-5.4,7.3-9,12.7-10.6c0.8-0.2,1.2-0.8,1.3-1.4
	C222.9,187.9,223,186.5,221.7,185.9z M206.2,195.6c-1-2.1-2.5-4-4.4-5.6c3.9-2.4,7.4-5.3,9.2-9.2c1.3,2.6,3.1,4.9,5.5,6.6
	C212.3,189.3,208.6,192,206.2,195.6z"/>
<path class="st4" d="M875.2,271c-2.1-11.8-15.9-14.5-25.9-12c-14.1,3.5-20.4,18.6-14.8,31.5c1,2.4,4.5,0.3,3.5-2
	c-3.7-8.5-1-18.5,7.1-23.4c6.3-3.8,17.8-4.6,23.4,1.1c6.7,6.9,1.3,17.5-6.6,20.3c-4.7,1.7-11.4,0.7-13.1-4.9c-0.6-1.8-0.4-4,0.7-5.6
	c1.1-1.6,2.6-2.6,4.5-2.9c4.3-1.3,5.7,0.5,4.3,5.4c-1.7,1.9,1.1,4.7,2.8,2.8c2.8-3.1,3.4-7.6,0.2-10.6c-3.5-3.4-9.7-2-13.2,0.8
	c-8.4,7-1.1,18.9,8.2,19.7C866.9,292.2,877.2,281.8,875.2,271z"/>
<path class="st6" d="M867.5,98.5c-0.3,0.1-0.7,0.3-1,0.4c-1.3-2.1-1.6-4.6-1.4-7.2c0.2-2.7,0.7-4.9-1.2-7.1
	c-1.7-1.9-4.5,0.9-2.8,2.8c0.1,0.1,0.2,0.2,0.2,0.3c-0.4,0.4-0.7,1-0.5,1.8c0.8,5.1-4.6,7.5-8.3,9.2c-1.9,0.9-0.8,3.7,1,3.7
	c4.4,0.1,3.4,7.6,3.7,10.6c0.2,2.2,3.2,2.5,3.9,0.9c0.7-0.2,1.2-0.8,1.2-1.8c-0.1-3.2,1.3-6.3,3.8-8.3c1.2,0.4,2.6-0.5,2.8-1.6
	C870.9,101.3,869.9,97.7,867.5,98.5z M860.2,104.4c-0.4-1.6-1-3.1-2.1-4.1c1.3-0.8,2.5-1.7,3.5-2.7c0.3,1.2,0.8,2.4,1.5,3.5
	C861.9,102.1,861,103.2,860.2,104.4z"/>
<path class="st3" d="M242.8,323.5c-2.7,0.2-3.8-2-5.7-3.1c-0.8-0.5-1.6-1-2.5-0.9c-2.3,0.3-4.8,3.3-6.8,5.7
	c-1.1-3.9,0.4-8.5-3.3-11.6c-1-0.8-2.4-0.8-3.1,0.4c-2.6,4.5-5.3,9-7.9,13.5c-0.1-4.8,1.8-9.7,1.7-14.6c-0.1-3.3-1.2-9-5.8-7.9
	c-3.9,0.9-6.3,6.6-7.6,9.8c-2,4.9-3.2,10.3-6.2,14.6c-1-5.3,0.7-10.8,1.7-16.1c0.4-2.3,0.9-5.7-1.8-6.9c-2.8-1.2-4.9,1.8-6.3,3.7
	c-3.2,4-5.4,8.5-6.8,13.4c-0.7,2.5,3.1,3.5,3.9,1.1c1.1-3.7,2.6-7.1,4.9-10.3c1-1.4,3.8-6.5,2.4-2c-0.5,1.5-0.7,3.3-1,4.9
	c-1.2,6-1.8,11.6,0.6,17.3c0.5,1.2,2.3,1.2,3.1,0.4c6.4-6.1,6.8-15,11.1-22.3c0.4-0.7,1.3-2.6,2-2.9c2.2-0.9,1.9,1.7,1.9,3.1
	c0.1,2.7-0.5,5.3-1,7.9c-0.8,4.4-1.3,8.6,0.4,12.9c0.6,1.5,2.7,2.1,3.7,0.5c3-5.1,6-10.2,9-15.3c1.1,3.3,0.1,8,2.4,11
	c0.8,1,2.1,1.4,3.1,0.4c1.4-1.5,3.5-4.6,5.4-5.5c0.3-1.4,0.7-1.4,1.3-0.1c0.2,0.3,0.5,0.6,0.8,0.8c1.9,1.7,4.2,2.3,6.7,2.1
	C245.3,327.3,245.4,323.3,242.8,323.5z"/>
<path class="st0" d="M75.6,38.2c-4.5-3.3-6.6-8.5-5.7-14c0.4-2.5-3.4-3.6-3.9-1.1c-0.1,0.4-0.1,0.9-0.2,1.3
	c-0.9-0.6-2.1-0.5-2.7,0.7c-2.3,4.5-5.4,8.2-9.6,11.1c0,0,0,0,0,0c-0.1,0.1-0.3,0.2-0.4,0.3c-1.7,1.4,0.6,4.5,2.4,3.1
	c0.2-0.1,0.4-0.3,0.6-0.5c3.7-2.6,4.9,9.7,4.9,10.6c0,2.3,3.2,2.6,3.9,0.5c1.6-4.7,5.2-7.6,10.1-8.5C77,41.5,76.8,39.1,75.6,38.2z
	 M64.1,43.7c-0.8-3.1-2.1-6.2-4.1-7.8c2.2-2.2,4.1-4.6,5.7-7.4c0.4,3.9,2,7.5,4.7,10.5C68,40,65.8,41.6,64.1,43.7z"/>
<path class="st0" d="M393.2,354.1c-6.2-0.1-10.4-4.9-9.3-11.1c0.5-2.5-3.4-3.6-3.9-1.1c-0.2,1.2-0.3,2.4-0.2,3.6
	c-0.1-0.1-0.1-0.2-0.2-0.2c-0.6-0.6-1.7-0.8-2.4-0.3c-0.1,0.1-0.2,0.1-0.3,0.2c-1.4,0.8-1.1,2.5-0.1,3.3c-0.3,1.3-3.6,5.8-4,6.3
	c-0.9,1-2,1.9-3.1,2.6c-1.6-0.2-3.2-0.1-4.8,0.5c-1.1,0.4-1.6,1.3-1.4,2.5c0.2,0.9,0.3,1.2,0.8,2c0.4,0.7,1.4,1.2,2.3,0.9
	c1.4-0.5,2.7-1.1,4-1.7c4.4,1.6,5.2,9.2,4.3,13.7c-0.5,2.5,3.4,3.6,3.9,1.1c0-0.2,0.1-0.4,0.1-0.7c1.1,0.9,3.3,0.4,3.4-1.5
	c0.2-7.3,4.6-13.6,11.5-16.1C395.7,357.3,395.5,354.1,393.2,354.1z M379.1,368c-0.3-2.4-1-4.6-2.6-6.6c-0.7-0.9-1.6-1.7-2.5-2.4
	c1.4-1.2,2.6-2.5,3.6-4.1c1-1.5,2.4-3.7,2.8-5.9c1.1,3.4,3.6,6.2,7,7.7C383.4,359.6,380.6,363.5,379.1,368z"/>
<path class="st0" d="M971.5,256.6c-4.5-2.3-9-3-13.8-2.2c-1.4-3.1-3.8-7.4-7.3-7.3c-3.7,0.1-6.3,6.1-8.2,9c-2.6-0.7-5.2-1.4-7.8-2.1
	c-1.8-0.5-2.9,1.4-2.3,2.9c0.9,2,1.8,3.8,3.1,5.6c0.9,1.3,2.8,2.7,3.5,4c1.3,2.5-0.3,4.8-1,7.2c-0.6,2.2-1.1,4.5-1.4,6.7
	c-0.3,1.6,1.3,3.3,2.9,2.3c4.8-3.1,8.6-6.9,11.6-11.6c1.8,2.9,3.6,5.8,5.4,8.7c0.9,1.5,3.2,1.2,3.7-0.5c0.6-2.1,0.9-4.2,0.7-6.4
	c-0.3-2.8-1.9-5.1,1.4-7.2c3.4-2.1,6.9-3.2,9.9-6C972.8,258.9,972.7,257.1,971.5,256.6z M961,261.9c-1.6,0.7-3.1,1.1-4.2,2.6
	c-0.9,1.4-1,2.8-0.9,4.4c0.1,1.2,0.3,2.2,0.4,3.3c-1.2-2-2.5-4-3.7-6c-0.8-1.2-2.7-1.4-3.5,0c-2.1,3.9-4.7,7.3-7.9,10.1
	c0.3-1,0.5-2.1,0.8-3.1c0.6-1.9,1.9-4.1,1.6-6.1c-0.3-1.7-1.5-2.7-2.6-3.9c-1.2-1.3-2.3-2.7-3.2-4.1c1.7,0.5,3.4,0.9,5.1,1.4
	c1.5,0.4,2.5-0.8,2.5-2c1.1-1.6,3.1-5.8,4.9-6.1c1.6-0.3,1.8,0.7,2.7,2.2c0.6,1,1.2,2.1,1.7,3.3c0.4,0.8,1.5,1.1,2.3,0.9
	c3.3-0.8,6.5-0.7,9.6,0.3C964.9,260.1,963.1,261,961,261.9z"/>
<path class="st0" d="M641.7,179c-1.3-3.4-3-13-8.5-9.6c-2.6,1.6-6.8,10.6-6.9,2.7c0-2.5-0.1-4.6-2.1-6.3c-1-0.9-2.4-0.7-3.1,0.4
	c-1,1.5-3.2,6.5-5.1,8.4c-2-3.8,0.8-9.8-5.2-10.9c-4.7-0.8-7.4,3.3-9.1,7c-1.1,2.3,2.4,4.4,3.5,2c0.5-1.1,1.3-3.4,2.4-4.1
	c4.6-2.6,3.7,2.7,3.9,4.2c0.3,2.3,1.1,4.3,2.8,5.9c0.5,0.5,1.2,0.7,1.9,0.5c2.8-0.9,4.9-4.5,6.6-7.6c0.3,3-0.9,6.8,2.9,8.3
	c1.4,0.5,2.7,0.1,3.9-0.6c1.9-1.1,3.8-4.8,5.8-6.2c1.2,2,1.9,5.3,2.6,7.1C638.7,182.4,642.6,181.4,641.7,179z"/>
<path class="st5" d="M237.8,99c-6.3-1.4-12.1-4-17.3-7.7c-1.4-1-2.9,0.4-3,1.7c-0.6,6.6,0,13.1,1.8,19.5c0.5,1.7,2.5,1.7,3.4,0.8
	c0.1,0,0.2-0.1,0.3-0.1c4.3-3.1,8.8-6.1,13.5-8.7c0.6-0.4,0.9-0.9,1-1.5C239.4,102.8,240.1,99.5,237.8,99z M222.4,108.7
	c-0.9-4-1.2-8-1.1-12c3.7,2.2,7.5,4,11.6,5.2C229.3,104,225.8,106.3,222.4,108.7z"/>
<path class="st5" d="M1100.8,350c-0.7-2-1.7-2.1-3.2-3.4c-3.1-2.5-1.4-8.5-0.8-11.9c0.5-2.5-3.4-3.6-3.9-1.1c-0.2,1-0.4,2.2-0.6,3.3
	c-0.5-0.1-1.1,0.1-1.5,0.5c-3.7,3.3-7.8,5.7-12.6,7.3c-2.2,0.7-1.7,3.7,0.5,3.9c6.5,0.6,7.6,7.3,5.8,12.4c-0.9,2.4,2.9,3.4,3.9,1.1
	c1.9-5.1,5.9-8.4,11.1-9.8C1100.4,352.2,1101.1,351,1100.8,350z M1089,354c-0.6-3-2.2-5.7-4.8-7.3c2.7-1.3,5.1-2.9,7.5-4.7
	c-0.1,1.5,0,2.9,0.3,4.2c0.2,1,0.6,1.8,1.3,2.6c0.4,0.4,1.1,0.7,1.8,1C1092.8,350.8,1090.7,352.2,1089,354z"/>
<path class="st4" d="M1072.4,371.1c-7.5-6.1-23.7-2.3-25.5,8c-1.9,10.4,13.7,15.5,19.5,7.5c2.7-3.6,2.1-9.7-2.6-11.4
	c-4.5-1.7-8.3,2.3-7.3,6.7c0.6,2.5,4.4,1.4,3.9-1.1c3.6-0.5,4.6,0.3,3,2.5c-0.4,1.7-1.5,2.8-3.3,3.2c-1.8,0.6-4.2,0.1-5.9-0.8
	c-3.5-1.8-4-6.5-1.4-9.3c1.2-1.3,3-2.2,4.7-2.8c3.4-1.4,7-1.9,10.4-0.4c4.4,1.9,5.1,6.4,4.9,10.7c-0.3,6.6-3.4,13.9-11.1,14.2
	c-7.2,0.2-12.5-5.1-16.2-10.6c-1.4-2.1-4.9-0.1-3.5,2c5.8,8.6,17.2,17.2,27.6,10C1077.4,394,1080.2,377.5,1072.4,371.1z"/>
<path class="st6" d="M1104.8,373.5c-4.3-0.4-8.5-0.7-12.8-1.1c-2.6-0.2-2.5,3.8,0,4c4.3,0.4,8.5,0.7,12.8,1.1
	C1107.3,377.7,1107.3,373.7,1104.8,373.5z"/>
<path class="st0" d="M1095.8,124.4c-4.6,0.3-1.3-5.8-1.7-7.5c-0.3-1.3-1.3-2.1-2.6-2.5c-4.1-1.4-9.3,2.8-12.8,4.4
	c-2.3,1-2,0.6-1-1.5c0.8-1.7,1.8-3.2,3.1-4.6c1.8-2,4.5-3.2,6.1-5.2c1.9-2.3,1.3-5.4-1.8-6.1c-4-0.9-10.1,3.2-13.3,5.3
	c-1.2,0.8-4.8,4.2-5.8,3.9c-1.5-0.5,4-7.5,4.6-8.3c1.7-1.7,6.1-4.9,3.1-7.7c-2.9-2.7-9.4,1.2-12.1,2.5c-2.3,1.2-0.3,4.6,2,3.5
	c1.7-0.9,3.4-1.7,5.2-2.2c-0.4,0.4-0.8,0.7-1.1,1.1c-1.8,1.9-3.5,4.2-4.7,6.5c-1.3,2.4-3.3,6.7-0.5,8.9c3.8,3,8.5-3,11.3-4.8
	c2-1.3,6.2-4.4,8.6-4.4c1.3,0,0.4-0.1-1,0.9c-1.1,0.8-2.1,1.7-3,2.7c-2.6,2.7-6.3,7.5-5.8,11.5c0.5,3.8,3.6,3.5,6.3,2.2
	c1.4-0.6,2.8-1.4,4.2-2c0.9-0.5,4.6-2.9,5.7-2.7c1.8,0.5,0.2,0.5,0.1,1.7c0,1.3-0.5,1.4-0.3,2.7c0.4,3.5,3.6,5.9,7,5.6
	C1098.4,128.2,1098.4,124.2,1095.8,124.4z"/>
<path class="st0" d="M26.1,248.3c-3.2,0.5-6.4,1.1-9.6,1.7c2-2.7,4.5-4.9,7.6-6.7c2.3-1.3,4.8-3.1,4.3-6.2
	c-1.1-7.6-12.5-0.9-15.7,0.8c-4,2.1-7.8,4.5-11.7,6.8c-2.2,1.3-4.4,2.6-6.6,3.8c-1,0.5-2.5,1.5-3.5,1.7c-1.9,0.3-2.2,0.3-1.5-1.5
	c0.7-1.7,3.5-3.8,4.9-5.1c2.1-2,4.4-3.7,6.8-5.4c4.2-2.9,8.6-5.3,13.1-7.6c3.8-1.9,15.7-6.3,14.3-12.4c-1.4-6.4-14.1-0.8-17.3,0.4
	c-3.9,1.5-7.7,3.2-11.4,5.1c-2.1,1-4.1,2-6.2,3c-1.6,0.8-6.9,4.3-8.4,3.8c-2.7-1,3.5-4.4,4.3-4.9c2-1.2,4-2.4,6.1-3.4
	c4-2,8.3-3.5,12-5.9c3.4-2.1,11.9-9.3,5-12.6c-3.9-1.9-9.2,0.2-12.8,1.7c-1.6,0.7-6.5,3.7-8.2,3c-3.4-1.4,0.9-8.1,2.1-9.8
	c1.5-2.1-2-4.1-3.5-2c-2.5,3.6-7.3,14.2,0,15.7c3.3,0.7,6.6-1.3,9.5-2.5c2.7-1.1,5.7-2.5,8.7-2.6c5.3-0.2,0,3.8-1.7,5
	c-7.4,5.2-16.5,7.3-23.7,12.9c-3.5,2.8-5.8,9.5,0.9,9.7c3.4,0.1,7.1-2.4,10.1-3.8c4.7-2.2,9.2-4.6,14-6.7c2.4-1.1,4.9-2.1,7.5-2.9
	c1.8-0.6,4.8-2.1,6.6-1.7c3.4,0.7-1.1,2.9-2.8,3.9c-2.3,1.4-4.8,2.4-7.1,3.6C4,231.4-4.3,236.2-10.9,243c-2.8,2.8-8.1,10.2-0.7,11.3
	c3.6,0.5,7.4-2.1,10.3-3.7c4.7-2.6,9.2-5.5,13.9-8.1c2.4-1.3,6-3.8,8.6-4.1c0.6-0.1,3.4-1.8,1.5,1.1c-0.4,0.6-3.1,1.8-3.8,2.3
	c-3.7,2.6-6.4,6.1-8.3,10.2c-0.7,1.6,0.5,3.4,2.3,2.9c3.5-0.9,7.1-1.6,10.6-2.2c-0.9,3.1-1,6.3-0.1,9.7c0.6,2.5,4.5,1.4,3.9-1.1
	c-0.9-3.6-0.5-6.8,1.1-10.1C29.2,249.5,27.9,248,26.1,248.3z"/>
<path class="st0" d="M976.3,399.3c-4.2-4.1-7.8-8.7-10.5-14c-1.2-2.3-2.4-6.7-6-5.7c-3.6,1-6.4,8-8.2,10.7
	c-2.5,3.7-5.2,7.3-7.2,11.3c-2.8,0.5-5.6,1.3-8.4,2.5c-2.3,1-1.3,4.9,1.1,3.9c1.9-0.8,3.9-1.4,5.8-1.9c0.6,1.3,3.1,1.5,3.9-0.3
	c0.1-0.2,0.2-0.4,0.3-0.6c9.4-1.5,19.1-0.8,28.5-2.5C976.9,402.4,977.3,400.3,976.3,399.3z M953.4,394.7c0.8-1.2,6-10.6,7.5-10.4
	c0.4,0.1,1.8,3.7,2.2,4.4c1.1,1.9,2.3,3.8,3.5,5.5c1.3,1.8,2.7,3.4,4.1,5c-7.1,0.9-14.4,0.7-21.5,1.5
	C950.6,398.8,952.1,396.8,953.4,394.7z"/>
<path class="st0" d="M266.3,178.5c-2.3-1.3-5.3-2-8.1-2.6c4.2-1.8,9.6-3.5,10.7-7.3c1.4-5.1-7.5-5.8-10.6-5.9c-2.6-0.1-2.6,3.9,0,4
	c1.5,0.1,6.3-0.1,5.2,2c-0.5,1-3.5,1.8-4.5,2.2c-2.7,1.2-5.3,2.4-7.5,4.3c-1.2,1-0.5,3,0.9,3.3c2,0.6,11.4,2.3,11.5,3.8
	c0.1,1.4-11.3,4.4-12.9,5c-1.7,0.6-2.1,3.5,0,3.9c1.8,0.3,3.7,0.6,5.5,0.9c1.2,0.2,6.9,0.4,3,3.2c-2,1.5-0.1,5,2,3.5
	c2.3-1.7,4.9-4.2,3.5-7.4c-0.7-1.6-2.4-2.5-4.4-3c1.4-0.5,2.7-1,4-1.6c1.9-0.8,4-2.1,4.3-4.4C269.1,180.6,267.8,179.4,266.3,178.5z"
	/>
<path class="st0" d="M916.4,99.3c-2.6,0-2.6,4,0,4C918.9,103.3,918.9,99.3,916.4,99.3z"/>
<path class="st0" d="M933.1,92.4c-2.6,0-2.6,4,0,4C935.7,96.4,935.7,92.4,933.1,92.4z"/>
<path class="st0" d="M928.5,112.2c-2.6,0-2.6,4,0,4C931.1,116.2,931.1,112.2,928.5,112.2z"/>
<path class="st0" d="M927.3,101c-1.5-0.5-2.9,0.5-3.4,1.8c-0.3,1,0.4,2.2,1.4,2.5c0.7,0.2,1.3,0,1.7-0.4c0.8-0.1,1.5-0.7,1.6-1.5
	C929,102.3,928.4,101.3,927.3,101z"/>
<path class="st0" d="M941.2,101.8c-2.6,0-2.6,4,0,4C943.8,105.8,943.8,101.8,941.2,101.8z"/>
<path class="st0" d="M698.9,247.6h-0.7c-1,0-2,0.9-2,2c0,1.1,0.9,2,2,2h0.7c1,0,2-0.9,2-2C700.9,248.6,700,247.6,698.9,247.6z"/>
<path class="st0" d="M694.6,262.8h-0.7c-1,0-2,0.9-2,2c0,1.1,0.9,2,2,2h0.7c1,0,2-0.9,2-2C696.5,263.8,695.7,262.8,694.6,262.8z"/>
<path class="st0" d="M718.5,266.5c-2.6,0-2.6,4,0,4C721,270.5,721,266.5,718.5,266.5z"/>
<path class="st0" d="M61.8,157.4c-0.9-0.5-2.2-0.3-2.7,0.7c-0.2,0.5-0.5,1-0.7,1.4c-0.5,0.9-0.3,2.2,0.7,2.7
	c0.9,0.5,2.2,0.3,2.7-0.7c0.2-0.5,0.5-1,0.7-1.4C63,159.2,62.8,157.9,61.8,157.4z"/>
<path class="st0" d="M81.1,141.9c-2.6,0-2.6,4,0,4C83.7,145.9,83.7,141.9,81.1,141.9z"/>
<path class="st0" d="M90.5,170c-0.8-0.7-2-0.8-2.8,0l-0.7,0.7c-0.7,0.7-0.8,2.1,0,2.8c0.8,0.7,2,0.8,2.8,0l0.7-0.7
	C91.2,172.1,91.3,170.7,90.5,170z"/>
<path class="st0" d="M136.4,375c-3.3-2.7-5.6-6-6.8-10.1c-0.5-1.8-2.7-1.8-3.7-0.5c-3.2,4.3-5.4,9.1-6.8,14.3c0,0-0.1,0-0.1,0
	c-2.6,0.1-2.6,4.1,0,4c6-0.2,11.7-1.8,17-4.6C137,377.6,137.4,375.8,136.4,375z M127.2,369.8c1.1,2.3,2.5,4.3,4.3,6.1
	c-2.6,1.2-5.3,2-8.1,2.4C124.4,375.3,125.6,372.5,127.2,369.8z"/>
<path class="st0" d="M856.6,335.2c-0.3-2.5-1.5-4-4-4.7c-3-0.8-5.5,0.8-8.1,1.7c1.3-2.8,3.1-5,5-7.8c0.8-1.2,1.7-2.7,1.4-4.2
	c-1.1-5.1-6.9-0.8-9,0.8c-2.3,1.8-4.4,3.8-6.5,5.8c-1.4,1.3-2.7,2.7-4.2,4c-0.6,0.6-1.2,1.1-1.8,1.7c-1-0.5-1-1.2,0.2-2.1
	c1-2.9,3.8-6,5.7-8.5c2.6-3.5,5.6-6.7,8.6-9.9c0.8-0.8,0.7-2,0-2.8c-3.3-3.8-8.9,0.3-12.1,2.4c-2.4,1.6-4.6,3.3-6.7,5.2
	c-1.6,1.4-3.4,4.1-5.3,6.1c1.9-5.5,5-10.5,9.2-14.8c1.1-1.2,0.4-3.5-1.4-3.4c-6.3,0.5-11.3,3.5-14.6,8.9c-1.3,2.2,2.1,4.2,3.5,2
	c1.4-2.3,3.2-4.1,5.4-5.2c-3.6,4.9-6.1,10.4-7.4,16.4c-0.3,1.6,0.9,2.7,2.5,2.5c4.3-0.8,6.4-5,9.2-7.9c1-1,8-7.4,12.2-9.2
	c-6.5,7.2-20.6,24.5-11,25.6c2.2,0.2,4-1.7,5.4-3c2.9-2.6,5.5-5.4,8.3-8c1.1-1,2.2-1.8,3.4-2.7c-0.1,0.2-0.3,0.3-0.4,0.5
	c-2.1,2.9-3.6,6-4.7,9.4c-0.4,1.3,0.7,2.5,1.9,2.5c1.9,0.1,11-3.3,11.2-1.5C852.9,337.7,857,337.7,856.6,335.2z"/>
</svg>
