<svg xmlns="http://www.w3.org/2000/svg" width="721.03" height="556.63" viewBox="0 0 721.03 556.63">
  <title>resume-builder-lg</title>
  <g>
    <path d="M475.49,175.86a3,3,0,0,1,.08-.82,84.5,84.5,0,0,0-7.41-15c-15.54-24.7-41.25-32-65.83-36.81l-2.44-.48c-6.91,1.48-12.58,5.94-17.36,11a85.34,85.34,0,0,0-20.22,38.52,2.67,2.67,0,0,1-.93,1.56c-.77,1.77-3,2.85-4.59,1-12.58-15.22-25.87-32.93-45.76-38.6a49,49,0,0,0-31.08,1,85.53,85.53,0,0,0-16,8.73,78.23,78.23,0,0,0-16.12,21.19C242,178.49,237.2,195.71,237,210.8c2.05,4.22,4.58,8.24,7,12.35,4.41,7.51,8.24,15.35,12.33,23a151.52,151.52,0,0,0,33.08,42.62c12.72,11.45,26.48,21.63,39.61,32.58,11.3,9.43,22.45,19.14,35.08,26.67,1,.13,2,.23,2.95.34a5.1,5.1,0,0,0,3.63-.94c13.6-9.19,22.38-21.79,31.35-35.25l31-46.53c10-15,20.2-29.88,30-45,4.66-7.2,8.71-15.62,9.44-24.06A57.25,57.25,0,0,0,475.49,175.86Z" style="fill: #eaf8f8"/>
    <line x1="86.26" y1="462.98" x2="93.49" y2="464.7" style="fill: none;stroke: #f2f2f2;stroke-miterlimit: 10"/>
    <path d="M521.13,79.53C520,93.78,528,104.15,536.24,113.24c8.87,9.8,18.66,19.78,31.12,25.95,11.25,5.57,28.31,8.9,42.45,1.93,8.82-4.35,21.08-15.23,21.54-24.41,9.07-8,14.12-19.67,13.09-29.94-.75-7.48-4.31-14.11-7.57-20.55a171.89,171.89,0,0,0-11.67-20.37c-8.57-12.36-21.38-22.95-38.7-22.27-15.38.6-32.24,8.86-44.5,19.24C530.53,52.51,522.19,66,521.13,79.53Z" style="fill: #eaf8f8"/>
    <path d="M544,374.93c-4.15-6.59-11-8.53-17.56-9.82-7.06-1.4-14.59-2.58-22-1.23-6.73,1.22-15.27,5.31-19.18,13-2.44,4.77-4.26,13.51-1.48,17.68-1.35,6.47.22,13.19,4,17.34,2.76,3,6.47,4.77,10,6.52a93.64,93.64,0,0,0,11.73,5.11c7.77,2.62,16.81,3.08,24.16-2.85,6.53-5.26,11.21-14.36,13.2-22.88C548.64,389.8,547.91,381.21,544,374.93Z" style="fill: #cbe8f4"/>
    <path d="M194.78,14.11c-4.15-6.59-11-8.53-17.56-9.82-7.06-1.4-14.59-2.58-22-1.23C148.45,4.28,139.91,8.37,136,16c-2.44,4.77-4.26,13.51-1.48,17.68-1.35,6.47.22,13.19,4,17.34,2.76,3,6.47,4.77,10,6.52a93.64,93.64,0,0,0,11.73,5.11c7.77,2.62,16.81,3.08,24.16-2.85,6.53-5.26,11.21-14.36,13.2-22.88C199.46,29,198.73,20.39,194.78,14.11Z" style="fill: #cbe8f4"/>
    <path d="M677.71,281c-4.15-6.59-11-8.53-17.56-9.82-7.06-1.4-14.59-2.58-22-1.23-6.73,1.22-15.27,5.31-19.18,13-2.44,4.77-4.26,13.51-1.48,17.68-1.35,6.47.22,13.19,4,17.34,2.76,3,6.47,4.77,10,6.52a93.64,93.64,0,0,0,11.73,5.11c7.77,2.62,16.81,3.08,24.16-2.85,6.53-5.26,11.21-14.36,13.2-22.88C682.39,295.9,681.66,287.31,677.71,281Z" style="fill: #cbe8f4"/>
    <path d="M396.4,8.52c-3-4.82-8.05-6.24-12.85-7.19-5.17-1-10.67-1.89-16.12-.9-4.92.89-11.17,3.89-14,9.48-1.79,3.49-3.12,9.88-1.08,12.93-1,4.73.16,9.65,2.94,12.69,2,2.21,4.73,3.49,7.31,4.77A68.51,68.51,0,0,0,371.14,44c5.68,1.92,12.3,2.25,17.68-2.08,4.78-3.85,8.2-10.5,9.66-16.74C399.83,19.4,399.29,13.11,396.4,8.52Z" style="fill: #eaf8f8"/>
    <path d="M176.39,293.13c-7.61-12.1-20.2-15.65-32.24-18-13-2.56-26.78-4.73-40.45-2.25-12.35,2.24-28,9.75-35.21,23.79-4.48,8.76-7.83,24.8-2.71,32.44-2.48,11.87.41,24.21,7.36,31.83,5.06,5.55,11.88,8.75,18.34,12A171.89,171.89,0,0,0,113,382.26c14.25,4.81,30.85,5.65,44.35-5.23,12-9.66,20.58-26.35,24.22-42C185,320.42,183.64,304.65,176.39,293.13Z" style="fill: #cbe8f4"/>
    <path d="M131.32,313.63c-.11-14.61-1.24-29.19-5.17-43.31a1.52,1.52,0,0,0-2-1,8,8,0,0,0,0-.8l2.45-7.8a1.62,1.62,0,0,0-1.54-2,75,75,0,0,0-15.16.57c-3.17.46-7.88.68-10.15,3.36-5,5.86,7.06,13.11,10.42,16a1.78,1.78,0,0,0,.24.17q-1.55,10.76-3.28,21.5c-1.14,7-3.39,14.64-3,21.81.34,5.9,3.1,11,6.34,15.85,4.43,6.59,9.16,13,13.74,19.48.81,1.15,3.15.93,3-.81-.73-7,3.25-13.56,3.76-20.54C131.52,328.66,131.37,321.08,131.32,313.63Zm-16-49.29c2.69.06,5.43.38,5.68,3.61l-.21.67a1.44,1.44,0,0,0,.05,1.08,5.19,5.19,0,0,1-2.51,3c-1.13.64-4,1.65-5.28.88C110.65,272.13,113.12,267.51,115.3,264.34Zm7.62-2.58-.53,1.68a6.48,6.48,0,0,0-2.46-1.73Q121.43,261.71,122.92,261.76Zm-19.6,6.6.87-4.77q1-.29,2-.48c.82-.18,1.64-.34,2.46-.48a5.81,5.81,0,0,0,3,1.47,23.17,23.17,0,0,0-1.19,2.39c-.78,1.85-1.91,4.53-1.65,6.75l-2.47-2.15C105.67,270.47,103.6,269.33,103.33,268.36ZM127.72,337c-.52,5.12-2.8,9.82-3.54,14.81q-4.48-6.32-8.94-12.65c-4.05-5.77-8.14-11.75-7.89-19.12s2.23-14.76,3.38-22q1.68-10.55,3.18-21.13a13.08,13.08,0,0,0,6.68-1.91,8.21,8.21,0,0,0,2.71-3.09c3.85,14.24,4.81,28.91,4.84,43.62C128.15,322.68,128.43,330,127.72,337Z" style="fill: #2c8ddd"/>
    <path d="M664.05,296c-.36-3.08,0-9-2.67-11.36-3.3-2.88-11.14-1.25-15-1.24h-19c-.18-2.09-.35-4.17-.55-6.26-.17-1.85-.11-4.34-1.21-6-2.43-3.63-8.85-2.12-12.46-2.11-3.19,0-6.39,0-9.59,0-1.52,0-3.48-.27-4.76.81-2.91,2.46-1.22,10.11-1.2,13.3a1.65,1.65,0,0,0,0,.19h-34.3l0-1.11c-.08-2-3.27-2.06-3.19,0l0,1.11h-.28a1.6,1.6,0,0,0,0,3.19h.4l1.62,43.47.43,11.68c.07,2-.45,5.35,1,7.1,2.53,3.11,10.2,1.49,13.66,1.47a381.86,381.86,0,0,0,88.77-11.21,1.62,1.62,0,0,0,1.17-1.54C666.55,323.71,665.67,309.84,664.05,296Zm-62.48-23.7c1.48-1.09,8.75,0,10.55,0,3.76,0,9.32-1.45,11.25,2.78.93,2,1,5.35,1,8.36H600.7a1.77,1.77,0,0,0,0-.19C600.7,280.58,599.38,274,601.57,272.34ZM583.95,347q-4.56.12-9.13.13c-2.26,0-7.9.92-9.25-1.13-1.18-1.8-.32-8.49-.4-10.62l-.4-10.62-1.42-38.16h61c0,.37,0,.73.06,1.06.18,2,3.37,2.05,3.19,0l-.09-1.06h25.11c2,0,3.94-.4,5.7.84,1.93,1.36,1.69,2.22,2,4.55.4,3,.74,6.05,1.06,9.08,1.23,11.72,1.91,23.47,2.14,35.25A378.41,378.41,0,0,1,583.95,347Z" style="fill: #2c8ddd"/>
    <g>
      <path d="M590.83,128.5q-.28-12.33-1.45-24.62a352.56,352.56,0,0,0-7.77-47,1.61,1.61,0,0,0-2.35-1,24.55,24.55,0,0,0-12.36,18.88c-.27,3.06-.68,6.28-4.68,5.19a16.74,16.74,0,0,1-7.15-4.13,17.25,17.25,0,0,1-5.2-14.9,1.27,1.27,0,0,0-1.28-1.51,6.1,6.1,0,0,0-.94-2.7c-1.43-1.94-5-2.12-7.13-1.75-7.23,1.26-9.94,8.5-11.44,14.82-5,21.13-5.55,43.19-2.92,64.69.17,1.42,2.16,2.36,3,.81,3.41-6.48,8.52,1.93,9.2,5.4a1.61,1.61,0,0,0,2.92.38c2.27-4.26,5.84,1.67,6.86,3.81a1.61,1.61,0,0,0,2.51.32l8-7.59a39.79,39.79,0,0,1,4.56,8.34,1.65,1.65,0,0,0,2,1.12c4.15-.8,3.09-4.95,5.7-7,2.85-2.26,2.82,2.51,3.49,4.06a4.94,4.94,0,0,0,2.69,3,1.63,1.63,0,0,0,2.35-1l4-10.76a15.23,15.23,0,0,1,2.26,4.2,1.63,1.63,0,0,0,2.35,1C592.18,138.5,590.92,132.27,590.83,128.5ZM584,131.2a1.62,1.62,0,0,0-2.67.7l-4.1,11c-1.47-2.75-.75-7.82-5.34-7.45-4.19.34-3.76,6.07-6.3,8a42.88,42.88,0,0,0-5.32-9,1.63,1.63,0,0,0-2.51-.32l-7.84,7.45c-2.18-3.23-6.1-6.39-9.2-4.52-1.06-3.08-2.95-5.88-6.3-6.73a7.1,7.1,0,0,0-5.39.7,189.72,189.72,0,0,1,0-41.84c.85-7.37,1.91-15.1,4.19-22.18,1.2-3.73,3.33-7.89,7.56-8.77,5.71-1.2,4.63,5.23,4.9,9a1.64,1.64,0,0,0,1.66,1.53c2,7.22,7.87,13.38,15.49,14.69,3.45.6,6.63.06,7.3-3.82s.08-7.5,1.93-11.41a20.91,20.91,0,0,1,7-8.26,345.68,345.68,0,0,1,6.64,38.91q1.07,9.7,1.59,19.46.27,5.13.39,10.27c0,1.74.73,5.44,0,7.69A18.64,18.64,0,0,0,584,131.2Z" style="fill: #2c8ddd"/>
      <path d="M540,85.92v7.15a1.6,1.6,0,0,0,3.19,0V85.92A1.6,1.6,0,0,0,540,85.92Z" style="fill: #2c8ddd"/>
      <path d="M545.41,102v6.26a1.6,1.6,0,0,0,3.19,0V102A1.6,1.6,0,0,0,545.41,102Z" style="fill: #2c8ddd"/>
      <path d="M556.84,98.63a1.6,1.6,0,0,0,0,3.19A1.6,1.6,0,0,0,556.84,98.63Z" style="fill: #2c8ddd"/>
      <path d="M553.27,122.77a1.6,1.6,0,0,0,0,3.19A1.6,1.6,0,0,0,553.27,122.77Z" style="fill: #2c8ddd"/>
      <path d="M564.19,112.74v12.52a1.6,1.6,0,0,0,3.19,0V112.74A1.6,1.6,0,0,0,564.19,112.74Z" style="fill: #2c8ddd"/>
      <path d="M574,85.92V96.65a1.6,1.6,0,0,0,3.19,0V85.92A1.6,1.6,0,0,0,574,85.92Z" style="fill: #2c8ddd"/>
    </g>
    <path d="M209.37,56.11c-1.78-4.78-7.89-4.33-12-4.31s-8.35.15-12.51.39a1.59,1.59,0,0,0,.15-.45c1.93-11.33-2.66-21.8-9.13-30.91-2.77-3.9-5.76-8.19-10.38-10-4-1.55-8.51-1.52-12.73-.84a24.66,24.66,0,0,0-.62-2.86c-.46-1.61-1-3.63-2.79-4.22a3.77,3.77,0,0,0-3.9,1.28c-1.32,1.53-1.06,3.65-.77,5.49a1.29,1.29,0,0,0,1.58,1.13,4.3,4.3,0,0,0,.08.82,36.11,36.11,0,0,0-18.92,15.5c-6.23,10.63-5.9,23.45-4.89,35.31a1.63,1.63,0,0,0,2,1.54l2.87-.55a1.54,1.54,0,0,0,.82.22l50.87,0C183.9,63.69,213,65.71,209.37,56.11Zm-61.27-50c.71-.05,1,1.76,1.09,2.21v0A1.68,1.68,0,0,0,147.69,8C147.6,7.24,147.57,6.13,148.1,6.09ZM125.62,60.54c-1.28-18.52,1.64-38.43,21.45-45.77l1-.34a4.07,4.07,0,0,0,3.92.79,1.63,1.63,0,0,0,1.17-1.54c0-.18,0-.35,0-.53a26.73,26.73,0,0,1,6.82-.3c6.32.58,9.75,4.7,13.22,9.59,5.9,8.31,10.59,18,8.81,28.45a1.62,1.62,0,0,0,.47,1.47c-3.31.22-6.62.49-9.92.82C156.76,54.78,141.17,57.57,125.62,60.54Zm77.1-1.49a59.15,59.15,0,0,1-6.16.94c-2.86.29-5.73.4-8.6.46-6.47.13-12.95,0-19.42,0l-24.93,0c6.85-1.19,13.73-2.27,20.63-3.15,6.53-.84,13.09-1.49,19.66-1.89,5.32-.32,15.92-2.46,19.83,1.29C206.3,59.17,205.12,58.55,202.72,59.06Z" style="fill: #2c8ddd"/>
    <path d="M259.23,103.82c-.73-5.59-2.34-11.61-7.63-14.55-3.2-1.78-7.24-2.1-11.17-1.71l0-.84c-1,.34-2.1.67-3.16,1V88c-1.46.27-2.86.62-4.16,1-5.65,1.64-7,5.28-7.65,10.78a195.62,195.62,0,0,0-.86,30.7,1.57,1.57,0,0,0,1.36,1.51,52,52,0,0,0,1.62,6.15c.81,2.44,1.83,6.86,4.15,8.42,3.7,2.48,11.68-2.92,14.83-4.79,5.15-3.06,9.69-7.19,11.81-12.92C261.19,121.18,260.25,111.7,259.23,103.82Zm-10.7,32.76c-3.21,2.48-7.89,5.66-11.89,6.53-4.53,1-5.21-3.28-6.28-6.69a55.6,55.6,0,0,1-2.14-10.37,1.64,1.64,0,0,0-.62-1.13c-.09-4-.08-7.9.07-11.86q.18-4.61.58-9.2c.22-2.5,0-5.93,1-8.23,1.16-2.58,4.51-3.92,8.07-4.53l.82,25.06c.07,2,3.26,2.06,3.19,0l-.83-25.43a29.17,29.17,0,0,1,5.43.15c7.77,1.06,9.52,8,10.27,14.67C257.48,116.61,258.2,129.09,248.53,136.58Z" style="fill: #2c8ddd"/>
    <path d="M230.34,285.64q.14-14.23-.18-28.47c-.13-6,.32-10.26-6.21-11.77-6.81-1.58-17.87-3.64-24.37-.27-3.7,1.92-3.67,5.52-4,8.93a1.52,1.52,0,0,0-1.67,1.55c0,1.26,0,2.52,0,3.78a5.75,5.75,0,0,1-.78.8,1.49,1.49,0,0,0,.77,2.58c-.07,15.52-.49,31.16.34,46.61.24,4.5,1,9.76,4.77,12.76,5.35,4.28,13.19.68,18.86-.9,4.87-1.36,10.84-1.65,11.71-7.46C230.95,304.73,230.25,294.79,230.34,285.64Zm-3.15-8.41q0,13.18-.4,26.36c-.14,4.85,1,10.68-4.24,13-3.32,1.49-7.58,2.14-11.09,3.11-5.39,1.49-10.77,2.15-13-4.11-1.05-2.95-1-6.19-1.08-9.28,0-2.26,0-4.51,0-6.77,3.08,3,10.6.84,15.23.37a1.64,1.64,0,0,0,1.53-1.18,147.77,147.77,0,0,0,2.84-32.35c-.07-2.65.54-7.1-1.32-9.35-1.14-1.38-2.66-1.54-4.25-1.45a1.5,1.5,0,0,0-2-1.5l-6.07,1.94a1.59,1.59,0,0,0-1.11,1.12c-1.65,9.25-3.57,18.59-5,27.94q-.06-12.43-.11-24.85c1.42-2.86.44-6.18,1.8-9.39,2.11-5,9.46-4,13.81-3.81,4.16.21,12.28.06,14.11,4.86,1.22,3.18.22,9.25.26,12.65Q227.19,270.9,227.18,277.23Zm-20.89-18.34c2.41.3,5.82-.93,7.17,1.53.56,1,.26,4.85.29,6q.08,3,0,6a143.32,143.32,0,0,1-2.58,24.49c-3.64.61-11,2.07-12.15-1.1-.38-1.07.84-5.64,1-6.94q.57-3.61,1.16-7.22,1.09-6.7,2.24-13.39a50.59,50.59,0,0,1,1.08-6.17A6.61,6.61,0,0,1,206.29,258.89Z" style="fill: #2c8ddd"/>
    <path d="M189.42,334.52a1.6,1.6,0,0,0,0,3.19A1.6,1.6,0,0,0,189.42,334.52Z" style="fill: #2c8ddd"/>
    <path d="M545.78,410.34c-3.14-2-5.79.43-8.23-3.72-2.13-3.61-2.74-9.41-3.56-13.47-.91-4.49-1.61-9-2.25-13.56-.67-4.8-1.25-9.62-1.9-14.43-.43-3.2-.34-7.35-2.19-10.1-3.3-4.89-13.22-4-18.23-4.45-4.31-.39-12.59-3-14.68,2.44-1.18,3.08-.21,6.92-.12,10.11a109.27,109.27,0,0,1-7.74,43.62,15.85,15.85,0,0,0-3.87,4.46,1.61,1.61,0,0,0,1,2.35c5.39.78,10.79,1.45,16.21,2,2.78.26,8.22,2,10.59-.11,2-1.8,1.43-6.38,1.39-8.71-.08-4.62-.67-9.29.07-13.8,1.89,7.38,3.76,14.78,5.75,22.13.53,2,.88,4.45,2.84,5.56,2.84,1.61,8.09.13,11-.26,3.88-.52,14.76-.76,15.69-6.35A3.7,3.7,0,0,0,545.78,410.34Zm-4.5,5c-1,.93-4.47,1-5.92,1.22-3,.52-6.51,1.44-9.56,1.2-3.23-.26-3.51-.62-4.76-3.6-1.76-4.18-2.44-9.39-3.58-13.79l-3.58-13.79c-.32-1.25-2.33-1.66-2.92-.38-3.23,7-2,13.95-2,21.36,0,1.22.36,4.44-.88,5.37-1,.76-6.59-.5-7.92-.63-3.88-.36-7.74-.83-11.6-1.34.3-.72.61-1.44.9-2.17.36-.25.74-.5,1.16-.74a1.57,1.57,0,0,0,.12-2.63,114.35,114.35,0,0,0,7.1-40.42c0-3.25-2.06-11,2.17-12,1.5-.36,4.74.35,6.28.47q3.66.3,7.31.67c2.49.25,5.9.09,8.23.93s3.31,2.45,4.08,4.82c1.48,4.59,1.41,10.37,2,15.18a231.7,231.7,0,0,0,4,23.65c1.07,4.49,2,12.67,7.57,14C541,413.1,544.78,412,541.28,415.39Z" style="fill: #2c8ddd"/>
    <path d="M511.28,372.07a1.6,1.6,0,0,0,0,3.19A1.6,1.6,0,0,0,511.28,372.07Z" style="fill: #2c8ddd"/>
    <path d="M587.74,413.27a13.69,13.69,0,0,1-7.67-.06,46.36,46.36,0,0,1,1.61-16.05c.8-3.23,1.64-6.81.43-10-.07-.18-.15-.33-.23-.5.08-7.88-1.11-16.12-7.93-21-2-1.45-5.83-3.48-8.33-2-3.83,2.23-3.48,9-7.2,11.67-.69.49-1.13,1.71-.3,2.36,2.63,2,5.3.57,4.77-2.79a1.56,1.56,0,0,0-.06-.21c.5-.85.94-1.76,1.44-2.77s1.47-4.39,2.47-5.05c2-1.29,4.9.69,6.3,1.89,4.38,3.78,5.63,9.21,5.85,14.75a2.75,2.75,0,0,1-.64.09c-2,0-4.09.08-6.14.13l.44.14C565.44,386,561,397.37,558.4,403.16c-1.43,3.21-2.64,7.58.16,10.48,2.53,2.63,6.81,2.27,9.63.33,4-2.73,6-8.28,7.7-12.56s3.12-9.43,2-14.18a1.45,1.45,0,0,0,.37.05,5.82,5.82,0,0,1,.56,1c0,1.19-.11,2.37-.18,3.51a1.27,1.27,0,0,0,.63,1.25c0,.08,0,.14,0,.22-1.19,7.45-3.28,13.42-2.3,21.15a1.7,1.7,0,0,0,1.17,1.54,16.74,16.74,0,0,0,10.43.4A1.6,1.6,0,0,0,587.74,413.27Zm-16.57-9.08c-1,2.15-4.48,9.81-7.77,8.16-1.91-1-3.07-4.6-2.69-6.47.35-1.71,1.69-3.56,2.49-5.08,2.34-4.45,5.6-13.38,11.25-14.09C576.42,392.39,573.63,399,571.17,404.19Z" style="fill: #2c8ddd"/>
    <path d="M211.94,387.54c.09-2.43,1.16-6.45-1.38-8-2.81-1.73-8.87-.08-12,.06L189,380a1.32,1.32,0,0,0-1.43-.88q-21.67,1.56-43.36,2.64a1.49,1.49,0,0,0-1.83.1q-38.58,1.89-77.22,2.26a1.6,1.6,0,0,0,0,3.19h.19v15a1.62,1.62,0,0,0,2.94.88A992.87,992.87,0,0,0,210,406.88a1.67,1.67,0,0,0,1.32-2.52,1.77,1.77,0,0,0,0-.31Zm-3.09-2.91c0,1.94-.14,3.89-.2,5.83l-.47,13.31A992.88,992.88,0,0,1,68.53,400V387.27q21.21-.24,42.4-1V388a1.6,1.6,0,0,0,3.19,0V386.2q14.26-.5,28.51-1.17a1.6,1.6,0,0,1-.3,1.49c-1.34,1.54.91,3.81,2.26,2.26a5.09,5.09,0,0,0,1.21-3.91q9.38-.48,18.76-1v5a1.6,1.6,0,0,0,3.19,0v-5.24q5.7-.35,11.4-.73a1.37,1.37,0,0,0,1.33.69l2-.1v6.27a1.6,1.6,0,0,0,3.19,0v-6.44c7-.41,14-.94,20.95-.9C209.37,382.43,208.82,381.87,208.84,384.62Z" style="fill: #2c8ddd"/>
    <path d="M192.09,133.19q-17.81-4.06-35.87-6.77c-5.42-.81-6.79,7.59-1.36,8.41q18.06,2.71,35.87,6.77C196.07,142.82,197.41,134.41,192.09,133.19Z" style="fill: #a9daf4"/>
    <path d="M267,280.61c-4.11,0-4.12,6.39,0,6.39S271.13,280.61,267,280.61Z" style="fill: #a9daf4"/>
    <path d="M244.2,278.33c-4.11,0-4.12,6.39,0,6.39S248.32,278.33,244.2,278.33Z" style="fill: #a9daf4"/>
    <path d="M253.33,306.47c-4.11,0-4.12,6.39,0,6.39S257.44,306.47,253.33,306.47Z" style="fill: #f4725d"/>
    <path d="M491.3,290.69l-7.64-9.1a2.39,2.39,0,0,0-.37-.34,2.89,2.89,0,0,0-2.6-1.4c-3.34,0-4,4.22-1.88,5.8a4.1,4.1,0,0,0,.33.46l7.64,9.1a3.22,3.22,0,0,0,4.52,0A3.26,3.26,0,0,0,491.3,290.69Z" style="fill: #ffdd64"/>
    <path d="M500.47,273.16l-9.88-11.8a3,3,0,0,0-3.05-2.8,3.06,3.06,0,0,0-3.06,3.56,3.18,3.18,0,0,0,.72,2.72L496,277.67C498.6,280.83,503.1,276.29,500.47,273.16Z" style="fill: #2c8ddd"/>
    <path d="M473.61,312.58l-3.21-4.44A3.27,3.27,0,0,0,466,307c-1.34.86-2.19,2.92-1.15,4.37l3.21,4.44a3.27,3.27,0,0,0,4.37,1.15C473.8,316.09,474.65,314,473.61,312.58Z" style="fill: #a9daf4"/>
    <path d="M481.54,117.07a46.4,46.4,0,0,0-14.9,15.71c-2.06,3.57,3.46,6.79,5.51,3.22a39.4,39.4,0,0,1,12.61-13.42C488.19,120.34,485,114.81,481.54,117.07Z" style="fill: #ffdd64"/>
    <path d="M113.68,110A46.4,46.4,0,0,0,97.61,95.44c-3.62-2-6.7,3.62-3.09,5.59a39.4,39.4,0,0,1,13.72,12.28C110.57,116.68,116,113.35,113.68,110Z" style="fill: #ffdd64"/>
    <path d="M457.88,109.52c-4.11,0-4.12,6.39,0,6.39S462,109.52,457.88,109.52Z" style="fill: #a9daf4"/>
    <path d="M435.6,102.84a3.27,3.27,0,0,0-4.37-1.15,5.26,5.26,0,0,1-2.9.27,3.27,3.27,0,0,0-3.93,2.23,3.23,3.23,0,0,0,2.23,3.93,11.82,11.82,0,0,0,7.82-.91A3.22,3.22,0,0,0,435.6,102.84Z" style="fill: #f4725d"/>
    <path d="M644.33,119.9c-3.87-1.4-5.54,4.77-1.7,6.16,13.52,4.9,4.61,22.14-.93,29.42-1.88,2.47-4.6,6.51-7.39,2.91-1.34-1.72-1.61-4.69-2.1-6.73-.7-2.94-1.49-5.87-2.11-8.82-.13-.6-1.3-5.07-.41-5.63l4.17,1.21a22.07,22.07,0,0,1-.82,4.43c-1,4,5.16,5.69,6.16,1.7,1.32-5.26,1.95-12.2-3.76-15.22-4.21-2.23-9,.16-11.1,4.13-2.88,5.48,0,12.63,1.28,18.13,1.15,4.81,2.11,10.94,6.58,14,9.76,6.58,19.67-12.24,22.23-19.13C658.19,136.3,655.19,123.83,644.33,119.9Z" style="fill: #a9daf4"/>
    <path d="M92,215.15c-3-14.56-22.76-10.71-32.84-6.38-4.16,1.79-8,6.33-5.42,11.06,3.08,5.54,13.67,3.29,18.64,3.26,4.11,0,4.12-6.42,0-6.39-3,0-6.57.63-9.49.07q-2.4,1-1.88-.95-.41-1.85,2-1.69a19,19,0,0,1,4.51-1.2c5.88-1.35,16.67-4.19,18.33,3.91a26,26,0,0,1-3.7,18.2,15.06,15.06,0,0,1-8.53,6.24,9.65,9.65,0,0,1-4.84.11c-1.45-.42-4.44-2.61-2.29-4.14,3.32-2.36.14-7.9-3.22-5.51-4,2.82-5.12,8.07-2,12.08,3.43,4.41,9.78,4.95,14.8,3.43C88.79,243.4,94.52,227.34,92,215.15Z" style="fill: #a9daf4"/>
    <path d="M523.26,452.95c-.05,4.11,6.34,4.19,6.39.08S523.31,448.83,523.26,452.95Z" style="fill: #a9daf4"/>
    <path d="M555.78,468.81l-1.14,16.71c0,.06,0,.12,0,.18a3.16,3.16,0,0,0-4.44,2.82c-.05,4.11,6.34,4.19,6.39.08,0,0,0-.09,0-.14A3.32,3.32,0,0,0,561,485.6l1.14-16.71C562.45,464.79,556.06,464.72,555.78,468.81Z" style="fill: #a9daf4"/>
    <path d="M566.38,472l-.29,23.57c-.05,4.11,6.34,4.19,6.39.08l.29-23.57C572.82,468,566.43,467.87,566.38,472Z" style="fill: #ffdd64"/>
    <path d="M31.46,441.67l.46-1a2.89,2.89,0,0,0,2.47-1.82c1.47-3.31-2.88-5.71-5.08-3.67A3.13,3.13,0,0,0,26.55,437l-.93,2.09a3.19,3.19,0,1,0,5.84,2.59Z" style="fill: #a9daf4"/>
    <path d="M62.89,466.44c1.67-3.76-4.17-6.35-5.84-2.59S61.22,470.2,62.89,466.44Z" style="fill: #f4725d"/>
    <path d="M34.48,455.49c1.67-3.76-4.17-6.35-5.84-2.59S32.81,459.25,34.48,455.49Z" style="fill: #ffdd64"/>
    <path d="M451.8,453.23c-4.11,0-4.12,6.39,0,6.39S455.91,453.23,451.8,453.23Z" style="fill: #a9daf4"/>
    <path d="M459.4,449.43c-4.11,0-4.12,6.39,0,6.39S463.52,449.43,459.4,449.43Z" style="fill: #a9daf4"/>
    <path d="M14.69,372.07c-4.11,0-4.12,6.39,0,6.39S18.81,372.07,14.69,372.07Z" style="fill: #a9daf4"/>
    <path d="M709.58,346.77c-4.11,0-4.12,6.39,0,6.39S713.7,346.77,709.58,346.77Z" style="fill: #ffdd64"/>
    <path d="M697,379.11c-4.11,0-4.12,6.39,0,6.39S701.07,379.11,697,379.11Z" style="fill: #a9daf4"/>
    <path d="M717.95,390.87c-4.11,0-4.12,6.39,0,6.39S722.06,390.87,717.95,390.87Z" style="fill: #ffdd64"/>
    <path d="M705,206.09c-4.11,0-4.12,6.39,0,6.39S709.14,206.09,705,206.09Z" style="fill: #f4725d"/>
    <path d="M679.93,205.33c-4.11,0-4.12,6.39,0,6.39S684,205.33,679.93,205.33Z" style="fill: #a9daf4"/>
    <path d="M692.09,172.63c-4.11,0-4.12,6.39,0,6.39S696.21,172.63,692.09,172.63Z" style="fill: #a9daf4"/>
    <path d="M633.54,215.22H615.29c-4.11,0-4.12,6.39,0,6.39h18.25C637.65,221.6,637.66,215.22,633.54,215.22Z" style="fill: #a9daf4"/>
    <path d="M634.49,31.33A3.25,3.25,0,0,0,633,35.59l.66,1.37a3.19,3.19,0,0,0,5.75-2.79l-.66-1.37A3.23,3.23,0,0,0,634.49,31.33Z" style="fill: #a9daf4"/>
    <path d="M658.65,58.5l-16.42,8c-3.7,1.79-.92,7.54,2.79,5.75l16.42-8C665.13,62.45,662.35,56.7,658.65,58.5Z" style="fill: #f4725d"/>
    <path d="M44.68,125.55A71.37,71.37,0,0,1,35,114.6a3.49,3.49,0,0,0,0-.48A15.65,15.65,0,0,0,29.46,102c-3.14-2.6-7.68,1.89-4.52,4.52a9.53,9.53,0,0,1,3.68,7.61,3.44,3.44,0,0,0,0,.47,2.63,2.63,0,0,0,.35,2.66,78.63,78.63,0,0,0,11.15,12.81C43.18,132.84,47.71,128.34,44.68,125.55Z" style="fill: #eaf8f8"/>
    <path d="M708.53,444.07A156.57,156.57,0,0,0,683,419.75c-3.27-2.49-6.45,3.05-3.22,5.51A149.76,149.76,0,0,1,704,448.59C706.64,451.75,711.14,447.21,708.53,444.07Z" style="fill: #eaf8f8"/>
    <path d="M419.47,506.71c-7.79-5.26-17-10.73-26.73-7.8-4.66,1.4-6.43,4.75-10.17,7.3-3.1,2.11-5,.33-7.59-1.54a50.86,50.86,0,0,0-7.17-4.44c-8.33-4.08-17.42-4.17-24.59,2.17-1.71,1.51-3.41,3.93-5.62,4.67-3.18,1.06-5.54-1.79-8.12-3.22a24.14,24.14,0,0,0-14.95-2.69c-4,.53-4.07,6.92,0,6.39,6.62-.87,10.46,1.42,15.91,4.62a10.17,10.17,0,0,0,9.64.84c4-1.75,6.29-5.71,10-7.84,5.64-3.25,12.35-.89,17.48,2.2,6.89,4.16,12.16,10.13,19.55,3.36,4.13-3.79,7.14-6.76,13.18-6.09s11.12,4.31,16,7.59C419.66,514.53,422.86,509,419.47,506.71Z" style="fill: #ffdd64"/>
    <path d="M289.5,62.61,278,44c-2.15-3.5-7.6-.16-5.44,3.35L284.06,66C286.21,69.46,291.65,66.11,289.5,62.61Z" style="fill: #2c8ddd"/>
    <path d="M372.92,20.24c-4.11,0-4.12,6.39,0,6.39S377,20.24,372.92,20.24Z" style="fill: #f4725d"/>
    <path d="M381.26,33.79c-4.11,0-4.12,6.39,0,6.39S385.37,33.79,381.26,33.79Z" style="fill: #2c8ddd"/>
    <path d="M392.72,18.16c-4.11,0-4.12,6.39,0,6.39S396.84,18.16,392.72,18.16Z" style="fill: #2c8ddd"/>
    <path d="M579.7,460.88c-.71,6.32,4.7,10.76,8.62,15l16.24,17.51c2.8,3,7.37-1.45,4.57-4.46l-12.18-13.13c-3.31-3.57-11.45-9.57-10.86-14.82C586.55,456.88,580.16,456.83,579.7,460.88Z" style="fill: #2c8ddd"/>
    <path d="M417.28,466c-2.32-2.52-4.71-5-7.14-7.37a73.82,73.82,0,0,0,6.71-6.32c2.81-3-1.7-7.52-4.52-4.52a69.37,69.37,0,0,1-6.83,6.37c-1.87-1.74-3.75-3.46-5.68-5.14-3.09-2.69-7.62,1.81-4.52,4.52q2.52,2.2,5,4.47a66.62,66.62,0,0,1-17,8.1c-3.91,1.22-2.24,7.39,1.7,6.16A74.08,74.08,0,0,0,405,462.52q4,3.9,7.76,8C415.56,473.54,420.07,469,417.28,466Z" style="fill: #2c8ddd"/>
    <path d="M494.83,61.53l-8.59,22.06L478.55,75c-2.74-3.07-7.25,1.46-4.52,4.52l11,12.34c1.75,2,4.53.66,5.34-1.41L501,63.22C502.48,59.39,496.31,57.73,494.83,61.53Z" style="fill: #2c8ddd"/>
    <path d="M702.23,184.54a187.26,187.26,0,0,1-39.63,8c-4.06.37-4.1,6.76,0,6.39a195.18,195.18,0,0,0,41.33-8.28C707.83,189.46,706.16,183.29,702.23,184.54Z" style="fill: #2c8ddd"/>
    <path d="M709.27,263.69l-18.47-7.14c-3.83-1.48-6.14,4.47-2.3,6L707,269.65C710.8,271.13,713.11,265.17,709.27,263.69Z" style="fill: #2c8ddd"/>
    <path d="M668,432.37c-1.9-13.47-9.44-30.16-25.5-30a17.89,17.89,0,0,0-14.9,8.18c-3.93,6.55-2.14,15.91-2,23.17.13,6-.35,11.8,7,12.42,6.75.56,14.14-2.63,18.83-7.37,4.08-4.12,6.9-10.94,3.11-16.2a10.85,10.85,0,0,0-14.35-2.78c-3.53,2.1-.32,7.62,3.22,5.51,2.18-1.29,5.46-.89,6.4,1.9.83,2.45-1.38,5.48-2.9,7-3.11,3.19-8.14,5.61-12.66,5.51-2.31-.05-1.82.25-2.19-2.2a46.72,46.72,0,0,1-.13-5.75c-.1-4.36-.62-9-.19-13.36,1-9.84,12.07-11.79,19.22-6.88,7.35,5,9.68,14.2,10.85,22.52C662.44,438.12,668.6,436.4,668,432.37Z" style="fill: #2c8ddd"/>
    <path d="M42.7,292.29A200.32,200.32,0,0,0,4.13,278.1c-4-1-5.94,5.07-1.95,6.08a192.65,192.65,0,0,1,37.08,13.5C42.93,299.47,46.39,294.1,42.7,292.29Z" style="fill: #2c8ddd"/>
    <path d="M219.54,505.65a3.27,3.27,0,0,0-3.31-3.08l-8.86-.52a3.22,3.22,0,0,0-3.08,3.31,3.27,3.27,0,0,0,3.31,3.08l8.86.52A3.22,3.22,0,0,0,219.54,505.65Z" style="fill: #ffdd64"/>
    <path d="M145.5,482.9a18.91,18.91,0,0,1-14.36,5.41c-4.1-.17-3.86,6.22.23,6.38a25.2,25.2,0,0,0,18.75-7.38C153.05,484.42,148.42,480,145.5,482.9Z" style="fill: #2c8ddd"/>
    <path d="M169.06,512.36c-4-.95-5.48,5.26-1.48,6.21S173.07,513.31,169.06,512.36Z" style="fill: #2c8ddd"/>
    <path d="M133.62,462.7c-4-.95-5.48,5.26-1.48,6.21S137.62,463.65,133.62,462.7Z" style="fill: #2c8ddd"/>
    <path d="M424.66,260.31a3.71,3.71,0,0,0-.25-3.26Q424.54,258.69,424.66,260.31Z" style="fill: #2c8ddd"/>
    <g>
      <g>
        <path d="M330.24,115.69c-4.11,0-4.12,6.39,0,6.39S334.36,115.69,330.24,115.69Z" style="fill: #2c8ddd"/>
        <path d="M357.88,114.71c-4.11,0-4.12,6.39,0,6.39S362,114.71,357.88,114.71Z" style="fill: #2c8ddd"/>
        <path d="M346.93,129.9c-2.62.51-6.93,2.54-7-.91,0-2.41,1.9-6,2.45-8.45a81.72,81.72,0,0,0,1.89-15.94c.05-2.06-3.14-2.05-3.19,0a77,77,0,0,1-2,16c-1,4-3,7.89-3.45,11.92a1.58,1.58,0,0,0,.79,1.38c3,2,8.21-.35,11.36-1C349.79,132.59,348.94,129.51,346.93,129.9Z" style="fill: #2c8ddd"/>
        <path d="M361.75,132c-3.25,4.19-7.17,8.69-11.82,11.35-6.92,4-14.36-.54-19.62-5.33-1.52-1.38-3.78.87-2.26,2.26,4.67,4.26,11.71,9.07,18.4,7.9,7.11-1.24,13.4-8.58,17.55-13.92C365.26,132.65,363,130.38,361.75,132Z" style="fill: #2c8ddd"/>
      </g>
      <path d="M573.85,184.29a4,4,0,0,0,.77-.65c2.28-2.53,1.2-4.94-.8-6.75a6.51,6.51,0,0,1,.92.21,1.78,1.78,0,0,0-.42-.52,1.62,1.62,0,0,0-1-1.23c-7.33-2.83-16.29-2.37-24-3l-4.47-.39c0,.07,0,.14.05.21q-1.66,0-3.32,0c0-.19,0-.38,0-.58h-.08c1-2.89,2.31-5.65,2.75-8.66.35-2.42.87-6.55-1.07-8.5-1.65-1.66-4.86-1.74-6.79-.48-1.34.87-2,2.33-2.72,3.66a22.63,22.63,0,0,1-4.86,5.81,1.4,1.4,0,0,0-.52,1.2,32.26,32.26,0,0,1-3.19,3.4,8.11,8.11,0,0,1-6.56,2.56,1.64,1.64,0,0,0-.65.1L427,167.65a1.39,1.39,0,0,0-1.29.65q-15.94-1.28-31.94-1.77c-1.17-24.39,5.05-52.44-17.77-68.83a54,54,0,0,0-8.55-5,1.57,1.57,0,0,0-.67-1c-6.33-4.32-13.75-4.8-21.2-4.57-7.2.22-14.44.77-20.56,4.94-12.88,8.77-15.25,25-14.6,39.47a6.12,6.12,0,0,1-1-.33c-.1.24-.19.49-.29.73a6,6,0,0,1,1-.21c-.35,6.9.68,13.66,1.5,20.53.88,7.33.95,14.71,1.1,22.08a57.7,57.7,0,0,1-12.22.75,1.37,1.37,0,0,0-1.28.61c-20.65,1.83-41.35,3.18-62.05,4.16q-65.43,3.1-131,.82a1.61,1.61,0,0,0-.81,3l13.6,6.66a48.12,48.12,0,0,0-15.32,3.85,1.61,1.61,0,0,0,0,2.76l21.16,10.75-13.43,7.94a1.45,1.45,0,0,0-.45.45c1,.15,2,.26,3.05.37a1.23,1.23,0,0,0,1.15,1.33c15.71,2.12,31.39.88,47.13-.23,16.5-1.16,33-1.34,49.52-1,30.94.62,61.93,2.46,92.8-.17q1.83,84.82.92,169.67c-4.5.44-8.45,2.38-12.56,4.37-4.74,2.3-9.88,4.22-13.16,8.54-1.76,2.32-5,6.5-3.6,9.7.94,2.09,2.91,2.56,4.91,2.44l0,.08q30.28-2.68,60.66-4.09a1.66,1.66,0,0,0,.59-.14,1.71,1.71,0,0,0,1.85-1.52q5.46-52.65,14.13-104.89a1.64,1.64,0,0,0-.14-1,128.18,128.18,0,0,0,18.18-.65q4.44,52.33,11,104.46a1.64,1.64,0,0,0,1.6,1.6l5,.06a1.43,1.43,0,0,0,1.45-1q26.71-1.66,53.49-.69c0-.1,0-.19.06-.29a.81.81,0,0,1,0-.23c.43-.06.87-.12,1.32-.19,1.31-.22,1.37-1.84.7-2.67q-.55-.68-1.12-1.34c.06-.1.1-.2.16-.29-1.16-1.11-2.36-2.17-3.58-3.2a37.79,37.79,0,0,0-4.81-3.73c-1.84-1.33-3.72-2.6-5.67-3.76a6,6,0,0,1-.4,1c-4.55-1.56-10.06-3.29-10.71-6.59a1.35,1.35,0,0,0-.72-1q-5.45-74.79-8.54-149.73s0-.06,0-.09a1.29,1.29,0,0,0,.41-1.17l-1.49-13.71a1.47,1.47,0,0,0,.14-.51,1.21,1.21,0,0,0,.57-1.29v0l-.53,0-.22,0a33.23,33.23,0,0,1-.68-6.55l6.3-.76c0,.06,0,.11,0,.17,43.69-6.25,87.94-5.2,131.82-1.22a1.74,1.74,0,0,0,.47.08l.73,0,1.3.12,0-.07c4.36.21,8.94.69,13.2.25a5.07,5.07,0,0,0,4.76-4.79c.18-2.82-1.34-4.79-3.6-6.18,5.21-.39,9.73-1.9,10.25-6C579.37,186.38,576.48,185,573.85,184.29Zm-.45,6.54c-2.34,1.79-7,1.26-9.84,1.22-3.54-.05-7.06-.31-10.58-.66-2.1-.21-2.09,3.08,0,3.29l.24,0a1.52,1.52,0,0,0,.68.28c2.5.39,14.31,1.54,14.68,4.95l-2.23,3.3-2.1-.05-3.5-.08-8.4-.2a1.78,1.78,0,0,0-.39,0c-43.32-3.92-87-4.93-130.13,1a1.46,1.46,0,0,0-.71-.08l-10.54,1.27c-2,.24-2,3.39,0,3.19a36.87,36.87,0,0,0,.4,4.89l0,0L412.72,230s0,.09,0,.13a1.41,1.41,0,0,0-.43,1.13q3.13,75.88,8.68,151.63a1.59,1.59,0,0,0,1.15,1.45c1.52,3.65,5.47,4.53,9.23,5.72a34.33,34.33,0,0,1,9.5,4.75c.9.67,1.77,1.37,2.64,2.09a38.9,38.9,0,0,1,3.11,3,15.94,15.94,0,0,1-2.74-.11,1.49,1.49,0,0,0-.78.15q-25.24-.64-50.46,1a6.6,6.6,0,0,1,.12.83l-2.47,0q-6.42-51.52-10.8-103.25l2.25-.31c2-.3,1.16-3.38-.85-3.08l-2,.27a1.65,1.65,0,0,0-2.66.32,125.83,125.83,0,0,1-21.57.46c-2.05-.13-2,3.06,0,3.19l.66,0a1.71,1.71,0,0,0-.08.3q-8.61,51.89-14.08,104.23-28.62,1.33-57.16,3.81a1.52,1.52,0,0,0-1.14-.14q-4.72-1.4-2.21-4.11a22.4,22.4,0,0,1,2.8-3.92c2.14-2.21,4.94-3.37,7.64-4.69,5.15-2.52,10.3-5.69,16.19-5.74a1.59,1.59,0,0,0,1.44-2.22q.93-85.43-.92-170.85c1.08-.1,2.16-.2,3.23-.31,2-.22,2-3.41,0-3.19-1.17.12-2.34.23-3.51.34a1.64,1.64,0,0,0-2.89.27c-30.19,2.58-60.5.88-90.76.22-15.85-.35-31.7-.34-47.52.69s-31.79,2.69-47.65.95L128.95,209a1.61,1.61,0,0,0,0-2.76l-20.57-10.45a44.44,44.44,0,0,1,17.33-2.31,1.61,1.61,0,0,0,.81-3l-13-6.36q57.09,1.7,114.2-.62,30.36-1.26,60.66-3.67c4.66-.37,10.8-.37,16.89-1-.09-.15-.15-.31-.22-.46a62.21,62.21,0,0,0,9.69-1.06,1.61,1.61,0,0,0,1.17-1.54c-.18-7.82-.2-15.65-1.13-23.43a149.24,149.24,0,0,1-1.56-17.61,1.36,1.36,0,0,0,.46-1.18c-.87-13.76.52-30,12.92-38.64,5.61-3.89,12.34-4.31,18.95-4.5a47,47,0,0,1,11.78.81c-.9.08-1.8.17-2.69.27l1.68.5c15.14,4.68,28.15,13.59,32.39,29.64,3.84,14.54,1.24,29.94,1.86,44.85h-.34c-2.06,0-2.05,3.14,0,3.19l.53,0c0,.31,0,.62.06.92.18,2,3.37,2.05,3.19,0,0-.28,0-.56-.06-.83q18,.53,35.95,2.11a5.77,5.77,0,0,1-.32-.91l89.87,2.9v-.05a10,10,0,0,0,6.6-2.43,35.71,35.71,0,0,0,6.41-7l0,0a23.78,23.78,0,0,0,3-3.53,31.4,31.4,0,0,1,1.8-3.13c2.33-2.61,3.44-1,3.83.93.79,4.05-1.61,8.42-3,12.53l-.32-.11a15.82,15.82,0,0,1-.92,2.61l0,0a6.18,6.18,0,0,0,3.15,1.87l.12-.08a1.83,1.83,0,0,0,.35,0c2.14,0,4.28,0,6.43.1a1.58,1.58,0,0,0,.73-.13c6.37.53,13.72.38,20.21,1.78a1.78,1.78,0,0,0,.41.21c1.56.54,6.52,2.39,2.51,4.55-1,.56-3.79.07-5,.09l-10.79.14a1.62,1.62,0,0,0-.8.21h-.38a1.65,1.65,0,0,0,0,3.29c3.49,0,7,.18,10.46.53q2.82.28,5.62.73,1.29.2,2.58.44Q576.56,190.14,573.4,190.83Z" style="fill: #005596"/>
    </g>
    <path d="M311.38,450.43c-.51-10.13-3.28-17-13.56-20-17.85-5.21-38.11,1.62-40,22.23a40,40,0,0,0-.07,6.06,13.26,13.26,0,0,0,.49,4.42c1,5.82,3.14,11.56,6.65,15.78,6,7.15,15.61,6.54,23.65,3.68a22.91,22.91,0,0,0,15.87-6C311.37,470.23,311.82,459.21,311.38,450.43Z" style="fill: #cbe8f4"/>
    <path d="M327.79,465.81a129,129,0,0,0-28.72-14.76c-2.36-.84-4.38-1.52-5.93.82-2.47,3.72-1.74,11.45-1.52,15.58a2.06,2.06,0,0,0,.68,1.47,2,2,0,0,0,1.89,1.34,293.37,293.37,0,0,0,32.53-.48A2.15,2.15,0,0,0,327.79,465.81Zm-32,.23c-.06-1.55-.08-3.09,0-4.65,0-.62.19-6.73.36-6.87.94-.75,10,4,10.76,4.35a128.45,128.45,0,0,1,13.07,7Q307.93,466.47,295.82,466Z" style="fill: #2c8ddd"/>
    <path d="M326,540.68c-2.74,0-2.74,4.26,0,4.26S328.76,540.68,326,540.68Z" style="fill: #2c8ddd"/>
    <path d="M477.58,535.48A46.39,46.39,0,0,1,468.2,519c-.85-2.59-5-1.48-4.11,1.13a51.73,51.73,0,0,0,10.48,18.33C476.39,540.56,479.39,537.53,477.58,535.48Z" style="fill: #2c8ddd"/>
    <path d="M249,537.73a105.67,105.67,0,0,1-6.25,15.67c-1.21,2.45,2.46,4.61,3.68,2.15a112.73,112.73,0,0,0,6.68-16.69C253.88,536.23,249.77,535.11,249,537.73Z" style="fill: #f4725d"/>
    <path d="M358.36,484.41c-2.74,0-2.74,4.26,0,4.26S361.1,484.41,358.36,484.41Z" style="fill: #f4725d"/>
    <path d="M231.58,426.19c-2.74,0-2.74,4.26,0,4.26S234.32,426.19,231.58,426.19Z" style="fill: #f4725d"/>
    <g>
      <path d="M585.77,227.23h4.34c-.4-3.49-1-6.94-1.72-10.23-.57-2.68-4.68-1.55-4.11,1.13S585.41,224,585.77,227.23Z" style="fill: #a9daf4"/>
      <path d="M585.4,243.07c1.22,1,2.41,2,3.62,3a42.59,42.59,0,0,0,1.49-13.46h-4.35A45.88,45.88,0,0,1,585.4,243.07Z" style="fill: #a9daf4"/>
      <path d="M583.7,248.62a18.8,18.8,0,0,1-11.52,10.84c-.42.15-.84.27-1.26.38a40.19,40.19,0,0,0,.42,4.12,20.81,20.81,0,0,0,9.94-5.22,26.66,26.66,0,0,0,5.65-7.4C585.85,250.46,584.78,249.53,583.7,248.62Z" style="fill: #a9daf4"/>
      <path d="M473.14,230.17v4.23c6.52-.7,13.08-1.88,19.63-2.14v-4.33C486.24,228.17,479.67,229.44,473.14,230.17Z" style="fill: #a9daf4"/>
      <path d="M457,230a24.72,24.72,0,0,0,5.15-4.95,2.75,2.75,0,0,0,0-3.76,2.68,2.68,0,0,0-3.76,0,21.55,21.55,0,0,1-8.47,6.65,2.32,2.32,0,0,0-1.27,2,2.19,2.19,0,0,0,0,2.67,80.19,80.19,0,0,1,5.61,9.44c1.55,3.06,6.14.37,4.6-2.69q-1.34-2.65-2.87-5.18a48.61,48.61,0,0,0,11.72.68v-4.21A45.14,45.14,0,0,1,457,230Z" style="fill: #a9daf4"/>
      <path d="M498.32,228h-.12v4.28c.92.05,1.83.13,2.75.23a65.35,65.35,0,0,1,18.54,5.07,28.44,28.44,0,0,0,.38-4.46A70.58,70.58,0,0,0,498.32,228Z" style="fill: #a9daf4"/>
      <path d="M533.64,240.78a66.44,66.44,0,0,0-8.47-5.19,27.64,27.64,0,0,1-.73,4.44c.64.35,1.28.69,1.91,1.06a84,84,0,0,1,11.5,8.56q1.05-1.89,2.07-3.79C537.76,244,535.67,242.24,533.64,240.78Z" style="fill: #a9daf4"/>
      <path d="M544.14,249.48q-1,1.87-2.06,3.73c1.35,1.12,2.7,2.22,4.1,3.27a47.76,47.76,0,0,0,4.25,2.85c.48-1.31.93-2.64,1.32-4A84.44,84.44,0,0,1,544.14,249.48Z" style="fill: #a9daf4"/>
      <path d="M555.26,261.8a30.24,30.24,0,0,0,10.68,2.6c-.19-1.3-.31-2.61-.39-3.92a22.55,22.55,0,0,1-9-2.39Q556,260,555.26,261.8Z" style="fill: #a9daf4"/>
    </g>
    <g>
      <path d="M160.69,82.82q1.1-1.18,2.27-2.3a43.52,43.52,0,0,1-3.34-6.63c-.75-1.89-3.84-1.06-3.08.85A50.24,50.24,0,0,0,160.69,82.82Z" style="fill: #a9daf4"/>
      <path d="M185.15,97.9a26,26,0,0,1-9.26-4.09q-1.16,1.41-2.28,2.85a25.43,25.43,0,0,0,11.54,4.51Z" style="fill: #a9daf4"/>
      <path d="M195,98c-.24-.86-.49-1.71-.76-2.56a12,12,0,0,1-4.56,2.33V101a14.64,14.64,0,0,0,5.56-2.43A2.37,2.37,0,0,1,195,98Z" style="fill: #a9daf4"/>
      <path d="M220.82,70.92q-.13-1-.26-2A41.87,41.87,0,0,0,215,72.57c.35,1,.73,2,1.14,2.94A37.24,37.24,0,0,1,219.74,73c.49-.3,1-.59,1.5-.87A3.09,3.09,0,0,1,220.82,70.92Z" style="fill: #a9daf4"/>
      <path d="M237.61,64.41a32.3,32.3,0,0,0-6,.55,36.13,36.13,0,0,0-6.73,1.93c.11,1.1.24,2.21.39,3.31a34.22,34.22,0,0,1,12.39-2.64Z" style="fill: #a9daf4"/>
      <path d="M253.32,68.7a35.82,35.82,0,0,0-11.22-3.94v3.06a27.91,27.91,0,0,1,8,2.29c1.13.52,2.22,1.11,3.29,1.74C253.36,70.8,253.34,69.75,253.32,68.7Z" style="fill: #a9daf4"/>
      <path d="M266.33,77.09c-2.88-2-5.66-4-8.47-5.75,0,1.12,0,2.24-.06,3.36,2.24,1.58,4.42,3.25,6.63,4.88A19.86,19.86,0,0,0,266.33,77.09Z" style="fill: #a9daf4"/>
      <path d="M278.12,83.36A34.69,34.69,0,0,1,270,79.6a24.41,24.41,0,0,1-1.92,2.55c.51.34,1,.69,1.53,1a33.58,33.58,0,0,0,8,3.59Q277.94,85.06,278.12,83.36Z" style="fill: #a9daf4"/>
      <path d="M291,84.1a40.8,40.8,0,0,1-2.64-4.26c-.92-1.7-3.51-.18-2.59,1.51A41.57,41.57,0,0,0,288,84.93l0,0a42,42,0,0,1-5.48-.56q-.19,1.67-.44,3.33a42.12,42.12,0,0,0,5.19.48A14.92,14.92,0,0,0,284.66,93c-.66,1.82,2.23,2.6,2.89.8a10.08,10.08,0,0,1,2.94-4.31c.84-.71,1.9-1.13,2-2.33S291.67,85,291,84.1Z" style="fill: #a9daf4"/>
      <path d="M211.42,75.69a72.43,72.43,0,0,0-5.23,5.51c.85.58,1.68,1.19,2.51,1.8,1.26-1.52,2.58-3,4-4.37C212.23,77.66,211.81,76.68,211.42,75.69Z" style="fill: #a9daf4"/>
      <path d="M203.37,84.62q-2,2.46-3.83,5c-.57.76-1.16,1.54-1.79,2.3.39,1.16.77,2.32,1.12,3.48.89-.94,1.73-1.94,2.52-3,1.56-2,3-4,4.55-6C205.09,85.83,204.24,85.21,203.37,84.62Z" style="fill: #a9daf4"/>
      <path d="M170.08,93.92c.72-.93,1.45-1.85,2.2-2.76a41.71,41.71,0,0,1-6.74-6.91c-.76.76-1.51,1.54-2.23,2.34A48.15,48.15,0,0,0,170.08,93.92Z" style="fill: #a9daf4"/>
    </g>
    <path d="M256.23,352.51a26.07,26.07,0,0,1-4.31-9.2,2.14,2.14,0,0,0-3.13-1.27,91.67,91.67,0,0,1-11.06,6.4,1.79,1.79,0,0,0-1,2.34,1.94,1.94,0,0,0,1.25,2.94c2.5.56,5,1,7.51,1.31a212.1,212.1,0,0,0-4.66,44.7c0,2.74,4.26,2.74,4.26,0a207.59,207.59,0,0,1,4.66-44.26c1.53.12,3.06.2,4.6.24S257.2,353.84,256.23,352.51Z" style="fill: #a9daf4"/>
    <path d="M538.15,22.49l-58-.54c-7.15-.07-14.55-2-18.65,5-3,5-5.61,10.36-8.14,15.7-2.13-.91-4.28-1.77-6.47-2.57-1.84-.66-3,1.4-2.48,2.91a1.7,1.7,0,0,0-.2,1.77c.88,2.24,1.48,5.73,3.24,7.7l-.3,2.72c-.18,1.62,1.94,2.64,3.2,1.84a28.05,28.05,0,0,1,9.93-3.92,1.74,1.74,0,0,0,1.5-1.4l.93-.09c2-.15,3.06-2.89,1.07-4s-4.27-2.21-6.44-3.22q2.94-6,6-11.87c.72-1.37,1.42-3.69,2.58-4.79,2.26-2.14,5.29-1.6,8-1.57l13.46.13,50.74.47C540.89,26.77,540.89,22.52,538.15,22.49ZM450.43,46l1.14.49-.46,1Z" style="fill: #a9daf4"/>
    <path d="M693.7,493.7c-1.41-3.87-5.18-5-7.23-8.36-1.64-2.72-1-6.93-4.39-8.34-3.17-1.33-6.21,1.79-8.77,3.31a93.64,93.64,0,0,1-15.54,7.32c-2.48.91-3.29,4.38-.76,5.84,1.87,1.08,5.81,2.45,7.23,4.13a3.41,3.41,0,0,0-.14.45c-.3,1.45-.71,2.93-1,4.42-.16.3-.29.62-.45.92a3.07,3.07,0,0,0,0,3c0,.16,0,.31,0,.47a3.21,3.21,0,0,0,1.58,2.76,33.35,33.35,0,0,0,13,3.15c2.43,0,4-1,4.59-3.42.41-1.77-1.22-9.09-.65-9.55s4.43-.16,5.44-.37a22.79,22.79,0,0,0,5.6-2.1A3.2,3.2,0,0,0,693.7,493.7Zm-17.59,1.87C675,497,675,498.7,675,500.47c0,1.43.19,2.88.28,4.31,0,.23,0,.78,0,1.37a33.06,33.06,0,0,1-6.17-1.36c1.51-2.68,3.45-6.24,2.57-8.85-.69-2.05-2.91-3.62-5.33-4.93,1.55-.68,3.09-1.39,4.61-2.16,2.87-1.45,5.58-3.41,8.41-5,.77,2,2.1,5.55,2.39,6a20.57,20.57,0,0,0,3.32,2.94C681.77,493.13,678,493,676.11,495.57Z" style="fill: #cbe8f4"/>
    <path d="M375.27,205.59a.36.36,0,0,1,0-.1,9.9,9.9,0,0,0-.87-1.76c-1.82-2.9-4.83-3.74-7.72-4.31l-.29-.06a4,4,0,0,0-2,1.29,10,10,0,0,0-2.37,4.51.48.48,0,0,1-.65.3c-1.47-1.78-3-3.86-5.36-4.52a5.75,5.75,0,0,0-3.64.12,10,10,0,0,0-1.88,1,9.17,9.17,0,0,0-1.89,2.48,12.5,12.5,0,0,0-1.26,5.11c.24.49.54,1,.82,1.45.52.88,1,1.8,1.45,2.7a17.76,17.76,0,0,0,3.88,5c1.49,1.34,3.1,2.53,4.64,3.82a32.88,32.88,0,0,0,4.11,3.13l.35,0a.6.6,0,0,0,.43-.11,14,14,0,0,0,3.67-4.13l3.63-5.45c1.17-1.76,2.37-3.5,3.51-5.28a6.45,6.45,0,0,0,1.11-2.82A6.71,6.71,0,0,0,375.27,205.59Z" style="fill: #f4725d"/>
    <path d="M337.36,205.41a14.14,14.14,0,0,1-6.06-1.75c-1.69-.93-3.21,1.66-1.51,2.59a17.65,17.65,0,0,0,7.57,2.16C339.29,208.52,339.28,205.52,337.36,205.41Z" style="fill: #a9daf4"/>
    <path d="M351.34,195.2a36.11,36.11,0,0,0-5.58-6.54c-1.42-1.3-3.55.81-2.12,2.12a32.81,32.81,0,0,1,5.11,5.93C349.82,198.32,352.42,196.82,351.34,195.2Z" style="fill: #a9daf4"/>
    <path d="M362.61,182.23a24.62,24.62,0,0,0-.72,8.34c.16,1.91,3.17,1.93,3,0a22.12,22.12,0,0,1,.62-7.55A1.5,1.5,0,0,0,362.61,182.23Z" style="fill: #a9daf4"/>
    <path d="M381.43,184.47a47.83,47.83,0,0,0-5,6.75c-1,1.65,1.58,3.16,2.59,1.51a43.36,43.36,0,0,1,4.54-6.14C384.83,185.15,382.71,183,381.43,184.47Z" style="fill: #a9daf4"/>
    <path d="M385.71,204.69a22.17,22.17,0,0,1-5.39,1c-1.92.12-1.93,3.12,0,3a25.49,25.49,0,0,0,6.18-1.14C388.34,207,387.56,204.1,385.71,204.69Z" style="fill: #a9daf4"/>
    <path d="M359,216.63a1.51,1.51,0,0,0-1.5-1.5,4,4,0,0,0-3.23,1.69,50.26,50.26,0,0,0-4.63,3.54c-2.44,1.78-5,3.46-7.52,5.08a1.52,1.52,0,0,0-.3,2.36,13.14,13.14,0,0,0,3.93,2.51,1.64,1.64,0,0,0-.14.19c-1.19,2-3.24,4.13-3.43,6.48-.38.13-.7.37-.95,1.17a1.51,1.51,0,0,0,.69,1.69c2,1,3.44,1.6,5.28.2a15.67,15.67,0,0,0,4.65-6.47A9.05,9.05,0,0,0,355,235a1.55,1.55,0,0,0,1.85-1,16,16,0,0,0,.24-6.79A38.55,38.55,0,0,0,359,216.63Z" style="fill: #fff"/>
    <path d="M355.63,216.28c-2.17,2.6-4.24,5.26-6.26,8,0-1.41-2.36-1.88-3-.29q-2.45,6.12-5.18,12.11a1.5,1.5,0,0,0,2.59,1.51q1.53-2.41,3.13-4.76a1.7,1.7,0,0,0,1.81.77,1.6,1.6,0,0,0,2.85-.8c.47-4.6,5.82-7.31,5.6-12a1.39,1.39,0,0,0-.08-.39,9.59,9.59,0,0,0,1.06-2.61C358.44,216.4,356.66,215,355.63,216.28Z" style="fill: #fff"/>
    <path d="M359.65,212.58a1.27,1.27,0,0,0-1.43.06q-9.77,6.41-19.81,12.41a1.53,1.53,0,0,0,.44,2.77l4.47,3.56a25.39,25.39,0,0,0-4.57,6.56c-.92,2.22.21,3.41,2.26,4.1s5.17,1.84,6.72-.06a18.16,18.16,0,0,0,1.5-3.05,26,26,0,0,1,2-3.19,30.84,30.84,0,0,0,5.58,1.86,1.9,1.9,0,0,0,2-1.7,202.73,202.73,0,0,1,1.88-21.55A1.63,1.63,0,0,0,359.65,212.58Zm-3.71,21.68a27.46,27.46,0,0,1-3.86-1.44,1.3,1.3,0,0,0-2.2-.24,31.48,31.48,0,0,0-2.72,3.87c-.43.73-.81,1.49-1.17,2.26q-.23.49-.44,1-.07.69-.53.21a5.73,5.73,0,0,1-2.42-.53c-1.26-.57-.93-.73-.22-1.89a34.27,34.27,0,0,1,3.4-4.38,1.48,1.48,0,0,0,.28-1.54,1.23,1.23,0,0,0-.1-1.91l-4-3.23q7.85-4.73,15.54-9.73Q356.32,225.45,355.93,234.26Z" style="fill: #a9daf4"/>
    <path d="M335.26,248.18c-4.63,8.3-10.36,16.71-20.82,17.16-10.07.43-18.81-5.37-27.36-9.85-14.65-7.67-30.59-9-45.46-1-1.7.92-.19,3.51,1.51,2.59a42,42,0,0,1,30.19-4c9.53,2.4,17.42,8.57,26.43,12.25,7.22,2.95,15.63,4.44,23,1.13,7.13-3.21,11.44-10.19,15.1-16.75C338.79,248,336.2,246.49,335.26,248.18Z" style="fill: #a9daf4"/>
  </g>
</svg>
