<svg xmlns="http://www.w3.org/2000/svg" width="4.28in" height="4.26in" viewBox="0 0 308.06 306.65">
  <title>adair-logo</title>
  <path d="M168,216.94,61.52,217C62,217,114,125.35,114,125.35L133.42,157l27.55.1-32.74-56.26h52.13c24.39,38,46,77.28,69,116.07h-52L168,168.55a214.54,214.54,0,0,0-27.27,0Zm132.23,39.33c-13,8.92-68.64,42.57-68.64,42.57H77.22L8.21,254l-.36-79.86L82.54,48.31l70.83-40.5,70.13,39.07,76.68,128ZM137.64,61.71H170L153.62,34.34ZM259.42,210.83l-83.5-139.3h-44L50.35,211.24l20.48,34.09,167.84.05Zm-9.31,34.55h30l-15-25ZM45.23,220,30.45,245.31h30ZM19.33,178.48l-.08.13-.09.15Zm.32,65.89,7.28-12.46-4.21-2.44L25.88,224l4.23,2.45,1.13-1.94-9.95-5.71,3.45-6,10,5.72,1.73-3-6-3.46,3.16-5.45,6,3.46,1.73-3L22.66,196.37l3.45-5.95,18.7,10.85,1.73-3-6-3.48,3.17-5.45,6,3.49,1.73-3-11-6.39,3.45-5.95,11,6.4,1.73-3-6-3.51,3.16-5.45,6.06,3.52,1.73-3L42.78,161.71l3.45-5.95L65,166.67l1.73-3-6.09-3.53,3.16-5.45,6.11,3.54,1.73-3-11.11-6.44L64,142.91l11.12,6.45,1.73-3-6.14-3.56,3.16-5.45L80,141l1.73-3L62.88,127.06l3.45-5.95,18.88,11,1.73-3-6.18-3.59,3.16-5.45,6.2,3.6,1.73-3-11.2-6.5,3.45-5.94,11.22,6.5,1.73-3-6.23-3.62L94,102.74l6.24,3.62,1.73-3-19-11,3.45-5.95,19,11,1.73-3-6.28-3.64L104,85.41l6.29,3.65,1.73-3-11.29-6.55,3.45-5.95,11.31,6.56,1.73-3-6.32-3.67,3.16-5.45,6.34,3.67,1.73-3L103.11,57.74l3.45-5.95,19.07,11.06,1.73-3L121,56.2l3.16-5.45,6.39,3.7,1.73-3-11.38-6.6,3.45-5.95,11.4,6.61,1.73-3L131,38.87l3.17-5.45,6.43,3.73,7.76-13.29L90.87,56.75,19.93,177.46C19.7,184.29,19.64,218.94,19.66,244.37ZM283.57,255.2H265.9v6.43h-6.3v-6.43h-3.43v12.2h-6.88v-12.2h-3.43v6.43h-6.3v-6.43h-3.42V276.3h-6.87V255.18h-3.43v6.43h-6.3v-6.43H216.1v12.2h-6.88V255.17h-3.43v6.42h-6.3v-6.43h-3.43v21.12h-6.87V255.17h-3.43v6.43h-6.3v-6.42H176v12.2h-6.87v-12.2h-3.43v6.43h-6.3v-6.42H156v21.12h-6.87V255.15h-3.43v6.43h-6.3v-6.43H136v12.2h-6.87v-12.2h-3.43v6.43h-6.3v-6.43h-3.43v21.12H109V255.14h-3.43v6.42h-6.3v-6.43H95.88v12.19H89V255.14H85.58v6.43h-6.3v-6.43H75.85v21.11H69V255.13H65.54v6.42h-6.3v-6.43H55.81v12.19H48.93V255.12H45.51v6.42H39.2v-6.42H23.74c.4.6,57,32.27,57,32.27H227.61C234,283.83,271.15,263,283.57,255.2Zm5.16-75.13L215.25,55.47c-9.64-5.16-56.7-31.72-56.7-31.72l7.89,13.15,6-3.61,3.24,5.41-6,3.61,1.76,2.94,11-6.57,3.53,5.9-11,6.57,1.77,2.94,6-3.6L186,55.88l-6,3.6,1.76,2.94,18.61-11.15,3.53,5.9L185.3,68.32l1.76,2.94,6-3.59,3.24,5.41-6,3.59,1.76,2.94L203,73l3.53,5.9L195.61,85.5l1.77,2.94,6-3.59,3.24,5.41-6,3.59,1.77,2.94L221,85.65l3.53,5.9-18.58,11.13,1.76,2.94,6-3.58,3.24,5.41-6,3.58,1.76,2.94,10.93-6.54,3.53,5.9-10.92,6.54L218,122.8l6-3.57,3.24,5.41-6,3.57,1.76,2.94L241.56,120l3.53,5.9L226.54,137,228.3,140l6-3.57,3.24,5.41-6,3.57,1.76,2.94,10.9-6.53,3.53,5.9-10.9,6.53,1.76,2.94,5.94-3.56,3.24,5.41-5.94,3.56,1.76,2.94,18.54-11.11,3.53,5.9-18.54,11.11,1.76,2.94,5.93-3.56,3.24,5.41-5.93,3.55,1.76,2.94,10.87-6.52,3.54,5.9-10.87,6.52,1.76,2.94,5.92-3.55,3.24,5.41-5.92,3.55,1.76,2.94,18.52-11.1,3.53,5.9-18.52,11.1,1.76,2.94,5.91-3.54,3.24,5.41-5.9,3.54,1.76,2.94,9.52-5.68,3.53,5.9-9.51,5.67,1.16,1.93,4.21-2.52,3.24,5.41-4.21,2.52L289,241.15C289,225.27,288.88,199.55,288.74,180.07Z" style="fill: #d0d7d7"/>
</svg>
